<?xml version="1.0" encoding="UTF-8" standalone="no"?>
<!DOCTYPE svg PUBLIC "-//W3C//DTD SVG 1.1//EN"
"http://www.w3.org/Graphics/SVG/1.1/DTD/svg11.dtd">
<svg viewBox="0 0 909 1286" version="1.1" xmlns="http://www.w3.org/2000/svg" xmlns:xlink="http://www.w3.org/1999/xlink">
<defs>
<style type="text/css"><![CDATA[
.g0_38{
}
]]></style>
</defs>
<g fill="#000000" >
<use xlink:href="#f0_1c" transform="matrix(18,0,0,18,300.1,121.2)" />
<use xlink:href="#f0_25" transform="matrix(18,0,0,18,316.9,121.2)" />
<use xlink:href="#f0_2a" transform="matrix(18,0,0,18,326.1,121.2)" />
<use xlink:href="#f0_21" transform="matrix(18,0,0,18,343,121.2)" />
<use xlink:href="#f0_1x" transform="matrix(18,0,0,18,356.8,121.2)" />
<use xlink:href="#f0_2e" transform="matrix(18,0,0,18,370.5,121.2)" />
<use xlink:href="#f0_1g" transform="matrix(18,0,0,18,387.9,121.2)" />
<use xlink:href="#f0_2e" transform="matrix(18,0,0,18,404.7,121.2)" />
<use xlink:href="#f0_2b" transform="matrix(18,0,0,18,415.4,121.2)" />
<use xlink:href="#f0_23" transform="matrix(18,0,0,18,430.7,121.2)" />
<use xlink:href="#f0_2e" transform="matrix(18,0,0,18,445.9,121.2)" />
<use xlink:href="#f0_1x" transform="matrix(18,0,0,18,456.6,121.2)" />
<use xlink:href="#f0_29" transform="matrix(18,0,0,18,470.4,121.2)" />
<use xlink:href="#f0_29" transform="matrix(18,0,0,18,494.8,121.2)" />
<use xlink:href="#f0_25" transform="matrix(18,0,0,18,519.2,121.2)" />
<use xlink:href="#f0_2a" transform="matrix(18,0,0,18,528.3,121.2)" />
<use xlink:href="#f0_23" transform="matrix(18,0,0,18,545.1,121.2)" />
</g>
<path fill-rule="evenodd" d="M300.1,126.5H560.6v-1.7H300.1v1.7Z" class="g0_38" />
<g fill="#000000" >
<use xlink:href="#f1_16" transform="matrix(12,0,0,12,55,161)" />
<use xlink:href="#f1_2b" transform="matrix(12,0,0,12,65.2,161)" />
<use xlink:href="#f1_2e" transform="matrix(12,0,0,12,75.3,161)" />
<use xlink:href="#f1_1g" transform="matrix(12,0,0,12,87.2,161)" />
<use xlink:href="#f1_28" transform="matrix(12,0,0,12,98.2,161)" />
<use xlink:href="#f1_2b" transform="matrix(12,0,0,12,103.5,161)" />
<use xlink:href="#f1_2g" transform="matrix(12,0,0,12,113.4,161)" />
<use xlink:href="#f1_2g" transform="matrix(12,0,0,12,119.5,161)" />
<use xlink:href="#f1_25" transform="matrix(12,0,0,12,125.5,161)" />
<use xlink:href="#f1_2a" transform="matrix(12,0,0,12,130.8,161)" />
<use xlink:href="#f1_23" transform="matrix(12,0,0,12,141.4,161)" />
<use xlink:href="#f1_2g" transform="matrix(12,0,0,12,156.3,161)" />
<use xlink:href="#f1_24" transform="matrix(12,0,0,12,162.3,161)" />
<use xlink:href="#f1_21" transform="matrix(12,0,0,12,173,161)" />
<use xlink:href="#f1_15" transform="matrix(12,0,0,12,186.3,161)" />
<use xlink:href="#f1_2d" transform="matrix(12,0,0,12,197.5,161)" />
<use xlink:href="#f1_2h" transform="matrix(12,0,0,12,207.8,161)" />
<use xlink:href="#f1_1x" transform="matrix(12,0,0,12,218.8,161)" />
<use xlink:href="#f1_2g" transform="matrix(12,0,0,12,227.9,161)" />
<use xlink:href="#f1_25" transform="matrix(12,0,0,12,234,161)" />
<use xlink:href="#f1_2b" transform="matrix(12,0,0,12,239.1,161)" />
<use xlink:href="#f1_2a" transform="matrix(12,0,0,12,249.2,161)" />
<use xlink:href="#f1_c" transform="matrix(12,0,0,12,264.4,161)" />
<use xlink:href="#f1_m" transform="matrix(12,0,0,12,270.4,161)" />
<use xlink:href="#f1_d" transform="matrix(12,0,0,12,279.6,161)" />
<use xlink:href="#f1_g" transform="matrix(12,0,0,12,285.7,161)" />
<use xlink:href="#f2_3d" transform="matrix(12,0,0,12,82.5,196.7)" />
<use xlink:href="#f1_1c" transform="matrix(12,0,0,12,110,196.7)" />
<use xlink:href="#f1_21" transform="matrix(12,0,0,12,121.2,196.7)" />
<use xlink:href="#f1_2g" transform="matrix(12,0,0,12,130,196.7)" />
<use xlink:href="#f1_2k" transform="matrix(12,0,0,12,140.6,196.7)" />
<use xlink:href="#f1_x" transform="matrix(12,0,0,12,154.7,196.7)" />
<use xlink:href="#f1_k" transform="matrix(12,0,0,12,170.5,196.7)" />
<use xlink:href="#f1_g" transform="matrix(12,0,0,12,179.6,196.7)" />
<use xlink:href="#f1_18" transform="matrix(12,0,0,12,188.8,196.7)" />
<use xlink:href="#f1_21" transform="matrix(12,0,0,12,204.1,196.7)" />
<use xlink:href="#f1_2a" transform="matrix(12,0,0,12,212.9,196.7)" />
<use xlink:href="#f1_1z" transform="matrix(12,0,0,12,223.5,196.7)" />
<use xlink:href="#f1_21" transform="matrix(12,0,0,12,231.5,196.7)" />
<use xlink:href="#f1_2j" transform="matrix(12,0,0,12,244.9,196.7)" />
<use xlink:href="#f1_21" transform="matrix(12,0,0,12,260.1,196.7)" />
<use xlink:href="#f1_23" transform="matrix(12,0,0,12,273.5,196.7)" />
<use xlink:href="#f1_21" transform="matrix(12,0,0,12,283.8,196.7)" />
<use xlink:href="#f1_2g" transform="matrix(12,0,0,12,292.4,196.7)" />
<use xlink:href="#f1_2g" transform="matrix(12,0,0,12,303,196.7)" />
<use xlink:href="#f1_24" transform="matrix(12,0,0,12,309,196.7)" />
<use xlink:href="#f1_21" transform="matrix(12,0,0,12,319.7,196.7)" />
<use xlink:href="#f1_2c" transform="matrix(12,0,0,12,333.1,196.7)" />
<use xlink:href="#f1_2b" transform="matrix(12,0,0,12,344.1,196.7)" />
<use xlink:href="#f1_25" transform="matrix(12,0,0,12,354.1,196.7)" />
<use xlink:href="#f1_2a" transform="matrix(12,0,0,12,359.4,196.7)" />
<use xlink:href="#f1_2g" transform="matrix(12,0,0,12,370.1,196.7)" />
<use xlink:href="#f1_2l" transform="matrix(12,0,0,12,380.7,196.7)" />
<use xlink:href="#f1_x" transform="matrix(12,0,0,12,390.8,196.7)" />
<use xlink:href="#f1_q" transform="matrix(12,0,0,12,402,196.7)" />
<use xlink:href="#f1_k" transform="matrix(12,0,0,12,411.1,196.7)" />
<use xlink:href="#f2_3d" transform="matrix(12,0,0,12,82.5,220.4)" />
<use xlink:href="#f1_1c" transform="matrix(12,0,0,12,110,220.4)" />
<use xlink:href="#f1_21" transform="matrix(12,0,0,12,121.2,220.4)" />
<use xlink:href="#f1_2g" transform="matrix(12,0,0,12,130,220.4)" />
<use xlink:href="#f1_2l" transform="matrix(12,0,0,12,140.6,220.4)" />
<use xlink:href="#f1_x" transform="matrix(12,0,0,12,155.5,220.4)" />
<use xlink:href="#f1_k" transform="matrix(12,0,0,12,171.2,220.4)" />
<use xlink:href="#f1_g" transform="matrix(12,0,0,12,180.4,220.4)" />
<use xlink:href="#f1_18" transform="matrix(12,0,0,12,189.5,220.4)" />
<use xlink:href="#f1_21" transform="matrix(12,0,0,12,204.8,220.4)" />
<use xlink:href="#f1_2a" transform="matrix(12,0,0,12,213.6,220.4)" />
<use xlink:href="#f1_1z" transform="matrix(12,0,0,12,224.2,220.4)" />
<use xlink:href="#f1_21" transform="matrix(12,0,0,12,232.3,220.4)" />
<use xlink:href="#f1_2j" transform="matrix(12,0,0,12,245.6,220.4)" />
<use xlink:href="#f1_21" transform="matrix(12,0,0,12,260.9,220.4)" />
<use xlink:href="#f1_23" transform="matrix(12,0,0,12,274.2,220.4)" />
<use xlink:href="#f1_21" transform="matrix(12,0,0,12,284.5,220.4)" />
<use xlink:href="#f1_2g" transform="matrix(12,0,0,12,293.1,220.4)" />
<use xlink:href="#f1_2g" transform="matrix(12,0,0,12,303.7,220.4)" />
<use xlink:href="#f1_24" transform="matrix(12,0,0,12,309.8,220.4)" />
<use xlink:href="#f1_21" transform="matrix(12,0,0,12,320.4,220.4)" />
<use xlink:href="#f1_2c" transform="matrix(12,0,0,12,333.8,220.4)" />
<use xlink:href="#f1_2b" transform="matrix(12,0,0,12,344.8,220.4)" />
<use xlink:href="#f1_25" transform="matrix(12,0,0,12,354.8,220.4)" />
<use xlink:href="#f1_2a" transform="matrix(12,0,0,12,360.2,220.4)" />
<use xlink:href="#f1_2g" transform="matrix(12,0,0,12,370.8,220.4)" />
<use xlink:href="#f1_2k" transform="matrix(12,0,0,12,381.4,220.4)" />
<use xlink:href="#f1_x" transform="matrix(12,0,0,12,390.8,220.4)" />
<use xlink:href="#f1_q" transform="matrix(12,0,0,12,402,220.4)" />
<use xlink:href="#f1_k" transform="matrix(12,0,0,12,411.1,220.4)" />
<use xlink:href="#f2_3d" transform="matrix(12,0,0,12,82.5,244)" />
<use xlink:href="#f1_15" transform="matrix(12,0,0,12,110,244)" />
<use xlink:href="#f1_2d" transform="matrix(12,0,0,12,121.2,244)" />
<use xlink:href="#f1_2h" transform="matrix(12,0,0,12,131.5,244)" />
<use xlink:href="#f1_1x" transform="matrix(12,0,0,12,142.5,244)" />
<use xlink:href="#f1_2g" transform="matrix(12,0,0,12,151.7,244)" />
<use xlink:href="#f1_25" transform="matrix(12,0,0,12,157.7,244)" />
<use xlink:href="#f1_2b" transform="matrix(12,0,0,12,163,244)" />
<use xlink:href="#f1_2a" transform="matrix(12,0,0,12,173.1,244)" />
<use xlink:href="#f1_c" transform="matrix(12,0,0,12,188.3,244)" />
<use xlink:href="#f1_m" transform="matrix(12,0,0,12,194.3,244)" />
<use xlink:href="#f1_d" transform="matrix(12,0,0,12,203.5,244)" />
<use xlink:href="#f1_25" transform="matrix(12,0,0,12,214.2,244)" />
<use xlink:href="#f1_2f" transform="matrix(12,0,0,12,219.5,244)" />
<use xlink:href="#f1_2b" transform="matrix(12,0,0,12,231.7,244)" />
<use xlink:href="#f1_1y" transform="matrix(12,0,0,12,241.8,244)" />
<use xlink:href="#f1_2g" transform="matrix(12,0,0,12,251.9,244)" />
<use xlink:href="#f1_1x" transform="matrix(12,0,0,12,257.9,244)" />
<use xlink:href="#f1_25" transform="matrix(12,0,0,12,267.1,244)" />
<use xlink:href="#f1_2a" transform="matrix(12,0,0,12,272.4,244)" />
<use xlink:href="#f1_21" transform="matrix(12,0,0,12,283.1,244)" />
<use xlink:href="#f1_20" transform="matrix(12,0,0,12,292,244)" />
<use xlink:href="#f1_1y" transform="matrix(12,0,0,12,307.8,244)" />
<use xlink:href="#f1_2l" transform="matrix(12,0,0,12,317.9,244)" />
<use xlink:href="#f1_26" transform="matrix(12,0,0,12,332.7,244)" />
<use xlink:href="#f1_2b" transform="matrix(12,0,0,12,336.9,244)" />
<use xlink:href="#f1_25" transform="matrix(12,0,0,12,347,244)" />
<use xlink:href="#f1_2a" transform="matrix(12,0,0,12,352.3,244)" />
<use xlink:href="#f1_25" transform="matrix(12,0,0,12,362.9,244)" />
<use xlink:href="#f1_2a" transform="matrix(12,0,0,12,368.3,244)" />
<use xlink:href="#f1_23" transform="matrix(12,0,0,12,378.9,244)" />
<use xlink:href="#f1_2g" transform="matrix(12,0,0,12,393.7,244)" />
<use xlink:href="#f1_24" transform="matrix(12,0,0,12,399.7,244)" />
<use xlink:href="#f1_21" transform="matrix(12,0,0,12,410.4,244)" />
<use xlink:href="#f1_2c" transform="matrix(12,0,0,12,423.8,244)" />
<use xlink:href="#f1_2b" transform="matrix(12,0,0,12,434.8,244)" />
<use xlink:href="#f1_25" transform="matrix(12,0,0,12,444.8,244)" />
<use xlink:href="#f1_2a" transform="matrix(12,0,0,12,450.1,244)" />
<use xlink:href="#f1_2g" transform="matrix(12,0,0,12,460.8,244)" />
<use xlink:href="#f1_2f" transform="matrix(12,0,0,12,466.8,244)" />
<use xlink:href="#f1_c" transform="matrix(12,0,0,12,479.1,244)" />
<use xlink:href="#f1_q" transform="matrix(12,0,0,12,485.2,244)" />
<use xlink:href="#f1_k" transform="matrix(12,0,0,12,494.3,244)" />
<use xlink:href="#f1_g" transform="matrix(12,0,0,12,503.5,244)" />
<use xlink:href="#f1_q" transform="matrix(12,0,0,12,508.1,244)" />
<use xlink:href="#f1_k" transform="matrix(12,0,0,12,517.3,244)" />
<use xlink:href="#f1_d" transform="matrix(12,0,0,12,526.4,244)" />
<use xlink:href="#f1_16" transform="matrix(12,0,0,12,55,278.9)" />
<use xlink:href="#f1_2e" transform="matrix(12,0,0,12,65.2,278.9)" />
<use xlink:href="#f1_2b" transform="matrix(12,0,0,12,72.6,278.9)" />
<use xlink:href="#f1_29" transform="matrix(12,0,0,12,82.6,278.9)" />
<use xlink:href="#f1_15" transform="matrix(12,0,0,12,103.3,278.9)" />
<use xlink:href="#f1_2d" transform="matrix(12,0,0,12,114.5,278.9)" />
<use xlink:href="#f1_2h" transform="matrix(12,0,0,12,124.8,278.9)" />
<use xlink:href="#f1_1x" transform="matrix(12,0,0,12,135.8,278.9)" />
<use xlink:href="#f1_2g" transform="matrix(12,0,0,12,145,278.9)" />
<use xlink:href="#f1_25" transform="matrix(12,0,0,12,151,278.9)" />
<use xlink:href="#f1_2b" transform="matrix(12,0,0,12,156.3,278.9)" />
<use xlink:href="#f1_2a" transform="matrix(12,0,0,12,166.4,278.9)" />
<use xlink:href="#f1_c" transform="matrix(12,0,0,12,181.6,278.9)" />
<use xlink:href="#f1_n" transform="matrix(12,0,0,12,187.6,278.9)" />
<use xlink:href="#f1_d" transform="matrix(12,0,0,12,196.8,278.9)" />
<use xlink:href="#f1_1x" transform="matrix(12,0,0,12,207.5,278.9)" />
<use xlink:href="#f1_2a" transform="matrix(12,0,0,12,216.7,278.9)" />
<use xlink:href="#f1_20" transform="matrix(12,0,0,12,227.2,278.9)" />
<use xlink:href="#f1_15" transform="matrix(12,0,0,12,243,278.9)" />
<use xlink:href="#f1_2d" transform="matrix(12,0,0,12,254.2,278.9)" />
<use xlink:href="#f1_2h" transform="matrix(12,0,0,12,264.5,278.9)" />
<use xlink:href="#f1_1x" transform="matrix(12,0,0,12,275.5,278.9)" />
<use xlink:href="#f1_2g" transform="matrix(12,0,0,12,284.6,278.9)" />
<use xlink:href="#f1_25" transform="matrix(12,0,0,12,290.7,278.9)" />
<use xlink:href="#f1_2b" transform="matrix(12,0,0,12,296,278.9)" />
<use xlink:href="#f1_2a" transform="matrix(12,0,0,12,306,278.9)" />
<use xlink:href="#f1_c" transform="matrix(12,0,0,12,321.3,278.9)" />
<use xlink:href="#f1_o" transform="matrix(12,0,0,12,327.3,278.9)" />
<use xlink:href="#f1_d" transform="matrix(12,0,0,12,336.5,278.9)" />
<use xlink:href="#f1_2j" transform="matrix(12,0,0,12,347.2,278.9)" />
<use xlink:href="#f1_21" transform="matrix(12,0,0,12,362.3,278.9)" />
<use xlink:href="#f1_27" transform="matrix(12,0,0,12,375.7,278.9)" />
<use xlink:href="#f1_2a" transform="matrix(12,0,0,12,386,278.9)" />
<use xlink:href="#f1_2b" transform="matrix(12,0,0,12,396.6,278.9)" />
<use xlink:href="#f1_2j" transform="matrix(12,0,0,12,406.6,278.9)" />
<use xlink:href="#f1_1y" transform="matrix(12,0,0,12,426.6,278.9)" />
<use xlink:href="#f1_2b" transform="matrix(12,0,0,12,436.8,278.9)" />
<use xlink:href="#f1_2g" transform="matrix(12,0,0,12,446.8,278.9)" />
<use xlink:href="#f1_24" transform="matrix(12,0,0,12,452.8,278.9)" />
<use xlink:href="#f1_2k" transform="matrix(12,0,0,12,468.1,278.9)" />
<use xlink:href="#f1_1x" transform="matrix(12,0,0,12,482.1,278.9)" />
<use xlink:href="#f1_2a" transform="matrix(12,0,0,12,491.3,278.9)" />
<use xlink:href="#f1_20" transform="matrix(12,0,0,12,502,278.9)" />
<use xlink:href="#f1_2l" transform="matrix(12,0,0,12,517.8,278.9)" />
<use xlink:href="#f1_1x" transform="matrix(12,0,0,12,532.5,278.9)" />
<use xlink:href="#f1_2e" transform="matrix(12,0,0,12,542,278.9)" />
<use xlink:href="#f1_21" transform="matrix(12,0,0,12,549.4,278.9)" />
<use xlink:href="#f1_23" transform="matrix(12,0,0,12,562.6,278.9)" />
<use xlink:href="#f1_2e" transform="matrix(12,0,0,12,572.8,278.9)" />
<use xlink:href="#f1_21" transform="matrix(12,0,0,12,580.1,278.9)" />
<use xlink:href="#f1_1x" transform="matrix(12,0,0,12,588.9,278.9)" />
<use xlink:href="#f1_2g" transform="matrix(12,0,0,12,597.9,278.9)" />
<use xlink:href="#f1_21" transform="matrix(12,0,0,12,603.8,278.9)" />
<use xlink:href="#f1_2e" transform="matrix(12,0,0,12,612.6,278.9)" />
<use xlink:href="#f1_2g" transform="matrix(12,0,0,12,624.5,278.9)" />
<use xlink:href="#f1_24" transform="matrix(12,0,0,12,630.5,278.9)" />
<use xlink:href="#f1_1x" transform="matrix(12,0,0,12,641.2,278.9)" />
<use xlink:href="#f1_2a" transform="matrix(12,0,0,12,650.3,278.9)" />
<use xlink:href="#f1_k" transform="matrix(12,0,0,12,665.5,278.9)" />
<use xlink:href="#f1_16" transform="matrix(12,0,0,12,55,692.9)" />
<use xlink:href="#f1_2e" transform="matrix(12,0,0,12,65.2,692.9)" />
<use xlink:href="#f1_2b" transform="matrix(12,0,0,12,72.6,692.9)" />
<use xlink:href="#f1_29" transform="matrix(12,0,0,12,82.6,692.9)" />
<use xlink:href="#f1_2g" transform="matrix(12,0,0,12,103.3,692.9)" />
<use xlink:href="#f1_24" transform="matrix(12,0,0,12,109.4,692.9)" />
<use xlink:href="#f1_21" transform="matrix(12,0,0,12,120,692.9)" />
<use xlink:href="#f1_23" transform="matrix(12,0,0,12,133.2,692.9)" />
<use xlink:href="#f1_2e" transform="matrix(12,0,0,12,143.5,692.9)" />
<use xlink:href="#f1_1x" transform="matrix(12,0,0,12,150.8,692.9)" />
<use xlink:href="#f1_2c" transform="matrix(12,0,0,12,159.9,692.9)" />
<use xlink:href="#f1_24" transform="matrix(12,0,0,12,171,692.9)" />
<use xlink:href="#f1_1x" transform="matrix(12,0,0,12,186.2,692.9)" />
<use xlink:href="#f1_1y" transform="matrix(12,0,0,12,195.3,692.9)" />
<use xlink:href="#f1_2b" transform="matrix(12,0,0,12,205.4,692.9)" />
<use xlink:href="#f1_2i" transform="matrix(12,0,0,12,215.5,692.9)" />
<use xlink:href="#f1_21" transform="matrix(12,0,0,12,225.9,692.9)" />
<use xlink:href="#f1_g" transform="matrix(12,0,0,12,234.7,692.9)" />
<use xlink:href="#f2_3d" transform="matrix(12,0,0,12,82.5,728.9)" />
<use xlink:href="#f1_1g" transform="matrix(12,0,0,12,110,728.9)" />
<use xlink:href="#f1_2b" transform="matrix(12,0,0,12,121,728.9)" />
<use xlink:href="#f1_25" transform="matrix(12,0,0,12,131.1,728.9)" />
<use xlink:href="#f1_2a" transform="matrix(12,0,0,12,136.4,728.9)" />
<use xlink:href="#f1_2g" transform="matrix(12,0,0,12,147.1,728.9)" />
<use xlink:href="#f1_2f" transform="matrix(12,0,0,12,153.1,728.9)" />
<use xlink:href="#f1_2j" transform="matrix(12,0,0,12,166.1,728.9)" />
<use xlink:href="#f1_25" transform="matrix(12,0,0,12,181.3,728.9)" />
<use xlink:href="#f1_2g" transform="matrix(12,0,0,12,186.6,728.9)" />
<use xlink:href="#f1_24" transform="matrix(12,0,0,12,192.6,728.9)" />
<use xlink:href="#f1_25" transform="matrix(12,0,0,12,203.3,728.9)" />
<use xlink:href="#f1_2a" transform="matrix(12,0,0,12,208.6,728.9)" />
<use xlink:href="#f1_1x" transform="matrix(12,0,0,12,224.7,728.9)" />
<use xlink:href="#f1_2a" transform="matrix(12,0,0,12,233.9,728.9)" />
<use xlink:href="#f1_20" transform="matrix(12,0,0,12,244.5,728.9)" />
<use xlink:href="#f1_2b" transform="matrix(12,0,0,12,261,728.9)" />
<use xlink:href="#f1_2a" transform="matrix(12,0,0,12,271,728.9)" />
<use xlink:href="#f1_2g" transform="matrix(12,0,0,12,287,728.9)" />
<use xlink:href="#f1_24" transform="matrix(12,0,0,12,293.2,728.9)" />
<use xlink:href="#f1_21" transform="matrix(12,0,0,12,303.9,728.9)" />
<use xlink:href="#f1_1y" transform="matrix(12,0,0,12,318.2,728.9)" />
<use xlink:href="#f1_2b" transform="matrix(12,0,0,12,328.3,728.9)" />
<use xlink:href="#f1_2h" transform="matrix(12,0,0,12,338.3,728.9)" />
<use xlink:href="#f1_2a" transform="matrix(12,0,0,12,349.4,728.9)" />
<use xlink:href="#f1_20" transform="matrix(12,0,0,12,360,728.9)" />
<use xlink:href="#f1_1x" transform="matrix(12,0,0,12,371.2,728.9)" />
<use xlink:href="#f1_2e" transform="matrix(12,0,0,12,380.3,728.9)" />
<use xlink:href="#f1_2l" transform="matrix(12,0,0,12,387.6,728.9)" />
<use xlink:href="#f1_2b" transform="matrix(12,0,0,12,403.2,728.9)" />
<use xlink:href="#f1_22" transform="matrix(12,0,0,12,413.2,728.9)" />
<use xlink:href="#f1_2g" transform="matrix(12,0,0,12,424.6,728.9)" />
<use xlink:href="#f1_24" transform="matrix(12,0,0,12,430.6,728.9)" />
<use xlink:href="#f1_21" transform="matrix(12,0,0,12,441.3,728.9)" />
<use xlink:href="#f1_22" transform="matrix(12,0,0,12,455.3,728.9)" />
<use xlink:href="#f1_21" transform="matrix(12,0,0,12,461.5,728.9)" />
<use xlink:href="#f1_1x" transform="matrix(12,0,0,12,470.2,728.9)" />
<use xlink:href="#f1_2f" transform="matrix(12,0,0,12,479.5,728.9)" />
<use xlink:href="#f1_25" transform="matrix(12,0,0,12,487.2,728.9)" />
<use xlink:href="#f1_1y" transform="matrix(12,0,0,12,492.6,728.9)" />
<use xlink:href="#f1_28" transform="matrix(12,0,0,12,502.6,728.9)" />
<use xlink:href="#f1_21" transform="matrix(12,0,0,12,508,728.9)" />
<use xlink:href="#f1_2e" transform="matrix(12,0,0,12,522,728.9)" />
<use xlink:href="#f1_21" transform="matrix(12,0,0,12,529.4,728.9)" />
<use xlink:href="#f1_23" transform="matrix(12,0,0,12,538.1,728.9)" />
<use xlink:href="#f1_25" transform="matrix(12,0,0,12,548.4,728.9)" />
<use xlink:href="#f1_2b" transform="matrix(12,0,0,12,553.7,728.9)" />
<use xlink:href="#f1_2a" transform="matrix(12,0,0,12,563.8,728.9)" />
<use xlink:href="#f1_2e" transform="matrix(12,0,0,12,579.7,728.9)" />
<use xlink:href="#f1_21" transform="matrix(12,0,0,12,587,728.9)" />
<use xlink:href="#f1_2c" transform="matrix(12,0,0,12,595.8,728.9)" />
<use xlink:href="#f1_2e" transform="matrix(12,0,0,12,606.8,728.9)" />
<use xlink:href="#f1_21" transform="matrix(12,0,0,12,614.2,728.9)" />
<use xlink:href="#f1_2f" transform="matrix(12,0,0,12,622.9,728.9)" />
<use xlink:href="#f1_21" transform="matrix(12,0,0,12,630.7,728.9)" />
<use xlink:href="#f1_2a" transform="matrix(12,0,0,12,639.4,728.9)" />
<use xlink:href="#f1_2g" transform="matrix(12,0,0,12,650.1,728.9)" />
<use xlink:href="#f1_22" transform="matrix(12,0,0,12,661.8,728.9)" />
<use xlink:href="#f1_21" transform="matrix(12,0,0,12,667.9,728.9)" />
<use xlink:href="#f1_1x" transform="matrix(12,0,0,12,676.6,728.9)" />
<use xlink:href="#f1_2f" transform="matrix(12,0,0,12,685.8,728.9)" />
<use xlink:href="#f1_25" transform="matrix(12,0,0,12,693.5,728.9)" />
<use xlink:href="#f1_1y" transform="matrix(12,0,0,12,698.8,728.9)" />
<use xlink:href="#f1_28" transform="matrix(12,0,0,12,708.9,728.9)" />
<use xlink:href="#f1_21" transform="matrix(12,0,0,12,714.2,728.9)" />
<use xlink:href="#f1_2f" transform="matrix(12,0,0,12,728.5,728.9)" />
<use xlink:href="#f1_2b" transform="matrix(12,0,0,12,736.2,728.9)" />
<use xlink:href="#f1_28" transform="matrix(12,0,0,12,746.2,728.9)" />
<use xlink:href="#f1_2h" transform="matrix(12,0,0,12,751.6,728.9)" />
<use xlink:href="#f1_2g" transform="matrix(12,0,0,12,762.6,728.9)" />
<use xlink:href="#f1_25" transform="matrix(12,0,0,12,768.6,728.9)" />
<use xlink:href="#f1_2b" transform="matrix(12,0,0,12,773.9,728.9)" />
<use xlink:href="#f1_2a" transform="matrix(12,0,0,12,784,728.9)" />
<use xlink:href="#f1_2f" transform="matrix(12,0,0,12,794.6,728.9)" />
<use xlink:href="#f1_2b" transform="matrix(12,0,0,12,807.6,728.9)" />
<use xlink:href="#f1_22" transform="matrix(12,0,0,12,817.7,728.9)" />
<use xlink:href="#f1_2g" transform="matrix(12,0,0,12,829,728.9)" />
<use xlink:href="#f1_24" transform="matrix(12,0,0,12,835,728.9)" />
<use xlink:href="#f1_21" transform="matrix(12,0,0,12,845.8,728.9)" />
<use xlink:href="#f1_1z" transform="matrix(12,0,0,12,110,751.6)" />
<use xlink:href="#f1_2b" transform="matrix(12,0,0,12,118.1,751.6)" />
<use xlink:href="#f1_2a" transform="matrix(12,0,0,12,128.2,751.6)" />
<use xlink:href="#f1_2f" transform="matrix(12,0,0,12,138.8,751.6)" />
<use xlink:href="#f1_2g" transform="matrix(12,0,0,12,146.5,751.6)" />
<use xlink:href="#f1_2e" transform="matrix(12,0,0,12,152.5,751.6)" />
<use xlink:href="#f1_1x" transform="matrix(12,0,0,12,159.8,751.6)" />
<use xlink:href="#f1_25" transform="matrix(12,0,0,12,169,751.6)" />
<use xlink:href="#f1_2a" transform="matrix(12,0,0,12,174.3,751.6)" />
<use xlink:href="#f1_2g" transform="matrix(12,0,0,12,185,751.6)" />
<use xlink:href="#f1_2f" transform="matrix(12,0,0,12,191,751.6)" />
<use xlink:href="#f1_i" transform="matrix(12,0,0,12,198.7,751.6)" />
<use xlink:href="#f2_3d" transform="matrix(12,0,0,12,82.5,775.2)" />
<use xlink:href="#f1_19" transform="matrix(12,0,0,12,110,775.2)" />
<use xlink:href="#f1_2a" transform="matrix(12,0,0,12,116.3,775.2)" />
<use xlink:href="#f1_16" transform="matrix(12,0,0,12,131.9,775.2)" />
<use xlink:href="#f1_25" transform="matrix(12,0,0,12,142.1,775.2)" />
<use xlink:href="#f1_23" transform="matrix(12,0,0,12,147.4,775.2)" />
<use xlink:href="#f1_l" transform="matrix(12,0,0,12,162.6,775.2)" />
<use xlink:href="#f1_m" transform="matrix(12,0,0,12,171.8,775.2)" />
<use xlink:href="#f1_i" transform="matrix(12,0,0,12,180.9,775.2)" />
<use xlink:href="#f1_l" transform="matrix(12,0,0,12,185.5,775.2)" />
<use xlink:href="#f1_g" transform="matrix(12,0,0,12,194.7,775.2)" />
<use xlink:href="#f1_21" transform="matrix(12,0,0,12,204.2,775.2)" />
<use xlink:href="#f1_2i" transform="matrix(12,0,0,12,213,775.2)" />
<use xlink:href="#f1_21" transform="matrix(12,0,0,12,223.4,775.2)" />
<use xlink:href="#f1_2e" transform="matrix(12,0,0,12,232.2,775.2)" />
<use xlink:href="#f1_2l" transform="matrix(12,0,0,12,239.4,775.2)" />
<use xlink:href="#f1_2c" transform="matrix(12,0,0,12,254.6,775.2)" />
<use xlink:href="#f1_2b" transform="matrix(12,0,0,12,265.6,775.2)" />
<use xlink:href="#f1_25" transform="matrix(12,0,0,12,275.6,775.2)" />
<use xlink:href="#f1_2a" transform="matrix(12,0,0,12,281,775.2)" />
<use xlink:href="#f1_2g" transform="matrix(12,0,0,12,291.6,775.2)" />
<use xlink:href="#f1_2j" transform="matrix(12,0,0,12,302.4,775.2)" />
<use xlink:href="#f1_25" transform="matrix(12,0,0,12,317.6,775.2)" />
<use xlink:href="#f1_2g" transform="matrix(12,0,0,12,322.9,775.2)" />
<use xlink:href="#f1_24" transform="matrix(12,0,0,12,328.9,775.2)" />
<use xlink:href="#f1_25" transform="matrix(12,0,0,12,339.6,775.2)" />
<use xlink:href="#f1_2a" transform="matrix(12,0,0,12,344.9,775.2)" />
<use xlink:href="#f1_1x" transform="matrix(12,0,0,12,360.5,775.2)" />
<use xlink:href="#f1_2a" transform="matrix(12,0,0,12,369.6,775.2)" />
<use xlink:href="#f1_20" transform="matrix(12,0,0,12,380.3,775.2)" />
<use xlink:href="#f1_2b" transform="matrix(12,0,0,12,396.4,775.2)" />
<use xlink:href="#f1_2a" transform="matrix(12,0,0,12,406.4,775.2)" />
<use xlink:href="#f1_2g" transform="matrix(12,0,0,12,422,775.2)" />
<use xlink:href="#f1_24" transform="matrix(12,0,0,12,428,775.2)" />
<use xlink:href="#f1_21" transform="matrix(12,0,0,12,438.7,775.2)" />
<use xlink:href="#f1_1y" transform="matrix(12,0,0,12,452.9,775.2)" />
<use xlink:href="#f1_2b" transform="matrix(12,0,0,12,463,775.2)" />
<use xlink:href="#f1_2h" transform="matrix(12,0,0,12,473.1,775.2)" />
<use xlink:href="#f1_2a" transform="matrix(12,0,0,12,484.1,775.2)" />
<use xlink:href="#f1_20" transform="matrix(12,0,0,12,494.7,775.2)" />
<use xlink:href="#f1_1x" transform="matrix(12,0,0,12,505.9,775.2)" />
<use xlink:href="#f1_2e" transform="matrix(12,0,0,12,515.1,775.2)" />
<use xlink:href="#f1_2l" transform="matrix(12,0,0,12,522.4,775.2)" />
<use xlink:href="#f1_2b" transform="matrix(12,0,0,12,537.6,775.2)" />
<use xlink:href="#f1_22" transform="matrix(12,0,0,12,547.6,775.2)" />
<use xlink:href="#f1_2g" transform="matrix(12,0,0,12,558.6,775.2)" />
<use xlink:href="#f1_24" transform="matrix(12,0,0,12,564.6,775.2)" />
<use xlink:href="#f1_21" transform="matrix(12,0,0,12,575.3,775.2)" />
<use xlink:href="#f1_22" transform="matrix(12,0,0,12,589,775.2)" />
<use xlink:href="#f1_21" transform="matrix(12,0,0,12,595.1,775.2)" />
<use xlink:href="#f1_1x" transform="matrix(12,0,0,12,603.9,775.2)" />
<use xlink:href="#f1_2f" transform="matrix(12,0,0,12,613.1,775.2)" />
<use xlink:href="#f1_25" transform="matrix(12,0,0,12,620.7,775.2)" />
<use xlink:href="#f1_1y" transform="matrix(12,0,0,12,626,775.2)" />
<use xlink:href="#f1_28" transform="matrix(12,0,0,12,636.1,775.2)" />
<use xlink:href="#f1_21" transform="matrix(12,0,0,12,641.4,775.2)" />
<use xlink:href="#f1_2e" transform="matrix(12,0,0,12,655.2,775.2)" />
<use xlink:href="#f1_21" transform="matrix(12,0,0,12,662.5,775.2)" />
<use xlink:href="#f1_23" transform="matrix(12,0,0,12,671.3,775.2)" />
<use xlink:href="#f1_25" transform="matrix(12,0,0,12,681.5,775.2)" />
<use xlink:href="#f1_2b" transform="matrix(12,0,0,12,686.9,775.2)" />
<use xlink:href="#f1_2a" transform="matrix(12,0,0,12,696.9,775.2)" />
<use xlink:href="#f1_1f" transform="matrix(12,0,0,12,712.5,775.2)" />
<use xlink:href="#f1_11" transform="matrix(12,0,0,12,726.9,775.2)" />
<use xlink:href="#f1_12" transform="matrix(12,0,0,12,741.2,775.2)" />
<use xlink:href="#f1_13" transform="matrix(12,0,0,12,752.4,775.2)" />
<use xlink:href="#f1_2e" transform="matrix(12,0,0,12,770.7,775.2)" />
<use xlink:href="#f1_21" transform="matrix(12,0,0,12,778,775.2)" />
<use xlink:href="#f1_2c" transform="matrix(12,0,0,12,786.8,775.2)" />
<use xlink:href="#f1_2e" transform="matrix(12,0,0,12,797.6,775.2)" />
<use xlink:href="#f1_21" transform="matrix(12,0,0,12,804.9,775.2)" />
<use xlink:href="#f1_2f" transform="matrix(12,0,0,12,813.7,775.2)" />
<use xlink:href="#f1_21" transform="matrix(12,0,0,12,821.4,775.2)" />
<use xlink:href="#f1_2a" transform="matrix(12,0,0,12,830.2,775.2)" />
<use xlink:href="#f1_2g" transform="matrix(12,0,0,12,840.9,775.2)" />
<use xlink:href="#f1_2f" transform="matrix(12,0,0,12,846.9,775.2)" />
<use xlink:href="#f1_22" transform="matrix(12,0,0,12,110,798)" />
<use xlink:href="#f1_21" transform="matrix(12,0,0,12,116.1,798)" />
<use xlink:href="#f1_1x" transform="matrix(12,0,0,12,124.9,798)" />
<use xlink:href="#f1_2f" transform="matrix(12,0,0,12,134.1,798)" />
<use xlink:href="#f1_25" transform="matrix(12,0,0,12,141.8,798)" />
<use xlink:href="#f1_1y" transform="matrix(12,0,0,12,147.1,798)" />
<use xlink:href="#f1_28" transform="matrix(12,0,0,12,157.2,798)" />
<use xlink:href="#f1_21" transform="matrix(12,0,0,12,162.5,798)" />
<use xlink:href="#f1_2f" transform="matrix(12,0,0,12,175.8,798)" />
<use xlink:href="#f1_2b" transform="matrix(12,0,0,12,183.5,798)" />
<use xlink:href="#f1_28" transform="matrix(12,0,0,12,193.6,798)" />
<use xlink:href="#f1_2h" transform="matrix(12,0,0,12,198.9,798)" />
<use xlink:href="#f1_2g" transform="matrix(12,0,0,12,209.9,798)" />
<use xlink:href="#f1_25" transform="matrix(12,0,0,12,216,798)" />
<use xlink:href="#f1_2b" transform="matrix(12,0,0,12,221.3,798)" />
<use xlink:href="#f1_2a" transform="matrix(12,0,0,12,231.3,798)" />
<use xlink:href="#f1_2g" transform="matrix(12,0,0,12,246.6,798)" />
<use xlink:href="#f1_2b" transform="matrix(12,0,0,12,252.6,798)" />
<use xlink:href="#f1_2g" transform="matrix(12,0,0,12,267.3,798)" />
<use xlink:href="#f1_24" transform="matrix(12,0,0,12,273.3,798)" />
<use xlink:href="#f1_21" transform="matrix(12,0,0,12,284,798)" />
<use xlink:href="#f1_2c" transform="matrix(12,0,0,12,297.3,798)" />
<use xlink:href="#f1_2e" transform="matrix(12,0,0,12,308.3,798)" />
<use xlink:href="#f1_2b" transform="matrix(12,0,0,12,315.6,798)" />
<use xlink:href="#f1_1y" transform="matrix(12,0,0,12,325.7,798)" />
<use xlink:href="#f1_28" transform="matrix(12,0,0,12,335.8,798)" />
<use xlink:href="#f1_21" transform="matrix(12,0,0,12,341.1,798)" />
<use xlink:href="#f1_29" transform="matrix(12,0,0,12,349.9,798)" />
<use xlink:href="#f1_i" transform="matrix(12,0,0,12,366.1,798)" />
<use xlink:href="#f2_3d" transform="matrix(12,0,0,12,82.5,821.6)" />
<use xlink:href="#f1_16" transform="matrix(12,0,0,12,110,821.6)" />
<use xlink:href="#f1_2b" transform="matrix(12,0,0,12,120.3,821.6)" />
<use xlink:href="#f1_2e" transform="matrix(12,0,0,12,130.4,821.6)" />
<use xlink:href="#f1_21" transform="matrix(12,0,0,12,142.6,821.6)" />
<use xlink:href="#f1_2k" transform="matrix(12,0,0,12,151.4,821.6)" />
<use xlink:href="#f1_1x" transform="matrix(12,0,0,12,160.9,821.6)" />
<use xlink:href="#f1_29" transform="matrix(12,0,0,12,170.1,821.6)" />
<use xlink:href="#f1_2c" transform="matrix(12,0,0,12,186.2,821.6)" />
<use xlink:href="#f1_28" transform="matrix(12,0,0,12,197.2,821.6)" />
<use xlink:href="#f1_21" transform="matrix(12,0,0,12,202.6,821.6)" />
<use xlink:href="#f1_g" transform="matrix(12,0,0,12,211.4,821.6)" />
<use xlink:href="#f1_2g" transform="matrix(12,0,0,12,221,821.6)" />
<use xlink:href="#f1_24" transform="matrix(12,0,0,12,227.1,821.6)" />
<use xlink:href="#f1_21" transform="matrix(12,0,0,12,237.7,821.6)" />
<use xlink:href="#f1_2c" transform="matrix(12,0,0,12,251.6,821.6)" />
<use xlink:href="#f1_2b" transform="matrix(12,0,0,12,262.4,821.6)" />
<use xlink:href="#f1_25" transform="matrix(12,0,0,12,272.5,821.6)" />
<use xlink:href="#f1_2a" transform="matrix(12,0,0,12,277.8,821.6)" />
<use xlink:href="#f1_2g" transform="matrix(12,0,0,12,288.5,821.6)" />
<use xlink:href="#f1_c" transform="matrix(12,0,0,12,299.4,821.6)" />
<use xlink:href="#f1_l" transform="matrix(12,0,0,12,305.5,821.6)" />
<use xlink:href="#f1_k" transform="matrix(12,0,0,12,314.7,821.6)" />
<use xlink:href="#f1_g" transform="matrix(12,0,0,12,323.9,821.6)" />
<use xlink:href="#f1_p" transform="matrix(12,0,0,12,333.5,821.6)" />
<use xlink:href="#f1_k" transform="matrix(12,0,0,12,342.7,821.6)" />
<use xlink:href="#f1_d" transform="matrix(12,0,0,12,351.9,821.6)" />
<use xlink:href="#f1_25" transform="matrix(12,0,0,12,363,821.6)" />
<use xlink:href="#f1_2f" transform="matrix(12,0,0,12,368.4,821.6)" />
<use xlink:href="#f1_1x" transform="matrix(12,0,0,12,381.2,821.6)" />
<use xlink:href="#f1_22" transform="matrix(12,0,0,12,395.4,821.6)" />
<use xlink:href="#f1_21" transform="matrix(12,0,0,12,401.5,821.6)" />
<use xlink:href="#f1_1x" transform="matrix(12,0,0,12,410.3,821.6)" />
<use xlink:href="#f1_2f" transform="matrix(12,0,0,12,419.5,821.6)" />
<use xlink:href="#f1_25" transform="matrix(12,0,0,12,427.1,821.6)" />
<use xlink:href="#f1_1y" transform="matrix(12,0,0,12,432.5,821.6)" />
<use xlink:href="#f1_28" transform="matrix(12,0,0,12,442.5,821.6)" />
<use xlink:href="#f1_21" transform="matrix(12,0,0,12,447.9,821.6)" />
<use xlink:href="#f1_2f" transform="matrix(12,0,0,12,462.1,821.6)" />
<use xlink:href="#f1_2b" transform="matrix(12,0,0,12,469.8,821.6)" />
<use xlink:href="#f1_28" transform="matrix(12,0,0,12,480,821.6)" />
<use xlink:href="#f1_2h" transform="matrix(12,0,0,12,485.4,821.6)" />
<use xlink:href="#f1_2g" transform="matrix(12,0,0,12,496.3,821.6)" />
<use xlink:href="#f1_25" transform="matrix(12,0,0,12,502.4,821.6)" />
<use xlink:href="#f1_2b" transform="matrix(12,0,0,12,507.7,821.6)" />
<use xlink:href="#f1_2a" transform="matrix(12,0,0,12,517.8,821.6)" />
<use xlink:href="#f1_2b" transform="matrix(12,0,0,12,533.5,821.6)" />
<use xlink:href="#f1_22" transform="matrix(12,0,0,12,543.6,821.6)" />
<use xlink:href="#f1_2g" transform="matrix(12,0,0,12,554.7,821.6)" />
<use xlink:href="#f1_24" transform="matrix(12,0,0,12,560.8,821.6)" />
<use xlink:href="#f1_21" transform="matrix(12,0,0,12,571.4,821.6)" />
<use xlink:href="#f1_2c" transform="matrix(12,0,0,12,585.3,821.6)" />
<use xlink:href="#f1_2e" transform="matrix(12,0,0,12,596.1,821.6)" />
<use xlink:href="#f1_2b" transform="matrix(12,0,0,12,603.4,821.6)" />
<use xlink:href="#f1_1y" transform="matrix(12,0,0,12,613.5,821.6)" />
<use xlink:href="#f1_28" transform="matrix(12,0,0,12,623.6,821.6)" />
<use xlink:href="#f1_21" transform="matrix(12,0,0,12,628.9,821.6)" />
<use xlink:href="#f1_29" transform="matrix(12,0,0,12,637.7,821.6)" />
<use xlink:href="#f1_1x" transform="matrix(12,0,0,12,658.8,821.6)" />
<use xlink:href="#f1_2a" transform="matrix(12,0,0,12,667.9,821.6)" />
<use xlink:href="#f1_20" transform="matrix(12,0,0,12,678.6,821.6)" />
<use xlink:href="#f1_2f" transform="matrix(12,0,0,12,694.9,821.6)" />
<use xlink:href="#f1_2b" transform="matrix(12,0,0,12,702.6,821.6)" />
<use xlink:href="#f1_1x" transform="matrix(12,0,0,12,717.8,821.6)" />
<use xlink:href="#f1_2e" transform="matrix(12,0,0,12,726.9,821.6)" />
<use xlink:href="#f1_21" transform="matrix(12,0,0,12,734.2,821.6)" />
<use xlink:href="#f1_2g" transform="matrix(12,0,0,12,748.1,821.6)" />
<use xlink:href="#f1_24" transform="matrix(12,0,0,12,754.2,821.6)" />
<use xlink:href="#f1_21" transform="matrix(12,0,0,12,764.9,821.6)" />
<use xlink:href="#f1_2c" transform="matrix(12,0,0,12,778.7,821.6)" />
<use xlink:href="#f1_2b" transform="matrix(12,0,0,12,789.5,821.6)" />
<use xlink:href="#f1_25" transform="matrix(12,0,0,12,799.6,821.6)" />
<use xlink:href="#f1_2a" transform="matrix(12,0,0,12,804.9,821.6)" />
<use xlink:href="#f1_2g" transform="matrix(12,0,0,12,815.6,821.6)" />
<use xlink:href="#f1_2f" transform="matrix(12,0,0,12,821.6,821.6)" />
<use xlink:href="#f1_c" transform="matrix(12,0,0,12,834.9,821.6)" />
<use xlink:href="#f1_k" transform="matrix(12,0,0,12,841,821.6)" />
<use xlink:href="#f1_g" transform="matrix(12,0,0,12,850.1,821.6)" />
<use xlink:href="#f1_q" transform="matrix(12,0,0,12,110,844.4)" />
<use xlink:href="#f1_k" transform="matrix(12,0,0,12,119.2,844.4)" />
<use xlink:href="#f1_d" transform="matrix(12,0,0,12,128.4,844.4)" />
<use xlink:href="#f1_g" transform="matrix(12,0,0,12,134.5,844.4)" />
<use xlink:href="#f1_c" transform="matrix(12,0,0,12,143.6,844.4)" />
<use xlink:href="#f1_m" transform="matrix(12,0,0,12,149.6,844.4)" />
<use xlink:href="#f1_k" transform="matrix(12,0,0,12,158.8,844.4)" />
<use xlink:href="#f1_g" transform="matrix(12,0,0,12,168,844.4)" />
<use xlink:href="#f1_k" transform="matrix(12,0,0,12,177.1,844.4)" />
<use xlink:href="#f1_d" transform="matrix(12,0,0,12,186.3,844.4)" />
<use xlink:href="#f1_21" transform="matrix(12,0,0,12,196.9,844.4)" />
<use xlink:href="#f1_2g" transform="matrix(12,0,0,12,205.7,844.4)" />
<use xlink:href="#f1_1z" transform="matrix(12,0,0,12,211.8,844.4)" />
<use xlink:href="#f1_i" transform="matrix(12,0,0,12,219.8,844.4)" />
<use xlink:href="#f2_3d" transform="matrix(12,0,0,12,82.5,868)" />
<use xlink:href="#f1_11" transform="matrix(12,0,0,12,110,868)" />
<use xlink:href="#f1_2a" transform="matrix(12,0,0,12,124.3,868)" />
<use xlink:href="#f1_2l" transform="matrix(12,0,0,12,135,868)" />
<use xlink:href="#f1_2c" transform="matrix(12,0,0,12,150.2,868)" />
<use xlink:href="#f1_2b" transform="matrix(12,0,0,12,161.2,868)" />
<use xlink:href="#f1_25" transform="matrix(12,0,0,12,171.2,868)" />
<use xlink:href="#f1_2a" transform="matrix(12,0,0,12,176.5,868)" />
<use xlink:href="#f1_2g" transform="matrix(12,0,0,12,187.2,868)" />
<use xlink:href="#f1_2b" transform="matrix(12,0,0,12,198.1,868)" />
<use xlink:href="#f1_2h" transform="matrix(12,0,0,12,208.2,868)" />
<use xlink:href="#f1_2g" transform="matrix(12,0,0,12,219,868)" />
<use xlink:href="#f1_2f" transform="matrix(12,0,0,12,225,868)" />
<use xlink:href="#f1_25" transform="matrix(12,0,0,12,232.7,868)" />
<use xlink:href="#f1_20" transform="matrix(12,0,0,12,238.1,868)" />
<use xlink:href="#f1_21" transform="matrix(12,0,0,12,249.3,868)" />
<use xlink:href="#f1_2g" transform="matrix(12,0,0,12,263,868)" />
<use xlink:href="#f1_24" transform="matrix(12,0,0,12,269,868)" />
<use xlink:href="#f1_21" transform="matrix(12,0,0,12,279.7,868)" />
<use xlink:href="#f1_22" transform="matrix(12,0,0,12,293.2,868)" />
<use xlink:href="#f1_21" transform="matrix(12,0,0,12,299.3,868)" />
<use xlink:href="#f1_1x" transform="matrix(12,0,0,12,308.1,868)" />
<use xlink:href="#f1_2f" transform="matrix(12,0,0,12,317.2,868)" />
<use xlink:href="#f1_25" transform="matrix(12,0,0,12,324.9,868)" />
<use xlink:href="#f1_1y" transform="matrix(12,0,0,12,330.2,868)" />
<use xlink:href="#f1_28" transform="matrix(12,0,0,12,340.3,868)" />
<use xlink:href="#f1_21" transform="matrix(12,0,0,12,345.6,868)" />
<use xlink:href="#f1_2e" transform="matrix(12,0,0,12,359.4,868)" />
<use xlink:href="#f1_21" transform="matrix(12,0,0,12,366.7,868)" />
<use xlink:href="#f1_23" transform="matrix(12,0,0,12,375.4,868)" />
<use xlink:href="#f1_25" transform="matrix(12,0,0,12,385.7,868)" />
<use xlink:href="#f1_2b" transform="matrix(12,0,0,12,391.1,868)" />
<use xlink:href="#f1_2a" transform="matrix(12,0,0,12,401.1,868)" />
<use xlink:href="#f1_25" transform="matrix(12,0,0,12,416.7,868)" />
<use xlink:href="#f1_2f" transform="matrix(12,0,0,12,422,868)" />
<use xlink:href="#f1_1z" transform="matrix(12,0,0,12,434.9,868)" />
<use xlink:href="#f1_1x" transform="matrix(12,0,0,12,443,868)" />
<use xlink:href="#f1_28" transform="matrix(12,0,0,12,452.2,868)" />
<use xlink:href="#f1_28" transform="matrix(12,0,0,12,457.5,868)" />
<use xlink:href="#f1_21" transform="matrix(12,0,0,12,462.8,868)" />
<use xlink:href="#f1_20" transform="matrix(12,0,0,12,471.6,868)" />
<use xlink:href="#f1_1x" transform="matrix(12,0,0,12,487.7,868)" />
<use xlink:href="#f1_2a" transform="matrix(12,0,0,12,496.9,868)" />
<use xlink:href="#f1_25" transform="matrix(12,0,0,12,512.5,868)" />
<use xlink:href="#f1_2a" transform="matrix(12,0,0,12,517.8,868)" />
<use xlink:href="#f1_22" transform="matrix(12,0,0,12,528.4,868)" />
<use xlink:href="#f1_21" transform="matrix(12,0,0,12,534.5,868)" />
<use xlink:href="#f1_1x" transform="matrix(12,0,0,12,543.3,868)" />
<use xlink:href="#f1_2f" transform="matrix(12,0,0,12,552.5,868)" />
<use xlink:href="#f1_25" transform="matrix(12,0,0,12,560.1,868)" />
<use xlink:href="#f1_1y" transform="matrix(12,0,0,12,565.5,868)" />
<use xlink:href="#f1_28" transform="matrix(12,0,0,12,575.5,868)" />
<use xlink:href="#f1_21" transform="matrix(12,0,0,12,580.9,868)" />
<use xlink:href="#f1_2f" transform="matrix(12,0,0,12,594.8,868)" />
<use xlink:href="#f1_2b" transform="matrix(12,0,0,12,602.5,868)" />
<use xlink:href="#f1_28" transform="matrix(12,0,0,12,612.5,868)" />
<use xlink:href="#f1_2h" transform="matrix(12,0,0,12,617.9,868)" />
<use xlink:href="#f1_2g" transform="matrix(12,0,0,12,628.8,868)" />
<use xlink:href="#f1_25" transform="matrix(12,0,0,12,634.9,868)" />
<use xlink:href="#f1_2b" transform="matrix(12,0,0,12,640.2,868)" />
<use xlink:href="#f1_2a" transform="matrix(12,0,0,12,650.2,868)" />
<use xlink:href="#f1_i" transform="matrix(12,0,0,12,660.9,868)" />
<use xlink:href="#f1_16" transform="matrix(12,0,0,12,670.4,868)" />
<use xlink:href="#f1_2b" transform="matrix(12,0,0,12,680.6,868)" />
<use xlink:href="#f1_2e" transform="matrix(12,0,0,12,690.7,868)" />
<use xlink:href="#f1_21" transform="matrix(12,0,0,12,702.8,868)" />
<use xlink:href="#f1_2k" transform="matrix(12,0,0,12,711.6,868)" />
<use xlink:href="#f1_1x" transform="matrix(12,0,0,12,721.1,868)" />
<use xlink:href="#f1_29" transform="matrix(12,0,0,12,730.3,868)" />
<use xlink:href="#f1_2c" transform="matrix(12,0,0,12,746.4,868)" />
<use xlink:href="#f1_28" transform="matrix(12,0,0,12,757.4,868)" />
<use xlink:href="#f1_21" transform="matrix(12,0,0,12,762.7,868)" />
<use xlink:href="#f1_g" transform="matrix(12,0,0,12,771.5,868)" />
<use xlink:href="#f1_2g" transform="matrix(12,0,0,12,781.3,868)" />
<use xlink:href="#f1_24" transform="matrix(12,0,0,12,787.4,868)" />
<use xlink:href="#f1_21" transform="matrix(12,0,0,12,798,868)" />
<use xlink:href="#f1_2c" transform="matrix(12,0,0,12,811.7,868)" />
<use xlink:href="#f1_2b" transform="matrix(12,0,0,12,822.8,868)" />
<use xlink:href="#f1_25" transform="matrix(12,0,0,12,832.8,868)" />
<use xlink:href="#f1_2a" transform="matrix(12,0,0,12,837.9,868)" />
<use xlink:href="#f1_2g" transform="matrix(12,0,0,12,848.6,868)" />
<use xlink:href="#f1_c" transform="matrix(12,0,0,12,110,890.7)" />
<use xlink:href="#f1_m" transform="matrix(12,0,0,12,116.1,890.7)" />
<use xlink:href="#f1_p" transform="matrix(12,0,0,12,125.3,890.7)" />
<use xlink:href="#f1_g" transform="matrix(12,0,0,12,134.5,890.7)" />
<use xlink:href="#f1_o" transform="matrix(12,0,0,12,143.6,890.7)" />
<use xlink:href="#f1_k" transform="matrix(12,0,0,12,152.8,890.7)" />
<use xlink:href="#f1_d" transform="matrix(12,0,0,12,161.9,890.7)" />
<use xlink:href="#f1_25" transform="matrix(12,0,0,12,172.6,890.7)" />
<use xlink:href="#f1_2f" transform="matrix(12,0,0,12,177.9,890.7)" />
<use xlink:href="#f1_1x" transform="matrix(12,0,0,12,190.2,890.7)" />
<use xlink:href="#f1_2a" transform="matrix(12,0,0,12,199.3,890.7)" />
<use xlink:href="#f1_25" transform="matrix(12,0,0,12,214.6,890.7)" />
<use xlink:href="#f1_2a" transform="matrix(12,0,0,12,220,890.7)" />
<use xlink:href="#f1_22" transform="matrix(12,0,0,12,230.7,890.7)" />
<use xlink:href="#f1_21" transform="matrix(12,0,0,12,236.7,890.7)" />
<use xlink:href="#f1_1x" transform="matrix(12,0,0,12,245.5,890.7)" />
<use xlink:href="#f1_2f" transform="matrix(12,0,0,12,254.7,890.7)" />
<use xlink:href="#f1_25" transform="matrix(12,0,0,12,262.4,890.7)" />
<use xlink:href="#f1_1y" transform="matrix(12,0,0,12,267.9,890.7)" />
<use xlink:href="#f1_28" transform="matrix(12,0,0,12,278,890.7)" />
<use xlink:href="#f1_21" transform="matrix(12,0,0,12,283.3,890.7)" />
<use xlink:href="#f1_2f" transform="matrix(12,0,0,12,296.8,890.7)" />
<use xlink:href="#f1_2b" transform="matrix(12,0,0,12,304.5,890.7)" />
<use xlink:href="#f1_28" transform="matrix(12,0,0,12,314.6,890.7)" />
<use xlink:href="#f1_2h" transform="matrix(12,0,0,12,319.9,890.7)" />
<use xlink:href="#f1_2g" transform="matrix(12,0,0,12,330.9,890.7)" />
<use xlink:href="#f1_25" transform="matrix(12,0,0,12,336.9,890.7)" />
<use xlink:href="#f1_2b" transform="matrix(12,0,0,12,342.3,890.7)" />
<use xlink:href="#f1_2a" transform="matrix(12,0,0,12,352.3,890.7)" />
<use xlink:href="#f1_2b" transform="matrix(12,0,0,12,367.6,890.7)" />
<use xlink:href="#f1_22" transform="matrix(12,0,0,12,377.6,890.7)" />
<use xlink:href="#f1_2g" transform="matrix(12,0,0,12,388.4,890.7)" />
<use xlink:href="#f1_24" transform="matrix(12,0,0,12,394.4,890.7)" />
<use xlink:href="#f1_21" transform="matrix(12,0,0,12,405.1,890.7)" />
<use xlink:href="#f1_2c" transform="matrix(12,0,0,12,418.4,890.7)" />
<use xlink:href="#f1_2e" transform="matrix(12,0,0,12,429.5,890.7)" />
<use xlink:href="#f1_2b" transform="matrix(12,0,0,12,436.7,890.7)" />
<use xlink:href="#f1_1y" transform="matrix(12,0,0,12,446.8,890.7)" />
<use xlink:href="#f1_28" transform="matrix(12,0,0,12,456.9,890.7)" />
<use xlink:href="#f1_21" transform="matrix(12,0,0,12,462.2,890.7)" />
<use xlink:href="#f1_29" transform="matrix(12,0,0,12,470.8,890.7)" />
<use xlink:href="#f1_i" transform="matrix(12,0,0,12,487,890.7)" />
<use xlink:href="#f1_1s" transform="matrix(12,0,0,12,491.6,890.7)" />
<use xlink:href="#f2_3d" transform="matrix(12,0,0,12,82.5,914.4)" />
<use xlink:href="#f1_1e" transform="matrix(12,0,0,12,110,914.4)" />
<use xlink:href="#f1_2b" transform="matrix(12,0,0,12,125.3,914.4)" />
<use xlink:href="#f1_2j" transform="matrix(12,0,0,12,135.3,914.4)" />
<use xlink:href="#f1_g" transform="matrix(12,0,0,12,150.5,914.4)" />
<use xlink:href="#f1_2j" transform="matrix(12,0,0,12,159,914.4)" />
<use xlink:href="#f1_21" transform="matrix(12,0,0,12,174.2,914.4)" />
<use xlink:href="#f1_2f" transform="matrix(12,0,0,12,186.8,914.4)" />
<use xlink:href="#f1_21" transform="matrix(12,0,0,12,194.5,914.4)" />
<use xlink:href="#f1_21" transform="matrix(12,0,0,12,203.3,914.4)" />
<use xlink:href="#f1_2g" transform="matrix(12,0,0,12,216,914.4)" />
<use xlink:href="#f1_24" transform="matrix(12,0,0,12,222,914.4)" />
<use xlink:href="#f1_1x" transform="matrix(12,0,0,12,232.7,914.4)" />
<use xlink:href="#f1_2g" transform="matrix(12,0,0,12,241.9,914.4)" />
<use xlink:href="#f1_21" transform="matrix(12,0,0,12,251.7,914.4)" />
<use xlink:href="#f1_2i" transform="matrix(12,0,0,12,260.5,914.4)" />
<use xlink:href="#f1_21" transform="matrix(12,0,0,12,270.9,914.4)" />
<use xlink:href="#f1_2e" transform="matrix(12,0,0,12,279.7,914.4)" />
<use xlink:href="#f1_2l" transform="matrix(12,0,0,12,286.9,914.4)" />
<use xlink:href="#f1_2c" transform="matrix(12,0,0,12,300.8,914.4)" />
<use xlink:href="#f1_2b" transform="matrix(12,0,0,12,311.9,914.4)" />
<use xlink:href="#f1_25" transform="matrix(12,0,0,12,321.9,914.4)" />
<use xlink:href="#f1_2a" transform="matrix(12,0,0,12,327.2,914.4)" />
<use xlink:href="#f1_2g" transform="matrix(12,0,0,12,337.8,914.4)" />
<use xlink:href="#f1_25" transform="matrix(12,0,0,12,347.7,914.4)" />
<use xlink:href="#f1_2a" transform="matrix(12,0,0,12,353.1,914.4)" />
<use xlink:href="#f1_2g" transform="matrix(12,0,0,12,367.5,914.4)" />
<use xlink:href="#f1_24" transform="matrix(12,0,0,12,373.6,914.4)" />
<use xlink:href="#f1_21" transform="matrix(12,0,0,12,384.2,914.4)" />
<use xlink:href="#f1_22" transform="matrix(12,0,0,12,396.8,914.4)" />
<use xlink:href="#f1_21" transform="matrix(12,0,0,12,402.9,914.4)" />
<use xlink:href="#f1_1x" transform="matrix(12,0,0,12,411.7,914.4)" />
<use xlink:href="#f1_2f" transform="matrix(12,0,0,12,420.9,914.4)" />
<use xlink:href="#f1_25" transform="matrix(12,0,0,12,428.6,914.4)" />
<use xlink:href="#f1_1y" transform="matrix(12,0,0,12,433.9,914.4)" />
<use xlink:href="#f1_28" transform="matrix(12,0,0,12,444,914.4)" />
<use xlink:href="#f1_21" transform="matrix(12,0,0,12,449.3,914.4)" />
<use xlink:href="#f1_2e" transform="matrix(12,0,0,12,461.9,914.4)" />
<use xlink:href="#f1_21" transform="matrix(12,0,0,12,469.2,914.4)" />
<use xlink:href="#f1_23" transform="matrix(12,0,0,12,478,914.4)" />
<use xlink:href="#f1_25" transform="matrix(12,0,0,12,488.3,914.4)" />
<use xlink:href="#f1_2b" transform="matrix(12,0,0,12,493.6,914.4)" />
<use xlink:href="#f1_2a" transform="matrix(12,0,0,12,503.7,914.4)" />
<use xlink:href="#f1_1f" transform="matrix(12,0,0,12,518.2,914.4)" />
<use xlink:href="#f1_11" transform="matrix(12,0,0,12,532.6,914.4)" />
<use xlink:href="#f1_12" transform="matrix(12,0,0,12,546.9,914.4)" />
<use xlink:href="#f1_13" transform="matrix(12,0,0,12,558.1,914.4)" />
<use xlink:href="#f1_2f" transform="matrix(12,0,0,12,575,914.4)" />
<use xlink:href="#f1_1x" transform="matrix(12,0,0,12,582.7,914.4)" />
<use xlink:href="#f1_2g" transform="matrix(12,0,0,12,591.8,914.4)" />
<use xlink:href="#f1_25" transform="matrix(12,0,0,12,597.9,914.4)" />
<use xlink:href="#f1_2f" transform="matrix(12,0,0,12,603.2,914.4)" />
<use xlink:href="#f1_22" transform="matrix(12,0,0,12,610.9,914.4)" />
<use xlink:href="#f1_25" transform="matrix(12,0,0,12,617,914.4)" />
<use xlink:href="#f1_21" transform="matrix(12,0,0,12,622.3,914.4)" />
<use xlink:href="#f1_2f" transform="matrix(12,0,0,12,631,914.4)" />
<use xlink:href="#f1_1x" transform="matrix(12,0,0,12,642.6,914.4)" />
<use xlink:href="#f1_28" transform="matrix(12,0,0,12,651.8,914.4)" />
<use xlink:href="#f1_28" transform="matrix(12,0,0,12,657.1,914.4)" />
<use xlink:href="#f1_2g" transform="matrix(12,0,0,12,666.3,914.4)" />
<use xlink:href="#f1_24" transform="matrix(12,0,0,12,672.3,914.4)" />
<use xlink:href="#f1_21" transform="matrix(12,0,0,12,683,914.4)" />
<use xlink:href="#f1_1z" transform="matrix(12,0,0,12,695.6,914.4)" />
<use xlink:href="#f1_2b" transform="matrix(12,0,0,12,703.6,914.4)" />
<use xlink:href="#f1_2a" transform="matrix(12,0,0,12,713.7,914.4)" />
<use xlink:href="#f1_2f" transform="matrix(12,0,0,12,724.4,914.4)" />
<use xlink:href="#f1_2g" transform="matrix(12,0,0,12,732,914.4)" />
<use xlink:href="#f1_2e" transform="matrix(12,0,0,12,738.1,914.4)" />
<use xlink:href="#f1_1x" transform="matrix(12,0,0,12,745.4,914.4)" />
<use xlink:href="#f1_25" transform="matrix(12,0,0,12,754.5,914.4)" />
<use xlink:href="#f1_2a" transform="matrix(12,0,0,12,759.9,914.4)" />
<use xlink:href="#f1_2g" transform="matrix(12,0,0,12,770.5,914.4)" />
<use xlink:href="#f1_2f" transform="matrix(12,0,0,12,776.5,914.4)" />
<use xlink:href="#f1_1x" transform="matrix(12,0,0,12,788.5,914.4)" />
<use xlink:href="#f1_2f" transform="matrix(12,0,0,12,797.7,914.4)" />
<use xlink:href="#f1_23" transform="matrix(12,0,0,12,809.2,914.4)" />
<use xlink:href="#f1_25" transform="matrix(12,0,0,12,819.5,914.4)" />
<use xlink:href="#f1_2i" transform="matrix(12,0,0,12,824.8,914.4)" />
<use xlink:href="#f1_21" transform="matrix(12,0,0,12,835.2,914.4)" />
<use xlink:href="#f1_2a" transform="matrix(12,0,0,12,843.8,914.4)" />
<use xlink:href="#f1_25" transform="matrix(12,0,0,12,110,937.1)" />
<use xlink:href="#f1_2a" transform="matrix(12,0,0,12,115.4,937.1)" />
<use xlink:href="#f1_c" transform="matrix(12,0,0,12,131.7,937.1)" />
<use xlink:href="#f1_l" transform="matrix(12,0,0,12,137.8,937.1)" />
<use xlink:href="#f1_d" transform="matrix(12,0,0,12,146.9,937.1)" />
<use xlink:href="#f1_2g" transform="matrix(12,0,0,12,158.6,937.1)" />
<use xlink:href="#f1_2b" transform="matrix(12,0,0,12,164.6,937.1)" />
<use xlink:href="#f1_c" transform="matrix(12,0,0,12,180.3,937.1)" />
<use xlink:href="#f1_o" transform="matrix(12,0,0,12,186.5,937.1)" />
<use xlink:href="#f1_d" transform="matrix(12,0,0,12,195.6,937.1)" />
<use xlink:href="#f1_g" transform="matrix(12,0,0,12,201.6,937.1)" />
<use xlink:href="#f1_1x" transform="matrix(12,0,0,12,212,937.1)" />
<use xlink:href="#f1_2a" transform="matrix(12,0,0,12,221.2,937.1)" />
<use xlink:href="#f1_20" transform="matrix(12,0,0,12,231.9,937.1)" />
<use xlink:href="#f1_2f" transform="matrix(12,0,0,12,248.7,937.1)" />
<use xlink:href="#f1_25" transform="matrix(12,0,0,12,256.5,937.1)" />
<use xlink:href="#f1_2a" transform="matrix(12,0,0,12,261.9,937.1)" />
<use xlink:href="#f1_1z" transform="matrix(12,0,0,12,272.5,937.1)" />
<use xlink:href="#f1_21" transform="matrix(12,0,0,12,280.6,937.1)" />
<use xlink:href="#f1_2g" transform="matrix(12,0,0,12,295.2,937.1)" />
<use xlink:href="#f1_24" transform="matrix(12,0,0,12,301.2,937.1)" />
<use xlink:href="#f1_21" transform="matrix(12,0,0,12,311.9,937.1)" />
<use xlink:href="#f1_2e" transform="matrix(12,0,0,12,320.7,937.1)" />
<use xlink:href="#f1_21" transform="matrix(12,0,0,12,328,937.1)" />
<use xlink:href="#f1_1x" transform="matrix(12,0,0,12,342.4,937.1)" />
<use xlink:href="#f1_2e" transform="matrix(12,0,0,12,351.6,937.1)" />
<use xlink:href="#f1_21" transform="matrix(12,0,0,12,358.9,937.1)" />
<use xlink:href="#f1_25" transform="matrix(12,0,0,12,373.4,937.1)" />
<use xlink:href="#f1_2a" transform="matrix(12,0,0,12,378.7,937.1)" />
<use xlink:href="#f1_22" transform="matrix(12,0,0,12,389.3,937.1)" />
<use xlink:href="#f1_25" transform="matrix(12,0,0,12,395.5,937.1)" />
<use xlink:href="#f1_2a" transform="matrix(12,0,0,12,400.7,937.1)" />
<use xlink:href="#f1_25" transform="matrix(12,0,0,12,411.4,937.1)" />
<use xlink:href="#f1_2g" transform="matrix(12,0,0,12,416.7,937.1)" />
<use xlink:href="#f1_21" transform="matrix(12,0,0,12,422.7,937.1)" />
<use xlink:href="#f1_28" transform="matrix(12,0,0,12,431.5,937.1)" />
<use xlink:href="#f1_2l" transform="matrix(12,0,0,12,436.8,937.1)" />
<use xlink:href="#f1_29" transform="matrix(12,0,0,12,452.7,937.1)" />
<use xlink:href="#f1_1x" transform="matrix(12,0,0,12,468.9,937.1)" />
<use xlink:href="#f1_2a" transform="matrix(12,0,0,12,478,937.1)" />
<use xlink:href="#f1_2l" transform="matrix(12,0,0,12,488.7,937.1)" />
<use xlink:href="#f1_2c" transform="matrix(12,0,0,12,504.6,937.1)" />
<use xlink:href="#f1_2b" transform="matrix(12,0,0,12,515.6,937.1)" />
<use xlink:href="#f1_25" transform="matrix(12,0,0,12,525.7,937.1)" />
<use xlink:href="#f1_2a" transform="matrix(12,0,0,12,531,937.1)" />
<use xlink:href="#f1_2g" transform="matrix(12,0,0,12,541.6,937.1)" />
<use xlink:href="#f1_2f" transform="matrix(12,0,0,12,547.6,937.1)" />
<use xlink:href="#f1_g" transform="matrix(12,0,0,12,555.3,937.1)" />
<use xlink:href="#f1_25" transform="matrix(12,0,0,12,565.6,937.1)" />
<use xlink:href="#f1_2g" transform="matrix(12,0,0,12,570.9,937.1)" />
<use xlink:href="#f1_25" transform="matrix(12,0,0,12,582.6,937.1)" />
<use xlink:href="#f1_2f" transform="matrix(12,0,0,12,587.9,937.1)" />
<use xlink:href="#f1_2a" transform="matrix(12,0,0,12,601.3,937.1)" />
<use xlink:href="#f1_2b" transform="matrix(12,0,0,12,611.9,937.1)" />
<use xlink:href="#f1_2g" transform="matrix(12,0,0,12,622,937.1)" />
<use xlink:href="#f1_21" transform="matrix(12,0,0,12,633.7,937.1)" />
<use xlink:href="#f1_2i" transform="matrix(12,0,0,12,642.5,937.1)" />
<use xlink:href="#f1_25" transform="matrix(12,0,0,12,652.9,937.1)" />
<use xlink:href="#f1_20" transform="matrix(12,0,0,12,658.3,937.1)" />
<use xlink:href="#f1_21" transform="matrix(12,0,0,12,669.5,937.1)" />
<use xlink:href="#f1_2a" transform="matrix(12,0,0,12,678.2,937.1)" />
<use xlink:href="#f1_2g" transform="matrix(12,0,0,12,688.9,937.1)" />
<use xlink:href="#f1_24" transform="matrix(12,0,0,12,700.6,937.1)" />
<use xlink:href="#f1_2b" transform="matrix(12,0,0,12,711.2,937.1)" />
<use xlink:href="#f1_2j" transform="matrix(12,0,0,12,721.2,937.1)" />
<use xlink:href="#f1_2j" transform="matrix(12,0,0,12,742.8,937.1)" />
<use xlink:href="#f1_21" transform="matrix(12,0,0,12,758.1,937.1)" />
<use xlink:href="#f1_2f" transform="matrix(12,0,0,12,772.5,937.1)" />
<use xlink:href="#f1_24" transform="matrix(12,0,0,12,780.4,937.1)" />
<use xlink:href="#f1_2b" transform="matrix(12,0,0,12,791.1,937.1)" />
<use xlink:href="#f1_2h" transform="matrix(12,0,0,12,801.1,937.1)" />
<use xlink:href="#f1_28" transform="matrix(12,0,0,12,812.1,937.1)" />
<use xlink:href="#f1_20" transform="matrix(12,0,0,12,817.5,937.1)" />
<use xlink:href="#f1_23" transform="matrix(12,0,0,12,834.3,937.1)" />
<use xlink:href="#f1_2b" transform="matrix(12,0,0,12,844.5,937.1)" />
<use xlink:href="#f1_1x" transform="matrix(12,0,0,12,110,959.9)" />
<use xlink:href="#f1_1y" transform="matrix(12,0,0,12,119.2,959.9)" />
<use xlink:href="#f1_2b" transform="matrix(12,0,0,12,129.3,959.9)" />
<use xlink:href="#f1_2h" transform="matrix(12,0,0,12,139.4,959.9)" />
<use xlink:href="#f1_2g" transform="matrix(12,0,0,12,150.4,959.9)" />
<use xlink:href="#f1_22" transform="matrix(12,0,0,12,161,959.9)" />
<use xlink:href="#f1_25" transform="matrix(12,0,0,12,167.1,959.9)" />
<use xlink:href="#f1_2a" transform="matrix(12,0,0,12,172.4,959.9)" />
<use xlink:href="#f1_20" transform="matrix(12,0,0,12,183,959.9)" />
<use xlink:href="#f1_25" transform="matrix(12,0,0,12,194.2,959.9)" />
<use xlink:href="#f1_2a" transform="matrix(12,0,0,12,199.5,959.9)" />
<use xlink:href="#f1_23" transform="matrix(12,0,0,12,210.1,959.9)" />
<use xlink:href="#f1_1x" transform="matrix(12,0,0,12,225,959.9)" />
<use xlink:href="#f1_2c" transform="matrix(12,0,0,12,238.7,959.9)" />
<use xlink:href="#f1_2b" transform="matrix(12,0,0,12,249.7,959.9)" />
<use xlink:href="#f1_25" transform="matrix(12,0,0,12,259.8,959.9)" />
<use xlink:href="#f1_2a" transform="matrix(12,0,0,12,265.1,959.9)" />
<use xlink:href="#f1_2g" transform="matrix(12,0,0,12,275.7,959.9)" />
<use xlink:href="#f1_2g" transform="matrix(12,0,0,12,286.3,959.9)" />
<use xlink:href="#f1_24" transform="matrix(12,0,0,12,292.4,959.9)" />
<use xlink:href="#f1_1x" transform="matrix(12,0,0,12,303,959.9)" />
<use xlink:href="#f1_2g" transform="matrix(12,0,0,12,312.2,959.9)" />
<use xlink:href="#f1_23" transform="matrix(12,0,0,12,322.8,959.9)" />
<use xlink:href="#f1_25" transform="matrix(12,0,0,12,333,959.9)" />
<use xlink:href="#f1_2i" transform="matrix(12,0,0,12,338.4,959.9)" />
<use xlink:href="#f1_21" transform="matrix(12,0,0,12,348.8,959.9)" />
<use xlink:href="#f1_2f" transform="matrix(12,0,0,12,357.6,959.9)" />
<use xlink:href="#f1_1x" transform="matrix(12,0,0,12,369.9,959.9)" />
<use xlink:href="#f1_29" transform="matrix(12,0,0,12,383.8,959.9)" />
<use xlink:href="#f1_1x" transform="matrix(12,0,0,12,399.9,959.9)" />
<use xlink:href="#f1_2k" transform="matrix(12,0,0,12,409.1,959.9)" />
<use xlink:href="#f1_25" transform="matrix(12,0,0,12,418.6,959.9)" />
<use xlink:href="#f1_29" transform="matrix(12,0,0,12,423.9,959.9)" />
<use xlink:href="#f1_2h" transform="matrix(12,0,0,12,440.1,959.9)" />
<use xlink:href="#f1_29" transform="matrix(12,0,0,12,451.1,959.9)" />
<use xlink:href="#f1_2i" transform="matrix(12,0,0,12,471.8,959.9)" />
<use xlink:href="#f1_1x" transform="matrix(12,0,0,12,482.2,959.9)" />
<use xlink:href="#f1_28" transform="matrix(12,0,0,12,491.4,959.9)" />
<use xlink:href="#f1_2h" transform="matrix(12,0,0,12,496.7,959.9)" />
<use xlink:href="#f1_21" transform="matrix(12,0,0,12,507.7,959.9)" />
<use xlink:href="#f1_2b" transform="matrix(12,0,0,12,521.1,959.9)" />
<use xlink:href="#f1_22" transform="matrix(12,0,0,12,531.1,959.9)" />
<use xlink:href="#f1_2g" transform="matrix(12,0,0,12,541.8,959.9)" />
<use xlink:href="#f1_24" transform="matrix(12,0,0,12,547.8,959.9)" />
<use xlink:href="#f1_21" transform="matrix(12,0,0,12,558.5,959.9)" />
<use xlink:href="#f1_2b" transform="matrix(12,0,0,12,571.8,959.9)" />
<use xlink:href="#f1_1y" transform="matrix(12,0,0,12,581.9,959.9)" />
<use xlink:href="#f1_26" transform="matrix(12,0,0,12,592,959.9)" />
<use xlink:href="#f1_21" transform="matrix(12,0,0,12,596.2,959.9)" />
<use xlink:href="#f1_1z" transform="matrix(12,0,0,12,605,959.9)" />
<use xlink:href="#f1_2g" transform="matrix(12,0,0,12,613.1,959.9)" />
<use xlink:href="#f1_25" transform="matrix(12,0,0,12,619.1,959.9)" />
<use xlink:href="#f1_2i" transform="matrix(12,0,0,12,624.4,959.9)" />
<use xlink:href="#f1_21" transform="matrix(12,0,0,12,634.8,959.9)" />
<use xlink:href="#f1_22" transform="matrix(12,0,0,12,648.2,959.9)" />
<use xlink:href="#f1_2h" transform="matrix(12,0,0,12,654.1,959.9)" />
<use xlink:href="#f1_2a" transform="matrix(12,0,0,12,665.2,959.9)" />
<use xlink:href="#f1_1z" transform="matrix(12,0,0,12,675.7,959.9)" />
<use xlink:href="#f1_2g" transform="matrix(12,0,0,12,683.8,959.9)" />
<use xlink:href="#f1_25" transform="matrix(12,0,0,12,689.8,959.9)" />
<use xlink:href="#f1_2b" transform="matrix(12,0,0,12,695.2,959.9)" />
<use xlink:href="#f1_2a" transform="matrix(12,0,0,12,705.2,959.9)" />
<use xlink:href="#f1_1q" transform="matrix(12,0,0,12,720.7,959.9)" />
<use xlink:href="#f1_x" transform="matrix(12,0,0,12,737.5,959.9)" />
<use xlink:href="#f1_m" transform="matrix(12,0,0,12,753.2,959.9)" />
<use xlink:href="#f1_p" transform="matrix(12,0,0,12,762.4,959.9)" />
<use xlink:href="#f1_k" transform="matrix(12,0,0,12,771.6,959.9)" />
<use xlink:href="#f1_2k" transform="matrix(12,0,0,12,780.7,959.9)" />
<use xlink:href="#f1_f" transform="matrix(12,0,0,12,794.8,959.9)" />
<use xlink:href="#f1_r" transform="matrix(12,0,0,12,810.6,959.9)" />
<use xlink:href="#f1_p" transform="matrix(12,0,0,12,819.8,959.9)" />
<use xlink:href="#f1_2l" transform="matrix(12,0,0,12,828.9,959.9)" />
</g>
<g fill="#C00000" >
<use xlink:href="#f0_1k" transform="matrix(12,0,0,12,55,1198.6)" />
<use xlink:href="#f0_24" transform="matrix(12,0,0,12,67.3,1198.6)" />
<use xlink:href="#f0_21" transform="matrix(12,0,0,12,78.5,1198.6)" />
<use xlink:href="#f0_2b" transform="matrix(12,0,0,12,87.6,1198.6)" />
<use xlink:href="#f0_2e" transform="matrix(12,0,0,12,97.9,1198.6)" />
<use xlink:href="#f0_21" transform="matrix(12,0,0,12,105,1198.6)" />
<use xlink:href="#f0_29" transform="matrix(12,0,0,12,114.2,1198.6)" />
<use xlink:href="#f0_l" transform="matrix(12,0,0,12,135,1198.6)" />
</g>
<image preserveAspectRatio="none" x="55" y="296" width="372" height="366" xlink:href="img/1.png" />
<image preserveAspectRatio="none" x="110" y="965" width="671" height="204" xlink:href="img/2.png" />
<path fill-rule="evenodd" d="M36.7,37.4h.7v-.7h-.7v.7Z" class="g0_38" />
<path fill-rule="evenodd" d="M36.7,37.4h.7v-.7h-.7v.7Z" class="g0_38" />
<path fill-rule="evenodd" d="M37.4,37.4H872.3v-.7H37.4v.7Z" class="g0_38" />
<path fill-rule="evenodd" d="M872.3,37.4h.7v-.7h-.7v.7Z" class="g0_38" />
<path fill-rule="evenodd" d="M872.3,37.4h.7v-.7h-.7v.7Z" class="g0_38" />
<path fill-rule="evenodd" d="M36.7,1249h.7V37.4h-.7V1249Z" class="g0_38" />
<path fill-rule="evenodd" d="M872.3,1249h.7V37.4h-.7V1249Z" class="g0_38" />
<defs>
<path d="M102,-4V34c0,0,41,20,77,46c0,0,10,202,10,421c0,0,0,172,-4,325c0,0,-2,109,-10,125c0,0,-4,10,-16,15c0,0,-11,5,-108,13v62c0,0,144,-4,267,-4c0,0,119,0,226,4V979c0,0,-103,-7,-119,-18c0,0,-9,-7,-13,-27c0,0,-4,-21,-7,-242L401,329c0,0,0,-103,5,-237c0,0,97,-5,144,-5c0,0,140,0,236,23c0,0,20,67,39,160h66C891,270,874,161,860,0c0,0,-70,-4,-130,-4L461,-1L340,0c0,0,-3,0,-10,0C302,0,225,0,102,-4Z" 
id="f0_1c"
transform="scale(0.001,-0.001)" />

<path d="M47,-4V57c0,0,84,3,97,10c0,0,13,8,17,42c0,0,6,47,6,207c0,0,0,70,-2,129l-2,87c0,0,0,43,-10,54c0,0,-9,10,-50,11l-56,2v58c0,0,180,14,296,64l19,-15c0,0,-11,-143,-11,-416c0,0,0,-157,5,-190c0,0,4,-23,14,-30c0,0,10,-7,97,-13V-4c0,0,-134,4,-208,4C259,0,220,0,47,-4ZM254,845c0,0,-47,0,-81,34c0,0,-34,34,-34,81c0,0,0,49,34,83c0,0,34,34,82,34c0,0,48,0,82,-34c0,0,34,-34,34,-83c0,0,0,-47,-34,-81c0,0,-34,-34,-83,-34Z" 
id="f0_25"
transform="scale(0.001,-0.001)" />

<path d="M43,-4V57c0,0,81,4,91,13c0,0,10,8,13,38c0,0,5,76,5,266c0,0,0,94,-3,162c0,0,-2,42,-6,49c0,0,-4,6,-12,9c0,0,-8,3,-88,5v58c0,0,40,0,126,17c0,0,85,17,144,40l20,7c0,0,10,0,10,-18l-1,-6c0,0,-2,-21,-2,-107l115,96c0,0,22,19,45,26c0,0,33,9,80,9c0,0,78,0,129,-28c0,0,50,-27,73,-75c0,0,24,-48,24,-150c0,0,0,-45,-2,-104c0,0,-4,-121,-4,-209c0,0,0,-50,8,-69c0,0,6,-14,17,-18c0,0,11,-5,81,-11V-4l-91,3L756,0L602,-4l-8,9c0,0,19,142,19,291c0,0,0,190,-23,234c0,0,-30,57,-109,57c0,0,-50,0,-87,-26c0,0,-37,-26,-49,-55c0,0,-5,-12,-5,-76c0,0,0,-270,2,-309c0,0,3,-40,13,-49c0,0,13,-11,100,-15V-4c0,0,-130,4,-219,4C236,0,183,0,43,-4Z" 
id="f0_2a"
transform="scale(0.001,-0.001)" />

<path d="M385,423c0,0,59,0,124,6v35c0,0,0,92,-33,134c0,0,-34,42,-91,42c0,0,-40,0,-69,-19c0,0,-29,-20,-43,-56c0,0,-14,-36,-22,-136c0,0,67,-6,134,-6ZM408,-20c0,0,-162,0,-256,94c0,0,-93,94,-93,265c0,0,0,108,27,179c0,0,23,58,74,96c0,0,51,38,117,72c0,0,67,35,147,35c0,0,122,0,202,-69c0,0,79,-68,79,-219c0,0,0,-19,-3,-57L581,354c0,0,-57,-4,-164,-4H256c0,0,11,-129,77,-194c0,0,65,-65,166,-65c0,0,43,0,85,12c0,0,41,13,82,37l22,-22L654,46C654,46,601,13,539,-3c0,0,-61,-17,-131,-17Z" 
id="f0_21"
transform="scale(0.001,-0.001)" />

<path d="M328,113c0,0,58,0,120,67V362c0,0,-131,-29,-170,-62c0,0,-39,-33,-39,-89c0,0,0,-45,25,-71c0,0,25,-27,64,-27ZM219,-20c0,0,-79,0,-122,46C97,26,54,73,54,163c0,0,0,111,59,157c0,0,75,59,335,106c0,0,-2,89,-31,128c0,0,-40,55,-126,55c0,0,-20,0,-41,-5c0,0,-21,-5,-43,-15L174,509l-52,13l2,34l-1,33l-1,29c0,0,114,71,164,89c0,0,37,14,102,14c0,0,88,0,143,-27c0,0,55,-26,80,-72c0,0,26,-46,26,-133c0,0,0,-36,-3,-131c0,0,-3,-97,-3,-156c0,0,0,-93,5,-113c0,0,3,-12,14,-19c0,0,12,-7,79,-13V-4l-57,3c0,0,-46,1,-91,1c0,0,-71,0,-133,-4l-8,7l8,102L292,-10c0,0,-41,-10,-73,-10Z" 
id="f0_1x"
transform="scale(0.001,-0.001)" />

<path d="M16,-4V57c0,0,75,3,86,9c0,0,9,4,14,14c0,0,9,18,10,79c0,0,3,109,3,199c0,0,0,172,-4,204c0,0,-3,19,-14,27c0,0,-11,7,-95,10v58c0,0,150,14,215,35l76,29c0,0,11,0,11,-15l-1,-10c0,0,-2,-47,-2,-135c0,0,38,36,84,92c0,0,34,42,60,55c0,0,25,13,68,13c0,0,23,0,48,-9c0,0,-7,-74,-9,-203L533,497c0,0,-18,29,-38,41c0,0,-21,12,-53,12c0,0,-45,0,-77,-24c0,0,-32,-23,-41,-53c0,0,-6,-22,-6,-152c0,0,0,-189,5,-220c0,0,3,-21,14,-29c0,0,17,-11,113,-15V-4l-84,3c0,0,-80,1,-138,1c0,0,-55,0,-128,-1L16,-4Z" 
id="f0_2e"
transform="scale(0.001,-0.001)" />

<path d="M59,-4V58c0,0,88,6,100,14c0,0,9,4,14,16c0,0,7,18,10,154c0,0,4,136,4,263c0,0,0,238,-5,340c0,0,-5,102,-16,114c0,0,-11,12,-64,16l-43,4v62l84,-2c0,0,78,-3,124,-3c0,0,64,0,204,3c0,0,76,2,112,2c0,0,134,0,197,-25c0,0,64,-25,97,-76c0,0,33,-51,33,-128c0,0,0,-138,-98,-231c0,0,-98,-93,-249,-93c0,0,-20,0,-41,3c0,0,-22,3,-46,8c0,0,-13,27,-27,52l17,18c0,0,16,-3,30,-6c0,0,14,-2,25,-2c0,0,75,0,123,52c0,0,47,52,47,145c0,0,0,104,-49,155c0,0,-49,51,-144,51c0,0,-39,0,-91,-11c0,0,-8,-229,-8,-389c0,0,0,-54,6,-342c0,0,2,-114,7,-131c0,0,4,-13,15,-18c0,0,16,-9,126,-15V-4c0,0,-131,4,-222,4C331,0,291,0,59,-4Z" 
id="f0_1g"
transform="scale(0.001,-0.001)" />

<path d="M437,53c0,0,69,0,107,55c0,0,38,55,38,201c0,0,0,200,-46,277c0,0,-38,61,-119,61c0,0,-69,0,-109,-56c0,0,-40,-56,-40,-190c0,0,0,-199,51,-283c0,0,39,-65,118,-65ZM415,-20c0,0,-173,0,-263,94c0,0,-90,95,-90,276c0,0,0,177,82,265c0,0,99,106,286,106c0,0,187,0,272,-85c0,0,86,-84,86,-266c0,0,0,-188,-99,-289C689,81,591,-20,415,-20Z" 
id="f0_2b"
transform="scale(0.001,-0.001)" />

<path d="M406,-330c0,0,79,0,134,24c0,0,56,25,84,68c0,0,27,44,27,97c0,0,0,48,-22,82c0,0,-17,23,-46,30c0,0,-28,7,-166,7H286c0,0,-63,-47,-82,-77c0,0,-19,-31,-19,-71c0,0,0,-71,56,-116c0,0,56,-44,165,-44Zm-9,634c0,0,57,0,88,40c0,0,31,40,31,125c0,0,0,93,-32,136c0,0,-33,42,-91,42c0,0,-57,0,-91,-37c0,0,-33,-37,-33,-103c0,0,0,-112,33,-157c0,0,33,-46,95,-46ZM383,-404c0,0,-172,0,-257,60c0,0,-84,60,-84,154c0,0,0,53,26,89c0,0,12,16,82,57l53,30c0,0,-60,12,-80,31c0,0,-20,20,-20,56c0,0,0,40,29,97l24,16c0,0,43,28,81,60c0,0,-85,30,-123,82c0,0,-38,53,-38,132c0,0,0,114,88,187c0,0,88,74,247,74c0,0,78,0,138,-16c0,0,44,-12,88,-43c0,0,7,0,19,0c44,0,156,0,196,5l12,-16c0,0,-20,-28,-49,-81H691c0,0,10,-36,10,-68c0,0,0,-137,-98,-204c0,0,-99,-67,-230,-67c0,0,-21,0,-62,3c0,0,-34,-20,-44,-32c0,0,-9,-12,-9,-27c0,0,0,-36,50,-43c0,0,28,-5,304,-5c0,0,93,0,128,-16c0,0,36,-16,59,-57c0,0,23,-41,23,-105c0,0,0,-150,-118,-251c0,0,-119,-102,-321,-102Z" 
id="f0_23"
transform="scale(0.001,-0.001)" />

<path d="M46,-4V57c0,0,77,3,88,10c0,0,11,7,14,26c0,0,6,36,6,173c0,0,0,287,-8,311c0,0,-6,20,-52,21l-48,1v58c0,0,92,10,156,24c0,0,65,15,117,36c0,0,11,4,16,4c0,0,10,0,10,-19c0,0,0,-14,-2,-38c0,0,-1,-11,-1,-37V600l122,92c0,0,39,29,118,29c0,0,80,0,126,-31c0,0,47,-31,72,-99L907,692c0,0,36,29,102,29c0,0,117,0,173,-58c0,0,55,-57,55,-187l-2,-62c0,0,-3,-103,-3,-183c0,0,0,-107,7,-138c0,0,4,-18,15,-25c0,0,11,-7,85,-11V-4c0,0,-93,4,-162,4c0,0,-67,0,-139,-4l-9,13c0,0,19,161,19,314c0,0,0,181,-28,226c0,0,-28,46,-99,46c0,0,-47,0,-82,-24c0,0,-35,-23,-46,-53c0,0,-8,-21,-8,-130c0,0,0,-198,5,-273c0,0,3,-34,14,-43c0,0,12,-9,96,-15V-4c0,0,-98,4,-192,4C708,0,591,0,498,-4V57c0,0,73,0,86,21c0,0,12,21,12,187c0,0,0,189,-7,235c0,0,-7,47,-36,71c0,0,-29,24,-80,24c0,0,-37,0,-67,-18c0,0,-31,-17,-52,-48c0,0,-12,-17,-12,-53l1,-29c0,0,2,-21,2,-117l-1,-88c0,0,0,-127,5,-150c0,0,2,-15,12,-22c0,0,10,-7,82,-13V-4c0,0,-89,4,-196,4C247,0,210,0,46,-4Z" 
id="f0_29"
transform="scale(0.001,-0.001)" />

<path d="M28,-4V42H88c0,0,64,0,78,25c0,0,15,24,15,179V809c0,0,0,151,-16,176c0,0,-16,24,-83,24H28v47c0,0,124,-5,223,-5l429,8c0,0,67,0,127,-7c0,0,-24,-79,-27,-225H732c0,0,-4,77,-18,139c0,0,-102,26,-206,26c0,0,-91,0,-178,-9c0,0,-9,-97,-9,-176V569c0,0,45,-2,88,-2c0,0,112,0,196,6c0,0,29,2,39,12c0,0,10,11,16,58l8,57h47c0,0,-6,-136,-6,-175l1,-176H661v57c0,0,0,69,-26,84c0,0,-26,15,-201,15c0,0,-47,0,-113,-2V246c0,0,0,-153,16,-178c0,0,16,-26,83,-26h53V-4c0,0,-141,4,-225,4C248,0,163,0,28,-4Z" 
id="f1_16"
transform="scale(0.001,-0.001)" />

<path d="M439,33c0,0,90,0,146,69c0,0,55,69,55,208c0,0,0,113,-32,195c0,0,-33,83,-87,120c0,0,-54,38,-120,38c0,0,-59,0,-107,-30c0,0,-47,-30,-70,-80c0,0,-30,-68,-30,-147c0,0,0,-154,63,-263c0,0,63,-110,182,-110ZM390,-19c0,0,-149,0,-243,100c0,0,-93,100,-93,272c0,0,0,103,48,186c0,0,47,83,133,130c0,0,87,47,196,47c0,0,159,0,255,-94c0,0,95,-94,95,-250c0,0,0,-185,-124,-294c0,0,-112,-97,-267,-97Z" 
id="f1_2b"
transform="scale(0.001,-0.001)" />

<path d="M24,-4V38l72,6c0,0,38,3,48,14c0,0,10,12,13,73c0,0,5,107,5,255c0,0,0,180,-14,212c0,0,-10,20,-61,20H24v43c0,0,73,8,129,21c0,0,57,13,101,33c0,0,11,6,17,6c0,0,9,0,12,-5c0,0,3,-4,3,-20L283,548c0,0,29,28,65,74c0,0,41,54,77,75c0,0,36,20,76,20c0,0,41,0,62,-10c0,0,11,-4,11,-14l-1,-8c0,0,-12,-60,-13,-169H526c0,0,-17,38,-40,54c0,0,-24,16,-56,16c0,0,-44,0,-82,-30c0,0,-37,-30,-50,-84c0,0,-12,-53,-12,-211c0,0,0,-103,8,-174c0,0,3,-26,15,-33c0,0,28,-16,83,-16h45V-4c0,0,-114,4,-216,4C221,0,121,0,24,-4Z" 
id="f1_2e"
transform="scale(0.001,-0.001)" />

<path d="M34,-4V42h67c0,0,47,0,60,12c0,0,14,11,18,47c0,0,3,35,8,216V715l-2,155c0,0,-2,96,-21,117c0,0,-19,22,-93,22H34v47c0,0,93,-4,237,-4c0,0,84,0,187,5c0,0,68,3,103,3c0,0,180,0,262,-66c0,0,81,-65,81,-177c0,0,0,-81,-47,-156c0,0,-47,-75,-133,-121c0,0,-86,-45,-184,-45c0,0,-44,0,-111,14l-15,56c0,0,65,-16,109,-16c0,0,103,0,164,62c0,0,60,62,60,170c0,0,0,104,-65,163c0,0,-64,58,-192,58c0,0,-72,0,-158,-27c0,0,-5,-108,-5,-229V320c0,0,0,-224,13,-251c0,0,13,-27,88,-27h51V-4c0,0,-132,4,-207,4C272,0,205,0,34,-4Z" 
id="f1_1g"
transform="scale(0.001,-0.001)" />

<path d="M37,-4V38l64,5c0,0,43,4,49,22c0,0,9,29,9,265V854l-3,97c0,0,0,37,-8,45c0,0,-12,12,-50,12H37v45c0,0,156,14,248,59l13,-9c0,0,-12,-219,-12,-396V324c0,0,0,-228,9,-259c0,0,5,-16,49,-20l64,-7V-4c0,0,-82,4,-156,4C252,0,170,0,37,-4Z" 
id="f1_28"
transform="scale(0.001,-0.001)" />

<path d="M315,-19c0,0,-55,0,-94,19c0,0,-38,20,-55,52c0,0,-17,31,-17,96l3,144V575c0,0,-58,0,-119,-5v32c0,0,64,24,119,51c0,0,-1,107,-6,232c0,0,87,36,125,59l19,-15c0,0,-6,-59,-12,-276c0,0,91,0,148,2l60,3l-8,-76l-31,1L304,582H278V289c0,0,0,-115,7,-147c0,0,8,-32,30,-50c0,0,23,-18,58,-18c0,0,22,0,43,9c0,0,20,8,40,26L478,83L405,-1c0,0,-24,-8,-46,-13c0,0,-23,-5,-44,-5Z" 
id="f1_2g"
transform="scale(0.001,-0.001)" />

<path d="M38,-4V38l64,7c0,0,37,3,46,14c0,0,8,11,11,72c0,0,3,95,3,262c0,0,0,116,-3,178c0,0,-2,24,-13,33c0,0,-12,10,-52,10H38v43c0,0,91,13,134,24c0,0,43,11,110,38l18,-12c0,0,-5,-55,-6,-123c0,0,-6,-217,-6,-321c0,0,0,-97,7,-165c0,0,3,-27,14,-37c0,0,11,-11,54,-16l51,-7V-4c0,0,-109,4,-199,4C215,0,128,0,38,-4ZM222,880c0,0,-35,0,-59,25c0,0,-25,24,-25,59c0,0,0,35,25,60c0,0,24,25,59,25c0,0,35,0,59,-25c0,0,25,-25,25,-60c0,0,0,-35,-25,-59c0,0,-24,-25,-59,-25Z" 
id="f1_25"
transform="scale(0.001,-0.001)" />

<path d="M20,-4V38H73c0,0,55,0,64,26c0,0,10,26,10,310c0,0,0,127,-3,199c0,0,-2,24,-12,33c0,0,-11,9,-59,9H20v43c0,0,63,7,114,20c0,0,50,13,114,39c0,0,6,3,12,3c0,0,12,0,12,-18l-1,-28L270,573L383,673c0,0,20,18,42,26c0,0,49,17,99,17c0,0,80,0,138,-33c0,0,58,-32,84,-84c0,0,25,-52,25,-162L768,202c0,0,0,-121,10,-140c0,0,14,-24,55,-24h53V-4c0,0,-79,4,-137,4c0,0,-56,0,-121,-4c0,0,14,144,14,392c0,0,0,100,-18,141c0,0,-17,42,-59,68c0,0,-41,25,-99,25c0,0,-73,0,-123,-37c0,0,-51,-36,-63,-80c0,0,-7,-29,-7,-152c0,0,0,-137,2,-254c0,0,1,-35,10,-44c0,0,19,-17,62,-17h53V-4c0,0,-126,4,-201,4C199,0,120,0,20,-4Z" 
id="f1_2a"
transform="scale(0.001,-0.001)" />

<path d="M409,-377c0,0,82,0,145,30c0,0,62,31,97,84c0,0,34,54,34,111c0,0,0,48,-24,85c0,0,-24,37,-57,47c0,0,-18,5,-79,5H351c0,0,-53,0,-72,-12c0,0,-62,-40,-76,-65c0,0,-22,-39,-22,-98c0,0,0,-81,60,-134c0,0,60,-53,168,-53ZM395,280c0,0,71,0,116,47c0,0,44,48,44,133c0,0,0,93,-47,150c0,0,-48,57,-121,57c0,0,-72,0,-115,-46c0,0,-44,-47,-44,-129c0,0,0,-99,47,-156c0,0,48,-56,120,-56ZM382,-430c0,0,-154,0,-237,67c0,0,-82,66,-82,164c0,0,0,60,43,122c0,0,78,37,131,74c0,0,-62,19,-80,36c0,0,-17,17,-17,43c0,0,0,31,17,62c0,0,10,18,49,45l73,52c0,0,-89,22,-129,63c0,0,-52,55,-52,141c0,0,0,75,39,137c0,0,38,62,114,98c0,0,96,46,186,46c0,0,56,0,99,-15c0,0,43,-15,88,-51h63c0,0,97,0,151,7l8,-16c0,0,-22,-32,-39,-68H668c0,0,17,-48,17,-78c0,0,0,-67,-40,-128c0,0,-40,-62,-115,-100c0,0,-75,-37,-161,-37l-36,1c0,0,-49,-37,-62,-55c0,0,-13,-18,-13,-35c0,0,0,-28,29,-45c0,0,29,-16,119,-16c0,0,34,0,98,3c0,0,92,4,133,4c0,0,59,0,91,-19c0,0,31,-19,53,-67c0,0,23,-46,23,-106c0,0,0,-83,-51,-160c0,0,-51,-77,-148,-123c0,0,-97,-46,-223,-46Z" 
id="f1_23"
transform="scale(0.001,-0.001)" />

<path d="M23,-4V38l47,6c0,0,44,5,56,12c0,0,11,7,14,33c0,0,6,40,6,180V772c0,0,0,199,-11,223c0,0,-6,16,-60,16H23v46c0,0,116,12,185,34l62,21c0,0,12,0,12,-16l-3,-31L275,931c0,0,-4,-101,-4,-157V574l98,86c0,0,34,32,67,44c0,0,33,12,80,12c0,0,83,0,144,-33c0,0,61,-34,84,-85c0,0,24,-52,24,-177L763,201c0,0,0,-75,6,-118c0,0,2,-18,12,-27c0,0,10,-9,44,-12l56,-6V-4c0,0,-72,4,-141,4c0,0,-59,0,-117,-4c0,0,14,186,14,367c0,0,0,122,-15,165c0,0,-16,43,-55,69c0,0,-40,25,-100,25c0,0,-62,0,-113,-30c0,0,-50,-29,-70,-68c0,0,-13,-27,-13,-131V263c0,0,0,-177,8,-196c0,0,8,-18,60,-23l65,-6V-4c0,0,-117,4,-187,4C217,0,143,0,23,-4Z" 
id="f1_24"
transform="scale(0.001,-0.001)" />

<path d="M442,407c0,0,56,0,108,5v42c0,0,0,65,-26,124c0,0,-17,37,-58,61c0,0,-41,24,-95,24c0,0,-84,0,-134,-61c0,0,-50,-61,-51,-190c0,0,116,-5,256,-5ZM380,-19c0,0,-152,0,-245,95c0,0,-93,96,-93,260c0,0,0,125,52,217c0,0,35,60,127,111c0,0,93,52,180,52c0,0,132,0,210,-78c0,0,77,-77,77,-217l-2,-44c0,0,-49,-11,-94,-15c0,0,-80,-6,-222,-6H184c0,0,4,-147,75,-222c0,0,72,-76,188,-76c0,0,53,0,104,17c0,0,52,17,103,51l12,-12L642,52C642,52,580,16,515,-1c0,0,-66,-18,-135,-18Z" 
id="f1_21"
transform="scale(0.001,-0.001)" />

<path d="M694,-6L577,-4c0,0,-194,4,-285,4C292,0,204,0,60,-4V42H83c0,0,65,0,82,13c0,0,16,12,22,59c0,0,6,47,6,208V731c0,0,0,101,-5,165c0,0,-5,64,-11,76c0,0,-5,12,-16,19c0,0,-10,7,-64,12l-57,6v47h81l79,-2c0,0,66,-3,100,-3l287,4l135,1c0,0,3,0,9,0c20,0,75,0,131,-5c0,0,-28,-89,-31,-231H780c0,0,0,82,-8,137c0,0,-88,33,-216,33c0,0,-102,0,-214,-9c0,0,1,-70,-1,-140L339,726V575c0,0,74,-5,130,-5c0,0,177,0,201,12c0,0,23,13,23,77v48h51c0,0,-5,-112,-5,-179c0,0,0,-71,5,-167H693v43c0,0,0,71,-28,87c0,0,-27,16,-196,16c0,0,-63,0,-130,-4V319l1,-105c0,0,0,-99,2,-144c0,0,109,-8,234,-8c0,0,84,0,140,7c0,0,37,5,78,19c0,0,19,66,38,164h49C881,252,861,88,861,34L862,0c0,0,-85,-6,-168,-6Z" 
id="f1_15"
transform="scale(0.001,-0.001)" />

<path d="M399,69c0,0,49,0,96,24c0,0,46,24,95,82V317c0,0,-2,215,-5,259c0,0,-46,42,-90,59c0,0,-43,17,-96,17c0,0,-101,0,-163,-73c0,0,-62,-74,-62,-210c0,0,0,-141,66,-220c0,0,66,-80,159,-80Zm58,-479v43h40c0,0,68,0,80,27c0,0,13,26,13,263V97C590,97,501,45,415,-10c0,0,-20,-4,-38,-6c0,0,-18,-3,-33,-3c0,0,-130,0,-215,92c0,0,-85,92,-85,246c0,0,0,102,31,171c0,0,32,70,90,112c0,0,15,10,137,78c0,0,65,36,148,36c0,0,50,0,98,-13c0,0,49,-13,98,-40l78,51l28,-17c0,0,-23,-68,-28,-117c0,0,-8,-74,-8,-250V-82c0,0,0,-228,14,-256c0,0,14,-29,85,-29h34v-43l-118,4l-93,1c0,0,-35,0,-181,-5Z" 
id="f1_2d"
transform="scale(0.001,-0.001)" />

<path d="M355,-19c0,0,-67,0,-116,28c0,0,-48,28,-70,73c0,0,-22,45,-22,143c0,0,0,51,2,118l3,120c0,0,0,126,-8,140c0,0,-7,14,-47,14H30v41c0,0,102,9,188,37l63,24c0,0,12,0,12,-19l-5,-76c0,0,-10,-158,-10,-294c0,0,0,-135,11,-173c0,0,11,-38,47,-63c0,0,35,-25,87,-25c0,0,69,0,127,45c0,0,57,45,75,90c0,0,10,26,10,157c0,0,0,221,-8,240c0,0,-8,16,-67,16H501v41c0,0,76,9,130,21c0,0,53,12,113,36c0,0,7,4,13,4c0,0,13,0,13,-15l-3,-69c0,0,-11,-255,-11,-449c0,0,0,-109,11,-125c0,0,17,-23,71,-23h43V-4c0,0,-93,4,-157,4c0,0,-49,0,-97,-4l8,134L591,82C591,82,540,26,486,3c0,0,-53,-22,-131,-22Z" 
id="f1_2h"
transform="scale(0.001,-0.001)" />

<path d="M296,69c0,0,56,0,107,32c0,0,51,31,97,93l-2,165l2,36c0,0,-207,-45,-263,-84c0,0,-56,-39,-56,-120c0,0,0,-55,32,-88c0,0,32,-34,83,-34ZM249,-19c0,0,-97,0,-147,47c0,0,-51,47,-51,127c0,0,0,75,36,131c0,0,36,56,103,83c0,0,67,27,310,70c0,0,-2,95,-42,142c0,0,-51,58,-145,58c0,0,-35,0,-67,-8c0,0,-31,-9,-58,-27c0,0,-21,-53,-39,-101l-42,11V615l81,46c0,0,55,32,97,44c0,0,41,12,88,12c0,0,103,0,166,-47c0,0,63,-46,76,-117c0,0,9,-54,11,-267c0,0,2,-200,9,-221c0,0,7,-21,37,-21h59V-4c0,0,-85,4,-119,4c0,0,-42,0,-112,-4l1,66c0,0,0,32,-1,65L345,9c0,0,-20,-15,-41,-21c0,0,-20,-7,-55,-7Z" 
id="f1_1x"
transform="scale(0.001,-0.001)" />

<path d="M443,-410c0,0,-126,125,-192,236c0,0,-66,111,-102,245c0,0,-37,134,-37,284c0,0,0,172,48,318c0,0,47,146,118,247c0,0,72,101,170,192l32,-41c0,0,-87,-103,-136,-204c0,0,-50,-100,-76,-219c0,0,-25,-120,-25,-275c0,0,0,-165,23,-291c0,0,24,-125,69,-222c0,0,44,-97,145,-233l-37,-37Z" 
id="f1_c"
transform="scale(0.001,-0.001)" />

<path d="M30,-4V37L289,305c0,0,147,152,197,247c0,0,49,95,49,176c0,0,0,101,-58,161c0,0,-58,60,-153,60c0,0,-63,0,-113,-22c0,0,-37,-16,-53,-41c0,0,-15,-25,-46,-139H67c0,0,23,146,25,211c0,0,56,59,121,86c0,0,65,27,147,27c0,0,144,0,230,-82c0,0,85,-82,85,-214c0,0,0,-115,-77,-225c0,0,-77,-111,-259,-278L194,123H466c0,0,174,0,260,11l8,-7c0,0,-7,-42,-7,-60c0,0,0,-14,7,-67l-8,-4c0,0,-148,4,-328,4C398,0,209,0,30,-4Z" 
id="f1_m"
transform="scale(0.001,-0.001)" />

<path d="M61,-410l-32,41c0,0,87,103,136,203c0,0,50,101,76,219c0,0,26,120,26,275c0,0,0,165,-24,291c0,0,-25,127,-69,224c0,0,-45,97,-145,231l38,38c0,0,124,-124,191,-236c0,0,66,-111,103,-246c0,0,36,-134,36,-284c0,0,0,-172,-47,-317c0,0,-47,-145,-119,-246c0,0,-72,-101,-170,-193Z" 
id="f1_d"
transform="scale(0.001,-0.001)" />

<path d="M33,-221l-22,23c0,0,65,100,95,182c0,0,30,80,41,175c0,0,86,21,152,47l21,-22C320,184,277,80,228,-2c0,0,-50,-84,-132,-187L33,-221Z" 
id="f1_g"
transform="scale(0.001,-0.001)" />

<path d="M273,157c0,0,-114,0,-193,80C80,237,0,317,0,431c0,0,0,112,80,192c0,0,79,80,193,80c0,0,113,0,192,-80c0,0,80,-80,80,-192c0,0,0,-114,-80,-194c0,0,-79,-80,-192,-80Z" 
id="f2_3d"
transform="scale(0.001,-0.001)" />

<path d="M110,-7V31c0,0,59,26,70,56c0,0,11,30,11,237V734c0,0,0,224,-11,249c0,0,-11,26,-61,26H38v47c0,0,177,-5,235,-5c0,0,78,0,210,5v-47H391c0,0,-40,0,-50,-23c0,0,-11,-22,-11,-189V322l3,-210L330,68c0,0,74,-3,143,-3c0,0,140,0,219,7c0,0,55,6,114,22l45,175h49C900,269,881,128,870,5C870,5,803,-5,687,-5L332,0c0,0,-71,0,-222,-7Z" 
id="f1_1c"
transform="scale(0.001,-0.001)" />

<path d="M600,-22c0,0,-38,26,-64,59c0,0,-17,21,-165,244c0,0,-70,-86,-108,-139c0,0,-38,-53,-96,-146c0,0,-31,4,-57,4C110,0,83,0,37,-4V41c0,0,38,0,52,7c0,0,13,6,73,73c0,0,86,96,174,207c0,0,-138,206,-179,242c0,0,-41,35,-87,35c0,0,-13,0,-33,-2v40l143,70c0,0,47,-19,77,-54c0,0,50,-55,159,-234c0,0,98,129,198,276c0,0,29,-5,49,-5c0,0,15,0,65,5V658c0,0,-40,-2,-65,-24c0,0,-40,-35,-214,-252c0,0,101,-149,169,-237c0,0,46,-61,74,-76c0,0,18,-10,57,-10V16C749,16,680,0,600,-22Z" 
id="f1_2k"
transform="scale(0.001,-0.001)" />

<path d="M87,346V450H839V346Zm0,255V705H839V601Z" 
id="f1_x"
transform="scale(0.001,-0.001)" />

<path d="M388,34c0,0,91,0,138,85c0,0,59,107,59,391c0,0,0,303,-63,413c0,0,-52,94,-149,94c0,0,-90,0,-142,-93c0,0,-52,-93,-52,-379c0,0,0,-305,63,-418c0,0,51,-93,146,-93ZM365,-19c0,0,-109,0,-183,64c0,0,-73,64,-107,182c0,0,-26,90,-26,297c0,0,0,287,96,417c0,0,96,130,256,130c0,0,98,0,168,-49c0,0,69,-49,108,-148c0,0,38,-100,38,-290c0,0,0,-331,-95,-467c0,0,-96,-136,-255,-136Z" 
id="f1_k"
transform="scale(0.001,-0.001)" />

<path d="M34,-4V42H80c0,0,78,0,93,27c0,0,14,26,14,242V761c0,0,0,195,-15,222c0,0,-14,26,-83,26H34v47c0,0,123,-5,229,-5c0,0,106,0,207,5v-47H438c0,0,-69,0,-85,-11c0,0,-17,-11,-20,-37c0,0,-6,-41,-6,-199V592c0,0,132,-5,338,-5c0,0,174,0,282,5V737c0,0,0,128,-8,215c0,0,-3,30,-21,44c0,0,-17,13,-69,13H795v47c0,0,114,-5,216,-5c0,0,110,0,229,5v-47h-57c0,0,-57,0,-73,-13c0,0,-16,-12,-19,-46c0,0,-4,-34,-4,-214V324c0,0,0,-229,13,-255c0,0,13,-27,82,-27h58V-4c0,0,-103,4,-212,4c0,0,-125,0,-233,-4V42h51c0,0,57,0,73,13c0,0,17,13,20,49c0,0,8,77,8,225V523c0,0,-105,5,-268,5c0,0,-233,0,-352,-5V314c0,0,0,-53,3,-126c0,0,5,-102,8,-113c0,0,3,-10,21,-22c0,0,19,-11,61,-11h50V-4c0,0,-96,4,-186,4C284,0,196,0,34,-4Z" 
id="f1_18"
transform="scale(0.001,-0.001)" />

<path d="M380,-19c0,0,-110,0,-187,41c0,0,-76,42,-118,121c0,0,-42,79,-42,188c0,0,0,96,32,167c0,0,32,71,90,111c0,0,58,40,145,79c0,0,61,28,137,28c0,0,57,0,99,-10c0,0,41,-9,89,-33c0,0,-19,-99,-21,-198H557v38c0,0,0,47,-13,67c0,0,-14,20,-63,39c0,0,-50,20,-108,20c0,0,-101,0,-155,-62c0,0,-55,-61,-55,-183c0,0,0,-157,81,-251c0,0,72,-85,187,-85c0,0,44,0,88,11c0,0,43,11,86,32L625,83L594,35C594,35,543,8,490,-5c0,0,-54,-14,-110,-14Z" 
id="f1_1z"
transform="scale(0.001,-0.001)" />

<path d="M313,-11c0,0,-63,215,-142,469L123,607c0,0,-9,25,-28,38c0,0,-19,13,-44,13H14v43c0,0,118,-5,182,-5c0,0,62,0,183,5V658H338c0,0,-46,0,-63,-10c0,0,-13,-8,-13,-24c0,0,0,-37,127,-462L550,514c0,0,37,82,84,200h37c0,0,32,-91,66,-175L891,149l114,306c0,0,33,90,43,135c0,0,3,19,3,30c0,0,0,17,-15,28c0,0,-15,10,-47,10H939v43c0,0,98,-5,174,-5c0,0,66,0,127,5V658h-34c0,0,-26,0,-49,-26c0,0,-23,-27,-129,-274c0,0,-88,-207,-137,-369H818c0,0,-33,92,-109,282L614,511C614,511,510,290,446,138c0,0,-29,-68,-57,-149Z" 
id="f1_2j"
transform="scale(0.001,-0.001)" />

<path d="M487,58c0,0,118,0,180,88c0,0,63,89,63,211c0,0,0,82,-29,140c0,0,-29,59,-84,92c0,0,-55,33,-118,33c0,0,-45,0,-87,-18c0,0,-43,-18,-75,-49c0,0,-32,-32,-41,-59c0,0,-7,-20,-7,-106V156c0,0,48,-54,96,-76c0,0,47,-22,102,-22ZM30,-410v42H85c0,0,57,0,68,25c0,0,10,25,10,262V376c0,0,0,119,-6,184c0,0,-3,31,-14,41c0,0,-12,10,-54,10H30v46c0,0,104,11,205,43l45,18c0,0,12,0,12,-21l-2,-79l-1,-53l105,93c0,0,39,35,67,44c0,0,44,14,102,14c0,0,133,0,215,-82c0,0,82,-82,82,-212c0,0,0,-65,-19,-128c0,0,-19,-63,-45,-102c0,0,-27,-40,-61,-67c0,0,-11,-9,-90,-59L615,45C615,45,558,5,524,-6c0,0,-35,-13,-80,-13c0,0,-35,0,-73,11c0,0,-39,9,-82,28V-84c0,0,0,-162,5,-228c0,0,2,-29,19,-43c0,0,16,-13,69,-13h40v-42c0,0,-141,5,-207,5c0,0,-72,0,-185,-5Z" 
id="f1_2c"
transform="scale(0.001,-0.001)" />

<path d="M128,-430c0,0,-21,0,-44,7c0,0,-23,6,-46,19l34,117H90c0,0,20,-25,40,-37c0,0,20,-12,41,-12c0,0,47,0,85,45c0,0,38,44,117,249c0,0,-33,86,-131,329L173,458L117,589c0,0,-26,69,-78,69H9v43c0,0,77,-5,137,-5c0,0,46,0,215,5V658H306c0,0,-28,0,-41,-10c0,0,-13,-9,-13,-24c0,0,0,-11,14,-51c0,0,75,-207,177,-444c0,0,99,217,172,418c0,0,22,59,22,71c0,0,0,24,-51,32l-55,8v43c0,0,88,-5,157,-5c0,0,65,0,130,5V658H792c0,0,-17,0,-35,-10c0,0,-18,-10,-29,-28c0,0,-24,-38,-138,-290c0,0,-32,-69,-160,-374c0,0,-114,-259,-128,-284c0,0,-30,-49,-75,-76c0,0,-46,-26,-99,-26Z" 
id="f1_2l"
transform="scale(0.001,-0.001)" />

<path d="M391,34c0,0,83,0,134,64c0,0,59,75,59,205c0,0,0,122,-54,185c0,0,-55,63,-144,63c0,0,-57,0,-107,-28c0,0,-50,-28,-72,-71c0,0,-16,-31,-16,-118c0,0,0,-148,62,-230c0,0,52,-70,138,-70ZM369,-19c0,0,-141,0,-229,106c0,0,-89,107,-89,306c0,0,0,164,62,298c0,0,62,135,189,237c0,0,126,102,289,147l55,-25v-13c0,0,-133,-35,-230,-108c0,0,-96,-74,-150,-173c0,0,-54,-98,-67,-234l85,61c0,0,42,33,76,45c0,0,34,11,84,11c0,0,127,0,199,-75c0,0,71,-75,71,-212c0,0,0,-155,-101,-263C613,89,511,-19,369,-19Z" 
id="f1_q"
transform="scale(0.001,-0.001)" />

<path d="M280,-19c0,0,-92,0,-206,28C74,9,54,14,54,25l2,10c0,0,3,11,5,40c0,0,7,73,7,113l-1,36h46V175c0,0,0,-58,11,-73c0,0,19,-24,75,-46c0,0,57,-23,116,-23c0,0,77,0,125,42c0,0,49,41,49,99c0,0,0,45,-28,73c0,0,-29,27,-108,44c0,0,-148,29,-196,52c0,0,-48,22,-72,60c0,0,-23,37,-23,90c0,0,0,99,72,161c0,0,72,62,204,62c0,0,105,0,209,-42c0,0,-7,-51,-11,-170H491c0,0,-2,65,-14,86c0,0,-17,28,-63,50c0,0,-45,23,-96,23c0,0,-68,0,-108,-35c0,0,-41,-34,-41,-87c0,0,0,-50,32,-75c0,0,32,-26,177,-55c0,0,107,-22,142,-40c0,0,34,-19,55,-57c0,0,20,-38,20,-87c0,0,0,-101,-86,-174c0,0,-86,-72,-229,-72Z" 
id="f1_2f"
transform="scale(0.001,-0.001)" />

<path d="M450,58c0,0,109,0,168,87c0,0,60,87,60,211c0,0,0,130,-58,198c0,0,-57,68,-155,68c0,0,-65,0,-119,-37c0,0,-53,-38,-74,-87c0,0,-7,-20,-7,-90V239c0,0,0,-81,6,-93c0,0,12,-24,64,-56c0,0,53,-32,115,-32ZM403,-19c0,0,-56,0,-100,15c0,0,-45,14,-93,51L150,-8L124,1c0,0,15,115,15,242V717c0,0,0,110,-7,225c0,0,-3,53,-12,62c0,0,-10,10,-44,10H12v42c0,0,64,7,134,22c0,0,47,9,101,30c0,0,8,4,14,4c0,0,16,0,16,-29l-4,-37c0,0,-5,-43,-6,-64c0,0,-2,-96,-2,-263V561l91,91c0,0,29,29,76,46c0,0,48,18,101,18c0,0,120,0,198,-83c0,0,77,-83,77,-220c0,0,0,-75,-27,-146c0,0,-27,-71,-66,-115c0,0,-18,-21,-100,-80C615,72,534,12,510,1c0,0,-45,-20,-107,-20Z" 
id="f1_1y"
transform="scale(0.001,-0.001)" />

<path d="M431,74c0,0,59,0,109,33c0,0,50,34,73,87c0,0,23,53,23,166V542c0,0,-51,55,-107,83c0,0,-55,27,-115,27c0,0,-98,0,-157,-71c0,0,-59,-71,-59,-208c0,0,0,-140,68,-219c0,0,68,-80,165,-80ZM363,-19c0,0,-126,0,-211,94c0,0,-85,95,-85,253c0,0,0,99,33,169c0,0,33,70,78,102c0,0,46,32,142,80c0,0,73,37,136,37c0,0,42,0,87,-11c0,0,45,-12,93,-35V941c0,0,0,47,-10,59c0,0,-11,12,-48,12H514v45c0,0,133,9,248,55l14,-9c0,0,-6,-76,-9,-184L764,721l-2,-65V211c0,0,0,-125,8,-139c0,0,11,-20,61,-27l53,-7V-4c0,0,-92,6,-162,6c0,0,-12,0,-94,-6c0,0,5,50,8,142C636,138,573,89,475,1c0,0,-64,-20,-112,-20Z" 
id="f1_20"
transform="scale(0.001,-0.001)" />

<path d="M-25,-429l-23,1l-16,52c0,0,25,-4,39,-4c0,0,34,0,57,16c0,0,36,26,55,79c0,0,20,53,26,239c0,0,5,184,5,396c0,0,0,224,-8,245c0,0,-8,20,-61,20H-3v43c0,0,102,11,185,39l65,23c0,0,12,0,12,-15l-1,-15c0,0,-2,-13,-6,-109c0,0,-10,-196,-10,-327L244,62c0,0,0,-196,-34,-292c0,0,-34,-95,-101,-147c0,0,-66,-52,-134,-52ZM176,881c0,0,-35,0,-60,25c0,0,-25,24,-25,59c0,0,0,35,25,60c0,0,25,25,60,25c0,0,35,0,59,-25c0,0,25,-25,25,-60c0,0,0,-35,-25,-59c0,0,-24,-25,-59,-25Z" 
id="f1_26"
transform="scale(0.001,-0.001)" />

<path d="M34,-4V38H91c0,0,48,0,58,26c0,0,9,26,9,281c0,0,0,187,-2,220c0,0,-2,34,-12,43c0,0,-11,9,-64,9H34v41c0,0,110,15,189,41l54,21c0,0,13,0,13,-18l-1,-27c0,0,-2,-42,-2,-93l100,90c0,0,24,21,51,30c0,0,39,14,77,14c0,0,84,0,135,-31c0,0,52,-30,94,-108l96,88c0,0,25,22,61,34c0,0,47,17,91,17c0,0,67,0,122,-32c0,0,54,-31,81,-81c0,0,26,-50,26,-136l-3,-292c0,0,0,-97,12,-115c0,0,11,-17,58,-20l55,-2V-4l-37,2c0,0,-87,2,-118,2c0,0,-47,0,-110,-4c0,0,10,137,10,321c0,0,0,156,-13,205c0,0,-13,49,-51,77c0,0,-38,28,-96,28c0,0,-64,0,-110,-35c0,0,-47,-35,-58,-84c0,0,-7,-31,-7,-266c0,0,0,-138,2,-157c0,0,2,-19,12,-27c0,0,11,-8,65,-14l50,-6V-4c0,0,-132,4,-194,4c0,0,-49,0,-191,-4V38h50c0,0,45,0,58,13c0,0,14,13,16,60c0,0,6,122,6,255c0,0,0,118,-16,163c0,0,-16,46,-55,72c0,0,-38,26,-92,26c0,0,-57,0,-104,-32c0,0,-47,-32,-64,-78c0,0,-11,-31,-11,-177c0,0,0,-161,3,-236c0,0,1,-35,11,-45c0,0,9,-10,64,-15l52,-6V-4c0,0,-94,4,-176,4C239,0,145,0,34,-4Z" 
id="f1_29"
transform="scale(0.001,-0.001)" />

<path d="M264,-19c0,0,-46,0,-92,10c0,0,-45,9,-91,28c0,0,-15,91,-60,224l41,17c0,0,47,-108,75,-142c0,0,29,-33,76,-53c0,0,46,-20,111,-20c0,0,112,0,175,69c0,0,63,69,63,193c0,0,0,105,-54,162c0,0,-53,58,-140,58c0,0,-67,0,-142,-38l-10,7l14,86c0,0,39,-5,59,-5c0,0,91,0,149,57c0,0,58,56,58,148c0,0,0,83,-50,134c0,0,-51,50,-133,50c0,0,-54,0,-103,-23c0,0,-50,-24,-74,-54c0,0,-10,-13,-25,-60L93,776H47L87,959c0,0,48,56,113,84c0,0,65,28,148,28c0,0,126,0,199,-65c0,0,73,-65,73,-160c0,0,0,-65,-31,-120c0,0,-32,-56,-128,-135c0,0,48,0,98,-19c0,0,70,-26,106,-79c0,0,36,-52,36,-126c0,0,0,-150,-129,-268C572,99,443,-19,264,-19Z" 
id="f1_n"
transform="scale(0.001,-0.001)" />

<path d="M254,367c0,0,63,0,168,3V902C422,902,259,665,100,370c0,0,86,-3,154,-3ZM235,-4V38l80,5c0,0,67,3,80,12c0,0,14,9,18,33c0,0,9,40,9,149v39c0,0,-288,0,-407,-8L2,313c0,0,120,212,196,335c0,0,75,124,236,374c0,0,40,11,103,41l21,-9c0,0,-4,-87,-5,-302V370c0,0,96,0,166,8c0,0,-4,-35,-4,-49c0,0,0,-10,5,-61c0,0,-80,8,-167,8c0,0,0,-183,12,-206c0,0,12,-23,79,-27l77,-5V-4c0,0,-142,4,-243,4c0,0,-40,0,-243,-4Z" 
id="f1_o"
transform="scale(0.001,-0.001)" />

<path d="M697,-17c0,0,-44,35,-208,200c0,0,-119,120,-194,186h-9V274c0,0,0,-188,12,-212c0,0,12,-24,75,-24h45V-4l-40,2c0,0,-108,2,-142,2L37,-4V38H81c0,0,58,0,68,22c0,0,10,22,10,213V719c0,0,0,247,-11,277c0,0,-7,18,-58,18H26v43c0,0,63,0,180,31l75,24c0,0,12,0,12,-15l-3,-75c0,0,-2,-28,-4,-312V410l9,-5c0,0,68,51,115,91c0,0,25,21,112,104L629,701H779V658H753c0,0,-26,0,-67,-25c0,0,-82,-48,-268,-203c0,0,140,-146,172,-175c0,0,148,-137,179,-162c0,0,19,-15,32,-21c0,0,13,-5,38,-8V30C839,30,774,1,697,-17Z" 
id="f1_27"
transform="scale(0.001,-0.001)" />

<path d="M377,-11c0,0,-98,245,-200,477c0,0,-39,85,-47,109c0,0,-16,48,-37,66c0,0,-20,17,-52,17H16v43c0,0,110,-5,183,-5c0,0,78,0,171,5V658H337c0,0,-45,0,-64,-10c0,0,-13,-7,-13,-22c0,0,0,-13,14,-52c0,0,13,-38,180,-451L588,445c0,0,45,112,56,156c0,0,3,11,3,20c0,0,0,14,-10,21c0,0,-10,6,-50,11l-48,5v43c0,0,77,-5,137,-5c0,0,70,0,150,5V658H803c0,0,-17,0,-33,-7c0,0,-12,-5,-20,-13c0,0,-7,-8,-54,-104c0,0,-84,-174,-128,-274c0,0,-45,-101,-114,-271Z" 
id="f1_2i"
transform="scale(0.001,-0.001)" />

<path d="M17,-4V38H67c0,0,58,0,68,23c0,0,15,32,15,235V587L42,580v31c0,0,53,26,108,55v95c0,0,0,72,19,118c0,0,20,45,80,107c0,0,80,83,124,109c0,0,29,17,73,17c0,0,29,0,65,-10c0,0,-2,-38,-2,-61c0,0,0,-23,2,-63l-18,-9c0,0,-44,39,-101,39c0,0,-63,0,-90,-43c0,0,-26,-42,-26,-207V658c0,0,121,1,198,8l5,-8L467,587l-92,2c0,0,-33,0,-99,-2V296c0,0,0,-209,12,-233c0,0,12,-25,75,-25h65V-4c0,0,-122,4,-175,4L17,-4Z" 
id="f1_22"
transform="scale(0.001,-0.001)" />

<path d="M192,-19c0,0,-37,0,-63,25c0,0,-25,26,-25,62c0,0,0,37,25,62c0,0,26,25,63,25c0,0,36,0,61,-25c0,0,26,-25,26,-62c0,0,0,-36,-26,-62c0,0,-25,-25,-61,-25Z" 
id="f1_i"
transform="scale(0.001,-0.001)" />

<path d="M46,-4V42H93c0,0,69,0,83,34c0,0,14,33,14,321V650c0,0,0,298,-12,329c0,0,-12,30,-72,30H46v47c0,0,124,-5,245,-5c0,0,100,0,182,5v-47H416c0,0,-54,0,-67,-13c0,0,-13,-12,-16,-64c0,0,-3,-79,-3,-284V391c0,0,0,-290,12,-319c0,0,13,-30,82,-30h49V-4c0,0,-91,4,-200,4C273,0,147,0,46,-4Z" 
id="f1_19"
transform="scale(0.001,-0.001)" />

<path d="M127,-4V44l58,2c0,0,101,3,121,29c0,0,20,25,19,204l5,414c0,0,0,207,-4,228c0,0,-3,13,-14,13c0,0,-7,0,-34,-12c0,0,-127,-55,-174,-82c0,0,-33,-19,-39,-19c0,0,-9,0,-11,12l-5,73c0,0,235,70,401,157l21,-10l-3,-84L461,539L456,245c0,0,0,-105,9,-140c0,0,9,-34,28,-46c0,0,20,-11,95,-13l68,-2V-4c0,0,-187,4,-266,4c0,0,-90,0,-263,-4Z" 
id="f1_l"
transform="scale(0.001,-0.001)" />

<path d="M620,45c0,0,115,0,202,53c0,0,87,53,136,158c0,0,50,105,50,255c0,0,0,158,-55,270c0,0,-55,112,-150,169c0,0,-96,56,-227,56c0,0,-119,0,-206,-50c0,0,-87,-50,-136,-146c0,0,-49,-96,-49,-223c0,0,0,-168,58,-293c0,0,58,-125,155,-187c0,0,97,-62,222,-62ZM566,-19c0,0,-162,0,-279,65c0,0,-117,66,-185,192c0,0,-68,125,-68,288c0,0,0,245,158,395c0,0,159,150,422,150c0,0,258,0,405,-139c0,0,147,-139,147,-370c0,0,0,-248,-171,-415C995,147,825,-19,566,-19Z" 
id="f1_1f"
transform="scale(0.001,-0.001)" />

<path d="M754,415L566,863L378,415ZM28,-4V42l23,1c0,0,52,1,67,11c0,0,16,9,33,46c0,0,53,107,108,232L464,796c0,0,82,185,112,269h51L1004,187c0,0,38,-90,51,-108c0,0,12,-18,29,-26c0,0,16,-8,74,-11V-4c0,0,-97,4,-185,4c0,0,-82,0,-219,-4V42l74,5c0,0,40,3,47,8c0,0,11,8,11,21c0,0,0,13,-22,70L782,353H351L300,233c0,0,-50,-119,-50,-146c0,0,0,-17,9,-25c0,0,10,-7,48,-12l71,-8V-4c0,0,-71,4,-161,4C217,0,110,0,28,-4Z" 
id="f1_11"
transform="scale(0.001,-0.001)" />

<path d="M441,59c0,0,132,0,205,70c0,0,73,71,73,192c0,0,0,81,-32,133c0,0,-32,53,-90,77c0,0,-58,24,-185,24c0,0,-38,0,-85,-2V194c0,0,3,-51,3,-78c0,0,0,-20,-3,-47c0,0,69,-10,114,-10ZM395,614c0,0,149,0,213,53c0,0,65,52,65,152c0,0,0,86,-54,131c0,0,-54,46,-172,46c0,0,-52,0,-114,-9c0,0,-6,-92,-6,-276V616c0,0,37,-2,68,-2ZM116,-4V28c0,0,47,23,55,35c0,0,9,12,11,39c0,0,5,89,5,202V769c0,0,0,186,-14,211c0,0,-16,29,-79,29H43v47h62l68,-2c0,0,54,-3,85,-3c0,0,47,0,185,4l109,3c0,0,128,0,192,-45c0,0,79,-57,79,-161c0,0,0,-85,-56,-149c0,0,-56,-64,-193,-108c0,0,161,-10,231,-74c0,0,71,-64,71,-177c0,0,0,-142,-119,-246C757,98,638,-4,455,-4l-59,2c0,0,-75,2,-126,2c0,0,-37,0,-92,-2L116,-4Z" 
id="f1_12"
transform="scale(0.001,-0.001)" />

<path d="M672,-19c0,0,-183,0,-322,70c0,0,-139,71,-214,196c0,0,-74,125,-74,282c0,0,0,157,75,281c0,0,75,124,213,192c0,0,137,69,338,69c0,0,105,0,246,-35c0,0,70,-16,114,-25c0,0,-34,-79,-39,-225H959l-6,133c0,0,-66,44,-139,66c0,0,-72,21,-151,21c0,0,-202,0,-323,-122C340,884,219,762,219,557c0,0,0,-143,62,-256c0,0,61,-112,174,-178c0,0,114,-65,240,-65c0,0,100,0,197,23c0,0,74,17,147,72l16,-15c0,0,-16,-34,-29,-70C1026,68,939,25,850,3c0,0,-88,-22,-178,-22Z" 
id="f1_13"
transform="scale(0.001,-0.001)" />

<path d="M256,-19c0,0,-47,0,-81,9c0,0,-34,9,-79,32C96,22,83,65,74,91L18,224l38,22L74,213c0,0,51,-91,67,-107c0,0,22,-21,66,-36c0,0,45,-15,103,-15c0,0,125,0,194,72c0,0,70,73,70,209c0,0,0,119,-64,187c0,0,-65,69,-171,69c0,0,-61,0,-110,-24c0,0,-48,-24,-85,-75l-33,11c0,0,11,130,11,331c0,0,0,126,-11,219l13,8c0,0,117,-11,241,-11c0,0,149,0,286,11l9,-8c0,0,-7,-37,-7,-58c0,0,0,-19,7,-60l-9,-8c0,0,-85,5,-163,5c0,0,-157,0,-299,-5c0,0,-7,-57,-12,-311c0,0,55,44,105,61c0,0,50,18,114,18c0,0,139,0,224,-83c0,0,84,-83,84,-215c0,0,0,-167,-133,-292C571,106,438,-19,256,-19Z" 
id="f1_p"
transform="scale(0.001,-0.001)" />

<path d="M655,-326c0,0,-15,47,-33,91L101,1007c0,0,-21,50,-46,99h61c0,0,10,0,56,5c0,0,14,-50,35,-101L717,-216c0,0,25,-60,49,-110l-58,3c0,0,-1,0,-3,0c-5,0,-19,0,-50,-3Z" 
id="f1_1s"
transform="scale(0.001,-0.001)" />

<path d="M1106,-23c0,0,-101,15,-118,22c0,0,-16,6,-31,23c0,0,-83,91,-174,203L246,888V372c0,0,0,-176,7,-245c0,0,5,-53,18,-64c0,0,12,-12,71,-17l48,-4V-4c0,0,-81,4,-147,4C243,0,198,0,34,-4V42H88c0,0,48,0,63,13c0,0,15,14,19,53c0,0,8,82,8,223V702c0,0,0,104,-2,206c0,0,-2,44,-12,60c0,0,-10,16,-29,28c0,0,-20,13,-55,13H34v47c0,0,95,-5,145,-5c0,0,53,0,117,5c0,0,74,-90,140,-176c0,0,65,-85,135,-172L826,395c0,0,139,-168,200,-234V640c0,0,0,300,-11,328c0,0,-11,28,-86,36l-56,5v47c0,0,120,-5,186,-5c0,0,69,0,179,5v-47h-57c0,0,-70,0,-80,-46c0,0,-7,-31,-7,-327V300c0,0,0,-136,12,-323Z" 
id="f1_1e"
transform="scale(0.001,-0.001)" />

<path d="M33,-4V39c0,0,80,89,190,235L561,722c0,0,137,182,195,264c0,0,-108,5,-187,5c0,0,-134,0,-288,-11c0,0,-67,-5,-79,-16c0,0,-12,-11,-17,-67l-7,-88H129c0,0,5,81,5,125c0,0,0,44,-5,123l93,1l584,-6c0,0,95,0,158,5v-46c0,0,-75,-84,-119,-140L607,557L235,65H560c0,0,202,0,265,5c0,0,36,4,52,21c0,0,16,18,23,87l9,85h55c0,0,-15,-117,-15,-227V-4H811c0,0,-42,0,-180,3c0,0,-147,1,-274,1C357,0,147,0,33,-4Z" 
id="f1_1q"
transform="scale(0.001,-0.001)" />

<path d="M411,150V473H87V577H411V901H514V577H838V473H514V150Z" 
id="f1_f"
transform="scale(0.001,-0.001)" />

<path d="M109,-4L96,15c0,0,103,163,349,578c0,0,115,193,189,333l-8,7l-47,1c0,0,-81,0,-314,-6c0,0,-96,-3,-109,-11c0,0,-13,-7,-20,-27c0,0,-6,-20,-16,-117l-5,-43H68c0,0,5,99,5,181c0,0,0,73,-7,136l13,14c0,0,110,-8,277,-8c0,0,268,0,405,8v-44C761,1017,384,344,253,-2c0,0,-49,2,-71,2c0,0,-32,0,-73,-4Z" 
id="f1_r"
transform="scale(0.001,-0.001)" />

<path d="M256,-4V58c0,0,43,0,89,7c0,0,21,4,30,12c0,0,9,9,14,32c0,0,5,32,9,236c0,0,2,145,2,295c0,0,0,296,-2,302c0,0,-2,5,-53,5c0,0,-103,0,-178,-5c0,0,-43,-4,-49,-8c0,0,-6,-4,-9,-13c0,0,-3,-9,-12,-131H32c0,0,2,142,-8,245l9,6c0,0,235,-10,457,-10c0,0,222,0,496,10l8,-12c0,0,-14,-102,-20,-239H912c0,0,-6,126,-13,136c0,0,-5,9,-24,12c0,0,-60,9,-238,9c0,0,-14,0,-17,-4c0,0,-3,-5,-3,-40L612,401c0,0,0,-218,4,-267c0,0,4,-50,18,-61c0,0,10,-6,118,-15V-4c0,0,-110,4,-233,4C519,0,357,0,256,-4Z" 
id="f0_1k"
transform="scale(0.001,-0.001)" />

<path d="M35,-4V57c0,0,81,4,93,11c0,0,7,4,11,13c0,0,7,19,8,137l2,275c0,0,0,218,-5,398c0,0,-2,68,-14,80c0,0,-12,11,-95,14v53c0,0,46,0,132,18c0,0,86,17,141,39c0,0,22,10,26,10c0,0,11,0,11,-14v-5c0,0,-2,-18,-2,-56L337,791c0,0,-1,-87,0,-201l98,83c0,0,31,26,47,32c0,0,39,16,92,16c0,0,117,0,173,-59c0,0,55,-58,55,-184L799,182c0,0,0,-79,6,-98c0,0,3,-11,17,-18c0,0,14,-6,83,-9V-4c0,0,-91,4,-163,4c0,0,-67,0,-138,-4L595,8c0,0,14,145,14,284c0,0,0,192,-22,237c0,0,-30,58,-107,58c0,0,-47,0,-82,-22c0,0,-36,-22,-50,-51c0,0,-14,-30,-14,-111l3,-230c0,0,1,-77,8,-92c0,0,4,-8,12,-12c0,0,16,-8,97,-12V-4c0,0,-86,4,-180,4C274,0,138,0,35,-4Z" 
id="f0_24"
transform="scale(0.001,-0.001)" />

<path d="M91,-5L83,3V48l8,9c0,0,143,12,161,20c0,0,14,6,20,19c0,0,10,20,13,147c0,0,6,216,6,382c0,0,0,219,-4,244c0,0,-3,13,-14,13c0,0,-7,0,-21,-6L47,781l-10,6c0,0,-6,55,-15,92l5,11c0,0,281,81,466,156l19,-11c0,0,-9,-104,-14,-283c0,0,-5,-179,-5,-434c0,0,0,-174,10,-216c0,0,4,-20,17,-27c0,0,18,-10,152,-18l9,-9V3l-9,-8l-93,2c0,0,-140,3,-190,3C389,0,252,0,91,-5Z" 
id="f0_l"
transform="scale(0.001,-0.001)" />


</defs>
</svg>