<?xml version="1.0" encoding="UTF-8" standalone="no"?>
<!DOCTYPE svg PUBLIC "-//W3C//DTD SVG 1.1//EN"
"http://www.w3.org/Graphics/SVG/1.1/DTD/svg11.dtd">
<svg viewBox="0 0 909 1286" version="1.1" xmlns="http://www.w3.org/2000/svg" xmlns:xlink="http://www.w3.org/1999/xlink">
<defs>
<style type="text/css"><![CDATA[
.g0_53{
}
]]></style>
</defs>
<g fill="#000000" >
<use xlink:href="#f0_1g" transform="matrix(18,0,0,18,390.9,117.7)" />
<use xlink:href="#f0_2e" transform="matrix(18,0,0,18,407.7,117.7)" />
<use xlink:href="#f0_2b" transform="matrix(18,0,0,18,418.6,117.7)" />
<use xlink:href="#f0_1y" transform="matrix(18,0,0,18,433.9,117.7)" />
<use xlink:href="#f0_1x" transform="matrix(18,0,0,18,450.7,117.7)" />
<use xlink:href="#f0_1y" transform="matrix(18,0,0,18,464.5,117.7)" />
<use xlink:href="#f0_25" transform="matrix(18,0,0,18,481.3,117.7)" />
<use xlink:href="#f0_28" transform="matrix(18,0,0,18,490.4,117.7)" />
<use xlink:href="#f0_25" transform="matrix(18,0,0,18,499.6,117.7)" />
<use xlink:href="#f0_2g" transform="matrix(18,0,0,18,508.8,117.7)" />
<use xlink:href="#f0_2l" transform="matrix(18,0,0,18,517.9,117.7)" />
</g>
<path fill-rule="evenodd" d="M390.9,123H533.2v-1.6H390.9V123Z" class="g0_53" />
<g fill="#000000" >
<use xlink:href="#f1_2b" transform="matrix(12,0,0,12,55,383)" />
<use xlink:href="#f2_1c" transform="matrix(12,0,0,12,82.5,383)" />
<use xlink:href="#f2_21" transform="matrix(12,0,0,12,93.7,383)" />
<use xlink:href="#f2_2g" transform="matrix(12,0,0,12,102.5,383)" />
<use xlink:href="#f2_1o" transform="matrix(12,0,0,12,115.8,383)" />
<use xlink:href="#f2_1y" transform="matrix(12,0,0,12,135.4,383)" />
<use xlink:href="#f2_21" transform="matrix(12,0,0,12,145.5,383)" />
<use xlink:href="#f2_1x" transform="matrix(12,0,0,12,161.6,383)" />
<use xlink:href="#f2_2e" transform="matrix(12,0,0,12,178.1,383)" />
<use xlink:href="#f2_1x" transform="matrix(12,0,0,12,185.4,383)" />
<use xlink:href="#f2_2a" transform="matrix(12,0,0,12,194.6,383)" />
<use xlink:href="#f2_20" transform="matrix(12,0,0,12,205.2,383)" />
<use xlink:href="#f2_2b" transform="matrix(12,0,0,12,216.4,383)" />
<use xlink:href="#f2_29" transform="matrix(12,0,0,12,226.5,383)" />
<use xlink:href="#f2_2i" transform="matrix(12,0,0,12,249.7,383)" />
<use xlink:href="#f2_1x" transform="matrix(12,0,0,12,260.4,383)" />
<use xlink:href="#f2_2e" transform="matrix(12,0,0,12,269.3,383)" />
<use xlink:href="#f2_25" transform="matrix(12,0,0,12,276.7,383)" />
<use xlink:href="#f2_1x" transform="matrix(12,0,0,12,282,383)" />
<use xlink:href="#f2_1y" transform="matrix(12,0,0,12,291.2,383)" />
<use xlink:href="#f2_28" transform="matrix(12,0,0,12,301.2,383)" />
<use xlink:href="#f2_21" transform="matrix(12,0,0,12,306.6,383)" />
<use xlink:href="#f2_2j" transform="matrix(12,0,0,12,322.7,383)" />
<use xlink:href="#f2_24" transform="matrix(12,0,0,12,337.9,383)" />
<use xlink:href="#f2_2b" transform="matrix(12,0,0,12,348.5,383)" />
<use xlink:href="#f2_2f" transform="matrix(12,0,0,12,358.6,383)" />
<use xlink:href="#f2_21" transform="matrix(12,0,0,12,366.3,383)" />
<use xlink:href="#f2_2c" transform="matrix(12,0,0,12,382.4,383)" />
<use xlink:href="#f2_2b" transform="matrix(12,0,0,12,393.4,383)" />
<use xlink:href="#f2_2f" transform="matrix(12,0,0,12,403.5,383)" />
<use xlink:href="#f2_2f" transform="matrix(12,0,0,12,411.2,383)" />
<use xlink:href="#f2_25" transform="matrix(12,0,0,12,418.9,383)" />
<use xlink:href="#f2_1y" transform="matrix(12,0,0,12,424.2,383)" />
<use xlink:href="#f2_28" transform="matrix(12,0,0,12,434.3,383)" />
<use xlink:href="#f2_21" transform="matrix(12,0,0,12,439.6,383)" />
<use xlink:href="#f2_2i" transform="matrix(12,0,0,12,455.9,383)" />
<use xlink:href="#f2_1x" transform="matrix(12,0,0,12,466.3,383)" />
<use xlink:href="#f2_28" transform="matrix(12,0,0,12,475.5,383)" />
<use xlink:href="#f2_2h" transform="matrix(12,0,0,12,480.8,383)" />
<use xlink:href="#f2_21" transform="matrix(12,0,0,12,491.8,383)" />
<use xlink:href="#f2_2f" transform="matrix(12,0,0,12,500.6,383)" />
<use xlink:href="#f2_2k" transform="matrix(12,0,0,12,515.6,383)" />
<use xlink:href="#f2_l" transform="matrix(8,0,0,8,525.4,384.5)" />
<use xlink:href="#f2_g" transform="matrix(12,0,0,12,531.6,383)" />
<use xlink:href="#f2_2k" transform="matrix(12,0,0,12,543.5,383)" />
<use xlink:href="#f2_m" transform="matrix(8,0,0,8,552.9,384.5)" />
<use xlink:href="#f2_g" transform="matrix(12,0,0,12,559.1,383)" />
<use xlink:href="#f2_i" transform="matrix(12,0,0,12,563.7,383)" />
<use xlink:href="#f2_i" transform="matrix(12,0,0,12,568.3,383)" />
<use xlink:href="#f2_i" transform="matrix(12,0,0,12,572.8,383)" />
<use xlink:href="#f2_g" transform="matrix(12,0,0,12,577.4,383)" />
<use xlink:href="#f2_2k" transform="matrix(12,0,0,12,582,383)" />
<use xlink:href="#f2_2a" transform="matrix(8,0,0,8,591.4,384.5)" />
<use xlink:href="#f2_2b" transform="matrix(12,0,0,12,605.8,383)" />
<use xlink:href="#f2_1z" transform="matrix(12,0,0,12,615.9,383)" />
<use xlink:href="#f2_1z" transform="matrix(12,0,0,12,624,383)" />
<use xlink:href="#f2_2h" transform="matrix(12,0,0,12,632,383)" />
<use xlink:href="#f2_2e" transform="matrix(12,0,0,12,643.1,383)" />
<use xlink:href="#f2_2j" transform="matrix(12,0,0,12,657.7,383)" />
<use xlink:href="#f2_25" transform="matrix(12,0,0,12,672.9,383)" />
<use xlink:href="#f2_2g" transform="matrix(12,0,0,12,678.2,383)" />
<use xlink:href="#f2_24" transform="matrix(12,0,0,12,684.3,383)" />
<use xlink:href="#f2_2c" transform="matrix(12,0,0,12,702.3,383)" />
<use xlink:href="#f2_2e" transform="matrix(12,0,0,12,713.3,383)" />
<use xlink:href="#f2_2b" transform="matrix(12,0,0,12,720.6,383)" />
<use xlink:href="#f2_1y" transform="matrix(12,0,0,12,730.7,383)" />
<use xlink:href="#f2_1x" transform="matrix(12,0,0,12,740.8,383)" />
<use xlink:href="#f2_1y" transform="matrix(12,0,0,12,749.9,383)" />
<use xlink:href="#f2_25" transform="matrix(12,0,0,12,760,383)" />
<use xlink:href="#f2_28" transform="matrix(12,0,0,12,765.3,383)" />
<use xlink:href="#f2_25" transform="matrix(12,0,0,12,770.6,383)" />
<use xlink:href="#f2_2g" transform="matrix(12,0,0,12,776,383)" />
<use xlink:href="#f2_25" transform="matrix(12,0,0,12,782,383)" />
<use xlink:href="#f2_21" transform="matrix(12,0,0,12,787.3,383)" />
<use xlink:href="#f2_2f" transform="matrix(12,0,0,12,796.1,383)" />
<use xlink:href="#f2_2c" transform="matrix(12,0,0,12,811.1,383)" />
<use xlink:href="#f2_c" transform="matrix(12,0,0,12,822.1,383)" />
<use xlink:href="#f2_2k" transform="matrix(12,0,0,12,828.2,383)" />
<use xlink:href="#f2_l" transform="matrix(8,0,0,8,837.8,384.5)" />
<use xlink:href="#f2_d" transform="matrix(12,0,0,12,844,383)" />
<use xlink:href="#f2_g" transform="matrix(12,0,0,12,850.1,383)" />
<use xlink:href="#f2_2c" transform="matrix(12,0,0,12,82.5,405.9)" />
<use xlink:href="#f2_c" transform="matrix(12,0,0,12,93.5,405.9)" />
<use xlink:href="#f2_2k" transform="matrix(12,0,0,12,99.5,405.9)" />
<use xlink:href="#f2_m" transform="matrix(8,0,0,8,109.1,407.4)" />
<use xlink:href="#f2_d" transform="matrix(12,0,0,12,115.4,405.9)" />
<use xlink:href="#f2_g" transform="matrix(12,0,0,12,121.5,405.9)" />
<use xlink:href="#f2_i" transform="matrix(12,0,0,12,126,405.9)" />
<use xlink:href="#f2_i" transform="matrix(12,0,0,12,130.6,405.9)" />
<use xlink:href="#f2_i" transform="matrix(12,0,0,12,135.2,405.9)" />
<use xlink:href="#f2_g" transform="matrix(12,0,0,12,139.8,405.9)" />
<use xlink:href="#f2_2c" transform="matrix(12,0,0,12,149,405.9)" />
<use xlink:href="#f2_c" transform="matrix(12,0,0,12,159.9,405.9)" />
<use xlink:href="#f2_2k" transform="matrix(12,0,0,12,166,405.9)" />
<use xlink:href="#f2_2a" transform="matrix(8,0,0,8,175.5,407.4)" />
<use xlink:href="#f2_d" transform="matrix(12,0,0,12,182.6,405.9)" />
<use xlink:href="#f2_2e" transform="matrix(12,0,0,12,193.3,405.9)" />
<use xlink:href="#f2_21" transform="matrix(12,0,0,12,200.6,405.9)" />
<use xlink:href="#f2_2f" transform="matrix(12,0,0,12,209.4,405.9)" />
<use xlink:href="#f2_2c" transform="matrix(12,0,0,12,217.1,405.9)" />
<use xlink:href="#f2_21" transform="matrix(12,0,0,12,228.1,405.9)" />
<use xlink:href="#f2_1z" transform="matrix(12,0,0,12,236.9,405.9)" />
<use xlink:href="#f2_2g" transform="matrix(12,0,0,12,244.9,405.9)" />
<use xlink:href="#f2_25" transform="matrix(12,0,0,12,251,405.9)" />
<use xlink:href="#f2_2i" transform="matrix(12,0,0,12,256.3,405.9)" />
<use xlink:href="#f2_21" transform="matrix(12,0,0,12,266.6,405.9)" />
<use xlink:href="#f2_28" transform="matrix(12,0,0,12,275.3,405.9)" />
<use xlink:href="#f2_2l" transform="matrix(12,0,0,12,280.7,405.9)" />
<use xlink:href="#f2_i" transform="matrix(12,0,0,12,290.9,405.9)" />
<use xlink:href="#f2_1k" transform="matrix(12,0,0,12,82.5,639.5)" />
<use xlink:href="#f2_24" transform="matrix(12,0,0,12,93.7,639.5)" />
<use xlink:href="#f2_21" transform="matrix(12,0,0,12,104.3,639.5)" />
<use xlink:href="#f2_2a" transform="matrix(12,0,0,12,117.7,639.5)" />
<use xlink:href="#f2_2b" transform="matrix(12,0,0,12,128.4,639.5)" />
<use xlink:href="#f2_2a" transform="matrix(12,0,0,12,138.4,639.5)" />
<use xlink:href="#f2_h" transform="matrix(12,0,0,12,149.1,639.5)" />
<use xlink:href="#f2_2a" transform="matrix(12,0,0,12,159.7,639.5)" />
<use xlink:href="#f2_21" transform="matrix(12,0,0,12,170.4,639.5)" />
<use xlink:href="#f2_23" transform="matrix(12,0,0,12,179.2,639.5)" />
<use xlink:href="#f2_1x" transform="matrix(12,0,0,12,189.4,639.5)" />
<use xlink:href="#f2_2g" transform="matrix(12,0,0,12,198.5,639.5)" />
<use xlink:href="#f2_25" transform="matrix(12,0,0,12,204.6,639.5)" />
<use xlink:href="#f2_2i" transform="matrix(12,0,0,12,209.9,639.5)" />
<use xlink:href="#f2_21" transform="matrix(12,0,0,12,220.4,639.5)" />
<use xlink:href="#f2_2a" transform="matrix(12,0,0,12,233.7,639.5)" />
<use xlink:href="#f2_2h" transform="matrix(12,0,0,12,244.4,639.5)" />
<use xlink:href="#f2_29" transform="matrix(12,0,0,12,255.4,639.5)" />
<use xlink:href="#f2_1y" transform="matrix(12,0,0,12,271.5,639.5)" />
<use xlink:href="#f2_21" transform="matrix(12,0,0,12,281.6,639.5)" />
<use xlink:href="#f2_2e" transform="matrix(12,0,0,12,290.4,639.5)" />
<use xlink:href="#f2_25" transform="matrix(12,0,0,12,302.3,639.5)" />
<use xlink:href="#f2_2f" transform="matrix(12,0,0,12,307.7,639.5)" />
<use xlink:href="#f2_1z" transform="matrix(12,0,0,12,319.9,639.5)" />
<use xlink:href="#f2_1x" transform="matrix(12,0,0,12,328,639.5)" />
<use xlink:href="#f2_28" transform="matrix(12,0,0,12,337.2,639.5)" />
<use xlink:href="#f2_28" transform="matrix(12,0,0,12,342.5,639.5)" />
<use xlink:href="#f2_21" transform="matrix(12,0,0,12,347.9,639.5)" />
<use xlink:href="#f2_20" transform="matrix(12,0,0,12,356.6,639.5)" />
<use xlink:href="#f2_2g" transform="matrix(12,0,0,12,372.4,639.5)" />
<use xlink:href="#f2_24" transform="matrix(12,0,0,12,378.4,639.5)" />
<use xlink:href="#f2_21" transform="matrix(12,0,0,12,389.1,639.5)" />
<use xlink:href="#f2_2f" transform="matrix(12,0,0,12,402.4,639.5)" />
<use xlink:href="#f2_2g" transform="matrix(12,0,0,12,410.2,639.5)" />
<use xlink:href="#f2_1x" transform="matrix(12,0,0,12,416.2,639.5)" />
<use xlink:href="#f2_2a" transform="matrix(12,0,0,12,425.3,639.5)" />
<use xlink:href="#f2_20" transform="matrix(12,0,0,12,436.2,639.5)" />
<use xlink:href="#f2_1x" transform="matrix(12,0,0,12,447.4,639.5)" />
<use xlink:href="#f2_2e" transform="matrix(12,0,0,12,456.5,639.5)" />
<use xlink:href="#f2_20" transform="matrix(12,0,0,12,463.8,639.5)" />
<use xlink:href="#f2_20" transform="matrix(12,0,0,12,479.6,639.5)" />
<use xlink:href="#f2_21" transform="matrix(12,0,0,12,490.8,639.5)" />
<use xlink:href="#f2_2i" transform="matrix(12,0,0,12,499.6,639.5)" />
<use xlink:href="#f2_25" transform="matrix(12,0,0,12,510,639.5)" />
<use xlink:href="#f2_1x" transform="matrix(12,0,0,12,515.3,639.5)" />
<use xlink:href="#f2_2g" transform="matrix(12,0,0,12,524.5,639.5)" />
<use xlink:href="#f2_25" transform="matrix(12,0,0,12,530.5,639.5)" />
<use xlink:href="#f2_2b" transform="matrix(12,0,0,12,535.9,639.5)" />
<use xlink:href="#f2_2a" transform="matrix(12,0,0,12,545.9,639.5)" />
<use xlink:href="#f2_2b" transform="matrix(12,0,0,12,560.9,639.5)" />
<use xlink:href="#f2_22" transform="matrix(12,0,0,12,571,639.5)" />
<use xlink:href="#f2_2g" transform="matrix(12,0,0,12,581.7,639.5)" />
<use xlink:href="#f2_24" transform="matrix(12,0,0,12,587.7,639.5)" />
<use xlink:href="#f2_21" transform="matrix(12,0,0,12,598.3,639.5)" />
<use xlink:href="#f2_2e" transform="matrix(12,0,0,12,611.7,639.5)" />
<use xlink:href="#f2_1x" transform="matrix(12,0,0,12,618.9,639.5)" />
<use xlink:href="#f2_2a" transform="matrix(12,0,0,12,628,639.5)" />
<use xlink:href="#f2_20" transform="matrix(12,0,0,12,638.7,639.5)" />
<use xlink:href="#f2_2b" transform="matrix(12,0,0,12,649.8,639.5)" />
<use xlink:href="#f2_29" transform="matrix(12,0,0,12,659.9,639.5)" />
<use xlink:href="#f2_2i" transform="matrix(12,0,0,12,680.6,639.5)" />
<use xlink:href="#f2_1x" transform="matrix(12,0,0,12,691.1,639.5)" />
<use xlink:href="#f2_2e" transform="matrix(12,0,0,12,700.2,639.5)" />
<use xlink:href="#f2_25" transform="matrix(12,0,0,12,707.5,639.5)" />
<use xlink:href="#f2_1x" transform="matrix(12,0,0,12,712.9,639.5)" />
<use xlink:href="#f2_1y" transform="matrix(12,0,0,12,722,639.5)" />
<use xlink:href="#f2_28" transform="matrix(12,0,0,12,732.1,639.5)" />
<use xlink:href="#f2_21" transform="matrix(12,0,0,12,737.4,639.5)" />
</g>
<image preserveAspectRatio="none" x="92" y="140" width="570" height="225" xlink:href="img/1.png" />
<image preserveAspectRatio="none" x="83" y="411" width="556" height="151" xlink:href="img/2.png" />
<image preserveAspectRatio="none" x="83" y="562" width="264" height="60" xlink:href="img/3.png" />
<image preserveAspectRatio="none" x="83" y="645" width="592" height="417" xlink:href="img/4.png" />
<image preserveAspectRatio="none" x="83" y="1062" width="516" height="137" xlink:href="img/5.png" />
<path fill-rule="evenodd" d="M36.7,37.4h.7v-.7h-.7v.7Z" class="g0_53" />
<path fill-rule="evenodd" d="M36.7,37.4h.7v-.7h-.7v.7Z" class="g0_53" />
<path fill-rule="evenodd" d="M37.4,37.4H872.3v-.7H37.4v.7Z" class="g0_53" />
<path fill-rule="evenodd" d="M872.3,37.4h.7v-.7h-.7v.7Z" class="g0_53" />
<path fill-rule="evenodd" d="M872.3,37.4h.7v-.7h-.7v.7Z" class="g0_53" />
<path fill-rule="evenodd" d="M36.7,1249h.7V37.4h-.7V1249Z" class="g0_53" />
<path fill-rule="evenodd" d="M872.3,1249h.7V37.4h-.7V1249Z" class="g0_53" />
<path fill-rule="evenodd" d="M36.7,1249.7h.7v-.7h-.7v.7Z" class="g0_53" />
<path fill-rule="evenodd" d="M36.7,1249.7h.7v-.7h-.7v.7Z" class="g0_53" />
<path fill-rule="evenodd" d="M37.4,1249.7H872.3v-.7H37.4v.7Z" class="g0_53" />
<path fill-rule="evenodd" d="M872.3,1249.7h.7v-.7h-.7v.7Z" class="g0_53" />
<path fill-rule="evenodd" d="M872.3,1249.7h.7v-.7h-.7v.7Z" class="g0_53" />
<defs>
<path d="M59,-4V58c0,0,88,6,100,14c0,0,9,4,14,16c0,0,7,18,10,154c0,0,4,136,4,263c0,0,0,238,-5,340c0,0,-5,102,-16,114c0,0,-11,12,-64,16l-43,4v62l84,-2c0,0,78,-3,124,-3c0,0,64,0,204,3c0,0,76,2,112,2c0,0,134,0,197,-25c0,0,64,-25,97,-76c0,0,33,-51,33,-128c0,0,0,-138,-98,-231c0,0,-98,-93,-249,-93c0,0,-20,0,-41,3c0,0,-22,3,-46,8c0,0,-13,27,-27,52l17,18c0,0,16,-3,30,-6c0,0,14,-2,25,-2c0,0,75,0,123,52c0,0,47,52,47,145c0,0,0,104,-49,155c0,0,-49,51,-144,51c0,0,-39,0,-91,-11c0,0,-8,-229,-8,-389c0,0,0,-54,6,-342c0,0,2,-114,7,-131c0,0,4,-13,15,-18c0,0,16,-9,126,-15V-4c0,0,-131,4,-222,4C331,0,291,0,59,-4Z" 
id="f0_1g"
transform="scale(0.001,-0.001)" />

<path d="M16,-4V57c0,0,75,3,86,9c0,0,9,4,14,14c0,0,9,18,10,79c0,0,3,109,3,199c0,0,0,172,-4,204c0,0,-3,19,-14,27c0,0,-11,7,-95,10v58c0,0,150,14,215,35l76,29c0,0,11,0,11,-15l-1,-10c0,0,-2,-47,-2,-135c0,0,38,36,84,92c0,0,34,42,60,55c0,0,25,13,68,13c0,0,23,0,48,-9c0,0,-7,-74,-9,-203L533,497c0,0,-18,29,-38,41c0,0,-21,12,-53,12c0,0,-45,0,-77,-24c0,0,-32,-23,-41,-53c0,0,-6,-22,-6,-152c0,0,0,-189,5,-220c0,0,3,-21,14,-29c0,0,17,-11,113,-15V-4l-84,3c0,0,-80,1,-138,1c0,0,-55,0,-128,-1L16,-4Z" 
id="f0_2e"
transform="scale(0.001,-0.001)" />

<path d="M437,53c0,0,69,0,107,55c0,0,38,55,38,201c0,0,0,200,-46,277c0,0,-38,61,-119,61c0,0,-69,0,-109,-56c0,0,-40,-56,-40,-190c0,0,0,-199,51,-283c0,0,39,-65,118,-65ZM415,-20c0,0,-173,0,-263,94c0,0,-90,95,-90,276c0,0,0,177,82,265c0,0,99,106,286,106c0,0,187,0,272,-85c0,0,86,-84,86,-266c0,0,0,-188,-99,-289C689,81,591,-20,415,-20Z" 
id="f0_2b"
transform="scale(0.001,-0.001)" />

<path d="M495,82c0,0,80,0,129,64c0,0,49,64,49,194c0,0,0,122,-50,184c0,0,-51,63,-132,63c0,0,-43,0,-80,-20c0,0,-38,-20,-70,-59V165c0,0,28,-41,66,-62c0,0,39,-21,88,-21ZM179,-20L144,-5c0,0,13,179,13,498c0,0,0,144,-2,222l-4,192c0,0,0,44,-8,58c0,0,-5,10,-18,14c0,0,-10,3,-88,6v53c0,0,41,0,131,18c0,0,89,18,134,36l33,13c0,0,14,0,14,-18l-2,-78c0,0,-2,-41,-6,-423l90,75c0,0,43,36,77,48c0,0,34,12,81,12c0,0,125,0,201,-80c0,0,75,-80,75,-209c0,0,0,-64,-21,-131c0,0,-20,-68,-51,-111c0,0,-31,-43,-80,-75c0,0,-62,-40,-105,-73C608,42,556,3,521,-8c0,0,-35,-12,-85,-12c0,0,-50,0,-94,13c0,0,-43,12,-97,45c0,0,-18,-13,-66,-58Z" 
id="f0_1y"
transform="scale(0.001,-0.001)" />

<path d="M328,113c0,0,58,0,120,67V362c0,0,-131,-29,-170,-62c0,0,-39,-33,-39,-89c0,0,0,-45,25,-71c0,0,25,-27,64,-27ZM219,-20c0,0,-79,0,-122,46C97,26,54,73,54,163c0,0,0,111,59,157c0,0,75,59,335,106c0,0,-2,89,-31,128c0,0,-40,55,-126,55c0,0,-20,0,-41,-5c0,0,-21,-5,-43,-15L174,509l-52,13l2,34l-1,33l-1,29c0,0,114,71,164,89c0,0,37,14,102,14c0,0,88,0,143,-27c0,0,55,-26,80,-72c0,0,26,-46,26,-133c0,0,0,-36,-3,-131c0,0,-3,-97,-3,-156c0,0,0,-93,5,-113c0,0,3,-12,14,-19c0,0,12,-7,79,-13V-4l-57,3c0,0,-46,1,-91,1c0,0,-71,0,-133,-4l-8,7l8,102L292,-10c0,0,-41,-10,-73,-10Z" 
id="f0_1x"
transform="scale(0.001,-0.001)" />

<path d="M47,-4V57c0,0,84,3,97,10c0,0,13,8,17,42c0,0,6,47,6,207c0,0,0,70,-2,129l-2,87c0,0,0,43,-10,54c0,0,-9,10,-50,11l-56,2v58c0,0,180,14,296,64l19,-15c0,0,-11,-143,-11,-416c0,0,0,-157,5,-190c0,0,4,-23,14,-30c0,0,10,-7,97,-13V-4c0,0,-134,4,-208,4C259,0,220,0,47,-4ZM254,845c0,0,-47,0,-81,34c0,0,-34,34,-34,81c0,0,0,49,34,83c0,0,34,34,82,34c0,0,48,0,82,-34c0,0,34,-34,34,-83c0,0,0,-47,-34,-81c0,0,-34,-34,-83,-34Z" 
id="f0_25"
transform="scale(0.001,-0.001)" />

<path d="M42,-4V57l55,3c0,0,38,1,48,14c0,0,11,12,14,93c0,0,3,113,3,321V806c0,0,-1,146,-9,165c0,0,-3,9,-11,13c0,0,-13,8,-100,11v43c0,0,106,15,167,29c0,0,61,15,131,43l20,-17c0,0,-11,-266,-11,-744c0,0,0,-96,3,-195c0,0,1,-62,7,-72c0,0,6,-10,18,-16c0,0,12,-6,88,-9V-4l-78,3c0,0,-73,1,-122,1L42,-4Z" 
id="f0_28"
transform="scale(0.001,-0.001)" />

<path d="M294,-20c0,0,-63,0,-105,21c0,0,-42,22,-61,56c0,0,-19,34,-19,102c0,0,0,36,3,188c0,0,4,134,4,211l-38,2c0,0,-23,0,-60,-5v39l98,65c0,0,-1,132,-7,231c0,0,102,31,192,76l23,-17c0,0,-17,-108,-23,-290c0,0,34,-6,68,-6c0,0,76,0,137,10l6,-5l-6,-26c0,0,-12,-42,-17,-77c0,0,-87,6,-128,6c0,0,-31,0,-60,-3c0,0,-1,-75,-1,-132c0,0,0,-251,15,-285c0,0,14,-34,70,-34c0,0,17,0,36,3c0,0,19,4,41,11L474,92c0,0,-45,-50,-87,-103c0,0,-28,-4,-51,-6c0,0,-23,-3,-42,-3Z" 
id="f0_2g"
transform="scale(0.001,-0.001)" />

<path d="M141,-398c0,0,-51,0,-108,25c0,0,18,74,27,144l20,7c0,0,44,-49,102,-49c0,0,49,0,81,32c0,0,32,32,100,186L196,367L104,593c0,0,-12,28,-25,36c0,0,-14,9,-76,13v62c0,0,172,-5,219,-5c0,0,67,0,188,5V642c0,0,-70,-3,-83,-10c0,0,-13,-7,-13,-23c0,0,0,-22,73,-206L469,197l69,162c0,0,93,219,93,252c0,0,0,16,-13,22c0,0,-13,6,-80,9v62l47,-2c0,0,75,-3,100,-3c0,0,27,0,140,5V642c0,0,-36,0,-59,-11c0,0,-10,-5,-18,-16c0,0,-12,-17,-94,-206L516,92L386,-201c0,0,-44,-90,-78,-126c0,0,-35,-36,-76,-53c0,0,-41,-18,-91,-18Z" 
id="f0_2l"
transform="scale(0.001,-0.001)" />

<path d="M459,38c0,0,119,0,203,83c0,0,84,84,84,201c0,0,0,118,-84,201c0,0,-84,83,-203,83c0,0,-120,0,-204,-83c0,0,-84,-83,-84,-201c0,0,0,-116,84,-200c0,0,84,-84,204,-84Zm0,-61c0,0,-146,0,-248,100c0,0,-102,102,-102,245c0,0,0,143,102,245c0,0,102,102,248,102c0,0,145,0,247,-102c0,0,103,-101,103,-245c0,0,0,-143,-103,-245C706,77,604,-23,459,-23Z" 
id="f1_2b"
transform="scale(0.001,-0.001)" />

<path d="M110,-7V31c0,0,59,26,70,56c0,0,11,30,11,237V734c0,0,0,224,-11,249c0,0,-11,26,-61,26H38v47c0,0,177,-5,235,-5c0,0,78,0,210,5v-47H391c0,0,-40,0,-50,-23c0,0,-11,-22,-11,-189V322l3,-210L330,68c0,0,74,-3,143,-3c0,0,140,0,219,7c0,0,55,6,114,22l45,175h49C900,269,881,128,870,5C870,5,803,-5,687,-5L332,0c0,0,-71,0,-222,-7Z" 
id="f2_1c"
transform="scale(0.001,-0.001)" />

<path d="M442,407c0,0,56,0,108,5v42c0,0,0,65,-26,124c0,0,-17,37,-58,61c0,0,-41,24,-95,24c0,0,-84,0,-134,-61c0,0,-50,-61,-51,-190c0,0,116,-5,256,-5ZM380,-19c0,0,-152,0,-245,95c0,0,-93,96,-93,260c0,0,0,125,52,217c0,0,35,60,127,111c0,0,93,52,180,52c0,0,132,0,210,-78c0,0,77,-77,77,-217l-2,-44c0,0,-49,-11,-94,-15c0,0,-80,-6,-222,-6H184c0,0,4,-147,75,-222c0,0,72,-76,188,-76c0,0,53,0,104,17c0,0,52,17,103,51l12,-12L642,52C642,52,580,16,515,-1c0,0,-66,-18,-135,-18Z" 
id="f2_21"
transform="scale(0.001,-0.001)" />

<path d="M315,-19c0,0,-55,0,-94,19c0,0,-38,20,-55,52c0,0,-17,31,-17,96l3,144V575c0,0,-58,0,-119,-5v32c0,0,64,24,119,51c0,0,-1,107,-6,232c0,0,87,36,125,59l19,-15c0,0,-6,-59,-12,-276c0,0,91,0,148,2l60,3l-8,-76l-31,1L304,582H278V289c0,0,0,-115,7,-147c0,0,8,-32,30,-50c0,0,23,-18,58,-18c0,0,22,0,43,9c0,0,20,8,40,26L478,83L405,-1c0,0,-24,-8,-46,-13c0,0,-23,-5,-44,-5Z" 
id="f2_2g"
transform="scale(0.001,-0.001)" />

<path d="M24,-4V42H58c0,0,31,0,50,18c0,0,19,18,164,218L451,527L339,713c0,0,-106,178,-172,241c0,0,-37,35,-77,35c0,0,-14,0,-47,-4v47l219,35c0,0,37,-30,63,-63c0,0,26,-33,90,-143L543,646l278,410H977v-46H948c0,0,-31,0,-48,-10c0,0,-16,-10,-101,-118C799,882,639,677,576,588L821,193c0,0,75,-120,93,-136c0,0,17,-15,50,-15h31V-4c0,0,-86,4,-132,4c0,0,-45,0,-92,-4L486,468c0,0,-56,-81,-161,-244C325,224,219,61,184,-4c0,0,-36,4,-70,4C114,0,73,0,24,-4Z" 
id="f2_1o"
transform="scale(0.001,-0.001)" />

<path d="M450,58c0,0,109,0,168,87c0,0,60,87,60,211c0,0,0,130,-58,198c0,0,-57,68,-155,68c0,0,-65,0,-119,-37c0,0,-53,-38,-74,-87c0,0,-7,-20,-7,-90V239c0,0,0,-81,6,-93c0,0,12,-24,64,-56c0,0,53,-32,115,-32ZM403,-19c0,0,-56,0,-100,15c0,0,-45,14,-93,51L150,-8L124,1c0,0,15,115,15,242V717c0,0,0,110,-7,225c0,0,-3,53,-12,62c0,0,-10,10,-44,10H12v42c0,0,64,7,134,22c0,0,47,9,101,30c0,0,8,4,14,4c0,0,16,0,16,-29l-4,-37c0,0,-5,-43,-6,-64c0,0,-2,-96,-2,-263V561l91,91c0,0,29,29,76,46c0,0,48,18,101,18c0,0,120,0,198,-83c0,0,77,-83,77,-220c0,0,0,-75,-27,-146c0,0,-27,-71,-66,-115c0,0,-18,-21,-100,-80C615,72,534,12,510,1c0,0,-45,-20,-107,-20Z" 
id="f2_1y"
transform="scale(0.001,-0.001)" />

<path d="M296,69c0,0,56,0,107,32c0,0,51,31,97,93l-2,165l2,36c0,0,-207,-45,-263,-84c0,0,-56,-39,-56,-120c0,0,0,-55,32,-88c0,0,32,-34,83,-34ZM249,-19c0,0,-97,0,-147,47c0,0,-51,47,-51,127c0,0,0,75,36,131c0,0,36,56,103,83c0,0,67,27,310,70c0,0,-2,95,-42,142c0,0,-51,58,-145,58c0,0,-35,0,-67,-8c0,0,-31,-9,-58,-27c0,0,-21,-53,-39,-101l-42,11V615l81,46c0,0,55,32,97,44c0,0,41,12,88,12c0,0,103,0,166,-47c0,0,63,-46,76,-117c0,0,9,-54,11,-267c0,0,2,-200,9,-221c0,0,7,-21,37,-21h59V-4c0,0,-85,4,-119,4c0,0,-42,0,-112,-4l1,66c0,0,0,32,-1,65L345,9c0,0,-20,-15,-41,-21c0,0,-20,-7,-55,-7Z" 
id="f2_1x"
transform="scale(0.001,-0.001)" />

<path d="M24,-4V38l72,6c0,0,38,3,48,14c0,0,10,12,13,73c0,0,5,107,5,255c0,0,0,180,-14,212c0,0,-10,20,-61,20H24v43c0,0,73,8,129,21c0,0,57,13,101,33c0,0,11,6,17,6c0,0,9,0,12,-5c0,0,3,-4,3,-20L283,548c0,0,29,28,65,74c0,0,41,54,77,75c0,0,36,20,76,20c0,0,41,0,62,-10c0,0,11,-4,11,-14l-1,-8c0,0,-12,-60,-13,-169H526c0,0,-17,38,-40,54c0,0,-24,16,-56,16c0,0,-44,0,-82,-30c0,0,-37,-30,-50,-84c0,0,-12,-53,-12,-211c0,0,0,-103,8,-174c0,0,3,-26,15,-33c0,0,28,-16,83,-16h45V-4c0,0,-114,4,-216,4C221,0,121,0,24,-4Z" 
id="f2_2e"
transform="scale(0.001,-0.001)" />

<path d="M20,-4V38H73c0,0,55,0,64,26c0,0,10,26,10,310c0,0,0,127,-3,199c0,0,-2,24,-12,33c0,0,-11,9,-59,9H20v43c0,0,63,7,114,20c0,0,50,13,114,39c0,0,6,3,12,3c0,0,12,0,12,-18l-1,-28L270,573L383,673c0,0,20,18,42,26c0,0,49,17,99,17c0,0,80,0,138,-33c0,0,58,-32,84,-84c0,0,25,-52,25,-162L768,202c0,0,0,-121,10,-140c0,0,14,-24,55,-24h53V-4c0,0,-79,4,-137,4c0,0,-56,0,-121,-4c0,0,14,144,14,392c0,0,0,100,-18,141c0,0,-17,42,-59,68c0,0,-41,25,-99,25c0,0,-73,0,-123,-37c0,0,-51,-36,-63,-80c0,0,-7,-29,-7,-152c0,0,0,-137,2,-254c0,0,1,-35,10,-44c0,0,19,-17,62,-17h53V-4c0,0,-126,4,-201,4C199,0,120,0,20,-4Z" 
id="f2_2a"
transform="scale(0.001,-0.001)" />

<path d="M431,74c0,0,59,0,109,33c0,0,50,34,73,87c0,0,23,53,23,166V542c0,0,-51,55,-107,83c0,0,-55,27,-115,27c0,0,-98,0,-157,-71c0,0,-59,-71,-59,-208c0,0,0,-140,68,-219c0,0,68,-80,165,-80ZM363,-19c0,0,-126,0,-211,94c0,0,-85,95,-85,253c0,0,0,99,33,169c0,0,33,70,78,102c0,0,46,32,142,80c0,0,73,37,136,37c0,0,42,0,87,-11c0,0,45,-12,93,-35V941c0,0,0,47,-10,59c0,0,-11,12,-48,12H514v45c0,0,133,9,248,55l14,-9c0,0,-6,-76,-9,-184L764,721l-2,-65V211c0,0,0,-125,8,-139c0,0,11,-20,61,-27l53,-7V-4c0,0,-92,6,-162,6c0,0,-12,0,-94,-6c0,0,5,50,8,142C636,138,573,89,475,1c0,0,-64,-20,-112,-20Z" 
id="f2_20"
transform="scale(0.001,-0.001)" />

<path d="M439,33c0,0,90,0,146,69c0,0,55,69,55,208c0,0,0,113,-32,195c0,0,-33,83,-87,120c0,0,-54,38,-120,38c0,0,-59,0,-107,-30c0,0,-47,-30,-70,-80c0,0,-30,-68,-30,-147c0,0,0,-154,63,-263c0,0,63,-110,182,-110ZM390,-19c0,0,-149,0,-243,100c0,0,-93,100,-93,272c0,0,0,103,48,186c0,0,47,83,133,130c0,0,87,47,196,47c0,0,159,0,255,-94c0,0,95,-94,95,-250c0,0,0,-185,-124,-294c0,0,-112,-97,-267,-97Z" 
id="f2_2b"
transform="scale(0.001,-0.001)" />

<path d="M34,-4V38H91c0,0,48,0,58,26c0,0,9,26,9,281c0,0,0,187,-2,220c0,0,-2,34,-12,43c0,0,-11,9,-64,9H34v41c0,0,110,15,189,41l54,21c0,0,13,0,13,-18l-1,-27c0,0,-2,-42,-2,-93l100,90c0,0,24,21,51,30c0,0,39,14,77,14c0,0,84,0,135,-31c0,0,52,-30,94,-108l96,88c0,0,25,22,61,34c0,0,47,17,91,17c0,0,67,0,122,-32c0,0,54,-31,81,-81c0,0,26,-50,26,-136l-3,-292c0,0,0,-97,12,-115c0,0,11,-17,58,-20l55,-2V-4l-37,2c0,0,-87,2,-118,2c0,0,-47,0,-110,-4c0,0,10,137,10,321c0,0,0,156,-13,205c0,0,-13,49,-51,77c0,0,-38,28,-96,28c0,0,-64,0,-110,-35c0,0,-47,-35,-58,-84c0,0,-7,-31,-7,-266c0,0,0,-138,2,-157c0,0,2,-19,12,-27c0,0,11,-8,65,-14l50,-6V-4c0,0,-132,4,-194,4c0,0,-49,0,-191,-4V38h50c0,0,45,0,58,13c0,0,14,13,16,60c0,0,6,122,6,255c0,0,0,118,-16,163c0,0,-16,46,-55,72c0,0,-38,26,-92,26c0,0,-57,0,-104,-32c0,0,-47,-32,-64,-78c0,0,-11,-31,-11,-177c0,0,0,-161,3,-236c0,0,1,-35,11,-45c0,0,9,-10,64,-15l52,-6V-4c0,0,-94,4,-176,4C239,0,145,0,34,-4Z" 
id="f2_29"
transform="scale(0.001,-0.001)" />

<path d="M377,-11c0,0,-98,245,-200,477c0,0,-39,85,-47,109c0,0,-16,48,-37,66c0,0,-20,17,-52,17H16v43c0,0,110,-5,183,-5c0,0,78,0,171,5V658H337c0,0,-45,0,-64,-10c0,0,-13,-7,-13,-22c0,0,0,-13,14,-52c0,0,13,-38,180,-451L588,445c0,0,45,112,56,156c0,0,3,11,3,20c0,0,0,14,-10,21c0,0,-10,6,-50,11l-48,5v43c0,0,77,-5,137,-5c0,0,70,0,150,5V658H803c0,0,-17,0,-33,-7c0,0,-12,-5,-20,-13c0,0,-7,-8,-54,-104c0,0,-84,-174,-128,-274c0,0,-45,-101,-114,-271Z" 
id="f2_2i"
transform="scale(0.001,-0.001)" />

<path d="M38,-4V38l64,7c0,0,37,3,46,14c0,0,8,11,11,72c0,0,3,95,3,262c0,0,0,116,-3,178c0,0,-2,24,-13,33c0,0,-12,10,-52,10H38v43c0,0,91,13,134,24c0,0,43,11,110,38l18,-12c0,0,-5,-55,-6,-123c0,0,-6,-217,-6,-321c0,0,0,-97,7,-165c0,0,3,-27,14,-37c0,0,11,-11,54,-16l51,-7V-4c0,0,-109,4,-199,4C215,0,128,0,38,-4ZM222,880c0,0,-35,0,-59,25c0,0,-25,24,-25,59c0,0,0,35,25,60c0,0,24,25,59,25c0,0,35,0,59,-25c0,0,25,-25,25,-60c0,0,0,-35,-25,-59c0,0,-24,-25,-59,-25Z" 
id="f2_25"
transform="scale(0.001,-0.001)" />

<path d="M37,-4V38l64,5c0,0,43,4,49,22c0,0,9,29,9,265V854l-3,97c0,0,0,37,-8,45c0,0,-12,12,-50,12H37v45c0,0,156,14,248,59l13,-9c0,0,-12,-219,-12,-396V324c0,0,0,-228,9,-259c0,0,5,-16,49,-20l64,-7V-4c0,0,-82,4,-156,4C252,0,170,0,37,-4Z" 
id="f2_28"
transform="scale(0.001,-0.001)" />

<path d="M313,-11c0,0,-63,215,-142,469L123,607c0,0,-9,25,-28,38c0,0,-19,13,-44,13H14v43c0,0,118,-5,182,-5c0,0,62,0,183,5V658H338c0,0,-46,0,-63,-10c0,0,-13,-8,-13,-24c0,0,0,-37,127,-462L550,514c0,0,37,82,84,200h37c0,0,32,-91,66,-175L891,149l114,306c0,0,33,90,43,135c0,0,3,19,3,30c0,0,0,17,-15,28c0,0,-15,10,-47,10H939v43c0,0,98,-5,174,-5c0,0,66,0,127,5V658h-34c0,0,-26,0,-49,-26c0,0,-23,-27,-129,-274c0,0,-88,-207,-137,-369H818c0,0,-33,92,-109,282L614,511C614,511,510,290,446,138c0,0,-29,-68,-57,-149Z" 
id="f2_2j"
transform="scale(0.001,-0.001)" />

<path d="M23,-4V38l47,6c0,0,44,5,56,12c0,0,11,7,14,33c0,0,6,40,6,180V772c0,0,0,199,-11,223c0,0,-6,16,-60,16H23v46c0,0,116,12,185,34l62,21c0,0,12,0,12,-16l-3,-31L275,931c0,0,-4,-101,-4,-157V574l98,86c0,0,34,32,67,44c0,0,33,12,80,12c0,0,83,0,144,-33c0,0,61,-34,84,-85c0,0,24,-52,24,-177L763,201c0,0,0,-75,6,-118c0,0,2,-18,12,-27c0,0,10,-9,44,-12l56,-6V-4c0,0,-72,4,-141,4c0,0,-59,0,-117,-4c0,0,14,186,14,367c0,0,0,122,-15,165c0,0,-16,43,-55,69c0,0,-40,25,-100,25c0,0,-62,0,-113,-30c0,0,-50,-29,-70,-68c0,0,-13,-27,-13,-131V263c0,0,0,-177,8,-196c0,0,8,-18,60,-23l65,-6V-4c0,0,-117,4,-187,4C217,0,143,0,23,-4Z" 
id="f2_24"
transform="scale(0.001,-0.001)" />

<path d="M280,-19c0,0,-92,0,-206,28C74,9,54,14,54,25l2,10c0,0,3,11,5,40c0,0,7,73,7,113l-1,36h46V175c0,0,0,-58,11,-73c0,0,19,-24,75,-46c0,0,57,-23,116,-23c0,0,77,0,125,42c0,0,49,41,49,99c0,0,0,45,-28,73c0,0,-29,27,-108,44c0,0,-148,29,-196,52c0,0,-48,22,-72,60c0,0,-23,37,-23,90c0,0,0,99,72,161c0,0,72,62,204,62c0,0,105,0,209,-42c0,0,-7,-51,-11,-170H491c0,0,-2,65,-14,86c0,0,-17,28,-63,50c0,0,-45,23,-96,23c0,0,-68,0,-108,-35c0,0,-41,-34,-41,-87c0,0,0,-50,32,-75c0,0,32,-26,177,-55c0,0,107,-22,142,-40c0,0,34,-19,55,-57c0,0,20,-38,20,-87c0,0,0,-101,-86,-174c0,0,-86,-72,-229,-72Z" 
id="f2_2f"
transform="scale(0.001,-0.001)" />

<path d="M487,58c0,0,118,0,180,88c0,0,63,89,63,211c0,0,0,82,-29,140c0,0,-29,59,-84,92c0,0,-55,33,-118,33c0,0,-45,0,-87,-18c0,0,-43,-18,-75,-49c0,0,-32,-32,-41,-59c0,0,-7,-20,-7,-106V156c0,0,48,-54,96,-76c0,0,47,-22,102,-22ZM30,-410v42H85c0,0,57,0,68,25c0,0,10,25,10,262V376c0,0,0,119,-6,184c0,0,-3,31,-14,41c0,0,-12,10,-54,10H30v46c0,0,104,11,205,43l45,18c0,0,12,0,12,-21l-2,-79l-1,-53l105,93c0,0,39,35,67,44c0,0,44,14,102,14c0,0,133,0,215,-82c0,0,82,-82,82,-212c0,0,0,-65,-19,-128c0,0,-19,-63,-45,-102c0,0,-27,-40,-61,-67c0,0,-11,-9,-90,-59L615,45C615,45,558,5,524,-6c0,0,-35,-13,-80,-13c0,0,-35,0,-73,11c0,0,-39,9,-82,28V-84c0,0,0,-162,5,-228c0,0,2,-29,19,-43c0,0,16,-13,69,-13h40v-42c0,0,-141,5,-207,5c0,0,-72,0,-185,-5Z" 
id="f2_2c"
transform="scale(0.001,-0.001)" />

<path d="M355,-19c0,0,-67,0,-116,28c0,0,-48,28,-70,73c0,0,-22,45,-22,143c0,0,0,51,2,118l3,120c0,0,0,126,-8,140c0,0,-7,14,-47,14H30v41c0,0,102,9,188,37l63,24c0,0,12,0,12,-19l-5,-76c0,0,-10,-158,-10,-294c0,0,0,-135,11,-173c0,0,11,-38,47,-63c0,0,35,-25,87,-25c0,0,69,0,127,45c0,0,57,45,75,90c0,0,10,26,10,157c0,0,0,221,-8,240c0,0,-8,16,-67,16H501v41c0,0,76,9,130,21c0,0,53,12,113,36c0,0,7,4,13,4c0,0,13,0,13,-15l-3,-69c0,0,-11,-255,-11,-449c0,0,0,-109,11,-125c0,0,17,-23,71,-23h43V-4c0,0,-93,4,-157,4c0,0,-49,0,-97,-4l8,134L591,82C591,82,540,26,486,3c0,0,-53,-22,-131,-22Z" 
id="f2_2h"
transform="scale(0.001,-0.001)" />

<path d="M600,-22c0,0,-38,26,-64,59c0,0,-17,21,-165,244c0,0,-70,-86,-108,-139c0,0,-38,-53,-96,-146c0,0,-31,4,-57,4C110,0,83,0,37,-4V41c0,0,38,0,52,7c0,0,13,6,73,73c0,0,86,96,174,207c0,0,-138,206,-179,242c0,0,-41,35,-87,35c0,0,-13,0,-33,-2v40l143,70c0,0,47,-19,77,-54c0,0,50,-55,159,-234c0,0,98,129,198,276c0,0,29,-5,49,-5c0,0,15,0,65,5V658c0,0,-40,-2,-65,-24c0,0,-40,-35,-214,-252c0,0,101,-149,169,-237c0,0,46,-61,74,-76c0,0,18,-10,57,-10V16C749,16,680,0,600,-22Z" 
id="f2_2k"
transform="scale(0.001,-0.001)" />

<path d="M127,-4V44l58,2c0,0,101,3,121,29c0,0,20,25,19,204l5,414c0,0,0,207,-4,228c0,0,-3,13,-14,13c0,0,-7,0,-34,-12c0,0,-127,-55,-174,-82c0,0,-33,-19,-39,-19c0,0,-9,0,-11,12l-5,73c0,0,235,70,401,157l21,-10l-3,-84L461,539L456,245c0,0,0,-105,9,-140c0,0,9,-34,28,-46c0,0,20,-11,95,-13l68,-2V-4c0,0,-187,4,-266,4c0,0,-90,0,-263,-4Z" 
id="f2_l"
transform="scale(0.001,-0.001)" />

<path d="M33,-221l-22,23c0,0,65,100,95,182c0,0,30,80,41,175c0,0,86,21,152,47l21,-22C320,184,277,80,228,-2c0,0,-50,-84,-132,-187L33,-221Z" 
id="f2_g"
transform="scale(0.001,-0.001)" />

<path d="M30,-4V37L289,305c0,0,147,152,197,247c0,0,49,95,49,176c0,0,0,101,-58,161c0,0,-58,60,-153,60c0,0,-63,0,-113,-22c0,0,-37,-16,-53,-41c0,0,-15,-25,-46,-139H67c0,0,23,146,25,211c0,0,56,59,121,86c0,0,65,27,147,27c0,0,144,0,230,-82c0,0,85,-82,85,-214c0,0,0,-115,-77,-225c0,0,-77,-111,-259,-278L194,123H466c0,0,174,0,260,11l8,-7c0,0,-7,-42,-7,-60c0,0,0,-14,7,-67l-8,-4c0,0,-148,4,-328,4C398,0,209,0,30,-4Z" 
id="f2_m"
transform="scale(0.001,-0.001)" />

<path d="M192,-19c0,0,-37,0,-63,25c0,0,-25,26,-25,62c0,0,0,37,25,62c0,0,26,25,63,25c0,0,36,0,61,-25c0,0,26,-25,26,-62c0,0,0,-36,-26,-62c0,0,-25,-25,-61,-25Z" 
id="f2_i"
transform="scale(0.001,-0.001)" />

<path d="M380,-19c0,0,-110,0,-187,41c0,0,-76,42,-118,121c0,0,-42,79,-42,188c0,0,0,96,32,167c0,0,32,71,90,111c0,0,58,40,145,79c0,0,61,28,137,28c0,0,57,0,99,-10c0,0,41,-9,89,-33c0,0,-19,-99,-21,-198H557v38c0,0,0,47,-13,67c0,0,-14,20,-63,39c0,0,-50,20,-108,20c0,0,-101,0,-155,-62c0,0,-55,-61,-55,-183c0,0,0,-157,81,-251c0,0,72,-85,187,-85c0,0,44,0,88,11c0,0,43,11,86,32L625,83L594,35C594,35,543,8,490,-5c0,0,-54,-14,-110,-14Z" 
id="f2_1z"
transform="scale(0.001,-0.001)" />

<path d="M443,-410c0,0,-126,125,-192,236c0,0,-66,111,-102,245c0,0,-37,134,-37,284c0,0,0,172,48,318c0,0,47,146,118,247c0,0,72,101,170,192l32,-41c0,0,-87,-103,-136,-204c0,0,-50,-100,-76,-219c0,0,-25,-120,-25,-275c0,0,0,-165,23,-291c0,0,24,-125,69,-222c0,0,44,-97,145,-233l-37,-37Z" 
id="f2_c"
transform="scale(0.001,-0.001)" />

<path d="M61,-410l-32,41c0,0,87,103,136,203c0,0,50,101,76,219c0,0,26,120,26,275c0,0,0,165,-24,291c0,0,-25,127,-69,224c0,0,-45,97,-145,231l38,38c0,0,124,-124,191,-236c0,0,66,-111,103,-246c0,0,36,-134,36,-284c0,0,0,-172,-47,-317c0,0,-47,-145,-119,-246c0,0,-72,-101,-170,-193Z" 
id="f2_d"
transform="scale(0.001,-0.001)" />

<path d="M128,-430c0,0,-21,0,-44,7c0,0,-23,6,-46,19l34,117H90c0,0,20,-25,40,-37c0,0,20,-12,41,-12c0,0,47,0,85,45c0,0,38,44,117,249c0,0,-33,86,-131,329L173,458L117,589c0,0,-26,69,-78,69H9v43c0,0,77,-5,137,-5c0,0,46,0,215,5V658H306c0,0,-28,0,-41,-10c0,0,-13,-9,-13,-24c0,0,0,-11,14,-51c0,0,75,-207,177,-444c0,0,99,217,172,418c0,0,22,59,22,71c0,0,0,24,-51,32l-55,8v43c0,0,88,-5,157,-5c0,0,65,0,130,5V658H792c0,0,-17,0,-35,-10c0,0,-18,-10,-29,-28c0,0,-24,-38,-138,-290c0,0,-32,-69,-160,-374c0,0,-114,-259,-128,-284c0,0,-30,-49,-75,-76c0,0,-46,-26,-99,-26Z" 
id="f2_2l"
transform="scale(0.001,-0.001)" />

<path d="M245,-4V42h63c0,0,49,0,64,13c0,0,15,13,19,51c0,0,7,87,7,225V757c0,0,0,126,-5,232H317c0,0,-183,0,-202,-9c0,0,-19,-9,-24,-67L80,814H33l2,88c0,0,0,54,-10,154c0,0,403,-5,473,-5l412,5c0,0,-14,-126,-16,-242H847l-8,97c0,0,-4,51,-12,60c0,0,-9,9,-37,12c0,0,-82,6,-186,6H546c0,0,-8,-112,-8,-236V328c0,0,0,-237,12,-262c0,0,12,-24,84,-24h56V-4c0,0,-131,4,-223,4c0,0,-92,0,-222,-4Z" 
id="f2_1k"
transform="scale(0.001,-0.001)" />

<path d="M42,297L32,308c0,0,23,56,38,108c0,0,109,-5,181,-5c0,0,60,0,220,5l6,-12c0,0,-25,-56,-37,-107c0,0,-102,7,-188,7c0,0,-96,0,-210,-7Z" 
id="f2_h"
transform="scale(0.001,-0.001)" />

<path d="M409,-377c0,0,82,0,145,30c0,0,62,31,97,84c0,0,34,54,34,111c0,0,0,48,-24,85c0,0,-24,37,-57,47c0,0,-18,5,-79,5H351c0,0,-53,0,-72,-12c0,0,-62,-40,-76,-65c0,0,-22,-39,-22,-98c0,0,0,-81,60,-134c0,0,60,-53,168,-53ZM395,280c0,0,71,0,116,47c0,0,44,48,44,133c0,0,0,93,-47,150c0,0,-48,57,-121,57c0,0,-72,0,-115,-46c0,0,-44,-47,-44,-129c0,0,0,-99,47,-156c0,0,48,-56,120,-56ZM382,-430c0,0,-154,0,-237,67c0,0,-82,66,-82,164c0,0,0,60,43,122c0,0,78,37,131,74c0,0,-62,19,-80,36c0,0,-17,17,-17,43c0,0,0,31,17,62c0,0,10,18,49,45l73,52c0,0,-89,22,-129,63c0,0,-52,55,-52,141c0,0,0,75,39,137c0,0,38,62,114,98c0,0,96,46,186,46c0,0,56,0,99,-15c0,0,43,-15,88,-51h63c0,0,97,0,151,7l8,-16c0,0,-22,-32,-39,-68H668c0,0,17,-48,17,-78c0,0,0,-67,-40,-128c0,0,-40,-62,-115,-100c0,0,-75,-37,-161,-37l-36,1c0,0,-49,-37,-62,-55c0,0,-13,-18,-13,-35c0,0,0,-28,29,-45c0,0,29,-16,119,-16c0,0,34,0,98,3c0,0,92,4,133,4c0,0,59,0,91,-19c0,0,31,-19,53,-67c0,0,23,-46,23,-106c0,0,0,-83,-51,-160c0,0,-51,-77,-148,-123c0,0,-97,-46,-223,-46Z" 
id="f2_23"
transform="scale(0.001,-0.001)" />

<path d="M17,-4V38H67c0,0,58,0,68,23c0,0,15,32,15,235V587L42,580v31c0,0,53,26,108,55v95c0,0,0,72,19,118c0,0,20,45,80,107c0,0,80,83,124,109c0,0,29,17,73,17c0,0,29,0,65,-10c0,0,-2,-38,-2,-61c0,0,0,-23,2,-63l-18,-9c0,0,-44,39,-101,39c0,0,-63,0,-90,-43c0,0,-26,-42,-26,-207V658c0,0,121,1,198,8l5,-8L467,587l-92,2c0,0,-33,0,-99,-2V296c0,0,0,-209,12,-233c0,0,12,-25,75,-25h65V-4c0,0,-122,4,-175,4L17,-4Z" 
id="f2_22"
transform="scale(0.001,-0.001)" />


</defs>
</svg>