<?xml version="1.0" encoding="UTF-8" standalone="no"?>
<!DOCTYPE svg PUBLIC "-//W3C//DTD SVG 1.1//EN"
"http://www.w3.org/Graphics/SVG/1.1/DTD/svg11.dtd">
<svg viewBox="0 0 909 1286" version="1.1" xmlns="http://www.w3.org/2000/svg" xmlns:xlink="http://www.w3.org/1999/xlink">
<defs>
<style type="text/css"><![CDATA[
.g0_41{
}
]]></style>
</defs>
<g fill="#000000" >
<use xlink:href="#f0_1c" transform="matrix(18,0,0,18,300.1,121.2)" />
<use xlink:href="#f0_25" transform="matrix(18,0,0,18,316.9,121.2)" />
<use xlink:href="#f0_2a" transform="matrix(18,0,0,18,326.1,121.2)" />
<use xlink:href="#f0_21" transform="matrix(18,0,0,18,343,121.2)" />
<use xlink:href="#f0_1x" transform="matrix(18,0,0,18,356.8,121.2)" />
<use xlink:href="#f0_2e" transform="matrix(18,0,0,18,370.5,121.2)" />
<use xlink:href="#f0_1g" transform="matrix(18,0,0,18,387.9,121.2)" />
<use xlink:href="#f0_2e" transform="matrix(18,0,0,18,404.7,121.2)" />
<use xlink:href="#f0_2b" transform="matrix(18,0,0,18,415.4,121.2)" />
<use xlink:href="#f0_23" transform="matrix(18,0,0,18,430.7,121.2)" />
<use xlink:href="#f0_2e" transform="matrix(18,0,0,18,445.9,121.2)" />
<use xlink:href="#f0_1x" transform="matrix(18,0,0,18,456.6,121.2)" />
<use xlink:href="#f0_29" transform="matrix(18,0,0,18,470.4,121.2)" />
<use xlink:href="#f0_29" transform="matrix(18,0,0,18,494.8,121.2)" />
<use xlink:href="#f0_25" transform="matrix(18,0,0,18,519.2,121.2)" />
<use xlink:href="#f0_2a" transform="matrix(18,0,0,18,528.3,121.2)" />
<use xlink:href="#f0_23" transform="matrix(18,0,0,18,545.1,121.2)" />
</g>
<path fill-rule="evenodd" d="M300.1,126.5H560.6v-1.7H300.1v1.7Z" class="g0_41" />
<g fill="#000000" >
<use xlink:href="#f1_18" transform="matrix(12,0,0,12,55,161)" />
<use xlink:href="#f1_21" transform="matrix(12,0,0,12,70.3,161)" />
<use xlink:href="#f1_2a" transform="matrix(12,0,0,12,79,161)" />
<use xlink:href="#f1_1z" transform="matrix(12,0,0,12,89.7,161)" />
<use xlink:href="#f1_21" transform="matrix(12,0,0,12,97.7,161)" />
<use xlink:href="#f1_2g" transform="matrix(12,0,0,12,110.7,161)" />
<use xlink:href="#f1_24" transform="matrix(12,0,0,12,116.8,161)" />
<use xlink:href="#f1_21" transform="matrix(12,0,0,12,127.4,161)" />
<use xlink:href="#f1_2c" transform="matrix(12,0,0,12,140.4,161)" />
<use xlink:href="#f1_2b" transform="matrix(12,0,0,12,151.4,161)" />
<use xlink:href="#f1_25" transform="matrix(12,0,0,12,161.5,161)" />
<use xlink:href="#f1_2a" transform="matrix(12,0,0,12,166.8,161)" />
<use xlink:href="#f1_2g" transform="matrix(12,0,0,12,177.4,161)" />
<use xlink:href="#f1_2f" transform="matrix(12,0,0,12,183.5,161)" />
<use xlink:href="#f1_1x" transform="matrix(12,0,0,12,195.4,161)" />
<use xlink:href="#f1_2e" transform="matrix(12,0,0,12,204.5,161)" />
<use xlink:href="#f1_21" transform="matrix(12,0,0,12,211.9,161)" />
<use xlink:href="#f1_c" transform="matrix(12,0,0,12,224.7,161)" />
<use xlink:href="#f1_k" transform="matrix(12,0,0,12,230.8,161)" />
<use xlink:href="#f1_g" transform="matrix(12,0,0,12,239.7,161)" />
<use xlink:href="#f1_k" transform="matrix(12,0,0,12,248.5,161)" />
<use xlink:href="#f1_d" transform="matrix(12,0,0,12,257.7,161)" />
<use xlink:href="#f1_g" transform="matrix(12,0,0,12,263.8,161)" />
<use xlink:href="#f1_c" transform="matrix(12,0,0,12,272.6,161)" />
<use xlink:href="#f1_p" transform="matrix(12,0,0,12,278.8,161)" />
<use xlink:href="#f1_k" transform="matrix(12,0,0,12,287.9,161)" />
<use xlink:href="#f1_g" transform="matrix(12,0,0,12,297,161)" />
<use xlink:href="#f1_p" transform="matrix(12,0,0,12,305.8,161)" />
<use xlink:href="#f1_k" transform="matrix(12,0,0,12,315,161)" />
<use xlink:href="#f1_d" transform="matrix(12,0,0,12,324.2,161)" />
<use xlink:href="#f1_g" transform="matrix(12,0,0,12,330.3,161)" />
<use xlink:href="#f1_c" transform="matrix(12,0,0,12,339.1,161)" />
<use xlink:href="#f1_k" transform="matrix(12,0,0,12,345.2,161)" />
<use xlink:href="#f1_g" transform="matrix(12,0,0,12,354.3,161)" />
<use xlink:href="#f1_p" transform="matrix(12,0,0,12,363.1,161)" />
<use xlink:href="#f1_k" transform="matrix(12,0,0,12,372.2,161)" />
<use xlink:href="#f1_d" transform="matrix(12,0,0,12,381.4,161)" />
<use xlink:href="#f1_g" transform="matrix(12,0,0,12,387.5,161)" />
<use xlink:href="#f1_c" transform="matrix(12,0,0,12,396.3,161)" />
<use xlink:href="#f1_n" transform="matrix(12,0,0,12,402.3,161)" />
<use xlink:href="#f1_k" transform="matrix(12,0,0,12,411.5,161)" />
<use xlink:href="#f1_g" transform="matrix(12,0,0,12,420.6,161)" />
<use xlink:href="#f1_k" transform="matrix(12,0,0,12,429.3,161)" />
<use xlink:href="#f1_d" transform="matrix(12,0,0,12,438.4,161)" />
<use xlink:href="#f1_g" transform="matrix(12,0,0,12,444.5,161)" />
<use xlink:href="#f1_c" transform="matrix(12,0,0,12,453.3,161)" />
<use xlink:href="#f1_n" transform="matrix(12,0,0,12,459.4,161)" />
<use xlink:href="#f1_k" transform="matrix(12,0,0,12,468.5,161)" />
<use xlink:href="#f1_g" transform="matrix(12,0,0,12,477.7,161)" />
<use xlink:href="#f1_t" transform="matrix(12,0,0,12,486.5,161)" />
<use xlink:href="#f1_k" transform="matrix(12,0,0,12,495.6,161)" />
<use xlink:href="#f1_d" transform="matrix(12,0,0,12,504.8,161)" />
<use xlink:href="#f1_i" transform="matrix(12,0,0,12,510.9,161)" />
<use xlink:href="#f1_1k" transform="matrix(12,0,0,12,519.7,161)" />
<use xlink:href="#f1_24" transform="matrix(12,0,0,12,530.9,161)" />
<use xlink:href="#f1_21" transform="matrix(12,0,0,12,541.5,161)" />
<use xlink:href="#f1_2f" transform="matrix(12,0,0,12,554.5,161)" />
<use xlink:href="#f1_24" transform="matrix(12,0,0,12,562.2,161)" />
<use xlink:href="#f1_1x" transform="matrix(12,0,0,12,572.9,161)" />
<use xlink:href="#f1_20" transform="matrix(12,0,0,12,582,161)" />
<use xlink:href="#f1_21" transform="matrix(12,0,0,12,593.2,161)" />
<use xlink:href="#f1_20" transform="matrix(12,0,0,12,602,161)" />
<use xlink:href="#f1_2e" transform="matrix(12,0,0,12,617.4,161)" />
<use xlink:href="#f1_21" transform="matrix(12,0,0,12,624.7,161)" />
<use xlink:href="#f1_23" transform="matrix(12,0,0,12,633.5,161)" />
<use xlink:href="#f1_25" transform="matrix(12,0,0,12,643.8,161)" />
<use xlink:href="#f1_2b" transform="matrix(12,0,0,12,648.9,161)" />
<use xlink:href="#f1_2a" transform="matrix(12,0,0,12,659,161)" />
<use xlink:href="#f1_25" transform="matrix(12,0,0,12,673.8,161)" />
<use xlink:href="#f1_2a" transform="matrix(12,0,0,12,679.1,161)" />
<use xlink:href="#f1_23" transform="matrix(12,0,0,12,694,161)" />
<use xlink:href="#f1_2e" transform="matrix(12,0,0,12,704.1,161)" />
<use xlink:href="#f1_1x" transform="matrix(12,0,0,12,711.4,161)" />
<use xlink:href="#f1_2c" transform="matrix(12,0,0,12,720.5,161)" />
<use xlink:href="#f1_24" transform="matrix(12,0,0,12,731.6,161)" />
<use xlink:href="#f1_25" transform="matrix(12,0,0,12,746.5,161)" />
<use xlink:href="#f1_2f" transform="matrix(12,0,0,12,751.8,161)" />
<use xlink:href="#f1_2g" transform="matrix(12,0,0,12,763.7,161)" />
<use xlink:href="#f1_24" transform="matrix(12,0,0,12,769.8,161)" />
<use xlink:href="#f1_21" transform="matrix(12,0,0,12,780.4,161)" />
<use xlink:href="#f1_22" transform="matrix(12,0,0,12,793.2,161)" />
<use xlink:href="#f1_21" transform="matrix(12,0,0,12,799.3,161)" />
<use xlink:href="#f1_1x" transform="matrix(12,0,0,12,808.1,161)" />
<use xlink:href="#f1_2f" transform="matrix(12,0,0,12,817.3,161)" />
<use xlink:href="#f1_25" transform="matrix(12,0,0,12,825,161)" />
<use xlink:href="#f1_1y" transform="matrix(12,0,0,12,830.3,161)" />
<use xlink:href="#f1_28" transform="matrix(12,0,0,12,840.4,161)" />
<use xlink:href="#f1_21" transform="matrix(12,0,0,12,845.7,161)" />
<use xlink:href="#f1_2e" transform="matrix(12,0,0,12,55,183.7)" />
<use xlink:href="#f1_21" transform="matrix(12,0,0,12,62.3,183.7)" />
<use xlink:href="#f1_23" transform="matrix(12,0,0,12,71.1,183.7)" />
<use xlink:href="#f1_25" transform="matrix(12,0,0,12,81.4,183.7)" />
<use xlink:href="#f1_2b" transform="matrix(12,0,0,12,86.7,183.7)" />
<use xlink:href="#f1_2a" transform="matrix(12,0,0,12,96.7,183.7)" />
<use xlink:href="#f1_20" transform="matrix(12,0,0,12,111.6,183.7)" />
<use xlink:href="#f1_21" transform="matrix(12,0,0,12,122.8,183.7)" />
<use xlink:href="#f1_2g" transform="matrix(12,0,0,12,131.6,183.7)" />
<use xlink:href="#f1_21" transform="matrix(12,0,0,12,137.6,183.7)" />
<use xlink:href="#f1_2e" transform="matrix(12,0,0,12,146.2,183.7)" />
<use xlink:href="#f1_29" transform="matrix(12,0,0,12,153.5,183.7)" />
<use xlink:href="#f1_25" transform="matrix(12,0,0,12,169.8,183.7)" />
<use xlink:href="#f1_2a" transform="matrix(12,0,0,12,175.1,183.7)" />
<use xlink:href="#f1_21" transform="matrix(12,0,0,12,185.7,183.7)" />
<use xlink:href="#f1_20" transform="matrix(12,0,0,12,194.5,183.7)" />
<use xlink:href="#f1_1y" transform="matrix(12,0,0,12,209.9,183.7)" />
<use xlink:href="#f1_2l" transform="matrix(12,0,0,12,220.1,183.7)" />
<use xlink:href="#f1_2g" transform="matrix(12,0,0,12,234.5,183.7)" />
<use xlink:href="#f1_24" transform="matrix(12,0,0,12,240.5,183.7)" />
<use xlink:href="#f1_21" transform="matrix(12,0,0,12,251.2,183.7)" />
<use xlink:href="#f1_2f" transform="matrix(12,0,0,12,264.2,183.7)" />
<use xlink:href="#f1_2l" transform="matrix(12,0,0,12,271.9,183.7)" />
<use xlink:href="#f1_2f" transform="matrix(12,0,0,12,282.1,183.7)" />
<use xlink:href="#f1_2g" transform="matrix(12,0,0,12,289.8,183.7)" />
<use xlink:href="#f1_21" transform="matrix(12,0,0,12,295.9,183.7)" />
<use xlink:href="#f1_29" transform="matrix(12,0,0,12,304.7,183.7)" />
<use xlink:href="#f1_2b" transform="matrix(12,0,0,12,325.1,183.7)" />
<use xlink:href="#f1_22" transform="matrix(12,0,0,12,335.2,183.7)" />
<use xlink:href="#f1_1z" transform="matrix(12,0,0,12,345.6,183.7)" />
<use xlink:href="#f1_2b" transform="matrix(12,0,0,12,353.7,183.7)" />
<use xlink:href="#f1_2a" transform="matrix(12,0,0,12,363.8,183.7)" />
<use xlink:href="#f1_2f" transform="matrix(12,0,0,12,374.4,183.7)" />
<use xlink:href="#f1_2g" transform="matrix(12,0,0,12,382.1,183.7)" />
<use xlink:href="#f1_2e" transform="matrix(12,0,0,12,388.1,183.7)" />
<use xlink:href="#f1_1x" transform="matrix(12,0,0,12,395.5,183.7)" />
<use xlink:href="#f1_25" transform="matrix(12,0,0,12,404.6,183.7)" />
<use xlink:href="#f1_2a" transform="matrix(12,0,0,12,410,183.7)" />
<use xlink:href="#f1_2g" transform="matrix(12,0,0,12,420.6,183.7)" />
<use xlink:href="#f1_2f" transform="matrix(12,0,0,12,426.6,183.7)" />
<use xlink:href="#f1_c" transform="matrix(12,0,0,12,438.5,183.7)" />
<use xlink:href="#f1_m" transform="matrix(12,0,0,12,444.6,183.7)" />
<use xlink:href="#f1_d" transform="matrix(12,0,0,12,453.8,183.7)" />
<use xlink:href="#f1_2g" transform="matrix(12,0,0,12,464.2,183.7)" />
<use xlink:href="#f1_2b" transform="matrix(12,0,0,12,470.2,183.7)" />
<use xlink:href="#f1_c" transform="matrix(12,0,0,12,484.5,183.7)" />
<use xlink:href="#f1_o" transform="matrix(12,0,0,12,490.6,183.7)" />
<use xlink:href="#f1_d" transform="matrix(12,0,0,12,499.8,183.7)" />
<use xlink:href="#f1_i" transform="matrix(12,0,0,12,505.7,183.7)" />
<use xlink:href="#f1_1n" transform="matrix(12,0,0,12,514.7,183.7)" />
<use xlink:href="#f1_21" transform="matrix(12,0,0,12,533.1,183.7)" />
<use xlink:href="#f1_2b" transform="matrix(12,0,0,12,546.2,183.7)" />
<use xlink:href="#f1_1y" transform="matrix(12,0,0,12,556.3,183.7)" />
<use xlink:href="#f1_2f" transform="matrix(12,0,0,12,566.4,183.7)" />
<use xlink:href="#f1_21" transform="matrix(12,0,0,12,574.1,183.7)" />
<use xlink:href="#f1_2e" transform="matrix(12,0,0,12,582.9,183.7)" />
<use xlink:href="#f1_2i" transform="matrix(12,0,0,12,590.2,183.7)" />
<use xlink:href="#f1_21" transform="matrix(12,0,0,12,600.6,183.7)" />
<use xlink:href="#f1_2g" transform="matrix(12,0,0,12,613.7,183.7)" />
<use xlink:href="#f1_24" transform="matrix(12,0,0,12,619.7,183.7)" />
<use xlink:href="#f1_1x" transform="matrix(12,0,0,12,630.4,183.7)" />
<use xlink:href="#f1_2g" transform="matrix(12,0,0,12,639.5,183.7)" />
<use xlink:href="#f1_2g" transform="matrix(12,0,0,12,649.7,183.7)" />
<use xlink:href="#f1_24" transform="matrix(12,0,0,12,655.8,183.7)" />
<use xlink:href="#f1_21" transform="matrix(12,0,0,12,666.5,183.7)" />
<use xlink:href="#f1_22" transform="matrix(12,0,0,12,679.4,183.7)" />
<use xlink:href="#f1_21" transform="matrix(12,0,0,12,685.5,183.7)" />
<use xlink:href="#f1_1x" transform="matrix(12,0,0,12,694.3,183.7)" />
<use xlink:href="#f1_2f" transform="matrix(12,0,0,12,703.5,183.7)" />
<use xlink:href="#f1_25" transform="matrix(12,0,0,12,711.1,183.7)" />
<use xlink:href="#f1_1y" transform="matrix(12,0,0,12,716.5,183.7)" />
<use xlink:href="#f1_28" transform="matrix(12,0,0,12,726.5,183.7)" />
<use xlink:href="#f1_21" transform="matrix(12,0,0,12,731.9,183.7)" />
<use xlink:href="#f1_2e" transform="matrix(12,0,0,12,744.9,183.7)" />
<use xlink:href="#f1_21" transform="matrix(12,0,0,12,752.2,183.7)" />
<use xlink:href="#f1_23" transform="matrix(12,0,0,12,761,183.7)" />
<use xlink:href="#f1_25" transform="matrix(12,0,0,12,771.2,183.7)" />
<use xlink:href="#f1_2b" transform="matrix(12,0,0,12,776.6,183.7)" />
<use xlink:href="#f1_2a" transform="matrix(12,0,0,12,786.6,183.7)" />
<use xlink:href="#f1_1f" transform="matrix(12,0,0,12,801.5,183.7)" />
<use xlink:href="#f1_11" transform="matrix(12,0,0,12,815.9,183.7)" />
<use xlink:href="#f1_12" transform="matrix(12,0,0,12,830.2,183.7)" />
<use xlink:href="#f1_13" transform="matrix(12,0,0,12,841.4,183.7)" />
<use xlink:href="#f1_25" transform="matrix(12,0,0,12,55,206.5)" />
<use xlink:href="#f1_2f" transform="matrix(12,0,0,12,60.3,206.5)" />
<use xlink:href="#f1_1y" transform="matrix(12,0,0,12,72.6,206.5)" />
<use xlink:href="#f1_2b" transform="matrix(12,0,0,12,82.7,206.5)" />
<use xlink:href="#f1_2h" transform="matrix(12,0,0,12,92.7,206.5)" />
<use xlink:href="#f1_2a" transform="matrix(12,0,0,12,103.8,206.5)" />
<use xlink:href="#f1_20" transform="matrix(12,0,0,12,114.4,206.5)" />
<use xlink:href="#f1_21" transform="matrix(12,0,0,12,125.6,206.5)" />
<use xlink:href="#f1_20" transform="matrix(12,0,0,12,134.4,206.5)" />
<use xlink:href="#f1_i" transform="matrix(12,0,0,12,145.6,206.5)" />
<use xlink:href="#f1_1l" transform="matrix(12,0,0,12,55,552.8)" />
<use xlink:href="#f1_2f" transform="matrix(12,0,0,12,69.3,552.8)" />
<use xlink:href="#f1_25" transform="matrix(12,0,0,12,77,552.8)" />
<use xlink:href="#f1_2a" transform="matrix(12,0,0,12,82.3,552.8)" />
<use xlink:href="#f1_23" transform="matrix(12,0,0,12,93,552.8)" />
<use xlink:href="#f1_2g" transform="matrix(12,0,0,12,108.1,552.8)" />
<use xlink:href="#f1_24" transform="matrix(12,0,0,12,114.2,552.8)" />
<use xlink:href="#f1_21" transform="matrix(12,0,0,12,124.9,552.8)" />
<use xlink:href="#f1_13" transform="matrix(12,0,0,12,138.6,552.8)" />
<use xlink:href="#f1_2b" transform="matrix(12,0,0,12,151.6,552.8)" />
<use xlink:href="#f1_2e" transform="matrix(12,0,0,12,161.7,552.8)" />
<use xlink:href="#f1_2a" transform="matrix(12,0,0,12,169,552.8)" />
<use xlink:href="#f1_21" transform="matrix(12,0,0,12,179.7,552.8)" />
<use xlink:href="#f1_2e" transform="matrix(12,0,0,12,188.5,552.8)" />
<use xlink:href="#f1_1g" transform="matrix(12,0,0,12,200.7,552.8)" />
<use xlink:href="#f1_2b" transform="matrix(12,0,0,12,211.7,552.8)" />
<use xlink:href="#f1_25" transform="matrix(12,0,0,12,221.8,552.8)" />
<use xlink:href="#f1_2a" transform="matrix(12,0,0,12,227.1,552.8)" />
<use xlink:href="#f1_2g" transform="matrix(12,0,0,12,237.7,552.8)" />
<use xlink:href="#f1_1d" transform="matrix(12,0,0,12,248.7,552.8)" />
<use xlink:href="#f1_21" transform="matrix(12,0,0,12,266.1,552.8)" />
<use xlink:href="#f1_2g" transform="matrix(12,0,0,12,274.9,552.8)" />
<use xlink:href="#f1_24" transform="matrix(12,0,0,12,280.9,552.8)" />
<use xlink:href="#f1_2b" transform="matrix(12,0,0,12,291.6,552.8)" />
<use xlink:href="#f1_20" transform="matrix(12,0,0,12,301.6,552.8)" />
<use xlink:href="#f1_2g" transform="matrix(12,0,0,12,317.8,552.8)" />
<use xlink:href="#f1_2b" transform="matrix(12,0,0,12,323.8,552.8)" />
<use xlink:href="#f1_20" transform="matrix(12,0,0,12,338.8,552.8)" />
<use xlink:href="#f1_21" transform="matrix(12,0,0,12,350,552.8)" />
<use xlink:href="#f1_2g" transform="matrix(12,0,0,12,358.8,552.8)" />
<use xlink:href="#f1_21" transform="matrix(12,0,0,12,364.8,552.8)" />
<use xlink:href="#f1_2e" transform="matrix(12,0,0,12,373.4,552.8)" />
<use xlink:href="#f1_29" transform="matrix(12,0,0,12,380.7,552.8)" />
<use xlink:href="#f1_25" transform="matrix(12,0,0,12,396.9,552.8)" />
<use xlink:href="#f1_2a" transform="matrix(12,0,0,12,402.2,552.8)" />
<use xlink:href="#f1_21" transform="matrix(12,0,0,12,412.8,552.8)" />
<use xlink:href="#f1_2g" transform="matrix(12,0,0,12,426.5,552.8)" />
<use xlink:href="#f1_24" transform="matrix(12,0,0,12,432.6,552.8)" />
<use xlink:href="#f1_21" transform="matrix(12,0,0,12,443.2,552.8)" />
<use xlink:href="#f1_29" transform="matrix(12,0,0,12,456.9,552.8)" />
<use xlink:href="#f1_1x" transform="matrix(12,0,0,12,473.1,552.8)" />
<use xlink:href="#f1_2k" transform="matrix(12,0,0,12,482.2,552.8)" />
<use xlink:href="#f1_25" transform="matrix(12,0,0,12,491.8,552.8)" />
<use xlink:href="#f1_29" transform="matrix(12,0,0,12,497.1,552.8)" />
<use xlink:href="#f1_2h" transform="matrix(12,0,0,12,513.2,552.8)" />
<use xlink:href="#f1_29" transform="matrix(12,0,0,12,524.3,552.8)" />
<use xlink:href="#f1_2i" transform="matrix(12,0,0,12,545.4,552.8)" />
<use xlink:href="#f1_1x" transform="matrix(12,0,0,12,555.9,552.8)" />
<use xlink:href="#f1_28" transform="matrix(12,0,0,12,565,552.8)" />
<use xlink:href="#f1_2h" transform="matrix(12,0,0,12,570.4,552.8)" />
<use xlink:href="#f1_21" transform="matrix(12,0,0,12,581.3,552.8)" />
<use xlink:href="#f1_2b" transform="matrix(12,0,0,12,595.1,552.8)" />
<use xlink:href="#f1_22" transform="matrix(12,0,0,12,605.3,552.8)" />
<use xlink:href="#f1_1q" transform="matrix(12,0,0,12,616.3,552.8)" />
<use xlink:href="#f1_1y" transform="matrix(12,0,0,12,634.1,552.8)" />
<use xlink:href="#f1_2l" transform="matrix(12,0,0,12,644.2,552.8)" />
<use xlink:href="#f1_2f" transform="matrix(12,0,0,12,659.5,552.8)" />
<use xlink:href="#f1_2h" transform="matrix(12,0,0,12,667.2,552.8)" />
<use xlink:href="#f1_1y" transform="matrix(12,0,0,12,678.3,552.8)" />
<use xlink:href="#f1_2f" transform="matrix(12,0,0,12,688.5,552.8)" />
<use xlink:href="#f1_2g" transform="matrix(12,0,0,12,696.2,552.8)" />
<use xlink:href="#f1_25" transform="matrix(12,0,0,12,702.2,552.8)" />
<use xlink:href="#f1_2g" transform="matrix(12,0,0,12,707.6,552.8)" />
<use xlink:href="#f1_2h" transform="matrix(12,0,0,12,713.6,552.8)" />
<use xlink:href="#f1_2g" transform="matrix(12,0,0,12,724.6,552.8)" />
<use xlink:href="#f1_25" transform="matrix(12,0,0,12,730.6,552.8)" />
<use xlink:href="#f1_2a" transform="matrix(12,0,0,12,735.9,552.8)" />
<use xlink:href="#f1_23" transform="matrix(12,0,0,12,746.6,552.8)" />
<use xlink:href="#f1_2g" transform="matrix(12,0,0,12,761.8,552.8)" />
<use xlink:href="#f1_24" transform="matrix(12,0,0,12,767.8,552.8)" />
<use xlink:href="#f1_21" transform="matrix(12,0,0,12,778.5,552.8)" />
<use xlink:href="#f1_2i" transform="matrix(12,0,0,12,792.2,552.8)" />
<use xlink:href="#f1_21" transform="matrix(12,0,0,12,802.6,552.8)" />
<use xlink:href="#f1_2e" transform="matrix(12,0,0,12,811.4,552.8)" />
<use xlink:href="#f1_2g" transform="matrix(12,0,0,12,818.7,552.8)" />
<use xlink:href="#f1_25" transform="matrix(12,0,0,12,824.7,552.8)" />
<use xlink:href="#f1_1z" transform="matrix(12,0,0,12,830.1,552.8)" />
<use xlink:href="#f1_21" transform="matrix(12,0,0,12,838.1,552.8)" />
<use xlink:href="#f1_2f" transform="matrix(12,0,0,12,846.9,552.8)" />
<use xlink:href="#f1_2b" transform="matrix(12,0,0,12,55,575.6)" />
<use xlink:href="#f1_22" transform="matrix(12,0,0,12,65.1,575.6)" />
<use xlink:href="#f1_2g" transform="matrix(12,0,0,12,75.8,575.6)" />
<use xlink:href="#f1_24" transform="matrix(12,0,0,12,81.7,575.6)" />
<use xlink:href="#f1_21" transform="matrix(12,0,0,12,92.4,575.6)" />
<use xlink:href="#f1_1y" transform="matrix(12,0,0,12,105.8,575.6)" />
<use xlink:href="#f1_2b" transform="matrix(12,0,0,12,115.8,575.6)" />
<use xlink:href="#f1_2h" transform="matrix(12,0,0,12,125.9,575.6)" />
<use xlink:href="#f1_2a" transform="matrix(12,0,0,12,137,575.6)" />
<use xlink:href="#f1_20" transform="matrix(12,0,0,12,147.5,575.6)" />
<use xlink:href="#f1_21" transform="matrix(12,0,0,12,158.7,575.6)" />
<use xlink:href="#f1_20" transform="matrix(12,0,0,12,167.5,575.6)" />
<use xlink:href="#f1_2e" transform="matrix(12,0,0,12,183.3,575.6)" />
<use xlink:href="#f1_21" transform="matrix(12,0,0,12,190.6,575.6)" />
<use xlink:href="#f1_23" transform="matrix(12,0,0,12,199.4,575.6)" />
<use xlink:href="#f1_25" transform="matrix(12,0,0,12,209.7,575.6)" />
<use xlink:href="#f1_2b" transform="matrix(12,0,0,12,215,575.6)" />
<use xlink:href="#f1_2a" transform="matrix(12,0,0,12,225,575.6)" />
<use xlink:href="#f1_i" transform="matrix(12,0,0,12,235.7,575.6)" />
<use xlink:href="#f1_i" transform="matrix(12,0,0,12,240.2,575.6)" />
<use xlink:href="#f1_18" transform="matrix(12,0,0,12,249.4,575.6)" />
<use xlink:href="#f1_21" transform="matrix(12,0,0,12,264.6,575.6)" />
<use xlink:href="#f1_2a" transform="matrix(12,0,0,12,273.4,575.6)" />
<use xlink:href="#f1_1z" transform="matrix(12,0,0,12,284,575.6)" />
<use xlink:href="#f1_21" transform="matrix(12,0,0,12,292.1,575.6)" />
<use xlink:href="#f1_g" transform="matrix(12,0,0,12,300.9,575.6)" />
<use xlink:href="#f1_29" transform="matrix(12,0,0,12,310,575.6)" />
<use xlink:href="#f1_1x" transform="matrix(12,0,0,12,326.2,575.6)" />
<use xlink:href="#f1_2k" transform="matrix(12,0,0,12,335.4,575.6)" />
<use xlink:href="#f1_25" transform="matrix(12,0,0,12,344.8,575.6)" />
<use xlink:href="#f1_29" transform="matrix(12,0,0,12,350.2,575.6)" />
<use xlink:href="#f1_2h" transform="matrix(12,0,0,12,366.4,575.6)" />
<use xlink:href="#f1_29" transform="matrix(12,0,0,12,377.5,575.6)" />
<use xlink:href="#f1_2i" transform="matrix(12,0,0,12,398.2,575.6)" />
<use xlink:href="#f1_1x" transform="matrix(12,0,0,12,408.6,575.6)" />
<use xlink:href="#f1_28" transform="matrix(12,0,0,12,417.8,575.6)" />
<use xlink:href="#f1_2h" transform="matrix(12,0,0,12,423.1,575.6)" />
<use xlink:href="#f1_21" transform="matrix(12,0,0,12,434.1,575.6)" />
<use xlink:href="#f1_2b" transform="matrix(12,0,0,12,447.5,575.6)" />
<use xlink:href="#f1_22" transform="matrix(12,0,0,12,457.6,575.6)" />
<use xlink:href="#f1_1q" transform="matrix(12,0,0,12,468.3,575.6)" />
<use xlink:href="#f1_25" transform="matrix(12,0,0,12,485.1,575.6)" />
<use xlink:href="#f1_2f" transform="matrix(12,0,0,12,490.4,575.6)" />
<use xlink:href="#f1_l" transform="matrix(12,0,0,12,502.7,575.6)" />
<use xlink:href="#f1_m" transform="matrix(12,0,0,12,511.8,575.6)" />
<use xlink:href="#f1_k" transform="matrix(12,0,0,12,521,575.6)" />
<use xlink:href="#f1_1x" transform="matrix(12,0,0,12,534.9,575.6)" />
<use xlink:href="#f1_2g" transform="matrix(12,0,0,12,544.1,575.6)" />
<use xlink:href="#f1_2g" transform="matrix(12,0,0,12,554.7,575.6)" />
<use xlink:href="#f1_24" transform="matrix(12,0,0,12,560.7,575.6)" />
<use xlink:href="#f1_21" transform="matrix(12,0,0,12,571.4,575.6)" />
<use xlink:href="#f1_2c" transform="matrix(12,0,0,12,584.7,575.6)" />
<use xlink:href="#f1_2b" transform="matrix(12,0,0,12,595.8,575.6)" />
<use xlink:href="#f1_25" transform="matrix(12,0,0,12,605.6,575.6)" />
<use xlink:href="#f1_2a" transform="matrix(12,0,0,12,611,575.6)" />
<use xlink:href="#f1_2g" transform="matrix(12,0,0,12,621.6,575.6)" />
<use xlink:href="#f1_c" transform="matrix(12,0,0,12,632.2,575.6)" />
<use xlink:href="#f1_n" transform="matrix(12,0,0,12,638.3,575.6)" />
<use xlink:href="#f1_k" transform="matrix(12,0,0,12,647.5,575.6)" />
<use xlink:href="#f1_g" transform="matrix(12,0,0,12,656.6,575.6)" />
<use xlink:href="#f1_k" transform="matrix(12,0,0,12,665.7,575.6)" />
<use xlink:href="#f1_d" transform="matrix(12,0,0,12,674.9,575.6)" />
<use xlink:href="#f1_i" transform="matrix(12,0,0,12,681,575.6)" />
</g>
<g fill="#C00000" >
<use xlink:href="#f0_15" transform="matrix(12,0,0,12,55,773.8)" />
<use xlink:href="#f0_2k" transform="matrix(12,0,0,12,66.2,773.8)" />
<use xlink:href="#f0_1x" transform="matrix(12,0,0,12,75.4,773.8)" />
<use xlink:href="#f0_29" transform="matrix(12,0,0,12,84.5,773.8)" />
<use xlink:href="#f0_2c" transform="matrix(12,0,0,12,100.8,773.8)" />
<use xlink:href="#f0_28" transform="matrix(12,0,0,12,112,773.8)" />
<use xlink:href="#f0_21" transform="matrix(12,0,0,12,118.1,773.8)" />
</g>
<g fill="#000000" >
<use xlink:href="#f1_14" transform="matrix(12,0,0,12,55,808.4)" />
<use xlink:href="#f1_21" transform="matrix(12,0,0,12,69.1,808.4)" />
<use xlink:href="#f1_2g" transform="matrix(12,0,0,12,77.9,808.4)" />
<use xlink:href="#f1_21" transform="matrix(12,0,0,12,83.9,808.4)" />
<use xlink:href="#f1_2e" transform="matrix(12,0,0,12,92.7,808.4)" />
<use xlink:href="#f1_29" transform="matrix(12,0,0,12,100.1,808.4)" />
<use xlink:href="#f1_25" transform="matrix(12,0,0,12,116.2,808.4)" />
<use xlink:href="#f1_2a" transform="matrix(12,0,0,12,121.5,808.4)" />
<use xlink:href="#f1_21" transform="matrix(12,0,0,12,132.1,808.4)" />
<use xlink:href="#f1_23" transform="matrix(12,0,0,12,145.5,808.4)" />
<use xlink:href="#f1_2e" transform="matrix(12,0,0,12,155.8,808.4)" />
<use xlink:href="#f1_1x" transform="matrix(12,0,0,12,163.1,808.4)" />
<use xlink:href="#f1_2c" transform="matrix(12,0,0,12,172.3,808.4)" />
<use xlink:href="#f1_24" transform="matrix(12,0,0,12,183.3,808.4)" />
<use xlink:href="#f1_25" transform="matrix(12,0,0,12,193.9,808.4)" />
<use xlink:href="#f1_1z" transform="matrix(12,0,0,12,199.2,808.4)" />
<use xlink:href="#f1_1x" transform="matrix(12,0,0,12,207.3,808.4)" />
<use xlink:href="#f1_28" transform="matrix(12,0,0,12,216.4,808.4)" />
<use xlink:href="#f1_28" transform="matrix(12,0,0,12,221.8,808.4)" />
<use xlink:href="#f1_2l" transform="matrix(12,0,0,12,227.1,808.4)" />
<use xlink:href="#f1_2g" transform="matrix(12,0,0,12,241.9,808.4)" />
<use xlink:href="#f1_24" transform="matrix(12,0,0,12,248,808.4)" />
<use xlink:href="#f1_21" transform="matrix(12,0,0,12,258.6,808.4)" />
<use xlink:href="#f1_29" transform="matrix(12,0,0,12,272,808.4)" />
<use xlink:href="#f1_25" transform="matrix(12,0,0,12,288.1,808.4)" />
<use xlink:href="#f1_2a" transform="matrix(12,0,0,12,293.4,808.4)" />
<use xlink:href="#f1_25" transform="matrix(12,0,0,12,304.1,808.4)" />
<use xlink:href="#f1_29" transform="matrix(12,0,0,12,309.4,808.4)" />
<use xlink:href="#f1_2h" transform="matrix(12,0,0,12,325.5,808.4)" />
<use xlink:href="#f1_29" transform="matrix(12,0,0,12,336.6,808.4)" />
<use xlink:href="#f1_2i" transform="matrix(12,0,0,12,357.2,808.4)" />
<use xlink:href="#f1_1x" transform="matrix(12,0,0,12,367.7,808.4)" />
<use xlink:href="#f1_28" transform="matrix(12,0,0,12,376.8,808.4)" />
<use xlink:href="#f1_2h" transform="matrix(12,0,0,12,382.2,808.4)" />
<use xlink:href="#f1_21" transform="matrix(12,0,0,12,393.1,808.4)" />
<use xlink:href="#f1_2b" transform="matrix(12,0,0,12,406.5,808.4)" />
<use xlink:href="#f1_22" transform="matrix(12,0,0,12,416.6,808.4)" />
<use xlink:href="#f1_2g" transform="matrix(12,0,0,12,427.4,808.4)" />
<use xlink:href="#f1_24" transform="matrix(12,0,0,12,433.4,808.4)" />
<use xlink:href="#f1_21" transform="matrix(12,0,0,12,444.1,808.4)" />
<use xlink:href="#f1_2b" transform="matrix(12,0,0,12,457.5,808.4)" />
<use xlink:href="#f1_1y" transform="matrix(12,0,0,12,467.5,808.4)" />
<use xlink:href="#f1_26" transform="matrix(12,0,0,12,477.6,808.4)" />
<use xlink:href="#f1_21" transform="matrix(12,0,0,12,481.8,808.4)" />
<use xlink:href="#f1_1z" transform="matrix(12,0,0,12,490.6,808.4)" />
<use xlink:href="#f1_2g" transform="matrix(12,0,0,12,498.7,808.4)" />
<use xlink:href="#f1_25" transform="matrix(12,0,0,12,504.7,808.4)" />
<use xlink:href="#f1_2i" transform="matrix(12,0,0,12,510.1,808.4)" />
<use xlink:href="#f1_21" transform="matrix(12,0,0,12,520.5,808.4)" />
<use xlink:href="#f1_22" transform="matrix(12,0,0,12,533.8,808.4)" />
<use xlink:href="#f1_2h" transform="matrix(12,0,0,12,539.9,808.4)" />
<use xlink:href="#f1_2a" transform="matrix(12,0,0,12,550.9,808.4)" />
<use xlink:href="#f1_1z" transform="matrix(12,0,0,12,561.6,808.4)" />
<use xlink:href="#f1_2g" transform="matrix(12,0,0,12,569.6,808.4)" />
<use xlink:href="#f1_25" transform="matrix(12,0,0,12,575.6,808.4)" />
<use xlink:href="#f1_2b" transform="matrix(12,0,0,12,581,808.4)" />
<use xlink:href="#f1_2a" transform="matrix(12,0,0,12,591,808.4)" />
<use xlink:href="#f1_1q" transform="matrix(12,0,0,12,55,843.4)" />
<use xlink:href="#f1_x" transform="matrix(12,0,0,12,71.8,843.4)" />
<use xlink:href="#f2_4z" transform="matrix(12,0,0,12,87.6,843.4)" />
<use xlink:href="#f1_p" transform="matrix(12,0,0,12,101.2,843.4)" />
<use xlink:href="#f1_k" transform="matrix(12,0,0,12,110.4,843.4)" />
<use xlink:href="#f1_2k" transform="matrix(12,0,0,12,119.5,843.4)" />
<use xlink:href="#f1_f" transform="matrix(12,0,0,12,133.6,843.4)" />
<use xlink:href="#f1_m" transform="matrix(12,0,0,12,149.4,843.4)" />
<use xlink:href="#f1_k" transform="matrix(12,0,0,12,158.5,843.4)" />
<use xlink:href="#f1_2l" transform="matrix(12,0,0,12,167.7,843.4)" />
<use xlink:href="#f1_i" transform="matrix(12,0,0,12,182.5,843.4)" />
<use xlink:href="#f1_i" transform="matrix(12,0,0,12,187.1,843.4)" />
<use xlink:href="#f1_i" transform="matrix(12,0,0,12,191.7,843.4)" />
<use xlink:href="#f1_c" transform="matrix(12,0,0,12,200.9,843.4)" />
<use xlink:href="#f1_l" transform="matrix(12,0,0,12,207,843.4)" />
<use xlink:href="#f1_d" transform="matrix(12,0,0,12,216.1,843.4)" />
<use xlink:href="#f1_1j" transform="matrix(12,0,0,12,55,878.5)" />
<use xlink:href="#f1_2h" transform="matrix(12,0,0,12,64.5,878.5)" />
<use xlink:href="#f1_1y" transform="matrix(12,0,0,12,75.6,878.5)" />
<use xlink:href="#f1_26" transform="matrix(12,0,0,12,85.8,878.5)" />
<use xlink:href="#f1_21" transform="matrix(12,0,0,12,90,878.5)" />
<use xlink:href="#f1_1z" transform="matrix(12,0,0,12,98.8,878.5)" />
<use xlink:href="#f1_2g" transform="matrix(12,0,0,12,106.9,878.5)" />
<use xlink:href="#f1_2g" transform="matrix(12,0,0,12,117.5,878.5)" />
<use xlink:href="#f1_2b" transform="matrix(12,0,0,12,123.5,878.5)" />
<use xlink:href="#f1_2g" transform="matrix(12,0,0,12,138.2,878.5)" />
<use xlink:href="#f1_24" transform="matrix(12,0,0,12,144.2,878.5)" />
<use xlink:href="#f1_21" transform="matrix(12,0,0,12,154.9,878.5)" />
<use xlink:href="#f1_1z" transform="matrix(12,0,0,12,168.2,878.5)" />
<use xlink:href="#f1_2b" transform="matrix(12,0,0,12,176.3,878.5)" />
<use xlink:href="#f1_2a" transform="matrix(12,0,0,12,186.3,878.5)" />
<use xlink:href="#f1_2f" transform="matrix(12,0,0,12,197,878.5)" />
<use xlink:href="#f1_2g" transform="matrix(12,0,0,12,204.7,878.5)" />
<use xlink:href="#f1_2e" transform="matrix(12,0,0,12,210.7,878.5)" />
<use xlink:href="#f1_1x" transform="matrix(12,0,0,12,218,878.5)" />
<use xlink:href="#f1_25" transform="matrix(12,0,0,12,227.2,878.5)" />
<use xlink:href="#f1_2a" transform="matrix(12,0,0,12,232.3,878.5)" />
<use xlink:href="#f1_2g" transform="matrix(12,0,0,12,243,878.5)" />
<use xlink:href="#f1_2f" transform="matrix(12,0,0,12,249,878.5)" />
<use xlink:href="#f1_u" transform="matrix(12,0,0,12,256.7,878.5)" />
<use xlink:href="#f3_3d" transform="matrix(12,0,0,12,82.5,914.4)" />
<use xlink:href="#f1_m" transform="matrix(12,0,0,12,110,914.4)" />
<use xlink:href="#f1_2k" transform="matrix(12,0,0,12,119.2,914.4)" />
<use xlink:href="#f2_4z" transform="matrix(12,0,0,12,133.3,914.4)" />
<use xlink:href="#f2_2l" transform="matrix(12,0,0,12,146.9,914.4)" />
<use xlink:href="#f2_46" transform="matrix(12,0,0,12,161.7,914.4)" />
<use xlink:href="#f2_4z" transform="matrix(12,0,0,12,176.4,914.4)" />
<use xlink:href="#f1_p" transform="matrix(12,0,0,12,190,914.4)" />
<use xlink:href="#f1_i" transform="matrix(12,0,0,12,203.7,914.4)" />
<use xlink:href="#f1_i" transform="matrix(12,0,0,12,208.3,914.4)" />
<use xlink:href="#f1_i" transform="matrix(12,0,0,12,212.9,914.4)" />
<use xlink:href="#f1_c" transform="matrix(12,0,0,12,222,914.4)" />
<use xlink:href="#f1_m" transform="matrix(12,0,0,12,228.1,914.4)" />
<use xlink:href="#f1_d" transform="matrix(12,0,0,12,237.4,914.4)" />
<use xlink:href="#f3_3d" transform="matrix(12,0,0,12,82.5,937.9)" />
<use xlink:href="#f2_n" transform="matrix(12,0,0,12,110,937.9)" />
<use xlink:href="#f2_2k" transform="matrix(12,0,0,12,119.2,937.9)" />
<use xlink:href="#f2_f" transform="matrix(12,0,0,12,133.3,937.9)" />
<use xlink:href="#f2_2l" transform="matrix(12,0,0,12,149.1,937.9)" />
<use xlink:href="#f2_46" transform="matrix(12,0,0,12,163.9,937.9)" />
<use xlink:href="#f2_n" transform="matrix(12,0,0,12,178.5,937.9)" />
<use xlink:href="#f2_i" transform="matrix(12,0,0,12,192.3,937.9)" />
<use xlink:href="#f2_i" transform="matrix(12,0,0,12,196.9,937.9)" />
<use xlink:href="#f2_i" transform="matrix(12,0,0,12,201.4,937.9)" />
<use xlink:href="#f2_c" transform="matrix(12,0,0,12,210.6,937.9)" />
<use xlink:href="#f2_n" transform="matrix(12,0,0,12,216.7,937.9)" />
<use xlink:href="#f2_d" transform="matrix(12,0,0,12,225.9,937.9)" />
<use xlink:href="#f3_3d" transform="matrix(12,0,0,12,82.5,961.5)" />
<use xlink:href="#f1_m" transform="matrix(12,0,0,12,110,961.5)" />
<use xlink:href="#f1_2k" transform="matrix(12,0,0,12,119.2,961.5)" />
<use xlink:href="#f2_4z" transform="matrix(12,0,0,12,133.3,961.5)" />
<use xlink:href="#f2_n" transform="matrix(12,0,0,12,146.9,961.5)" />
<use xlink:href="#f2_2l" transform="matrix(12,0,0,12,156.1,961.5)" />
<use xlink:href="#f2_45" transform="matrix(12,0,0,12,170.9,961.5)" />
<use xlink:href="#f2_l" transform="matrix(12,0,0,12,185.5,961.5)" />
<use xlink:href="#f2_m" transform="matrix(12,0,0,12,194.7,961.5)" />
<use xlink:href="#f2_i" transform="matrix(12,0,0,12,208.5,961.5)" />
<use xlink:href="#f2_i" transform="matrix(12,0,0,12,213,961.5)" />
<use xlink:href="#f2_i" transform="matrix(12,0,0,12,217.6,961.5)" />
<use xlink:href="#f2_c" transform="matrix(12,0,0,12,226.8,961.5)" />
<use xlink:href="#f2_o" transform="matrix(12,0,0,12,232.9,961.5)" />
<use xlink:href="#f2_d" transform="matrix(12,0,0,12,242.1,961.5)" />
<use xlink:href="#f3_3d" transform="matrix(12,0,0,12,82.5,985.2)" />
<use xlink:href="#f2_2k" transform="matrix(12,0,0,12,110,985.2)" />
<use xlink:href="#f2_46" transform="matrix(12,0,0,12,124.1,985.2)" />
<use xlink:href="#f2_k" transform="matrix(12,0,0,12,138.8,985.2)" />
<use xlink:href="#f2_g" transform="matrix(12,0,0,12,148,985.2)" />
<use xlink:href="#f2_2l" transform="matrix(12,0,0,12,157.1,985.2)" />
<use xlink:href="#f2_46" transform="matrix(12,0,0,12,172,985.2)" />
<use xlink:href="#f2_k" transform="matrix(12,0,0,12,186.6,985.2)" />
<use xlink:href="#f2_i" transform="matrix(12,0,0,12,200.4,985.2)" />
<use xlink:href="#f2_i" transform="matrix(12,0,0,12,204.9,985.2)" />
<use xlink:href="#f2_i" transform="matrix(12,0,0,12,209.5,985.2)" />
<use xlink:href="#f2_c" transform="matrix(12,0,0,12,218.7,985.2)" />
<use xlink:href="#f2_p" transform="matrix(12,0,0,12,224.8,985.2)" />
<use xlink:href="#f2_d" transform="matrix(12,0,0,12,234,985.2)" />
<use xlink:href="#f1_1j" transform="matrix(12,0,0,12,55,1020.2)" />
<use xlink:href="#f1_2b" transform="matrix(12,0,0,12,64.5,1020.2)" />
<use xlink:href="#f1_28" transform="matrix(12,0,0,12,74.6,1020.2)" />
<use xlink:href="#f1_2h" transform="matrix(12,0,0,12,79.9,1020.2)" />
<use xlink:href="#f1_2g" transform="matrix(12,0,0,12,90.9,1020.2)" />
<use xlink:href="#f1_25" transform="matrix(12,0,0,12,96.9,1020.2)" />
<use xlink:href="#f1_2b" transform="matrix(12,0,0,12,102.3,1020.2)" />
<use xlink:href="#f1_2a" transform="matrix(12,0,0,12,112.3,1020.2)" />
<use xlink:href="#f1_u" transform="matrix(12,0,0,12,123,1020.2)" />
<use xlink:href="#f1_17" transform="matrix(12,0,0,12,55,1055.2)" />
<use xlink:href="#f1_2e" transform="matrix(12,0,0,12,68.9,1055.2)" />
<use xlink:href="#f1_1x" transform="matrix(12,0,0,12,76.2,1055.2)" />
<use xlink:href="#f1_2c" transform="matrix(12,0,0,12,85.4,1055.2)" />
<use xlink:href="#f1_24" transform="matrix(12,0,0,12,96.4,1055.2)" />
<use xlink:href="#f1_2g" transform="matrix(12,0,0,12,113.8,1055.2)" />
<use xlink:href="#f1_24" transform="matrix(12,0,0,12,119.8,1055.2)" />
<use xlink:href="#f1_21" transform="matrix(12,0,0,12,130.5,1055.2)" />
<use xlink:href="#f1_22" transform="matrix(12,0,0,12,146,1055.2)" />
<use xlink:href="#f1_21" transform="matrix(12,0,0,12,152.1,1055.2)" />
<use xlink:href="#f1_1x" transform="matrix(12,0,0,12,160.9,1055.2)" />
<use xlink:href="#f1_2f" transform="matrix(12,0,0,12,170.1,1055.2)" />
<use xlink:href="#f1_25" transform="matrix(12,0,0,12,177.8,1055.2)" />
<use xlink:href="#f1_1y" transform="matrix(12,0,0,12,183.1,1055.2)" />
<use xlink:href="#f1_28" transform="matrix(12,0,0,12,193.2,1055.2)" />
<use xlink:href="#f1_21" transform="matrix(12,0,0,12,198.5,1055.2)" />
<use xlink:href="#f1_2e" transform="matrix(12,0,0,12,214,1055.2)" />
<use xlink:href="#f1_21" transform="matrix(12,0,0,12,221.4,1055.2)" />
<use xlink:href="#f1_23" transform="matrix(12,0,0,12,230.1,1055.2)" />
<use xlink:href="#f1_25" transform="matrix(12,0,0,12,240.4,1055.2)" />
<use xlink:href="#f1_2b" transform="matrix(12,0,0,12,245.7,1055.2)" />
<use xlink:href="#f1_2a" transform="matrix(12,0,0,12,255.8,1055.2)" />
<use xlink:href="#f1_2b" transform="matrix(12,0,0,12,273.2,1055.2)" />
<use xlink:href="#f1_22" transform="matrix(12,0,0,12,283.3,1055.2)" />
<use xlink:href="#f1_2g" transform="matrix(12,0,0,12,296.1,1055.2)" />
<use xlink:href="#f1_24" transform="matrix(12,0,0,12,302.1,1055.2)" />
<use xlink:href="#f1_21" transform="matrix(12,0,0,12,312.8,1055.2)" />
<use xlink:href="#f1_2f" transform="matrix(12,0,0,12,328.3,1055.2)" />
<use xlink:href="#f1_2l" transform="matrix(12,0,0,12,336,1055.2)" />
<use xlink:href="#f1_2f" transform="matrix(12,0,0,12,346.2,1055.2)" />
<use xlink:href="#f1_2g" transform="matrix(12,0,0,12,353.9,1055.2)" />
<use xlink:href="#f1_21" transform="matrix(12,0,0,12,360,1055.2)" />
<use xlink:href="#f1_29" transform="matrix(12,0,0,12,368.8,1055.2)" />
<use xlink:href="#f1_2b" transform="matrix(12,0,0,12,391.7,1055.2)" />
<use xlink:href="#f1_22" transform="matrix(12,0,0,12,401.7,1055.2)" />
<use xlink:href="#f1_25" transform="matrix(12,0,0,12,414.6,1055.2)" />
<use xlink:href="#f1_2a" transform="matrix(12,0,0,12,419.9,1055.2)" />
<use xlink:href="#f1_21" transform="matrix(12,0,0,12,430.5,1055.2)" />
<use xlink:href="#f1_2d" transform="matrix(12,0,0,12,439.3,1055.2)" />
<use xlink:href="#f1_2h" transform="matrix(12,0,0,12,449.6,1055.2)" />
<use xlink:href="#f1_1x" transform="matrix(12,0,0,12,460.6,1055.2)" />
<use xlink:href="#f1_28" transform="matrix(12,0,0,12,469.8,1055.2)" />
<use xlink:href="#f1_25" transform="matrix(12,0,0,12,475.1,1055.2)" />
<use xlink:href="#f1_2g" transform="matrix(12,0,0,12,480.4,1055.2)" />
<use xlink:href="#f1_25" transform="matrix(12,0,0,12,486.4,1055.2)" />
<use xlink:href="#f1_21" transform="matrix(12,0,0,12,491.7,1055.2)" />
<use xlink:href="#f1_2f" transform="matrix(12,0,0,12,500.5,1055.2)" />
<use xlink:href="#f1_c" transform="matrix(12,0,0,12,515,1055.2)" />
<use xlink:href="#f1_m" transform="matrix(12,0,0,12,521.1,1055.2)" />
<use xlink:href="#f1_d" transform="matrix(12,0,0,12,530.3,1055.2)" />
<use xlink:href="#f1_2g" transform="matrix(12,0,0,12,543,1055.2)" />
<use xlink:href="#f1_2b" transform="matrix(12,0,0,12,549,1055.2)" />
<use xlink:href="#f1_c" transform="matrix(12,0,0,12,566.4,1055.2)" />
<use xlink:href="#f1_p" transform="matrix(12,0,0,12,572.5,1055.2)" />
<use xlink:href="#f1_d" transform="matrix(12,0,0,12,581.7,1055.2)" />
<use xlink:href="#f1_i" transform="matrix(12,0,0,12,587.7,1055.2)" />
<use xlink:href="#f1_1k" transform="matrix(12,0,0,12,599.2,1055.2)" />
<use xlink:href="#f1_24" transform="matrix(12,0,0,12,610.5,1055.2)" />
<use xlink:href="#f1_21" transform="matrix(12,0,0,12,621,1055.2)" />
<use xlink:href="#f1_22" transform="matrix(12,0,0,12,636.6,1055.2)" />
<use xlink:href="#f1_21" transform="matrix(12,0,0,12,642.7,1055.2)" />
<use xlink:href="#f1_1x" transform="matrix(12,0,0,12,651.5,1055.2)" />
<use xlink:href="#f1_2f" transform="matrix(12,0,0,12,660.7,1055.2)" />
<use xlink:href="#f1_25" transform="matrix(12,0,0,12,668.3,1055.2)" />
<use xlink:href="#f1_1y" transform="matrix(12,0,0,12,673.7,1055.2)" />
<use xlink:href="#f1_28" transform="matrix(12,0,0,12,683.7,1055.2)" />
<use xlink:href="#f1_21" transform="matrix(12,0,0,12,689.1,1055.2)" />
<use xlink:href="#f1_2e" transform="matrix(12,0,0,12,704.6,1055.2)" />
<use xlink:href="#f1_21" transform="matrix(12,0,0,12,711.9,1055.2)" />
<use xlink:href="#f1_23" transform="matrix(12,0,0,12,720.7,1055.2)" />
<use xlink:href="#f1_25" transform="matrix(12,0,0,12,731,1055.2)" />
<use xlink:href="#f1_2b" transform="matrix(12,0,0,12,736.3,1055.2)" />
<use xlink:href="#f1_2a" transform="matrix(12,0,0,12,746.3,1055.2)" />
<use xlink:href="#f1_c" transform="matrix(12,0,0,12,763.7,1055.2)" />
<use xlink:href="#f1_2f" transform="matrix(12,0,0,12,769.9,1055.2)" />
<use xlink:href="#f1_24" transform="matrix(12,0,0,12,777.9,1055.2)" />
<use xlink:href="#f1_1x" transform="matrix(12,0,0,12,788.5,1055.2)" />
<use xlink:href="#f1_20" transform="matrix(12,0,0,12,797.7,1055.2)" />
<use xlink:href="#f1_21" transform="matrix(12,0,0,12,808.8,1055.2)" />
<use xlink:href="#f1_20" transform="matrix(12,0,0,12,817.6,1055.2)" />
<use xlink:href="#f1_d" transform="matrix(12,0,0,12,828.8,1055.2)" />
<use xlink:href="#f1_25" transform="matrix(12,0,0,12,841.6,1055.2)" />
<use xlink:href="#f1_2f" transform="matrix(12,0,0,12,847,1055.2)" />
<use xlink:href="#f1_2f" transform="matrix(12,0,0,12,55,1078)" />
<use xlink:href="#f1_24" transform="matrix(12,0,0,12,62.7,1078)" />
<use xlink:href="#f1_2b" transform="matrix(12,0,0,12,73.4,1078)" />
<use xlink:href="#f1_2j" transform="matrix(12,0,0,12,83.4,1078)" />
<use xlink:href="#f1_2a" transform="matrix(12,0,0,12,98.7,1078)" />
<use xlink:href="#f1_i" transform="matrix(12,0,0,12,109.3,1078)" />
<use xlink:href="#f1_12" transform="matrix(12,0,0,12,55,1113)" />
<use xlink:href="#f1_2l" transform="matrix(12,0,0,12,66.2,1113)" />
<use xlink:href="#f1_1f" transform="matrix(12,0,0,12,81,1113)" />
<use xlink:href="#f1_1y" transform="matrix(12,0,0,12,95.5,1113)" />
<use xlink:href="#f1_2f" transform="matrix(12,0,0,12,105.6,1113)" />
<use xlink:href="#f1_21" transform="matrix(12,0,0,12,113.3,1113)" />
<use xlink:href="#f1_2e" transform="matrix(12,0,0,12,122,1113)" />
<use xlink:href="#f1_2i" transform="matrix(12,0,0,12,129.4,1113)" />
<use xlink:href="#f1_1x" transform="matrix(12,0,0,12,139.8,1113)" />
<use xlink:href="#f1_2g" transform="matrix(12,0,0,12,149,1113)" />
<use xlink:href="#f1_25" transform="matrix(12,0,0,12,155,1113)" />
<use xlink:href="#f1_2b" transform="matrix(12,0,0,12,160.1,1113)" />
<use xlink:href="#f1_2a" transform="matrix(12,0,0,12,170.2,1113)" />
<use xlink:href="#f1_2g" transform="matrix(12,0,0,12,185.6,1113)" />
<use xlink:href="#f1_24" transform="matrix(12,0,0,12,191.6,1113)" />
<use xlink:href="#f1_1x" transform="matrix(12,0,0,12,202.3,1113)" />
<use xlink:href="#f1_2g" transform="matrix(12,0,0,12,211.4,1113)" />
<use xlink:href="#f1_2g" transform="matrix(12,0,0,12,222,1113)" />
<use xlink:href="#f1_24" transform="matrix(12,0,0,12,228.1,1113)" />
<use xlink:href="#f1_21" transform="matrix(12,0,0,12,238.5,1113)" />
<use xlink:href="#f1_22" transform="matrix(12,0,0,12,251.9,1113)" />
<use xlink:href="#f1_21" transform="matrix(12,0,0,12,258,1113)" />
<use xlink:href="#f1_1x" transform="matrix(12,0,0,12,266.8,1113)" />
<use xlink:href="#f1_2f" transform="matrix(12,0,0,12,275.9,1113)" />
<use xlink:href="#f1_25" transform="matrix(12,0,0,12,283.6,1113)" />
<use xlink:href="#f1_1y" transform="matrix(12,0,0,12,288.9,1113)" />
<use xlink:href="#f1_28" transform="matrix(12,0,0,12,299,1113)" />
<use xlink:href="#f1_21" transform="matrix(12,0,0,12,304.3,1113)" />
<use xlink:href="#f1_2e" transform="matrix(12,0,0,12,317.8,1113)" />
<use xlink:href="#f1_21" transform="matrix(12,0,0,12,325.1,1113)" />
<use xlink:href="#f1_23" transform="matrix(12,0,0,12,333.9,1113)" />
<use xlink:href="#f1_25" transform="matrix(12,0,0,12,344.2,1113)" />
<use xlink:href="#f1_2b" transform="matrix(12,0,0,12,349.5,1113)" />
<use xlink:href="#f1_2a" transform="matrix(12,0,0,12,359.5,1113)" />
<use xlink:href="#f1_25" transform="matrix(12,0,0,12,374.8,1113)" />
<use xlink:href="#f1_2f" transform="matrix(12,0,0,12,380.1,1113)" />
<use xlink:href="#f1_2h" transform="matrix(12,0,0,12,392.4,1113)" />
<use xlink:href="#f1_2a" transform="matrix(12,0,0,12,403.4,1113)" />
<use xlink:href="#f1_1y" transform="matrix(12,0,0,12,414,1113)" />
<use xlink:href="#f1_2b" transform="matrix(12,0,0,12,424.2,1113)" />
<use xlink:href="#f1_2h" transform="matrix(12,0,0,12,434.3,1113)" />
<use xlink:href="#f1_2a" transform="matrix(12,0,0,12,445.4,1113)" />
<use xlink:href="#f1_20" transform="matrix(12,0,0,12,455.9,1113)" />
<use xlink:href="#f1_21" transform="matrix(12,0,0,12,467.1,1113)" />
<use xlink:href="#f1_20" transform="matrix(12,0,0,12,475.9,1113)" />
<use xlink:href="#f1_i" transform="matrix(12,0,0,12,487.1,1113)" />
<use xlink:href="#f1_1n" transform="matrix(12,0,0,12,55,1148)" />
<use xlink:href="#f1_21" transform="matrix(12,0,0,12,73.3,1148)" />
<use xlink:href="#f1_2a" transform="matrix(12,0,0,12,86.7,1148)" />
<use xlink:href="#f1_2b" transform="matrix(12,0,0,12,97.4,1148)" />
<use xlink:href="#f1_2j" transform="matrix(12,0,0,12,107.4,1148)" />
<use xlink:href="#f1_21" transform="matrix(12,0,0,12,127.2,1148)" />
<use xlink:href="#f1_2i" transform="matrix(12,0,0,12,136,1148)" />
<use xlink:href="#f1_1x" transform="matrix(12,0,0,12,146.4,1148)" />
<use xlink:href="#f1_28" transform="matrix(12,0,0,12,155.6,1148)" />
<use xlink:href="#f1_2h" transform="matrix(12,0,0,12,160.9,1148)" />
<use xlink:href="#f1_1x" transform="matrix(12,0,0,12,171.9,1148)" />
<use xlink:href="#f1_2g" transform="matrix(12,0,0,12,181.1,1148)" />
<use xlink:href="#f1_21" transform="matrix(12,0,0,12,187.1,1148)" />
<use xlink:href="#f1_1q" transform="matrix(12,0,0,12,200.5,1148)" />
<use xlink:href="#f1_1x" transform="matrix(12,0,0,12,217.4,1148)" />
<use xlink:href="#f1_2g" transform="matrix(12,0,0,12,226.5,1148)" />
<use xlink:href="#f1_2g" transform="matrix(12,0,0,12,237,1148)" />
<use xlink:href="#f1_24" transform="matrix(12,0,0,12,243,1148)" />
<use xlink:href="#f1_21" transform="matrix(12,0,0,12,253.7,1148)" />
<use xlink:href="#f1_1z" transform="matrix(12,0,0,12,267,1148)" />
<use xlink:href="#f1_2b" transform="matrix(12,0,0,12,275.1,1148)" />
<use xlink:href="#f1_2e" transform="matrix(12,0,0,12,285.1,1148)" />
<use xlink:href="#f1_2a" transform="matrix(12,0,0,12,292.5,1148)" />
<use xlink:href="#f1_21" transform="matrix(12,0,0,12,303.1,1148)" />
<use xlink:href="#f1_2e" transform="matrix(12,0,0,12,311.9,1148)" />
<use xlink:href="#f1_2c" transform="matrix(12,0,0,12,323.8,1148)" />
<use xlink:href="#f1_2b" transform="matrix(12,0,0,12,334.8,1148)" />
<use xlink:href="#f1_25" transform="matrix(12,0,0,12,344.9,1148)" />
<use xlink:href="#f1_2a" transform="matrix(12,0,0,12,350.2,1148)" />
<use xlink:href="#f1_2g" transform="matrix(12,0,0,12,360.6,1148)" />
<use xlink:href="#f1_2f" transform="matrix(12,0,0,12,366.6,1148)" />
<use xlink:href="#f1_i" transform="matrix(12,0,0,12,374.3,1148)" />
</g>
<image preserveAspectRatio="none" x="64" y="224" width="276" height="299" xlink:href="img/1.png" />
<image preserveAspectRatio="none" x="55" y="593" width="358" height="151" xlink:href="img/2.png" />
<path fill-rule="evenodd" d="M36.7,37.4h.7v-.7h-.7v.7Z" class="g0_41" />
<path fill-rule="evenodd" d="M36.7,37.4h.7v-.7h-.7v.7Z" class="g0_41" />
<path fill-rule="evenodd" d="M37.4,37.4H872.3v-.7H37.4v.7Z" class="g0_41" />
<path fill-rule="evenodd" d="M872.3,37.4h.7v-.7h-.7v.7Z" class="g0_41" />
<path fill-rule="evenodd" d="M872.3,37.4h.7v-.7h-.7v.7Z" class="g0_41" />
<path fill-rule="evenodd" d="M36.7,1249h.7V37.4h-.7V1249Z" class="g0_41" />
<path fill-rule="evenodd" d="M872.3,1249h.7V37.4h-.7V1249Z" class="g0_41" />
<defs>
<path d="M102,-4V34c0,0,41,20,77,46c0,0,10,202,10,421c0,0,0,172,-4,325c0,0,-2,109,-10,125c0,0,-4,10,-16,15c0,0,-11,5,-108,13v62c0,0,144,-4,267,-4c0,0,119,0,226,4V979c0,0,-103,-7,-119,-18c0,0,-9,-7,-13,-27c0,0,-4,-21,-7,-242L401,329c0,0,0,-103,5,-237c0,0,97,-5,144,-5c0,0,140,0,236,23c0,0,20,67,39,160h66C891,270,874,161,860,0c0,0,-70,-4,-130,-4L461,-1L340,0c0,0,-3,0,-10,0C302,0,225,0,102,-4Z" 
id="f0_1c"
transform="scale(0.001,-0.001)" />

<path d="M47,-4V57c0,0,84,3,97,10c0,0,13,8,17,42c0,0,6,47,6,207c0,0,0,70,-2,129l-2,87c0,0,0,43,-10,54c0,0,-9,10,-50,11l-56,2v58c0,0,180,14,296,64l19,-15c0,0,-11,-143,-11,-416c0,0,0,-157,5,-190c0,0,4,-23,14,-30c0,0,10,-7,97,-13V-4c0,0,-134,4,-208,4C259,0,220,0,47,-4ZM254,845c0,0,-47,0,-81,34c0,0,-34,34,-34,81c0,0,0,49,34,83c0,0,34,34,82,34c0,0,48,0,82,-34c0,0,34,-34,34,-83c0,0,0,-47,-34,-81c0,0,-34,-34,-83,-34Z" 
id="f0_25"
transform="scale(0.001,-0.001)" />

<path d="M43,-4V57c0,0,81,4,91,13c0,0,10,8,13,38c0,0,5,76,5,266c0,0,0,94,-3,162c0,0,-2,42,-6,49c0,0,-4,6,-12,9c0,0,-8,3,-88,5v58c0,0,40,0,126,17c0,0,85,17,144,40l20,7c0,0,10,0,10,-18l-1,-6c0,0,-2,-21,-2,-107l115,96c0,0,22,19,45,26c0,0,33,9,80,9c0,0,78,0,129,-28c0,0,50,-27,73,-75c0,0,24,-48,24,-150c0,0,0,-45,-2,-104c0,0,-4,-121,-4,-209c0,0,0,-50,8,-69c0,0,6,-14,17,-18c0,0,11,-5,81,-11V-4l-91,3L756,0L602,-4l-8,9c0,0,19,142,19,291c0,0,0,190,-23,234c0,0,-30,57,-109,57c0,0,-50,0,-87,-26c0,0,-37,-26,-49,-55c0,0,-5,-12,-5,-76c0,0,0,-270,2,-309c0,0,3,-40,13,-49c0,0,13,-11,100,-15V-4c0,0,-130,4,-219,4C236,0,183,0,43,-4Z" 
id="f0_2a"
transform="scale(0.001,-0.001)" />

<path d="M385,423c0,0,59,0,124,6v35c0,0,0,92,-33,134c0,0,-34,42,-91,42c0,0,-40,0,-69,-19c0,0,-29,-20,-43,-56c0,0,-14,-36,-22,-136c0,0,67,-6,134,-6ZM408,-20c0,0,-162,0,-256,94c0,0,-93,94,-93,265c0,0,0,108,27,179c0,0,23,58,74,96c0,0,51,38,117,72c0,0,67,35,147,35c0,0,122,0,202,-69c0,0,79,-68,79,-219c0,0,0,-19,-3,-57L581,354c0,0,-57,-4,-164,-4H256c0,0,11,-129,77,-194c0,0,65,-65,166,-65c0,0,43,0,85,12c0,0,41,13,82,37l22,-22L654,46C654,46,601,13,539,-3c0,0,-61,-17,-131,-17Z" 
id="f0_21"
transform="scale(0.001,-0.001)" />

<path d="M328,113c0,0,58,0,120,67V362c0,0,-131,-29,-170,-62c0,0,-39,-33,-39,-89c0,0,0,-45,25,-71c0,0,25,-27,64,-27ZM219,-20c0,0,-79,0,-122,46C97,26,54,73,54,163c0,0,0,111,59,157c0,0,75,59,335,106c0,0,-2,89,-31,128c0,0,-40,55,-126,55c0,0,-20,0,-41,-5c0,0,-21,-5,-43,-15L174,509l-52,13l2,34l-1,33l-1,29c0,0,114,71,164,89c0,0,37,14,102,14c0,0,88,0,143,-27c0,0,55,-26,80,-72c0,0,26,-46,26,-133c0,0,0,-36,-3,-131c0,0,-3,-97,-3,-156c0,0,0,-93,5,-113c0,0,3,-12,14,-19c0,0,12,-7,79,-13V-4l-57,3c0,0,-46,1,-91,1c0,0,-71,0,-133,-4l-8,7l8,102L292,-10c0,0,-41,-10,-73,-10Z" 
id="f0_1x"
transform="scale(0.001,-0.001)" />

<path d="M16,-4V57c0,0,75,3,86,9c0,0,9,4,14,14c0,0,9,18,10,79c0,0,3,109,3,199c0,0,0,172,-4,204c0,0,-3,19,-14,27c0,0,-11,7,-95,10v58c0,0,150,14,215,35l76,29c0,0,11,0,11,-15l-1,-10c0,0,-2,-47,-2,-135c0,0,38,36,84,92c0,0,34,42,60,55c0,0,25,13,68,13c0,0,23,0,48,-9c0,0,-7,-74,-9,-203L533,497c0,0,-18,29,-38,41c0,0,-21,12,-53,12c0,0,-45,0,-77,-24c0,0,-32,-23,-41,-53c0,0,-6,-22,-6,-152c0,0,0,-189,5,-220c0,0,3,-21,14,-29c0,0,17,-11,113,-15V-4l-84,3c0,0,-80,1,-138,1c0,0,-55,0,-128,-1L16,-4Z" 
id="f0_2e"
transform="scale(0.001,-0.001)" />

<path d="M59,-4V58c0,0,88,6,100,14c0,0,9,4,14,16c0,0,7,18,10,154c0,0,4,136,4,263c0,0,0,238,-5,340c0,0,-5,102,-16,114c0,0,-11,12,-64,16l-43,4v62l84,-2c0,0,78,-3,124,-3c0,0,64,0,204,3c0,0,76,2,112,2c0,0,134,0,197,-25c0,0,64,-25,97,-76c0,0,33,-51,33,-128c0,0,0,-138,-98,-231c0,0,-98,-93,-249,-93c0,0,-20,0,-41,3c0,0,-22,3,-46,8c0,0,-13,27,-27,52l17,18c0,0,16,-3,30,-6c0,0,14,-2,25,-2c0,0,75,0,123,52c0,0,47,52,47,145c0,0,0,104,-49,155c0,0,-49,51,-144,51c0,0,-39,0,-91,-11c0,0,-8,-229,-8,-389c0,0,0,-54,6,-342c0,0,2,-114,7,-131c0,0,4,-13,15,-18c0,0,16,-9,126,-15V-4c0,0,-131,4,-222,4C331,0,291,0,59,-4Z" 
id="f0_1g"
transform="scale(0.001,-0.001)" />

<path d="M437,53c0,0,69,0,107,55c0,0,38,55,38,201c0,0,0,200,-46,277c0,0,-38,61,-119,61c0,0,-69,0,-109,-56c0,0,-40,-56,-40,-190c0,0,0,-199,51,-283c0,0,39,-65,118,-65ZM415,-20c0,0,-173,0,-263,94c0,0,-90,95,-90,276c0,0,0,177,82,265c0,0,99,106,286,106c0,0,187,0,272,-85c0,0,86,-84,86,-266c0,0,0,-188,-99,-289C689,81,591,-20,415,-20Z" 
id="f0_2b"
transform="scale(0.001,-0.001)" />

<path d="M406,-330c0,0,79,0,134,24c0,0,56,25,84,68c0,0,27,44,27,97c0,0,0,48,-22,82c0,0,-17,23,-46,30c0,0,-28,7,-166,7H286c0,0,-63,-47,-82,-77c0,0,-19,-31,-19,-71c0,0,0,-71,56,-116c0,0,56,-44,165,-44Zm-9,634c0,0,57,0,88,40c0,0,31,40,31,125c0,0,0,93,-32,136c0,0,-33,42,-91,42c0,0,-57,0,-91,-37c0,0,-33,-37,-33,-103c0,0,0,-112,33,-157c0,0,33,-46,95,-46ZM383,-404c0,0,-172,0,-257,60c0,0,-84,60,-84,154c0,0,0,53,26,89c0,0,12,16,82,57l53,30c0,0,-60,12,-80,31c0,0,-20,20,-20,56c0,0,0,40,29,97l24,16c0,0,43,28,81,60c0,0,-85,30,-123,82c0,0,-38,53,-38,132c0,0,0,114,88,187c0,0,88,74,247,74c0,0,78,0,138,-16c0,0,44,-12,88,-43c0,0,7,0,19,0c44,0,156,0,196,5l12,-16c0,0,-20,-28,-49,-81H691c0,0,10,-36,10,-68c0,0,0,-137,-98,-204c0,0,-99,-67,-230,-67c0,0,-21,0,-62,3c0,0,-34,-20,-44,-32c0,0,-9,-12,-9,-27c0,0,0,-36,50,-43c0,0,28,-5,304,-5c0,0,93,0,128,-16c0,0,36,-16,59,-57c0,0,23,-41,23,-105c0,0,0,-150,-118,-251c0,0,-119,-102,-321,-102Z" 
id="f0_23"
transform="scale(0.001,-0.001)" />

<path d="M46,-4V57c0,0,77,3,88,10c0,0,11,7,14,26c0,0,6,36,6,173c0,0,0,287,-8,311c0,0,-6,20,-52,21l-48,1v58c0,0,92,10,156,24c0,0,65,15,117,36c0,0,11,4,16,4c0,0,10,0,10,-19c0,0,0,-14,-2,-38c0,0,-1,-11,-1,-37V600l122,92c0,0,39,29,118,29c0,0,80,0,126,-31c0,0,47,-31,72,-99L907,692c0,0,36,29,102,29c0,0,117,0,173,-58c0,0,55,-57,55,-187l-2,-62c0,0,-3,-103,-3,-183c0,0,0,-107,7,-138c0,0,4,-18,15,-25c0,0,11,-7,85,-11V-4c0,0,-93,4,-162,4c0,0,-67,0,-139,-4l-9,13c0,0,19,161,19,314c0,0,0,181,-28,226c0,0,-28,46,-99,46c0,0,-47,0,-82,-24c0,0,-35,-23,-46,-53c0,0,-8,-21,-8,-130c0,0,0,-198,5,-273c0,0,3,-34,14,-43c0,0,12,-9,96,-15V-4c0,0,-98,4,-192,4C708,0,591,0,498,-4V57c0,0,73,0,86,21c0,0,12,21,12,187c0,0,0,189,-7,235c0,0,-7,47,-36,71c0,0,-29,24,-80,24c0,0,-37,0,-67,-18c0,0,-31,-17,-52,-48c0,0,-12,-17,-12,-53l1,-29c0,0,2,-21,2,-117l-1,-88c0,0,0,-127,5,-150c0,0,2,-15,12,-22c0,0,10,-7,82,-13V-4c0,0,-89,4,-196,4C247,0,210,0,46,-4Z" 
id="f0_29"
transform="scale(0.001,-0.001)" />

<path d="M34,-4V42H80c0,0,78,0,93,27c0,0,14,26,14,242V761c0,0,0,195,-15,222c0,0,-14,26,-83,26H34v47c0,0,123,-5,229,-5c0,0,106,0,207,5v-47H438c0,0,-69,0,-85,-11c0,0,-17,-11,-20,-37c0,0,-6,-41,-6,-199V592c0,0,132,-5,338,-5c0,0,174,0,282,5V737c0,0,0,128,-8,215c0,0,-3,30,-21,44c0,0,-17,13,-69,13H795v47c0,0,114,-5,216,-5c0,0,110,0,229,5v-47h-57c0,0,-57,0,-73,-13c0,0,-16,-12,-19,-46c0,0,-4,-34,-4,-214V324c0,0,0,-229,13,-255c0,0,13,-27,82,-27h58V-4c0,0,-103,4,-212,4c0,0,-125,0,-233,-4V42h51c0,0,57,0,73,13c0,0,17,13,20,49c0,0,8,77,8,225V523c0,0,-105,5,-268,5c0,0,-233,0,-352,-5V314c0,0,0,-53,3,-126c0,0,5,-102,8,-113c0,0,3,-10,21,-22c0,0,19,-11,61,-11h50V-4c0,0,-96,4,-186,4C284,0,196,0,34,-4Z" 
id="f1_18"
transform="scale(0.001,-0.001)" />

<path d="M442,407c0,0,56,0,108,5v42c0,0,0,65,-26,124c0,0,-17,37,-58,61c0,0,-41,24,-95,24c0,0,-84,0,-134,-61c0,0,-50,-61,-51,-190c0,0,116,-5,256,-5ZM380,-19c0,0,-152,0,-245,95c0,0,-93,96,-93,260c0,0,0,125,52,217c0,0,35,60,127,111c0,0,93,52,180,52c0,0,132,0,210,-78c0,0,77,-77,77,-217l-2,-44c0,0,-49,-11,-94,-15c0,0,-80,-6,-222,-6H184c0,0,4,-147,75,-222c0,0,72,-76,188,-76c0,0,53,0,104,17c0,0,52,17,103,51l12,-12L642,52C642,52,580,16,515,-1c0,0,-66,-18,-135,-18Z" 
id="f1_21"
transform="scale(0.001,-0.001)" />

<path d="M20,-4V38H73c0,0,55,0,64,26c0,0,10,26,10,310c0,0,0,127,-3,199c0,0,-2,24,-12,33c0,0,-11,9,-59,9H20v43c0,0,63,7,114,20c0,0,50,13,114,39c0,0,6,3,12,3c0,0,12,0,12,-18l-1,-28L270,573L383,673c0,0,20,18,42,26c0,0,49,17,99,17c0,0,80,0,138,-33c0,0,58,-32,84,-84c0,0,25,-52,25,-162L768,202c0,0,0,-121,10,-140c0,0,14,-24,55,-24h53V-4c0,0,-79,4,-137,4c0,0,-56,0,-121,-4c0,0,14,144,14,392c0,0,0,100,-18,141c0,0,-17,42,-59,68c0,0,-41,25,-99,25c0,0,-73,0,-123,-37c0,0,-51,-36,-63,-80c0,0,-7,-29,-7,-152c0,0,0,-137,2,-254c0,0,1,-35,10,-44c0,0,19,-17,62,-17h53V-4c0,0,-126,4,-201,4C199,0,120,0,20,-4Z" 
id="f1_2a"
transform="scale(0.001,-0.001)" />

<path d="M380,-19c0,0,-110,0,-187,41c0,0,-76,42,-118,121c0,0,-42,79,-42,188c0,0,0,96,32,167c0,0,32,71,90,111c0,0,58,40,145,79c0,0,61,28,137,28c0,0,57,0,99,-10c0,0,41,-9,89,-33c0,0,-19,-99,-21,-198H557v38c0,0,0,47,-13,67c0,0,-14,20,-63,39c0,0,-50,20,-108,20c0,0,-101,0,-155,-62c0,0,-55,-61,-55,-183c0,0,0,-157,81,-251c0,0,72,-85,187,-85c0,0,44,0,88,11c0,0,43,11,86,32L625,83L594,35C594,35,543,8,490,-5c0,0,-54,-14,-110,-14Z" 
id="f1_1z"
transform="scale(0.001,-0.001)" />

<path d="M315,-19c0,0,-55,0,-94,19c0,0,-38,20,-55,52c0,0,-17,31,-17,96l3,144V575c0,0,-58,0,-119,-5v32c0,0,64,24,119,51c0,0,-1,107,-6,232c0,0,87,36,125,59l19,-15c0,0,-6,-59,-12,-276c0,0,91,0,148,2l60,3l-8,-76l-31,1L304,582H278V289c0,0,0,-115,7,-147c0,0,8,-32,30,-50c0,0,23,-18,58,-18c0,0,22,0,43,9c0,0,20,8,40,26L478,83L405,-1c0,0,-24,-8,-46,-13c0,0,-23,-5,-44,-5Z" 
id="f1_2g"
transform="scale(0.001,-0.001)" />

<path d="M23,-4V38l47,6c0,0,44,5,56,12c0,0,11,7,14,33c0,0,6,40,6,180V772c0,0,0,199,-11,223c0,0,-6,16,-60,16H23v46c0,0,116,12,185,34l62,21c0,0,12,0,12,-16l-3,-31L275,931c0,0,-4,-101,-4,-157V574l98,86c0,0,34,32,67,44c0,0,33,12,80,12c0,0,83,0,144,-33c0,0,61,-34,84,-85c0,0,24,-52,24,-177L763,201c0,0,0,-75,6,-118c0,0,2,-18,12,-27c0,0,10,-9,44,-12l56,-6V-4c0,0,-72,4,-141,4c0,0,-59,0,-117,-4c0,0,14,186,14,367c0,0,0,122,-15,165c0,0,-16,43,-55,69c0,0,-40,25,-100,25c0,0,-62,0,-113,-30c0,0,-50,-29,-70,-68c0,0,-13,-27,-13,-131V263c0,0,0,-177,8,-196c0,0,8,-18,60,-23l65,-6V-4c0,0,-117,4,-187,4C217,0,143,0,23,-4Z" 
id="f1_24"
transform="scale(0.001,-0.001)" />

<path d="M487,58c0,0,118,0,180,88c0,0,63,89,63,211c0,0,0,82,-29,140c0,0,-29,59,-84,92c0,0,-55,33,-118,33c0,0,-45,0,-87,-18c0,0,-43,-18,-75,-49c0,0,-32,-32,-41,-59c0,0,-7,-20,-7,-106V156c0,0,48,-54,96,-76c0,0,47,-22,102,-22ZM30,-410v42H85c0,0,57,0,68,25c0,0,10,25,10,262V376c0,0,0,119,-6,184c0,0,-3,31,-14,41c0,0,-12,10,-54,10H30v46c0,0,104,11,205,43l45,18c0,0,12,0,12,-21l-2,-79l-1,-53l105,93c0,0,39,35,67,44c0,0,44,14,102,14c0,0,133,0,215,-82c0,0,82,-82,82,-212c0,0,0,-65,-19,-128c0,0,-19,-63,-45,-102c0,0,-27,-40,-61,-67c0,0,-11,-9,-90,-59L615,45C615,45,558,5,524,-6c0,0,-35,-13,-80,-13c0,0,-35,0,-73,11c0,0,-39,9,-82,28V-84c0,0,0,-162,5,-228c0,0,2,-29,19,-43c0,0,16,-13,69,-13h40v-42c0,0,-141,5,-207,5c0,0,-72,0,-185,-5Z" 
id="f1_2c"
transform="scale(0.001,-0.001)" />

<path d="M439,33c0,0,90,0,146,69c0,0,55,69,55,208c0,0,0,113,-32,195c0,0,-33,83,-87,120c0,0,-54,38,-120,38c0,0,-59,0,-107,-30c0,0,-47,-30,-70,-80c0,0,-30,-68,-30,-147c0,0,0,-154,63,-263c0,0,63,-110,182,-110ZM390,-19c0,0,-149,0,-243,100c0,0,-93,100,-93,272c0,0,0,103,48,186c0,0,47,83,133,130c0,0,87,47,196,47c0,0,159,0,255,-94c0,0,95,-94,95,-250c0,0,0,-185,-124,-294c0,0,-112,-97,-267,-97Z" 
id="f1_2b"
transform="scale(0.001,-0.001)" />

<path d="M38,-4V38l64,7c0,0,37,3,46,14c0,0,8,11,11,72c0,0,3,95,3,262c0,0,0,116,-3,178c0,0,-2,24,-13,33c0,0,-12,10,-52,10H38v43c0,0,91,13,134,24c0,0,43,11,110,38l18,-12c0,0,-5,-55,-6,-123c0,0,-6,-217,-6,-321c0,0,0,-97,7,-165c0,0,3,-27,14,-37c0,0,11,-11,54,-16l51,-7V-4c0,0,-109,4,-199,4C215,0,128,0,38,-4ZM222,880c0,0,-35,0,-59,25c0,0,-25,24,-25,59c0,0,0,35,25,60c0,0,24,25,59,25c0,0,35,0,59,-25c0,0,25,-25,25,-60c0,0,0,-35,-25,-59c0,0,-24,-25,-59,-25Z" 
id="f1_25"
transform="scale(0.001,-0.001)" />

<path d="M280,-19c0,0,-92,0,-206,28C74,9,54,14,54,25l2,10c0,0,3,11,5,40c0,0,7,73,7,113l-1,36h46V175c0,0,0,-58,11,-73c0,0,19,-24,75,-46c0,0,57,-23,116,-23c0,0,77,0,125,42c0,0,49,41,49,99c0,0,0,45,-28,73c0,0,-29,27,-108,44c0,0,-148,29,-196,52c0,0,-48,22,-72,60c0,0,-23,37,-23,90c0,0,0,99,72,161c0,0,72,62,204,62c0,0,105,0,209,-42c0,0,-7,-51,-11,-170H491c0,0,-2,65,-14,86c0,0,-17,28,-63,50c0,0,-45,23,-96,23c0,0,-68,0,-108,-35c0,0,-41,-34,-41,-87c0,0,0,-50,32,-75c0,0,32,-26,177,-55c0,0,107,-22,142,-40c0,0,34,-19,55,-57c0,0,20,-38,20,-87c0,0,0,-101,-86,-174c0,0,-86,-72,-229,-72Z" 
id="f1_2f"
transform="scale(0.001,-0.001)" />

<path d="M296,69c0,0,56,0,107,32c0,0,51,31,97,93l-2,165l2,36c0,0,-207,-45,-263,-84c0,0,-56,-39,-56,-120c0,0,0,-55,32,-88c0,0,32,-34,83,-34ZM249,-19c0,0,-97,0,-147,47c0,0,-51,47,-51,127c0,0,0,75,36,131c0,0,36,56,103,83c0,0,67,27,310,70c0,0,-2,95,-42,142c0,0,-51,58,-145,58c0,0,-35,0,-67,-8c0,0,-31,-9,-58,-27c0,0,-21,-53,-39,-101l-42,11V615l81,46c0,0,55,32,97,44c0,0,41,12,88,12c0,0,103,0,166,-47c0,0,63,-46,76,-117c0,0,9,-54,11,-267c0,0,2,-200,9,-221c0,0,7,-21,37,-21h59V-4c0,0,-85,4,-119,4c0,0,-42,0,-112,-4l1,66c0,0,0,32,-1,65L345,9c0,0,-20,-15,-41,-21c0,0,-20,-7,-55,-7Z" 
id="f1_1x"
transform="scale(0.001,-0.001)" />

<path d="M24,-4V38l72,6c0,0,38,3,48,14c0,0,10,12,13,73c0,0,5,107,5,255c0,0,0,180,-14,212c0,0,-10,20,-61,20H24v43c0,0,73,8,129,21c0,0,57,13,101,33c0,0,11,6,17,6c0,0,9,0,12,-5c0,0,3,-4,3,-20L283,548c0,0,29,28,65,74c0,0,41,54,77,75c0,0,36,20,76,20c0,0,41,0,62,-10c0,0,11,-4,11,-14l-1,-8c0,0,-12,-60,-13,-169H526c0,0,-17,38,-40,54c0,0,-24,16,-56,16c0,0,-44,0,-82,-30c0,0,-37,-30,-50,-84c0,0,-12,-53,-12,-211c0,0,0,-103,8,-174c0,0,3,-26,15,-33c0,0,28,-16,83,-16h45V-4c0,0,-114,4,-216,4C221,0,121,0,24,-4Z" 
id="f1_2e"
transform="scale(0.001,-0.001)" />

<path d="M443,-410c0,0,-126,125,-192,236c0,0,-66,111,-102,245c0,0,-37,134,-37,284c0,0,0,172,48,318c0,0,47,146,118,247c0,0,72,101,170,192l32,-41c0,0,-87,-103,-136,-204c0,0,-50,-100,-76,-219c0,0,-25,-120,-25,-275c0,0,0,-165,23,-291c0,0,24,-125,69,-222c0,0,44,-97,145,-233l-37,-37Z" 
id="f1_c"
transform="scale(0.001,-0.001)" />

<path d="M388,34c0,0,91,0,138,85c0,0,59,107,59,391c0,0,0,303,-63,413c0,0,-52,94,-149,94c0,0,-90,0,-142,-93c0,0,-52,-93,-52,-379c0,0,0,-305,63,-418c0,0,51,-93,146,-93ZM365,-19c0,0,-109,0,-183,64c0,0,-73,64,-107,182c0,0,-26,90,-26,297c0,0,0,287,96,417c0,0,96,130,256,130c0,0,98,0,168,-49c0,0,69,-49,108,-148c0,0,38,-100,38,-290c0,0,0,-331,-95,-467c0,0,-96,-136,-255,-136Z" 
id="f1_k"
transform="scale(0.001,-0.001)" />

<path d="M33,-221l-22,23c0,0,65,100,95,182c0,0,30,80,41,175c0,0,86,21,152,47l21,-22C320,184,277,80,228,-2c0,0,-50,-84,-132,-187L33,-221Z" 
id="f1_g"
transform="scale(0.001,-0.001)" />

<path d="M61,-410l-32,41c0,0,87,103,136,203c0,0,50,101,76,219c0,0,26,120,26,275c0,0,0,165,-24,291c0,0,-25,127,-69,224c0,0,-45,97,-145,231l38,38c0,0,124,-124,191,-236c0,0,66,-111,103,-246c0,0,36,-134,36,-284c0,0,0,-172,-47,-317c0,0,-47,-145,-119,-246c0,0,-72,-101,-170,-193Z" 
id="f1_d"
transform="scale(0.001,-0.001)" />

<path d="M256,-19c0,0,-47,0,-81,9c0,0,-34,9,-79,32C96,22,83,65,74,91L18,224l38,22L74,213c0,0,51,-91,67,-107c0,0,22,-21,66,-36c0,0,45,-15,103,-15c0,0,125,0,194,72c0,0,70,73,70,209c0,0,0,119,-64,187c0,0,-65,69,-171,69c0,0,-61,0,-110,-24c0,0,-48,-24,-85,-75l-33,11c0,0,11,130,11,331c0,0,0,126,-11,219l13,8c0,0,117,-11,241,-11c0,0,149,0,286,11l9,-8c0,0,-7,-37,-7,-58c0,0,0,-19,7,-60l-9,-8c0,0,-85,5,-163,5c0,0,-157,0,-299,-5c0,0,-7,-57,-12,-311c0,0,55,44,105,61c0,0,50,18,114,18c0,0,139,0,224,-83c0,0,84,-83,84,-215c0,0,0,-167,-133,-292C571,106,438,-19,256,-19Z" 
id="f1_p"
transform="scale(0.001,-0.001)" />

<path d="M264,-19c0,0,-46,0,-92,10c0,0,-45,9,-91,28c0,0,-15,91,-60,224l41,17c0,0,47,-108,75,-142c0,0,29,-33,76,-53c0,0,46,-20,111,-20c0,0,112,0,175,69c0,0,63,69,63,193c0,0,0,105,-54,162c0,0,-53,58,-140,58c0,0,-67,0,-142,-38l-10,7l14,86c0,0,39,-5,59,-5c0,0,91,0,149,57c0,0,58,56,58,148c0,0,0,83,-50,134c0,0,-51,50,-133,50c0,0,-54,0,-103,-23c0,0,-50,-24,-74,-54c0,0,-10,-13,-25,-60L93,776H47L87,959c0,0,48,56,113,84c0,0,65,28,148,28c0,0,126,0,199,-65c0,0,73,-65,73,-160c0,0,0,-65,-31,-120c0,0,-32,-56,-128,-135c0,0,48,0,98,-19c0,0,70,-26,106,-79c0,0,36,-52,36,-126c0,0,0,-150,-129,-268C572,99,443,-19,264,-19Z" 
id="f1_n"
transform="scale(0.001,-0.001)" />

<path d="M379,489c0,0,91,0,146,60c0,0,54,61,54,183c0,0,0,133,-59,209c0,0,-59,76,-146,76c0,0,-54,0,-100,-30c0,0,-45,-29,-72,-90c0,0,-28,-60,-28,-139c0,0,0,-129,57,-199c0,0,58,-70,148,-70ZM155,-22L105,3V18c0,0,144,32,240,100c0,0,96,68,153,167c0,0,57,99,74,246L495,470c0,0,-47,-41,-85,-55c0,0,-37,-14,-87,-14c0,0,-125,0,-202,81c0,0,-77,82,-77,227c0,0,0,161,96,261c0,0,96,101,246,101c0,0,155,0,244,-107c0,0,89,-106,89,-313c0,0,0,-147,-45,-262c0,0,-45,-114,-138,-209C536,180,444,85,328,29c0,0,-73,-34,-173,-51Z" 
id="f1_t"
transform="scale(0.001,-0.001)" />

<path d="M192,-19c0,0,-37,0,-63,25c0,0,-25,26,-25,62c0,0,0,37,25,62c0,0,26,25,63,25c0,0,36,0,61,-25c0,0,26,-25,26,-62c0,0,0,-36,-26,-62c0,0,-25,-25,-61,-25Z" 
id="f1_i"
transform="scale(0.001,-0.001)" />

<path d="M245,-4V42h63c0,0,49,0,64,13c0,0,15,13,19,51c0,0,7,87,7,225V757c0,0,0,126,-5,232H317c0,0,-183,0,-202,-9c0,0,-19,-9,-24,-67L80,814H33l2,88c0,0,0,54,-10,154c0,0,403,-5,473,-5l412,5c0,0,-14,-126,-16,-242H847l-8,97c0,0,-4,51,-12,60c0,0,-9,9,-37,12c0,0,-82,6,-186,6H546c0,0,-8,-112,-8,-236V328c0,0,0,-237,12,-262c0,0,12,-24,84,-24h56V-4c0,0,-131,4,-223,4c0,0,-92,0,-222,-4Z" 
id="f1_1k"
transform="scale(0.001,-0.001)" />

<path d="M431,74c0,0,59,0,109,33c0,0,50,34,73,87c0,0,23,53,23,166V542c0,0,-51,55,-107,83c0,0,-55,27,-115,27c0,0,-98,0,-157,-71c0,0,-59,-71,-59,-208c0,0,0,-140,68,-219c0,0,68,-80,165,-80ZM363,-19c0,0,-126,0,-211,94c0,0,-85,95,-85,253c0,0,0,99,33,169c0,0,33,70,78,102c0,0,46,32,142,80c0,0,73,37,136,37c0,0,42,0,87,-11c0,0,45,-12,93,-35V941c0,0,0,47,-10,59c0,0,-11,12,-48,12H514v45c0,0,133,9,248,55l14,-9c0,0,-6,-76,-9,-184L764,721l-2,-65V211c0,0,0,-125,8,-139c0,0,11,-20,61,-27l53,-7V-4c0,0,-92,6,-162,6c0,0,-12,0,-94,-6c0,0,5,50,8,142C636,138,573,89,475,1c0,0,-64,-20,-112,-20Z" 
id="f1_20"
transform="scale(0.001,-0.001)" />

<path d="M409,-377c0,0,82,0,145,30c0,0,62,31,97,84c0,0,34,54,34,111c0,0,0,48,-24,85c0,0,-24,37,-57,47c0,0,-18,5,-79,5H351c0,0,-53,0,-72,-12c0,0,-62,-40,-76,-65c0,0,-22,-39,-22,-98c0,0,0,-81,60,-134c0,0,60,-53,168,-53ZM395,280c0,0,71,0,116,47c0,0,44,48,44,133c0,0,0,93,-47,150c0,0,-48,57,-121,57c0,0,-72,0,-115,-46c0,0,-44,-47,-44,-129c0,0,0,-99,47,-156c0,0,48,-56,120,-56ZM382,-430c0,0,-154,0,-237,67c0,0,-82,66,-82,164c0,0,0,60,43,122c0,0,78,37,131,74c0,0,-62,19,-80,36c0,0,-17,17,-17,43c0,0,0,31,17,62c0,0,10,18,49,45l73,52c0,0,-89,22,-129,63c0,0,-52,55,-52,141c0,0,0,75,39,137c0,0,38,62,114,98c0,0,96,46,186,46c0,0,56,0,99,-15c0,0,43,-15,88,-51h63c0,0,97,0,151,7l8,-16c0,0,-22,-32,-39,-68H668c0,0,17,-48,17,-78c0,0,0,-67,-40,-128c0,0,-40,-62,-115,-100c0,0,-75,-37,-161,-37l-36,1c0,0,-49,-37,-62,-55c0,0,-13,-18,-13,-35c0,0,0,-28,29,-45c0,0,29,-16,119,-16c0,0,34,0,98,3c0,0,92,4,133,4c0,0,59,0,91,-19c0,0,31,-19,53,-67c0,0,23,-46,23,-106c0,0,0,-83,-51,-160c0,0,-51,-77,-148,-123c0,0,-97,-46,-223,-46Z" 
id="f1_23"
transform="scale(0.001,-0.001)" />

<path d="M17,-4V38H67c0,0,58,0,68,23c0,0,15,32,15,235V587L42,580v31c0,0,53,26,108,55v95c0,0,0,72,19,118c0,0,20,45,80,107c0,0,80,83,124,109c0,0,29,17,73,17c0,0,29,0,65,-10c0,0,-2,-38,-2,-61c0,0,0,-23,2,-63l-18,-9c0,0,-44,39,-101,39c0,0,-63,0,-90,-43c0,0,-26,-42,-26,-207V658c0,0,121,1,198,8l5,-8L467,587l-92,2c0,0,-33,0,-99,-2V296c0,0,0,-209,12,-233c0,0,12,-25,75,-25h65V-4c0,0,-122,4,-175,4L17,-4Z" 
id="f1_22"
transform="scale(0.001,-0.001)" />

<path d="M450,58c0,0,109,0,168,87c0,0,60,87,60,211c0,0,0,130,-58,198c0,0,-57,68,-155,68c0,0,-65,0,-119,-37c0,0,-53,-38,-74,-87c0,0,-7,-20,-7,-90V239c0,0,0,-81,6,-93c0,0,12,-24,64,-56c0,0,53,-32,115,-32ZM403,-19c0,0,-56,0,-100,15c0,0,-45,14,-93,51L150,-8L124,1c0,0,15,115,15,242V717c0,0,0,110,-7,225c0,0,-3,53,-12,62c0,0,-10,10,-44,10H12v42c0,0,64,7,134,22c0,0,47,9,101,30c0,0,8,4,14,4c0,0,16,0,16,-29l-4,-37c0,0,-5,-43,-6,-64c0,0,-2,-96,-2,-263V561l91,91c0,0,29,29,76,46c0,0,48,18,101,18c0,0,120,0,198,-83c0,0,77,-83,77,-220c0,0,0,-75,-27,-146c0,0,-27,-71,-66,-115c0,0,-18,-21,-100,-80C615,72,534,12,510,1c0,0,-45,-20,-107,-20Z" 
id="f1_1y"
transform="scale(0.001,-0.001)" />

<path d="M37,-4V38l64,5c0,0,43,4,49,22c0,0,9,29,9,265V854l-3,97c0,0,0,37,-8,45c0,0,-12,12,-50,12H37v45c0,0,156,14,248,59l13,-9c0,0,-12,-219,-12,-396V324c0,0,0,-228,9,-259c0,0,5,-16,49,-20l64,-7V-4c0,0,-82,4,-156,4C252,0,170,0,37,-4Z" 
id="f1_28"
transform="scale(0.001,-0.001)" />

<path d="M34,-4V38H91c0,0,48,0,58,26c0,0,9,26,9,281c0,0,0,187,-2,220c0,0,-2,34,-12,43c0,0,-11,9,-64,9H34v41c0,0,110,15,189,41l54,21c0,0,13,0,13,-18l-1,-27c0,0,-2,-42,-2,-93l100,90c0,0,24,21,51,30c0,0,39,14,77,14c0,0,84,0,135,-31c0,0,52,-30,94,-108l96,88c0,0,25,22,61,34c0,0,47,17,91,17c0,0,67,0,122,-32c0,0,54,-31,81,-81c0,0,26,-50,26,-136l-3,-292c0,0,0,-97,12,-115c0,0,11,-17,58,-20l55,-2V-4l-37,2c0,0,-87,2,-118,2c0,0,-47,0,-110,-4c0,0,10,137,10,321c0,0,0,156,-13,205c0,0,-13,49,-51,77c0,0,-38,28,-96,28c0,0,-64,0,-110,-35c0,0,-47,-35,-58,-84c0,0,-7,-31,-7,-266c0,0,0,-138,2,-157c0,0,2,-19,12,-27c0,0,11,-8,65,-14l50,-6V-4c0,0,-132,4,-194,4c0,0,-49,0,-191,-4V38h50c0,0,45,0,58,13c0,0,14,13,16,60c0,0,6,122,6,255c0,0,0,118,-16,163c0,0,-16,46,-55,72c0,0,-38,26,-92,26c0,0,-57,0,-104,-32c0,0,-47,-32,-64,-78c0,0,-11,-31,-11,-177c0,0,0,-161,3,-236c0,0,1,-35,11,-45c0,0,9,-10,64,-15l52,-6V-4c0,0,-94,4,-176,4C239,0,145,0,34,-4Z" 
id="f1_29"
transform="scale(0.001,-0.001)" />

<path d="M128,-430c0,0,-21,0,-44,7c0,0,-23,6,-46,19l34,117H90c0,0,20,-25,40,-37c0,0,20,-12,41,-12c0,0,47,0,85,45c0,0,38,44,117,249c0,0,-33,86,-131,329L173,458L117,589c0,0,-26,69,-78,69H9v43c0,0,77,-5,137,-5c0,0,46,0,215,5V658H306c0,0,-28,0,-41,-10c0,0,-13,-9,-13,-24c0,0,0,-11,14,-51c0,0,75,-207,177,-444c0,0,99,217,172,418c0,0,22,59,22,71c0,0,0,24,-51,32l-55,8v43c0,0,88,-5,157,-5c0,0,65,0,130,5V658H792c0,0,-17,0,-35,-10c0,0,-18,-10,-29,-28c0,0,-24,-38,-138,-290c0,0,-32,-69,-160,-374c0,0,-114,-259,-128,-284c0,0,-30,-49,-75,-76c0,0,-46,-26,-99,-26Z" 
id="f1_2l"
transform="scale(0.001,-0.001)" />

<path d="M30,-4V37L289,305c0,0,147,152,197,247c0,0,49,95,49,176c0,0,0,101,-58,161c0,0,-58,60,-153,60c0,0,-63,0,-113,-22c0,0,-37,-16,-53,-41c0,0,-15,-25,-46,-139H67c0,0,23,146,25,211c0,0,56,59,121,86c0,0,65,27,147,27c0,0,144,0,230,-82c0,0,85,-82,85,-214c0,0,0,-115,-77,-225c0,0,-77,-111,-259,-278L194,123H466c0,0,174,0,260,11l8,-7c0,0,-7,-42,-7,-60c0,0,0,-14,7,-67l-8,-4c0,0,-148,4,-328,4C398,0,209,0,30,-4Z" 
id="f1_m"
transform="scale(0.001,-0.001)" />

<path d="M254,367c0,0,63,0,168,3V902C422,902,259,665,100,370c0,0,86,-3,154,-3ZM235,-4V38l80,5c0,0,67,3,80,12c0,0,14,9,18,33c0,0,9,40,9,149v39c0,0,-288,0,-407,-8L2,313c0,0,120,212,196,335c0,0,75,124,236,374c0,0,40,11,103,41l21,-9c0,0,-4,-87,-5,-302V370c0,0,96,0,166,8c0,0,-4,-35,-4,-49c0,0,0,-10,5,-61c0,0,-80,8,-167,8c0,0,0,-183,12,-206c0,0,12,-23,79,-27l77,-5V-4c0,0,-142,4,-243,4c0,0,-40,0,-243,-4Z" 
id="f1_o"
transform="scale(0.001,-0.001)" />

<path d="M350,-17L310,166c0,0,-16,81,-38,173L143,897c0,0,-19,82,-34,97c0,0,-15,15,-62,15H16v47c0,0,106,-5,184,-5c0,0,75,0,204,5v-47H357c0,0,-51,0,-66,-9c0,0,-16,-9,-16,-29c0,0,0,-12,4,-28L331,696L437,221L609,648c0,0,44,110,160,418h46c0,0,44,-138,119,-349L1114,211l137,472c0,0,19,68,67,261c0,0,4,17,4,28c0,0,0,14,-11,21c0,0,-11,6,-55,11l-68,5v47c0,0,105,-5,165,-5c0,0,64,0,159,5v-47h-39c0,0,-26,0,-38,-12c0,0,-24,-24,-114,-313c0,0,-118,-385,-196,-701h-78c0,0,-13,49,-22,74c0,0,-33,96,-152,424L750,817L611,479C611,479,486,176,425,-17Z" 
id="f1_1n"
transform="scale(0.001,-0.001)" />

<path d="M377,-11c0,0,-98,245,-200,477c0,0,-39,85,-47,109c0,0,-16,48,-37,66c0,0,-20,17,-52,17H16v43c0,0,110,-5,183,-5c0,0,78,0,171,5V658H337c0,0,-45,0,-64,-10c0,0,-13,-7,-13,-22c0,0,0,-13,14,-52c0,0,13,-38,180,-451L588,445c0,0,45,112,56,156c0,0,3,11,3,20c0,0,0,14,-10,21c0,0,-10,6,-50,11l-48,5v43c0,0,77,-5,137,-5c0,0,70,0,150,5V658H803c0,0,-17,0,-33,-7c0,0,-12,-5,-20,-13c0,0,-7,-8,-54,-104c0,0,-84,-174,-128,-274c0,0,-45,-101,-114,-271Z" 
id="f1_2i"
transform="scale(0.001,-0.001)" />

<path d="M620,45c0,0,115,0,202,53c0,0,87,53,136,158c0,0,50,105,50,255c0,0,0,158,-55,270c0,0,-55,112,-150,169c0,0,-96,56,-227,56c0,0,-119,0,-206,-50c0,0,-87,-50,-136,-146c0,0,-49,-96,-49,-223c0,0,0,-168,58,-293c0,0,58,-125,155,-187c0,0,97,-62,222,-62ZM566,-19c0,0,-162,0,-279,65c0,0,-117,66,-185,192c0,0,-68,125,-68,288c0,0,0,245,158,395c0,0,159,150,422,150c0,0,258,0,405,-139c0,0,147,-139,147,-370c0,0,0,-248,-171,-415C995,147,825,-19,566,-19Z" 
id="f1_1f"
transform="scale(0.001,-0.001)" />

<path d="M754,415L566,863L378,415ZM28,-4V42l23,1c0,0,52,1,67,11c0,0,16,9,33,46c0,0,53,107,108,232L464,796c0,0,82,185,112,269h51L1004,187c0,0,38,-90,51,-108c0,0,12,-18,29,-26c0,0,16,-8,74,-11V-4c0,0,-97,4,-185,4c0,0,-82,0,-219,-4V42l74,5c0,0,40,3,47,8c0,0,11,8,11,21c0,0,0,13,-22,70L782,353H351L300,233c0,0,-50,-119,-50,-146c0,0,0,-17,9,-25c0,0,10,-7,48,-12l71,-8V-4c0,0,-71,4,-161,4C217,0,110,0,28,-4Z" 
id="f1_11"
transform="scale(0.001,-0.001)" />

<path d="M441,59c0,0,132,0,205,70c0,0,73,71,73,192c0,0,0,81,-32,133c0,0,-32,53,-90,77c0,0,-58,24,-185,24c0,0,-38,0,-85,-2V194c0,0,3,-51,3,-78c0,0,0,-20,-3,-47c0,0,69,-10,114,-10ZM395,614c0,0,149,0,213,53c0,0,65,52,65,152c0,0,0,86,-54,131c0,0,-54,46,-172,46c0,0,-52,0,-114,-9c0,0,-6,-92,-6,-276V616c0,0,37,-2,68,-2ZM116,-4V28c0,0,47,23,55,35c0,0,9,12,11,39c0,0,5,89,5,202V769c0,0,0,186,-14,211c0,0,-16,29,-79,29H43v47h62l68,-2c0,0,54,-3,85,-3c0,0,47,0,185,4l109,3c0,0,128,0,192,-45c0,0,79,-57,79,-161c0,0,0,-85,-56,-149c0,0,-56,-64,-193,-108c0,0,161,-10,231,-74c0,0,71,-64,71,-177c0,0,0,-142,-119,-246C757,98,638,-4,455,-4l-59,2c0,0,-75,2,-126,2c0,0,-37,0,-92,-2L116,-4Z" 
id="f1_12"
transform="scale(0.001,-0.001)" />

<path d="M672,-19c0,0,-183,0,-322,70c0,0,-139,71,-214,196c0,0,-74,125,-74,282c0,0,0,157,75,281c0,0,75,124,213,192c0,0,137,69,338,69c0,0,105,0,246,-35c0,0,70,-16,114,-25c0,0,-34,-79,-39,-225H959l-6,133c0,0,-66,44,-139,66c0,0,-72,21,-151,21c0,0,-202,0,-323,-122C340,884,219,762,219,557c0,0,0,-143,62,-256c0,0,61,-112,174,-178c0,0,114,-65,240,-65c0,0,100,0,197,23c0,0,74,17,147,72l16,-15c0,0,-16,-34,-29,-70C1026,68,939,25,850,3c0,0,-88,-22,-178,-22Z" 
id="f1_13"
transform="scale(0.001,-0.001)" />

<path d="M355,-19c0,0,-67,0,-116,28c0,0,-48,28,-70,73c0,0,-22,45,-22,143c0,0,0,51,2,118l3,120c0,0,0,126,-8,140c0,0,-7,14,-47,14H30v41c0,0,102,9,188,37l63,24c0,0,12,0,12,-19l-5,-76c0,0,-10,-158,-10,-294c0,0,0,-135,11,-173c0,0,11,-38,47,-63c0,0,35,-25,87,-25c0,0,69,0,127,45c0,0,57,45,75,90c0,0,10,26,10,157c0,0,0,221,-8,240c0,0,-8,16,-67,16H501v41c0,0,76,9,130,21c0,0,53,12,113,36c0,0,7,4,13,4c0,0,13,0,13,-15l-3,-69c0,0,-11,-255,-11,-449c0,0,0,-109,11,-125c0,0,17,-23,71,-23h43V-4c0,0,-93,4,-157,4c0,0,-49,0,-97,-4l8,134L591,82C591,82,540,26,486,3c0,0,-53,-22,-131,-22Z" 
id="f1_2h"
transform="scale(0.001,-0.001)" />

<path d="M593,-19c0,0,-117,0,-205,27c0,0,-88,28,-133,69c0,0,-44,41,-64,101c0,0,-19,59,-19,201l1,142V748c0,0,0,210,-12,236c0,0,-13,25,-79,25H29v47c0,0,153,-5,222,-5c0,0,73,0,214,5v-47H411c0,0,-70,0,-84,-27c0,0,-14,-27,-14,-243V447c0,0,0,-160,17,-223c0,0,18,-62,91,-105c0,0,73,-44,196,-44c0,0,126,0,213,46c0,0,59,33,87,100c0,0,28,67,28,256V758c0,0,0,195,-18,223c0,0,-17,28,-96,28H792v47c0,0,154,-5,196,-5c0,0,68,0,169,5v-47h-51c0,0,-59,0,-76,-32c0,0,-17,-31,-17,-222V475c0,0,0,-191,-19,-258c0,0,-19,-67,-69,-120C925,97,874,43,790,12c0,0,-84,-31,-197,-31Z" 
id="f1_1l"
transform="scale(0.001,-0.001)" />

<path d="M34,-4V42h67c0,0,47,0,60,12c0,0,14,11,18,47c0,0,3,35,8,216V715l-2,155c0,0,-2,96,-21,117c0,0,-19,22,-93,22H34v47c0,0,93,-4,237,-4c0,0,84,0,187,5c0,0,68,3,103,3c0,0,180,0,262,-66c0,0,81,-65,81,-177c0,0,0,-81,-47,-156c0,0,-47,-75,-133,-121c0,0,-86,-45,-184,-45c0,0,-44,0,-111,14l-15,56c0,0,65,-16,109,-16c0,0,103,0,164,62c0,0,60,62,60,170c0,0,0,104,-65,163c0,0,-64,58,-192,58c0,0,-72,0,-158,-27c0,0,-5,-108,-5,-229V320c0,0,0,-224,13,-251c0,0,13,-27,88,-27h51V-4c0,0,-132,4,-207,4C272,0,205,0,34,-4Z" 
id="f1_1g"
transform="scale(0.001,-0.001)" />

<path d="M674,-19c0,0,-28,66,-159,341L247,875V298c0,0,0,-201,16,-229c0,0,17,-27,100,-27h28V-4c0,0,-104,4,-169,4C222,0,175,0,35,-4V42H84c0,0,49,0,65,14c0,0,16,14,20,52c0,0,10,104,10,225V755c0,0,0,153,-7,202c0,0,-3,25,-22,39c0,0,-19,13,-75,13H35v47c0,0,130,-5,163,-5c0,0,43,0,121,5c0,0,91,-201,209,-442L725,210L906,584c0,0,96,196,218,472c0,0,93,-5,131,-5c0,0,44,0,159,5v-47h-49c0,0,-66,0,-80,-23c0,0,-15,-22,-15,-163V278c0,0,0,-182,15,-209c0,0,16,-27,86,-27h43V-4c0,0,-104,4,-198,4c0,0,-105,0,-219,-4V42h50c0,0,59,0,71,26c0,0,12,26,12,221V895L909,434C909,434,784,174,704,-19Z" 
id="f1_1d"
transform="scale(0.001,-0.001)" />

<path d="M600,-22c0,0,-38,26,-64,59c0,0,-17,21,-165,244c0,0,-70,-86,-108,-139c0,0,-38,-53,-96,-146c0,0,-31,4,-57,4C110,0,83,0,37,-4V41c0,0,38,0,52,7c0,0,13,6,73,73c0,0,86,96,174,207c0,0,-138,206,-179,242c0,0,-41,35,-87,35c0,0,-13,0,-33,-2v40l143,70c0,0,47,-19,77,-54c0,0,50,-55,159,-234c0,0,98,129,198,276c0,0,29,-5,49,-5c0,0,15,0,65,5V658c0,0,-40,-2,-65,-24c0,0,-40,-35,-214,-252c0,0,101,-149,169,-237c0,0,46,-61,74,-76c0,0,18,-10,57,-10V16C749,16,680,0,600,-22Z" 
id="f1_2k"
transform="scale(0.001,-0.001)" />

<path d="M33,-4V39c0,0,80,89,190,235L561,722c0,0,137,182,195,264c0,0,-108,5,-187,5c0,0,-134,0,-288,-11c0,0,-67,-5,-79,-16c0,0,-12,-11,-17,-67l-7,-88H129c0,0,5,81,5,125c0,0,0,44,-5,123l93,1l584,-6c0,0,95,0,158,5v-46c0,0,-75,-84,-119,-140L607,557L235,65H560c0,0,202,0,265,5c0,0,36,4,52,21c0,0,16,18,23,87l9,85h55c0,0,-15,-117,-15,-227V-4H811c0,0,-42,0,-180,3c0,0,-147,1,-274,1C357,0,147,0,33,-4Z" 
id="f1_1q"
transform="scale(0.001,-0.001)" />

<path d="M127,-4V44l58,2c0,0,101,3,121,29c0,0,20,25,19,204l5,414c0,0,0,207,-4,228c0,0,-3,13,-14,13c0,0,-7,0,-34,-12c0,0,-127,-55,-174,-82c0,0,-33,-19,-39,-19c0,0,-9,0,-11,12l-5,73c0,0,235,70,401,157l21,-10l-3,-84L461,539L456,245c0,0,0,-105,9,-140c0,0,9,-34,28,-46c0,0,20,-11,95,-13l68,-2V-4c0,0,-187,4,-266,4c0,0,-90,0,-263,-4Z" 
id="f1_l"
transform="scale(0.001,-0.001)" />

<path d="M104,-4V35c0,0,39,18,72,42c0,0,15,116,15,489c0,0,0,255,-6,337c0,0,-2,44,-15,56c0,0,-13,12,-110,20v62c0,0,175,-6,277,-6l410,6c0,0,65,0,117,-5l5,-8c0,0,-16,-82,-23,-218H787c0,0,-4,108,-8,116c0,0,-5,7,-34,14c0,0,-62,13,-190,13c0,0,-63,0,-146,-5c0,0,-10,-230,-11,-367c0,0,80,-5,150,-5c0,0,103,0,124,7c0,0,12,4,18,21c0,0,4,14,10,94h65c0,0,-4,-126,-4,-164l4,-168H700c0,0,-5,98,-13,113c0,0,-5,9,-20,12c0,0,-38,9,-168,9c0,0,-41,0,-96,-5c0,0,-2,-40,-2,-81c0,0,0,-212,8,-327L556,85c0,0,127,0,231,14c0,0,19,69,36,156h62C885,255,867,122,864,0c0,0,-67,-4,-130,-4c0,0,-41,0,-161,3c0,0,-113,1,-207,1C366,0,241,0,104,-4Z" 
id="f0_15"
transform="scale(0.001,-0.001)" />

<path d="M549,-28c0,0,-36,23,-60,51c0,0,-30,39,-143,223C346,246,236,100,173,-4c0,0,-59,4,-83,4C90,0,62,0,21,-4V57c0,0,56,6,78,21c0,0,33,24,121,137l79,101c0,0,-112,171,-179,231c0,0,-35,31,-79,31L21,577v48c0,0,53,27,129,82c0,0,21,14,33,14c0,0,33,0,82,-37c0,0,32,-24,88,-107L424,471c0,0,82,104,163,233c0,0,32,-5,62,-5c0,0,40,0,84,5V643c0,0,-41,-4,-61,-14c0,0,-19,-10,-50,-46L469,404L549,285c0,0,98,-147,125,-171c0,0,27,-24,70,-27V40c0,0,-80,-28,-172,-68Z" 
id="f0_2k"
transform="scale(0.001,-0.001)" />

<path d="M500,72c0,0,77,0,126,66c0,0,49,66,49,212c0,0,0,118,-50,179c0,0,-50,61,-128,61c0,0,-39,0,-78,-19c0,0,-39,-19,-78,-56V158c0,0,34,-42,73,-64c0,0,40,-22,86,-22ZM39,-384v61c0,0,79,3,91,9c0,0,7,5,11,14c0,0,7,18,10,153c0,0,4,188,4,281l-1,296c0,0,-1,130,-8,149c0,0,-4,9,-11,14c0,0,-14,6,-96,6v58c0,0,131,11,217,35l80,25c0,0,10,0,10,-18c0,0,0,-14,-3,-40l-2,-69l121,96c0,0,38,31,127,31c0,0,126,0,202,-78c0,0,76,-78,76,-210c0,0,0,-67,-19,-131c0,0,-19,-64,-45,-102c0,0,-26,-38,-92,-89C711,107,599,17,577,4c0,0,-42,-24,-102,-24c0,0,-34,0,-67,9c0,0,-34,8,-67,23l3,-225c0,0,3,-82,17,-96c0,0,15,-14,111,-14v-61c0,0,-115,5,-201,5c0,0,-165,0,-232,-5Z" 
id="f0_2c"
transform="scale(0.001,-0.001)" />

<path d="M42,-4V57l55,3c0,0,38,1,48,14c0,0,11,12,14,93c0,0,3,113,3,321V806c0,0,-1,146,-9,165c0,0,-3,9,-11,13c0,0,-13,8,-100,11v43c0,0,106,15,167,29c0,0,61,15,131,43l20,-17c0,0,-11,-266,-11,-744c0,0,0,-96,3,-195c0,0,1,-62,7,-72c0,0,6,-10,18,-16c0,0,12,-6,88,-9V-4l-78,3c0,0,-73,1,-122,1L42,-4Z" 
id="f0_28"
transform="scale(0.001,-0.001)" />

<path d="M504,58c0,0,209,0,325,107c0,0,139,131,139,380c0,0,0,218,-116,332c0,0,-116,114,-340,114c0,0,-78,0,-185,-15c0,0,-9,-72,-9,-163V325c0,0,0,-135,9,-252c0,0,100,-15,177,-15ZM97,-7V28l69,41c0,0,12,116,12,405V690c0,0,0,133,-9,229c0,0,-5,56,-14,65c0,0,-8,9,-61,16l-60,9v47c0,0,123,-4,166,-4l200,2l163,3c0,0,2,0,5,0c20,0,107,-1,197,-19c0,0,104,-21,188,-84c0,0,84,-63,128,-159c0,0,44,-95,44,-220c0,0,0,-252,-169,-417C956,158,786,-6,513,-6l-92,3c0,0,-135,4,-171,4C250,1,190,1,97,-7Z" 
id="f1_14"
transform="scale(0.001,-0.001)" />

<path d="M-25,-429l-23,1l-16,52c0,0,25,-4,39,-4c0,0,34,0,57,16c0,0,36,26,55,79c0,0,20,53,26,239c0,0,5,184,5,396c0,0,0,224,-8,245c0,0,-8,20,-61,20H-3v43c0,0,102,11,185,39l65,23c0,0,12,0,12,-15l-1,-15c0,0,-2,-13,-6,-109c0,0,-10,-196,-10,-327L244,62c0,0,0,-196,-34,-292c0,0,-34,-95,-101,-147c0,0,-66,-52,-134,-52ZM176,881c0,0,-35,0,-60,25c0,0,-25,24,-25,59c0,0,0,35,25,60c0,0,25,25,60,25c0,0,35,0,59,-25c0,0,25,-25,25,-60c0,0,0,-35,-25,-59c0,0,-24,-25,-59,-25Z" 
id="f1_26"
transform="scale(0.001,-0.001)" />

<path d="M87,346V450H839V346Zm0,255V705H839V601Z" 
id="f1_x"
transform="scale(0.001,-0.001)" />

<path d="M59,297L49,308c0,0,22,58,37,108c0,0,111,-5,267,-5c0,0,209,0,355,5l7,-12c0,0,-25,-55,-38,-107c0,0,-102,7,-277,7c0,0,-228,0,-341,-7Z" 
id="f2_4z"
transform="scale(0.001,-0.001)" />

<path d="M411,150V473H87V577H411V901H514V577H838V473H514V150Z" 
id="f1_f"
transform="scale(0.001,-0.001)" />

<path d="M322,-19c0,0,-72,0,-144,15c0,0,-73,14,-147,42c0,0,14,90,13,230H95V231c0,0,0,-73,7,-90c0,0,8,-17,35,-36c0,0,41,-29,98,-45c0,0,56,-15,122,-15c0,0,141,0,218,66c0,0,76,67,76,169c0,0,0,59,-26,101c0,0,-26,41,-73,61c0,0,-47,20,-174,31c0,0,-168,13,-228,40c0,0,-61,27,-95,84c0,0,-34,58,-34,144c0,0,0,145,105,237c0,0,105,93,291,93c0,0,74,0,149,-16c0,0,75,-17,151,-50c0,0,-21,-77,-23,-205H642v59c0,0,0,59,-15,79c0,0,-16,21,-82,45c0,0,-66,23,-139,23c0,0,-119,0,-187,-60c0,0,-68,-60,-68,-155c0,0,0,-59,28,-102c0,0,27,-43,75,-62c0,0,47,-19,201,-33c0,0,153,-15,207,-40c0,0,54,-24,87,-79c0,0,32,-54,32,-129c0,0,0,-149,-125,-257C656,89,531,-19,322,-19Z" 
id="f1_1j"
transform="scale(0.001,-0.001)" />

<path d="M192,-19c0,0,-37,0,-63,25c0,0,-25,26,-25,62c0,0,0,37,25,62c0,0,26,25,63,25c0,0,36,0,61,-25c0,0,26,-25,26,-62c0,0,0,-36,-26,-62c0,0,-25,-25,-61,-25Zm0,545c0,0,-37,0,-63,26c0,0,-25,25,-25,61c0,0,0,37,25,63c0,0,26,25,63,25c0,0,36,0,61,-25c0,0,26,-26,26,-63c0,0,0,-36,-26,-61c0,0,-25,-26,-61,-26Z" 
id="f1_u"
transform="scale(0.001,-0.001)" />

<path d="M273,157c0,0,-114,0,-193,80C80,237,0,317,0,431c0,0,0,112,80,192c0,0,79,80,193,80c0,0,113,0,192,-80c0,0,80,-80,80,-192c0,0,0,-114,-80,-194c0,0,-79,-80,-192,-80Z" 
id="f3_3d"
transform="scale(0.001,-0.001)" />

<path d="M128,-430c0,0,-21,0,-44,7c0,0,-23,6,-46,19l34,117H90c0,0,20,-25,40,-37c0,0,20,-12,41,-12c0,0,47,0,85,45c0,0,38,44,117,249c0,0,-33,86,-131,329L173,458L117,589c0,0,-26,69,-78,69H9v43c0,0,77,-5,137,-5c0,0,46,0,215,5V658H306c0,0,-28,0,-41,-10c0,0,-13,-9,-13,-24c0,0,0,-11,14,-51c0,0,75,-207,177,-444c0,0,99,217,172,418c0,0,22,59,22,71c0,0,0,24,-51,32l-55,8v43c0,0,88,-5,157,-5c0,0,65,0,130,5V658H792c0,0,-17,0,-35,-10c0,0,-18,-10,-29,-28c0,0,-24,-38,-138,-290c0,0,-32,-69,-160,-374c0,0,-114,-259,-128,-284c0,0,-30,-49,-75,-76c0,0,-46,-26,-99,-26Z" 
id="f2_2l"
transform="scale(0.001,-0.001)" />

<path d="M45,33V137H796V33Zm0,157V303L646,578L45,854V967L796,625V532L45,190Z" 
id="f2_46"
transform="scale(0.001,-0.001)" />

<path d="M264,-19c0,0,-46,0,-92,10c0,0,-45,9,-91,28c0,0,-15,91,-60,224l41,17c0,0,47,-108,75,-142c0,0,29,-33,76,-53c0,0,46,-20,111,-20c0,0,112,0,175,69c0,0,63,69,63,193c0,0,0,105,-54,162c0,0,-53,58,-140,58c0,0,-67,0,-142,-38l-10,7l14,86c0,0,39,-5,59,-5c0,0,91,0,149,57c0,0,58,56,58,148c0,0,0,83,-50,134c0,0,-51,50,-133,50c0,0,-54,0,-103,-23c0,0,-50,-24,-74,-54c0,0,-10,-13,-25,-60L93,776H47L87,959c0,0,48,56,113,84c0,0,65,28,148,28c0,0,126,0,199,-65c0,0,73,-65,73,-160c0,0,0,-65,-31,-120c0,0,-32,-56,-128,-135c0,0,48,0,98,-19c0,0,70,-26,106,-79c0,0,36,-52,36,-126c0,0,0,-150,-129,-268C572,99,443,-19,264,-19Z" 
id="f2_n"
transform="scale(0.001,-0.001)" />

<path d="M600,-22c0,0,-38,26,-64,59c0,0,-17,21,-165,244c0,0,-70,-86,-108,-139c0,0,-38,-53,-96,-146c0,0,-31,4,-57,4C110,0,83,0,37,-4V41c0,0,38,0,52,7c0,0,13,6,73,73c0,0,86,96,174,207c0,0,-138,206,-179,242c0,0,-41,35,-87,35c0,0,-13,0,-33,-2v40l143,70c0,0,47,-19,77,-54c0,0,50,-55,159,-234c0,0,98,129,198,276c0,0,29,-5,49,-5c0,0,15,0,65,5V658c0,0,-40,-2,-65,-24c0,0,-40,-35,-214,-252c0,0,101,-149,169,-237c0,0,46,-61,74,-76c0,0,18,-10,57,-10V16C749,16,680,0,600,-22Z" 
id="f2_2k"
transform="scale(0.001,-0.001)" />

<path d="M411,150V473H87V577H411V901H514V577H838V473H514V150Z" 
id="f2_f"
transform="scale(0.001,-0.001)" />

<path d="M192,-19c0,0,-37,0,-63,25c0,0,-25,26,-25,62c0,0,0,37,25,62c0,0,26,25,63,25c0,0,36,0,61,-25c0,0,26,-25,26,-62c0,0,0,-36,-26,-62c0,0,-25,-25,-61,-25Z" 
id="f2_i"
transform="scale(0.001,-0.001)" />

<path d="M443,-410c0,0,-126,125,-192,236c0,0,-66,111,-102,245c0,0,-37,134,-37,284c0,0,0,172,48,318c0,0,47,146,118,247c0,0,72,101,170,192l32,-41c0,0,-87,-103,-136,-204c0,0,-50,-100,-76,-219c0,0,-25,-120,-25,-275c0,0,0,-165,23,-291c0,0,24,-125,69,-222c0,0,44,-97,145,-233l-37,-37Z" 
id="f2_c"
transform="scale(0.001,-0.001)" />

<path d="M61,-410l-32,41c0,0,87,103,136,203c0,0,50,101,76,219c0,0,26,120,26,275c0,0,0,165,-24,291c0,0,-25,127,-69,224c0,0,-45,97,-145,231l38,38c0,0,124,-124,191,-236c0,0,66,-111,103,-246c0,0,36,-134,36,-284c0,0,0,-172,-47,-317c0,0,-47,-145,-119,-246c0,0,-72,-101,-170,-193Z" 
id="f2_d"
transform="scale(0.001,-0.001)" />

<path d="M44,33V137H795V33ZM795,190L44,532v93L795,967V854L194,578L795,303V190Z" 
id="f2_45"
transform="scale(0.001,-0.001)" />

<path d="M127,-4V44l58,2c0,0,101,3,121,29c0,0,20,25,19,204l5,414c0,0,0,207,-4,228c0,0,-3,13,-14,13c0,0,-7,0,-34,-12c0,0,-127,-55,-174,-82c0,0,-33,-19,-39,-19c0,0,-9,0,-11,12l-5,73c0,0,235,70,401,157l21,-10l-3,-84L461,539L456,245c0,0,0,-105,9,-140c0,0,9,-34,28,-46c0,0,20,-11,95,-13l68,-2V-4c0,0,-187,4,-266,4c0,0,-90,0,-263,-4Z" 
id="f2_l"
transform="scale(0.001,-0.001)" />

<path d="M30,-4V37L289,305c0,0,147,152,197,247c0,0,49,95,49,176c0,0,0,101,-58,161c0,0,-58,60,-153,60c0,0,-63,0,-113,-22c0,0,-37,-16,-53,-41c0,0,-15,-25,-46,-139H67c0,0,23,146,25,211c0,0,56,59,121,86c0,0,65,27,147,27c0,0,144,0,230,-82c0,0,85,-82,85,-214c0,0,0,-115,-77,-225c0,0,-77,-111,-259,-278L194,123H466c0,0,174,0,260,11l8,-7c0,0,-7,-42,-7,-60c0,0,0,-14,7,-67l-8,-4c0,0,-148,4,-328,4C398,0,209,0,30,-4Z" 
id="f2_m"
transform="scale(0.001,-0.001)" />

<path d="M254,367c0,0,63,0,168,3V902C422,902,259,665,100,370c0,0,86,-3,154,-3ZM235,-4V38l80,5c0,0,67,3,80,12c0,0,14,9,18,33c0,0,9,40,9,149v39c0,0,-288,0,-407,-8L2,313c0,0,120,212,196,335c0,0,75,124,236,374c0,0,40,11,103,41l21,-9c0,0,-4,-87,-5,-302V370c0,0,96,0,166,8c0,0,-4,-35,-4,-49c0,0,0,-10,5,-61c0,0,-80,8,-167,8c0,0,0,-183,12,-206c0,0,12,-23,79,-27l77,-5V-4c0,0,-142,4,-243,4c0,0,-40,0,-243,-4Z" 
id="f2_o"
transform="scale(0.001,-0.001)" />

<path d="M388,34c0,0,91,0,138,85c0,0,59,107,59,391c0,0,0,303,-63,413c0,0,-52,94,-149,94c0,0,-90,0,-142,-93c0,0,-52,-93,-52,-379c0,0,0,-305,63,-418c0,0,51,-93,146,-93ZM365,-19c0,0,-109,0,-183,64c0,0,-73,64,-107,182c0,0,-26,90,-26,297c0,0,0,287,96,417c0,0,96,130,256,130c0,0,98,0,168,-49c0,0,69,-49,108,-148c0,0,38,-100,38,-290c0,0,0,-331,-95,-467c0,0,-96,-136,-255,-136Z" 
id="f2_k"
transform="scale(0.001,-0.001)" />

<path d="M33,-221l-22,23c0,0,65,100,95,182c0,0,30,80,41,175c0,0,86,21,152,47l21,-22C320,184,277,80,228,-2c0,0,-50,-84,-132,-187L33,-221Z" 
id="f2_g"
transform="scale(0.001,-0.001)" />

<path d="M256,-19c0,0,-47,0,-81,9c0,0,-34,9,-79,32C96,22,83,65,74,91L18,224l38,22L74,213c0,0,51,-91,67,-107c0,0,22,-21,66,-36c0,0,45,-15,103,-15c0,0,125,0,194,72c0,0,70,73,70,209c0,0,0,119,-64,187c0,0,-65,69,-171,69c0,0,-61,0,-110,-24c0,0,-48,-24,-85,-75l-33,11c0,0,11,130,11,331c0,0,0,126,-11,219l13,8c0,0,117,-11,241,-11c0,0,149,0,286,11l9,-8c0,0,-7,-37,-7,-58c0,0,0,-19,7,-60l-9,-8c0,0,-85,5,-163,5c0,0,-157,0,-299,-5c0,0,-7,-57,-12,-311c0,0,55,44,105,61c0,0,50,18,114,18c0,0,139,0,224,-83c0,0,84,-83,84,-215c0,0,0,-167,-133,-292C571,106,438,-19,256,-19Z" 
id="f2_p"
transform="scale(0.001,-0.001)" />

<path d="M604,-19c0,0,-176,0,-309,68c0,0,-133,69,-205,192c0,0,-71,122,-71,278c0,0,0,161,76,287c0,0,77,125,214,195c0,0,137,70,348,70c0,0,85,0,158,-12c0,0,72,-11,188,-44l64,-18c0,0,-20,-79,-32,-221H989v50c0,0,0,73,-12,85c0,0,-23,24,-119,60c0,0,-96,35,-220,35c0,0,-219,0,-335,-117C303,889,176,760,176,550c0,0,0,-203,114,-341C290,209,424,45,656,45c0,0,121,0,262,53c0,0,4,63,4,134c0,0,0,92,-3,106c0,0,-3,14,-11,18c0,0,-8,4,-78,10l-88,8v46c0,0,171,-7,254,-7c0,0,72,0,124,7V383l-53,-34c0,0,-11,-63,-11,-128c0,0,0,-69,11,-155C1067,66,968,28,843,4C843,4,718,-19,604,-19Z" 
id="f1_17"
transform="scale(0.001,-0.001)" />

<path d="M399,69c0,0,49,0,96,24c0,0,46,24,95,82V317c0,0,-2,215,-5,259c0,0,-46,42,-90,59c0,0,-43,17,-96,17c0,0,-101,0,-163,-73c0,0,-62,-74,-62,-210c0,0,0,-141,66,-220c0,0,66,-80,159,-80Zm58,-479v43h40c0,0,68,0,80,27c0,0,13,26,13,263V97C590,97,501,45,415,-10c0,0,-20,-4,-38,-6c0,0,-18,-3,-33,-3c0,0,-130,0,-215,92c0,0,-85,92,-85,246c0,0,0,102,31,171c0,0,32,70,90,112c0,0,15,10,137,78c0,0,65,36,148,36c0,0,50,0,98,-13c0,0,49,-13,98,-40l78,51l28,-17c0,0,-23,-68,-28,-117c0,0,-8,-74,-8,-250V-82c0,0,0,-228,14,-256c0,0,14,-29,85,-29h34v-43l-118,4l-93,1c0,0,-35,0,-181,-5Z" 
id="f1_2d"
transform="scale(0.001,-0.001)" />

<path d="M313,-11c0,0,-63,215,-142,469L123,607c0,0,-9,25,-28,38c0,0,-19,13,-44,13H14v43c0,0,118,-5,182,-5c0,0,62,0,183,5V658H338c0,0,-46,0,-63,-10c0,0,-13,-8,-13,-24c0,0,0,-37,127,-462L550,514c0,0,37,82,84,200h37c0,0,32,-91,66,-175L891,149l114,306c0,0,33,90,43,135c0,0,3,19,3,30c0,0,0,17,-15,28c0,0,-15,10,-47,10H939v43c0,0,98,-5,174,-5c0,0,66,0,127,5V658h-34c0,0,-26,0,-49,-26c0,0,-23,-27,-129,-274c0,0,-88,-207,-137,-369H818c0,0,-33,92,-109,282L614,511C614,511,510,290,446,138c0,0,-29,-68,-57,-149Z" 
id="f1_2j"
transform="scale(0.001,-0.001)" />


</defs>
</svg>