<?xml version="1.0" encoding="UTF-8" standalone="no"?>
<!DOCTYPE svg PUBLIC "-//W3C//DTD SVG 1.1//EN"
"http://www.w3.org/Graphics/SVG/1.1/DTD/svg11.dtd">
<svg viewBox="0 0 909 1286" version="1.1" xmlns="http://www.w3.org/2000/svg" xmlns:xlink="http://www.w3.org/1999/xlink">
<defs>
<style type="text/css"><![CDATA[
.g0_43{
}
]]></style>
</defs>
<g fill="#000000" >
<use xlink:href="#f0_1c" transform="matrix(18,0,0,18,300.1,142.3)" />
<use xlink:href="#f0_25" transform="matrix(18,0,0,18,316.9,142.3)" />
<use xlink:href="#f0_2a" transform="matrix(18,0,0,18,326.1,142.3)" />
<use xlink:href="#f0_21" transform="matrix(18,0,0,18,343,142.3)" />
<use xlink:href="#f0_1x" transform="matrix(18,0,0,18,356.8,142.3)" />
<use xlink:href="#f0_2e" transform="matrix(18,0,0,18,370.5,142.3)" />
<use xlink:href="#f0_1g" transform="matrix(18,0,0,18,387.9,142.3)" />
<use xlink:href="#f0_2e" transform="matrix(18,0,0,18,404.7,142.3)" />
<use xlink:href="#f0_2b" transform="matrix(18,0,0,18,415.4,142.3)" />
<use xlink:href="#f0_23" transform="matrix(18,0,0,18,430.7,142.3)" />
<use xlink:href="#f0_2e" transform="matrix(18,0,0,18,445.9,142.3)" />
<use xlink:href="#f0_1x" transform="matrix(18,0,0,18,456.6,142.3)" />
<use xlink:href="#f0_29" transform="matrix(18,0,0,18,470.4,142.3)" />
<use xlink:href="#f0_29" transform="matrix(18,0,0,18,494.8,142.3)" />
<use xlink:href="#f0_25" transform="matrix(18,0,0,18,519.2,142.3)" />
<use xlink:href="#f0_2a" transform="matrix(18,0,0,18,528.3,142.3)" />
<use xlink:href="#f0_23" transform="matrix(18,0,0,18,545.1,142.3)" />
</g>
<path fill-rule="evenodd" d="M300.1,147.6H560.6V146H300.1v1.6Z" class="g0_43" />
<g fill="#000000" >
<use xlink:href="#f1_2b" transform="matrix(12,0,0,12,137.5,182.1)" />
<use xlink:href="#f2_14" transform="matrix(12,0,0,12,165,182.1)" />
<use xlink:href="#f2_21" transform="matrix(12,0,0,12,179.1,182.1)" />
<use xlink:href="#f2_2g" transform="matrix(12,0,0,12,187.9,182.1)" />
<use xlink:href="#f2_21" transform="matrix(12,0,0,12,194,182.1)" />
<use xlink:href="#f2_2e" transform="matrix(12,0,0,12,202.8,182.1)" />
<use xlink:href="#f2_29" transform="matrix(12,0,0,12,210.1,182.1)" />
<use xlink:href="#f2_25" transform="matrix(12,0,0,12,226.2,182.1)" />
<use xlink:href="#f2_2a" transform="matrix(12,0,0,12,231.6,182.1)" />
<use xlink:href="#f2_21" transform="matrix(12,0,0,12,242.2,182.1)" />
<use xlink:href="#f2_2g" transform="matrix(12,0,0,12,256.3,182.1)" />
<use xlink:href="#f2_24" transform="matrix(12,0,0,12,262.3,182.1)" />
<use xlink:href="#f2_21" transform="matrix(12,0,0,12,273,182.1)" />
<use xlink:href="#f2_2a" transform="matrix(12,0,0,12,287,182.1)" />
<use xlink:href="#f2_2h" transform="matrix(12,0,0,12,297.7,182.1)" />
<use xlink:href="#f2_29" transform="matrix(12,0,0,12,308.7,182.1)" />
<use xlink:href="#f2_1y" transform="matrix(12,0,0,12,324.8,182.1)" />
<use xlink:href="#f2_21" transform="matrix(12,0,0,12,334.9,182.1)" />
<use xlink:href="#f2_2e" transform="matrix(12,0,0,12,343.7,182.1)" />
<use xlink:href="#f2_2b" transform="matrix(12,0,0,12,356.3,182.1)" />
<use xlink:href="#f2_22" transform="matrix(12,0,0,12,366.4,182.1)" />
<use xlink:href="#f2_2h" transform="matrix(12,0,0,12,377.7,182.1)" />
<use xlink:href="#f2_2a" transform="matrix(12,0,0,12,388.8,182.1)" />
<use xlink:href="#f2_25" transform="matrix(12,0,0,12,399.3,182.1)" />
<use xlink:href="#f2_2g" transform="matrix(12,0,0,12,404.7,182.1)" />
<use xlink:href="#f2_2f" transform="matrix(12,0,0,12,410.7,182.1)" />
<use xlink:href="#f2_2b" transform="matrix(12,0,0,12,423.9,182.1)" />
<use xlink:href="#f2_22" transform="matrix(12,0,0,12,434,182.1)" />
<use xlink:href="#f2_20" transform="matrix(12,0,0,12,445.4,182.1)" />
<use xlink:href="#f2_25" transform="matrix(12,0,0,12,456.6,182.1)" />
<use xlink:href="#f2_22" transform="matrix(12,0,0,12,461.9,182.1)" />
<use xlink:href="#f2_22" transform="matrix(12,0,0,12,467.9,182.1)" />
<use xlink:href="#f2_21" transform="matrix(12,0,0,12,474,182.1)" />
<use xlink:href="#f2_2e" transform="matrix(12,0,0,12,482.8,182.1)" />
<use xlink:href="#f2_21" transform="matrix(12,0,0,12,490.1,182.1)" />
<use xlink:href="#f2_2a" transform="matrix(12,0,0,12,498.9,182.1)" />
<use xlink:href="#f2_2g" transform="matrix(12,0,0,12,509.5,182.1)" />
<use xlink:href="#f2_2c" transform="matrix(12,0,0,12,520.8,182.1)" />
<use xlink:href="#f2_2e" transform="matrix(12,0,0,12,531.9,182.1)" />
<use xlink:href="#f2_2b" transform="matrix(12,0,0,12,539.1,182.1)" />
<use xlink:href="#f2_20" transform="matrix(12,0,0,12,549.2,182.1)" />
<use xlink:href="#f2_2h" transform="matrix(12,0,0,12,560.4,182.1)" />
<use xlink:href="#f2_1z" transform="matrix(12,0,0,12,571.4,182.1)" />
<use xlink:href="#f2_2g" transform="matrix(12,0,0,12,579.5,182.1)" />
<use xlink:href="#f2_2f" transform="matrix(12,0,0,12,585.5,182.1)" />
<use xlink:href="#f2_2j" transform="matrix(12,0,0,12,598.5,182.1)" />
<use xlink:href="#f2_24" transform="matrix(12,0,0,12,613.7,182.1)" />
<use xlink:href="#f2_25" transform="matrix(12,0,0,12,624.4,182.1)" />
<use xlink:href="#f2_1z" transform="matrix(12,0,0,12,629.7,182.1)" />
<use xlink:href="#f2_24" transform="matrix(12,0,0,12,637.7,182.1)" />
<use xlink:href="#f2_2f" transform="matrix(12,0,0,12,653.7,182.1)" />
<use xlink:href="#f2_24" transform="matrix(12,0,0,12,661.5,182.1)" />
<use xlink:href="#f2_2b" transform="matrix(12,0,0,12,672.2,182.1)" />
<use xlink:href="#f2_2h" transform="matrix(12,0,0,12,682.2,182.1)" />
<use xlink:href="#f2_28" transform="matrix(12,0,0,12,693.3,182.1)" />
<use xlink:href="#f2_20" transform="matrix(12,0,0,12,698.6,182.1)" />
<use xlink:href="#f2_1y" transform="matrix(12,0,0,12,715.2,182.1)" />
<use xlink:href="#f2_21" transform="matrix(12,0,0,12,725.4,182.1)" />
<use xlink:href="#f2_2c" transform="matrix(12,0,0,12,739.4,182.1)" />
<use xlink:href="#f2_2e" transform="matrix(12,0,0,12,750.4,182.1)" />
<use xlink:href="#f2_2b" transform="matrix(12,0,0,12,757.7,182.1)" />
<use xlink:href="#f2_20" transform="matrix(12,0,0,12,767.8,182.1)" />
<use xlink:href="#f2_2h" transform="matrix(12,0,0,12,779,182.1)" />
<use xlink:href="#f2_1z" transform="matrix(12,0,0,12,790,182.1)" />
<use xlink:href="#f2_21" transform="matrix(12,0,0,12,798,182.1)" />
<use xlink:href="#f2_20" transform="matrix(12,0,0,12,806.8,182.1)" />
<use xlink:href="#f2_1x" transform="matrix(12,0,0,12,823.3,182.1)" />
<use xlink:href="#f2_2a" transform="matrix(12,0,0,12,832.5,182.1)" />
<use xlink:href="#f2_20" transform="matrix(12,0,0,12,843.2,182.1)" />
<use xlink:href="#f2_2f" transform="matrix(12,0,0,12,165,204.8)" />
<use xlink:href="#f2_2b" transform="matrix(12,0,0,12,172.7,204.8)" />
<use xlink:href="#f2_28" transform="matrix(12,0,0,12,182.8,204.8)" />
<use xlink:href="#f2_20" transform="matrix(12,0,0,12,188.1,204.8)" />
<use xlink:href="#f2_1y" transform="matrix(12,0,0,12,204,204.8)" />
<use xlink:href="#f2_2l" transform="matrix(12,0,0,12,214.2,204.8)" />
<use xlink:href="#f2_1x" transform="matrix(12,0,0,12,229.1,204.8)" />
<use xlink:href="#f2_22" transform="matrix(12,0,0,12,243.1,204.8)" />
<use xlink:href="#f2_25" transform="matrix(12,0,0,12,249.2,204.8)" />
<use xlink:href="#f2_2e" transform="matrix(12,0,0,12,254.4,204.8)" />
<use xlink:href="#f2_29" transform="matrix(12,0,0,12,261.7,204.8)" />
<use xlink:href="#f2_2j" transform="matrix(12,0,0,12,282.7,204.8)" />
<use xlink:href="#f2_24" transform="matrix(12,0,0,12,297.9,204.8)" />
<use xlink:href="#f2_21" transform="matrix(12,0,0,12,308.6,204.8)" />
<use xlink:href="#f2_2a" transform="matrix(12,0,0,12,317.4,204.8)" />
<use xlink:href="#f2_21" transform="matrix(12,0,0,12,332.8,204.8)" />
<use xlink:href="#f2_1x" transform="matrix(12,0,0,12,341.5,204.8)" />
<use xlink:href="#f2_1z" transform="matrix(12,0,0,12,350.7,204.8)" />
<use xlink:href="#f2_24" transform="matrix(12,0,0,12,358.8,204.8)" />
<use xlink:href="#f2_2c" transform="matrix(12,0,0,12,374.2,204.8)" />
<use xlink:href="#f2_2e" transform="matrix(12,0,0,12,385.2,204.8)" />
<use xlink:href="#f2_2b" transform="matrix(12,0,0,12,392.5,204.8)" />
<use xlink:href="#f2_20" transform="matrix(12,0,0,12,402.6,204.8)" />
<use xlink:href="#f2_2h" transform="matrix(12,0,0,12,413.8,204.8)" />
<use xlink:href="#f2_1z" transform="matrix(12,0,0,12,424.7,204.8)" />
<use xlink:href="#f2_2g" transform="matrix(12,0,0,12,432.8,204.8)" />
<use xlink:href="#f2_2e" transform="matrix(12,0,0,12,443.6,204.8)" />
<use xlink:href="#f2_21" transform="matrix(12,0,0,12,450.9,204.8)" />
<use xlink:href="#f2_2d" transform="matrix(12,0,0,12,459.7,204.8)" />
<use xlink:href="#f2_2h" transform="matrix(12,0,0,12,470,204.8)" />
<use xlink:href="#f2_25" transform="matrix(12,0,0,12,481,204.8)" />
<use xlink:href="#f2_2e" transform="matrix(12,0,0,12,486.3,204.8)" />
<use xlink:href="#f2_21" transform="matrix(12,0,0,12,493.6,204.8)" />
<use xlink:href="#f2_2f" transform="matrix(12,0,0,12,502.4,204.8)" />
<use xlink:href="#f2_1x" transform="matrix(12,0,0,12,514.8,204.8)" />
<use xlink:href="#f2_22" transform="matrix(12,0,0,12,528.8,204.8)" />
<use xlink:href="#f2_25" transform="matrix(12,0,0,12,534.6,204.8)" />
<use xlink:href="#f2_2k" transform="matrix(12,0,0,12,540,204.8)" />
<use xlink:href="#f2_21" transform="matrix(12,0,0,12,549.4,204.8)" />
<use xlink:href="#f2_20" transform="matrix(12,0,0,12,558.3,204.8)" />
<use xlink:href="#f2_29" transform="matrix(12,0,0,12,574.2,204.8)" />
<use xlink:href="#f2_1x" transform="matrix(12,0,0,12,590.3,204.8)" />
<use xlink:href="#f2_2a" transform="matrix(12,0,0,12,599.5,204.8)" />
<use xlink:href="#f2_2c" transform="matrix(12,0,0,12,610.2,204.8)" />
<use xlink:href="#f2_2b" transform="matrix(12,0,0,12,621.1,204.8)" />
<use xlink:href="#f2_2j" transform="matrix(12,0,0,12,631.2,204.8)" />
<use xlink:href="#f2_21" transform="matrix(12,0,0,12,646.4,204.8)" />
<use xlink:href="#f2_2e" transform="matrix(12,0,0,12,655.2,204.8)" />
<use xlink:href="#f2_g" transform="matrix(12,0,0,12,662.5,204.8)" />
<use xlink:href="#f2_29" transform="matrix(12,0,0,12,671.9,204.8)" />
<use xlink:href="#f2_1x" transform="matrix(12,0,0,12,688,204.8)" />
<use xlink:href="#f2_1z" transform="matrix(12,0,0,12,697.2,204.8)" />
<use xlink:href="#f2_24" transform="matrix(12,0,0,12,705.2,204.8)" />
<use xlink:href="#f2_25" transform="matrix(12,0,0,12,715.9,204.8)" />
<use xlink:href="#f2_2a" transform="matrix(12,0,0,12,721.2,204.8)" />
<use xlink:href="#f2_21" transform="matrix(12,0,0,12,731.8,204.8)" />
<use xlink:href="#f2_24" transform="matrix(12,0,0,12,745.4,204.8)" />
<use xlink:href="#f2_2b" transform="matrix(12,0,0,12,756,204.8)" />
<use xlink:href="#f2_2h" transform="matrix(12,0,0,12,766,204.8)" />
<use xlink:href="#f2_2e" transform="matrix(12,0,0,12,777.1,204.8)" />
<use xlink:href="#f2_2f" transform="matrix(12,0,0,12,784.4,204.8)" />
<use xlink:href="#f2_g" transform="matrix(12,0,0,12,792.1,204.8)" />
<use xlink:href="#f2_28" transform="matrix(12,0,0,12,801.4,204.8)" />
<use xlink:href="#f2_1x" transform="matrix(12,0,0,12,806.8,204.8)" />
<use xlink:href="#f2_1y" transform="matrix(12,0,0,12,815.9,204.8)" />
<use xlink:href="#f2_2b" transform="matrix(12,0,0,12,826,204.8)" />
<use xlink:href="#f2_2h" transform="matrix(12,0,0,12,836,204.8)" />
<use xlink:href="#f2_2e" transform="matrix(12,0,0,12,847.1,204.8)" />
<use xlink:href="#f2_24" transform="matrix(12,0,0,12,165,227.5)" />
<use xlink:href="#f2_2b" transform="matrix(12,0,0,12,175.7,227.5)" />
<use xlink:href="#f2_2h" transform="matrix(12,0,0,12,185.7,227.5)" />
<use xlink:href="#f2_2e" transform="matrix(12,0,0,12,196.8,227.5)" />
<use xlink:href="#f2_2c" transform="matrix(12,0,0,12,207.9,227.5)" />
<use xlink:href="#f2_21" transform="matrix(12,0,0,12,218.9,227.5)" />
<use xlink:href="#f2_2e" transform="matrix(12,0,0,12,227.7,227.5)" />
<use xlink:href="#f2_2h" transform="matrix(12,0,0,12,238.9,227.5)" />
<use xlink:href="#f2_2a" transform="matrix(12,0,0,12,250,227.5)" />
<use xlink:href="#f2_25" transform="matrix(12,0,0,12,260.5,227.5)" />
<use xlink:href="#f2_2g" transform="matrix(12,0,0,12,265.9,227.5)" />
<use xlink:href="#f2_2b" transform="matrix(12,0,0,12,275.7,227.5)" />
<use xlink:href="#f2_22" transform="matrix(12,0,0,12,285.8,227.5)" />
<use xlink:href="#f2_2c" transform="matrix(12,0,0,12,295.7,227.5)" />
<use xlink:href="#f2_2e" transform="matrix(12,0,0,12,306.7,227.5)" />
<use xlink:href="#f2_2b" transform="matrix(12,0,0,12,314,227.5)" />
<use xlink:href="#f2_20" transform="matrix(12,0,0,12,324.1,227.5)" />
<use xlink:href="#f2_2h" transform="matrix(12,0,0,12,335.3,227.5)" />
<use xlink:href="#f2_1z" transform="matrix(12,0,0,12,346.1,227.5)" />
<use xlink:href="#f2_2g" transform="matrix(12,0,0,12,354.2,227.5)" />
<use xlink:href="#f2_g" transform="matrix(12,0,0,12,360.2,227.5)" />
<use xlink:href="#f2_2j" transform="matrix(12,0,0,12,368.6,227.5)" />
<use xlink:href="#f2_1x" transform="matrix(12,0,0,12,383.8,227.5)" />
<use xlink:href="#f2_2e" transform="matrix(12,0,0,12,393,227.5)" />
<use xlink:href="#f2_21" transform="matrix(12,0,0,12,400.3,227.5)" />
<use xlink:href="#f2_24" transform="matrix(12,0,0,12,409.1,227.5)" />
<use xlink:href="#f2_2b" transform="matrix(12,0,0,12,419.9,227.5)" />
<use xlink:href="#f2_2h" transform="matrix(12,0,0,12,430,227.5)" />
<use xlink:href="#f2_2f" transform="matrix(12,0,0,12,441,227.5)" />
<use xlink:href="#f2_21" transform="matrix(12,0,0,12,448.7,227.5)" />
<use xlink:href="#f2_2f" transform="matrix(12,0,0,12,461.3,227.5)" />
<use xlink:href="#f2_2c" transform="matrix(12,0,0,12,469,227.5)" />
<use xlink:href="#f2_1x" transform="matrix(12,0,0,12,480,227.5)" />
<use xlink:href="#f2_1z" transform="matrix(12,0,0,12,489.2,227.5)" />
<use xlink:href="#f2_21" transform="matrix(12,0,0,12,497.3,227.5)" />
<use xlink:href="#f2_2c" transform="matrix(12,0,0,12,509.9,227.5)" />
<use xlink:href="#f2_21" transform="matrix(12,0,0,12,520.9,227.5)" />
<use xlink:href="#f2_2e" transform="matrix(12,0,0,12,529.9,227.5)" />
<use xlink:href="#f2_2h" transform="matrix(12,0,0,12,541,227.5)" />
<use xlink:href="#f2_2a" transform="matrix(12,0,0,12,552.1,227.5)" />
<use xlink:href="#f2_25" transform="matrix(12,0,0,12,562.7,227.5)" />
<use xlink:href="#f2_2g" transform="matrix(12,0,0,12,568,227.5)" />
<use xlink:href="#f2_2b" transform="matrix(12,0,0,12,577.9,227.5)" />
<use xlink:href="#f2_22" transform="matrix(12,0,0,12,587.9,227.5)" />
<use xlink:href="#f2_2g" transform="matrix(12,0,0,12,597.8,227.5)" />
<use xlink:href="#f2_24" transform="matrix(12,0,0,12,603.9,227.5)" />
<use xlink:href="#f2_21" transform="matrix(12,0,0,12,614.5,227.5)" />
<use xlink:href="#f2_2b" transform="matrix(12,0,0,12,627.1,227.5)" />
<use xlink:href="#f2_2h" transform="matrix(12,0,0,12,637.2,227.5)" />
<use xlink:href="#f2_2g" transform="matrix(12,0,0,12,648.3,227.5)" />
<use xlink:href="#f2_2c" transform="matrix(12,0,0,12,654.2,227.5)" />
<use xlink:href="#f2_2h" transform="matrix(12,0,0,12,665.3,227.5)" />
<use xlink:href="#f2_2g" transform="matrix(12,0,0,12,676.3,227.5)" />
<use xlink:href="#f2_21" transform="matrix(12,0,0,12,686.2,227.5)" />
<use xlink:href="#f2_2g" transform="matrix(12,0,0,12,694.9,227.5)" />
<use xlink:href="#f2_1z" transform="matrix(12,0,0,12,701,227.5)" />
<use xlink:href="#f2_i" transform="matrix(12,0,0,12,709.1,227.5)" />
<use xlink:href="#f2_g" transform="matrix(12,0,0,12,713.5,227.5)" />
<use xlink:href="#f2_25" transform="matrix(12,0,0,12,721.9,227.5)" />
<use xlink:href="#f2_2a" transform="matrix(12,0,0,12,727.2,227.5)" />
<use xlink:href="#f2_2b" transform="matrix(12,0,0,12,741.7,227.5)" />
<use xlink:href="#f2_2e" transform="matrix(12,0,0,12,751.8,227.5)" />
<use xlink:href="#f2_20" transform="matrix(12,0,0,12,759.1,227.5)" />
<use xlink:href="#f2_21" transform="matrix(12,0,0,12,770.3,227.5)" />
<use xlink:href="#f2_2e" transform="matrix(12,0,0,12,779.1,227.5)" />
<use xlink:href="#f2_2g" transform="matrix(12,0,0,12,790.2,227.5)" />
<use xlink:href="#f2_2b" transform="matrix(12,0,0,12,796.1,227.5)" />
<use xlink:href="#f2_29" transform="matrix(12,0,0,12,810,227.5)" />
<use xlink:href="#f2_1x" transform="matrix(12,0,0,12,826.1,227.5)" />
<use xlink:href="#f2_27" transform="matrix(12,0,0,12,835.3,227.5)" />
<use xlink:href="#f2_21" transform="matrix(12,0,0,12,845.6,227.5)" />
<use xlink:href="#f2_29" transform="matrix(12,0,0,12,165,250.3)" />
<use xlink:href="#f2_1x" transform="matrix(12,0,0,12,181.2,250.3)" />
<use xlink:href="#f2_2k" transform="matrix(12,0,0,12,190.3,250.3)" />
<use xlink:href="#f2_25" transform="matrix(12,0,0,12,199.8,250.3)" />
<use xlink:href="#f2_29" transform="matrix(12,0,0,12,205.2,250.3)" />
<use xlink:href="#f2_2h" transform="matrix(12,0,0,12,221.3,250.3)" />
<use xlink:href="#f2_29" transform="matrix(12,0,0,12,232.4,250.3)" />
<use xlink:href="#f2_2c" transform="matrix(12,0,0,12,253,250.3)" />
<use xlink:href="#f2_2e" transform="matrix(12,0,0,12,264,250.3)" />
<use xlink:href="#f2_2b" transform="matrix(12,0,0,12,271.3,250.3)" />
<use xlink:href="#f2_22" transform="matrix(12,0,0,12,281.4,250.3)" />
<use xlink:href="#f2_25" transform="matrix(12,0,0,12,287.5,250.3)" />
<use xlink:href="#f2_2g" transform="matrix(12,0,0,12,292.8,250.3)" />
<use xlink:href="#f2_i" transform="matrix(12,0,0,12,298.8,250.3)" />
<use xlink:href="#f2_m" transform="matrix(12,0,0,12,82.5,273.2)" />
<use xlink:href="#f2_i" transform="matrix(12,0,0,12,91.7,273.2)" />
<use xlink:href="#f2_14" transform="matrix(12,0,0,12,110,273.2)" />
<use xlink:href="#f2_25" transform="matrix(12,0,0,12,124.2,273.2)" />
<use xlink:href="#f2_21" transform="matrix(12,0,0,12,129.5,273.2)" />
<use xlink:href="#f2_2g" transform="matrix(12,0,0,12,138.3,273.2)" />
<use xlink:href="#f2_2c" transform="matrix(12,0,0,12,148.9,273.2)" />
<use xlink:href="#f2_2e" transform="matrix(12,0,0,12,159.9,273.2)" />
<use xlink:href="#f2_2b" transform="matrix(12,0,0,12,167.2,273.2)" />
<use xlink:href="#f2_1y" transform="matrix(12,0,0,12,177.3,273.2)" />
<use xlink:href="#f2_28" transform="matrix(12,0,0,12,187.4,273.2)" />
<use xlink:href="#f2_21" transform="matrix(12,0,0,12,192.7,273.2)" />
<use xlink:href="#f2_29" transform="matrix(12,0,0,12,201.4,273.2)" />
<use xlink:href="#f2_2f" transform="matrix(12,0,0,12,217.6,273.2)" />
<use xlink:href="#f1_2b" transform="matrix(12,0,0,12,137.5,295.9)" />
<use xlink:href="#f2_14" transform="matrix(12,0,0,12,165,295.9)" />
<use xlink:href="#f2_21" transform="matrix(12,0,0,12,179.1,295.9)" />
<use xlink:href="#f2_2g" transform="matrix(12,0,0,12,187.9,295.9)" />
<use xlink:href="#f2_21" transform="matrix(12,0,0,12,194,295.9)" />
<use xlink:href="#f2_2e" transform="matrix(12,0,0,12,202.8,295.9)" />
<use xlink:href="#f2_29" transform="matrix(12,0,0,12,210.1,295.9)" />
<use xlink:href="#f2_25" transform="matrix(12,0,0,12,226.2,295.9)" />
<use xlink:href="#f2_2a" transform="matrix(12,0,0,12,231.6,295.9)" />
<use xlink:href="#f2_21" transform="matrix(12,0,0,12,242.2,295.9)" />
<use xlink:href="#f2_2g" transform="matrix(12,0,0,12,257,295.9)" />
<use xlink:href="#f2_24" transform="matrix(12,0,0,12,263,295.9)" />
<use xlink:href="#f2_21" transform="matrix(12,0,0,12,273.7,295.9)" />
<use xlink:href="#f2_1x" transform="matrix(12,0,0,12,288.5,295.9)" />
<use xlink:href="#f2_29" transform="matrix(12,0,0,12,297.7,295.9)" />
<use xlink:href="#f2_2b" transform="matrix(12,0,0,12,313.8,295.9)" />
<use xlink:href="#f2_2h" transform="matrix(12,0,0,12,323.9,295.9)" />
<use xlink:href="#f2_2a" transform="matrix(12,0,0,12,334.9,295.9)" />
<use xlink:href="#f2_2g" transform="matrix(12,0,0,12,345.5,295.9)" />
<use xlink:href="#f2_2b" transform="matrix(12,0,0,12,357.4,295.9)" />
<use xlink:href="#f2_22" transform="matrix(12,0,0,12,367.5,295.9)" />
<use xlink:href="#f2_20" transform="matrix(12,0,0,12,379.5,295.9)" />
<use xlink:href="#f2_25" transform="matrix(12,0,0,12,390.8,295.9)" />
<use xlink:href="#f2_22" transform="matrix(12,0,0,12,396.1,295.9)" />
<use xlink:href="#f2_22" transform="matrix(12,0,0,12,402.1,295.9)" />
<use xlink:href="#f2_21" transform="matrix(12,0,0,12,408.2,295.9)" />
<use xlink:href="#f2_2e" transform="matrix(12,0,0,12,417,295.9)" />
<use xlink:href="#f2_21" transform="matrix(12,0,0,12,424.3,295.9)" />
<use xlink:href="#f2_2a" transform="matrix(12,0,0,12,433,295.9)" />
<use xlink:href="#f2_2g" transform="matrix(12,0,0,12,443.7,295.9)" />
<use xlink:href="#f2_27" transform="matrix(12,0,0,12,455.6,295.9)" />
<use xlink:href="#f2_25" transform="matrix(12,0,0,12,465.8,295.9)" />
<use xlink:href="#f2_2a" transform="matrix(12,0,0,12,471.2,295.9)" />
<use xlink:href="#f2_20" transform="matrix(12,0,0,12,481.8,295.9)" />
<use xlink:href="#f2_2f" transform="matrix(12,0,0,12,493,295.9)" />
<use xlink:href="#f2_2b" transform="matrix(12,0,0,12,507,295.9)" />
<use xlink:href="#f2_22" transform="matrix(12,0,0,12,517.1,295.9)" />
<use xlink:href="#f2_1z" transform="matrix(12,0,0,12,529.2,295.9)" />
<use xlink:href="#f2_2b" transform="matrix(12,0,0,12,537.1,295.9)" />
<use xlink:href="#f2_2a" transform="matrix(12,0,0,12,547.1,295.9)" />
<use xlink:href="#f2_2f" transform="matrix(12,0,0,12,557.8,295.9)" />
<use xlink:href="#f2_2g" transform="matrix(12,0,0,12,565.5,295.9)" />
<use xlink:href="#f2_25" transform="matrix(12,0,0,12,571.5,295.9)" />
<use xlink:href="#f2_2g" transform="matrix(12,0,0,12,576.8,295.9)" />
<use xlink:href="#f2_2h" transform="matrix(12,0,0,12,582.8,295.9)" />
<use xlink:href="#f2_21" transform="matrix(12,0,0,12,593.9,295.9)" />
<use xlink:href="#f2_2a" transform="matrix(12,0,0,12,602.7,295.9)" />
<use xlink:href="#f2_2g" transform="matrix(12,0,0,12,613.3,295.9)" />
<use xlink:href="#f2_2f" transform="matrix(12,0,0,12,619.3,295.9)" />
<use xlink:href="#f2_j" transform="matrix(12,0,0,12,627,295.9)" />
<use xlink:href="#f2_2a" transform="matrix(12,0,0,12,638.2,295.9)" />
<use xlink:href="#f2_2h" transform="matrix(12,0,0,12,648.8,295.9)" />
<use xlink:href="#f2_2g" transform="matrix(12,0,0,12,659.8,295.9)" />
<use xlink:href="#f2_2e" transform="matrix(12,0,0,12,665.8,295.9)" />
<use xlink:href="#f2_25" transform="matrix(12,0,0,12,673.1,295.9)" />
<use xlink:href="#f2_21" transform="matrix(12,0,0,12,678.5,295.9)" />
<use xlink:href="#f2_2a" transform="matrix(12,0,0,12,687.3,295.9)" />
<use xlink:href="#f2_2g" transform="matrix(12,0,0,12,697.9,295.9)" />
<use xlink:href="#f2_2f" transform="matrix(12,0,0,12,703.9,295.9)" />
<use xlink:href="#f2_2j" transform="matrix(12,0,0,12,717.5,295.9)" />
<use xlink:href="#f2_24" transform="matrix(12,0,0,12,732.7,295.9)" />
<use xlink:href="#f2_25" transform="matrix(12,0,0,12,743.4,295.9)" />
<use xlink:href="#f2_1z" transform="matrix(12,0,0,12,748.7,295.9)" />
<use xlink:href="#f2_24" transform="matrix(12,0,0,12,756.7,295.9)" />
<use xlink:href="#f2_2f" transform="matrix(12,0,0,12,773.4,295.9)" />
<use xlink:href="#f2_24" transform="matrix(12,0,0,12,781.1,295.9)" />
<use xlink:href="#f2_2b" transform="matrix(12,0,0,12,791.8,295.9)" />
<use xlink:href="#f2_2h" transform="matrix(12,0,0,12,801.8,295.9)" />
<use xlink:href="#f2_28" transform="matrix(12,0,0,12,812.8,295.9)" />
<use xlink:href="#f2_20" transform="matrix(12,0,0,12,818.3,295.9)" />
<use xlink:href="#f2_1y" transform="matrix(12,0,0,12,835.5,295.9)" />
<use xlink:href="#f2_21" transform="matrix(12,0,0,12,845.6,295.9)" />
<use xlink:href="#f2_25" transform="matrix(12,0,0,12,165,318.7)" />
<use xlink:href="#f2_2a" transform="matrix(12,0,0,12,170.4,318.7)" />
<use xlink:href="#f2_1z" transform="matrix(12,0,0,12,181,318.7)" />
<use xlink:href="#f2_28" transform="matrix(12,0,0,12,189,318.7)" />
<use xlink:href="#f2_2h" transform="matrix(12,0,0,12,194.4,318.7)" />
<use xlink:href="#f2_20" transform="matrix(12,0,0,12,205.4,318.7)" />
<use xlink:href="#f2_21" transform="matrix(12,0,0,12,216.6,318.7)" />
<use xlink:href="#f2_20" transform="matrix(12,0,0,12,225.3,318.7)" />
<use xlink:href="#f2_25" transform="matrix(12,0,0,12,241.4,318.7)" />
<use xlink:href="#f2_2a" transform="matrix(12,0,0,12,246.8,318.7)" />
<use xlink:href="#f2_1x" transform="matrix(12,0,0,12,262.1,318.7)" />
<use xlink:href="#f2_20" transform="matrix(12,0,0,12,276.2,318.7)" />
<use xlink:href="#f2_25" transform="matrix(12,0,0,12,287.4,318.7)" />
<use xlink:href="#f2_21" transform="matrix(12,0,0,12,292.8,318.7)" />
<use xlink:href="#f2_2g" transform="matrix(12,0,0,12,301.6,318.7)" />
<use xlink:href="#f2_2f" transform="matrix(12,0,0,12,312.3,318.7)" />
<use xlink:href="#f2_2b" transform="matrix(12,0,0,12,320,318.7)" />
<use xlink:href="#f2_1x" transform="matrix(12,0,0,12,334.8,318.7)" />
<use xlink:href="#f2_2f" transform="matrix(12,0,0,12,344,318.7)" />
<use xlink:href="#f2_2g" transform="matrix(12,0,0,12,356.6,318.7)" />
<use xlink:href="#f2_2b" transform="matrix(12,0,0,12,362.6,318.7)" />
<use xlink:href="#f2_29" transform="matrix(12,0,0,12,377.5,318.7)" />
<use xlink:href="#f2_25" transform="matrix(12,0,0,12,393.6,318.7)" />
<use xlink:href="#f2_2a" transform="matrix(12,0,0,12,398.9,318.7)" />
<use xlink:href="#f2_25" transform="matrix(12,0,0,12,409.5,318.7)" />
<use xlink:href="#f2_29" transform="matrix(12,0,0,12,414.9,318.7)" />
<use xlink:href="#f2_25" transform="matrix(12,0,0,12,431,318.7)" />
<use xlink:href="#f2_2f" transform="matrix(12,0,0,12,436.3,318.7)" />
<use xlink:href="#f2_21" transform="matrix(12,0,0,12,444,318.7)" />
<use xlink:href="#f2_2g" transform="matrix(12,0,0,12,457.7,318.7)" />
<use xlink:href="#f2_24" transform="matrix(12,0,0,12,463.8,318.7)" />
<use xlink:href="#f2_21" transform="matrix(12,0,0,12,474.4,318.7)" />
<use xlink:href="#f2_1z" transform="matrix(12,0,0,12,488.3,318.7)" />
<use xlink:href="#f2_2b" transform="matrix(12,0,0,12,496.4,318.7)" />
<use xlink:href="#f2_2f" transform="matrix(12,0,0,12,506.4,318.7)" />
<use xlink:href="#f2_2g" transform="matrix(12,0,0,12,514.1,318.7)" />
<use xlink:href="#f2_2b" transform="matrix(12,0,0,12,524.9,318.7)" />
<use xlink:href="#f2_22" transform="matrix(12,0,0,12,535.2,318.7)" />
<use xlink:href="#f2_2g" transform="matrix(12,0,0,12,546,318.7)" />
<use xlink:href="#f2_24" transform="matrix(12,0,0,12,552,318.7)" />
<use xlink:href="#f2_21" transform="matrix(12,0,0,12,562.7,318.7)" />
<use xlink:href="#f2_20" transform="matrix(12,0,0,12,576.2,318.7)" />
<use xlink:href="#f2_21" transform="matrix(12,0,0,12,587.4,318.7)" />
<use xlink:href="#f2_2f" transform="matrix(12,0,0,12,596.1,318.7)" />
<use xlink:href="#f2_25" transform="matrix(12,0,0,12,603.8,318.7)" />
<use xlink:href="#f2_2e" transform="matrix(12,0,0,12,609.2,318.7)" />
<use xlink:href="#f2_21" transform="matrix(12,0,0,12,616.5,318.7)" />
<use xlink:href="#f2_20" transform="matrix(12,0,0,12,625.3,318.7)" />
<use xlink:href="#f2_20" transform="matrix(12,0,0,12,641.2,318.7)" />
<use xlink:href="#f2_25" transform="matrix(12,0,0,12,652.4,318.7)" />
<use xlink:href="#f2_21" transform="matrix(12,0,0,12,657.7,318.7)" />
<use xlink:href="#f2_2g" transform="matrix(12,0,0,12,666.5,318.7)" />
<use xlink:href="#f2_2f" transform="matrix(12,0,0,12,677.3,318.7)" />
<use xlink:href="#f2_2h" transform="matrix(12,0,0,12,685.2,318.7)" />
<use xlink:href="#f2_1z" transform="matrix(12,0,0,12,696.2,318.7)" />
<use xlink:href="#f2_24" transform="matrix(12,0,0,12,704.2,318.7)" />
<use xlink:href="#f2_2g" transform="matrix(12,0,0,12,720,318.7)" />
<use xlink:href="#f2_24" transform="matrix(12,0,0,12,726,318.7)" />
<use xlink:href="#f2_1x" transform="matrix(12,0,0,12,736.7,318.7)" />
<use xlink:href="#f2_2g" transform="matrix(12,0,0,12,745.8,318.7)" />
<use xlink:href="#f2_25" transform="matrix(12,0,0,12,756.6,318.7)" />
<use xlink:href="#f2_2g" transform="matrix(12,0,0,12,761.9,318.7)" />
<use xlink:href="#f2_1z" transform="matrix(12,0,0,12,772.7,318.7)" />
<use xlink:href="#f2_2b" transform="matrix(12,0,0,12,780.7,318.7)" />
<use xlink:href="#f2_2a" transform="matrix(12,0,0,12,790.8,318.7)" />
<use xlink:href="#f2_2g" transform="matrix(12,0,0,12,801.5,318.7)" />
<use xlink:href="#f2_1x" transform="matrix(12,0,0,12,807.5,318.7)" />
<use xlink:href="#f2_25" transform="matrix(12,0,0,12,816.6,318.7)" />
<use xlink:href="#f2_2a" transform="matrix(12,0,0,12,822,318.7)" />
<use xlink:href="#f2_2f" transform="matrix(12,0,0,12,833,318.7)" />
<use xlink:href="#f2_1x" transform="matrix(12,0,0,12,845.5,318.7)" />
<use xlink:href="#f2_1z" transform="matrix(12,0,0,12,165,341.4)" />
<use xlink:href="#f2_21" transform="matrix(12,0,0,12,173.1,341.4)" />
<use xlink:href="#f2_2e" transform="matrix(12,0,0,12,181.9,341.4)" />
<use xlink:href="#f2_2g" transform="matrix(12,0,0,12,189.2,341.4)" />
<use xlink:href="#f2_1x" transform="matrix(12,0,0,12,195.2,341.4)" />
<use xlink:href="#f2_25" transform="matrix(12,0,0,12,204.4,341.4)" />
<use xlink:href="#f2_2a" transform="matrix(12,0,0,12,209.7,341.4)" />
<use xlink:href="#f2_29" transform="matrix(12,0,0,12,224.9,341.4)" />
<use xlink:href="#f2_25" transform="matrix(12,0,0,12,241.1,341.4)" />
<use xlink:href="#f2_2a" transform="matrix(12,0,0,12,246.4,341.4)" />
<use xlink:href="#f2_25" transform="matrix(12,0,0,12,257,341.4)" />
<use xlink:href="#f2_29" transform="matrix(12,0,0,12,262.4,341.4)" />
<use xlink:href="#f2_2h" transform="matrix(12,0,0,12,278.5,341.4)" />
<use xlink:href="#f2_29" transform="matrix(12,0,0,12,289.5,341.4)" />
<use xlink:href="#f2_1x" transform="matrix(12,0,0,12,310.2,341.4)" />
<use xlink:href="#f2_29" transform="matrix(12,0,0,12,319.5,341.4)" />
<use xlink:href="#f2_2b" transform="matrix(12,0,0,12,335.7,341.4)" />
<use xlink:href="#f2_2h" transform="matrix(12,0,0,12,345.7,341.4)" />
<use xlink:href="#f2_2a" transform="matrix(12,0,0,12,356.8,341.4)" />
<use xlink:href="#f2_2g" transform="matrix(12,0,0,12,367.4,341.4)" />
<use xlink:href="#f2_2b" transform="matrix(12,0,0,12,378,341.4)" />
<use xlink:href="#f2_22" transform="matrix(12,0,0,12,388,341.4)" />
<use xlink:href="#f2_21" transform="matrix(12,0,0,12,398.7,341.4)" />
<use xlink:href="#f2_1x" transform="matrix(12,0,0,12,407.5,341.4)" />
<use xlink:href="#f2_1z" transform="matrix(12,0,0,12,416.7,341.4)" />
<use xlink:href="#f2_24" transform="matrix(12,0,0,12,424.7,341.4)" />
<use xlink:href="#f2_1z" transform="matrix(12,0,0,12,440.1,341.4)" />
<use xlink:href="#f2_2b" transform="matrix(12,0,0,12,448.1,341.4)" />
<use xlink:href="#f2_2a" transform="matrix(12,0,0,12,458.2,341.4)" />
<use xlink:href="#f2_2f" transform="matrix(12,0,0,12,468.9,341.4)" />
<use xlink:href="#f2_2g" transform="matrix(12,0,0,12,476.5,341.4)" />
<use xlink:href="#f2_25" transform="matrix(12,0,0,12,482.6,341.4)" />
<use xlink:href="#f2_2g" transform="matrix(12,0,0,12,487.9,341.4)" />
<use xlink:href="#f2_2h" transform="matrix(12,0,0,12,493.9,341.4)" />
<use xlink:href="#f2_21" transform="matrix(12,0,0,12,505,341.4)" />
<use xlink:href="#f2_2a" transform="matrix(12,0,0,12,513.8,341.4)" />
<use xlink:href="#f2_2g" transform="matrix(12,0,0,12,524.4,341.4)" />
<use xlink:href="#f2_j" transform="matrix(12,0,0,12,530.6,341.4)" />
<use xlink:href="#f2_2a" transform="matrix(12,0,0,12,541.7,341.4)" />
<use xlink:href="#f2_2h" transform="matrix(12,0,0,12,552.4,341.4)" />
<use xlink:href="#f2_2g" transform="matrix(12,0,0,12,563.4,341.4)" />
<use xlink:href="#f2_2e" transform="matrix(12,0,0,12,569.4,341.4)" />
<use xlink:href="#f2_25" transform="matrix(12,0,0,12,576.7,341.4)" />
<use xlink:href="#f2_21" transform="matrix(12,0,0,12,582,341.4)" />
<use xlink:href="#f2_2a" transform="matrix(12,0,0,12,590.8,341.4)" />
<use xlink:href="#f2_2g" transform="matrix(12,0,0,12,601.5,341.4)" />
<use xlink:href="#f2_2f" transform="matrix(12,0,0,12,607.5,341.4)" />
<use xlink:href="#f2_i" transform="matrix(12,0,0,12,615.3,341.4)" />
<use xlink:href="#f2_n" transform="matrix(12,0,0,12,82.5,364.3)" />
<use xlink:href="#f2_i" transform="matrix(12,0,0,12,91.7,364.3)" />
<use xlink:href="#f2_1k" transform="matrix(12,0,0,12,110,364.3)" />
<use xlink:href="#f2_2e" transform="matrix(12,0,0,12,121.3,364.3)" />
<use xlink:href="#f2_1x" transform="matrix(12,0,0,12,128.5,364.3)" />
<use xlink:href="#f2_2a" transform="matrix(12,0,0,12,137.7,364.3)" />
<use xlink:href="#f2_2f" transform="matrix(12,0,0,12,148.4,364.3)" />
<use xlink:href="#f2_2c" transform="matrix(12,0,0,12,156.1,364.3)" />
<use xlink:href="#f2_2b" transform="matrix(12,0,0,12,167.1,364.3)" />
<use xlink:href="#f2_2e" transform="matrix(12,0,0,12,177.1,364.3)" />
<use xlink:href="#f2_2g" transform="matrix(12,0,0,12,184.4,364.3)" />
<use xlink:href="#f2_1x" transform="matrix(12,0,0,12,190.5,364.3)" />
<use xlink:href="#f2_2g" transform="matrix(12,0,0,12,199.6,364.3)" />
<use xlink:href="#f2_25" transform="matrix(12,0,0,12,205.7,364.3)" />
<use xlink:href="#f2_2b" transform="matrix(12,0,0,12,211,364.3)" />
<use xlink:href="#f2_2a" transform="matrix(12,0,0,12,221,364.3)" />
<use xlink:href="#f2_2c" transform="matrix(12,0,0,12,236.3,364.3)" />
<use xlink:href="#f2_2e" transform="matrix(12,0,0,12,247.1,364.3)" />
<use xlink:href="#f2_2b" transform="matrix(12,0,0,12,254.4,364.3)" />
<use xlink:href="#f2_1y" transform="matrix(12,0,0,12,264.5,364.3)" />
<use xlink:href="#f2_28" transform="matrix(12,0,0,12,274.6,364.3)" />
<use xlink:href="#f2_21" transform="matrix(12,0,0,12,279.9,364.3)" />
<use xlink:href="#f2_29" transform="matrix(12,0,0,12,288.5,364.3)" />
<use xlink:href="#f2_2f" transform="matrix(12,0,0,12,304.6,364.3)" />
<use xlink:href="#f1_2b" transform="matrix(12,0,0,12,137.5,387)" />
<use xlink:href="#f2_14" transform="matrix(12,0,0,12,165,387)" />
<use xlink:href="#f2_21" transform="matrix(12,0,0,12,179.1,387)" />
<use xlink:href="#f2_2g" transform="matrix(12,0,0,12,187.9,387)" />
<use xlink:href="#f2_21" transform="matrix(12,0,0,12,194,387)" />
<use xlink:href="#f2_2e" transform="matrix(12,0,0,12,202.8,387)" />
<use xlink:href="#f2_29" transform="matrix(12,0,0,12,210.1,387)" />
<use xlink:href="#f2_25" transform="matrix(12,0,0,12,226.2,387)" />
<use xlink:href="#f2_2a" transform="matrix(12,0,0,12,231.6,387)" />
<use xlink:href="#f2_21" transform="matrix(12,0,0,12,242.2,387)" />
<use xlink:href="#f2_1x" transform="matrix(12,0,0,12,255,387)" />
<use xlink:href="#f2_2g" transform="matrix(12,0,0,12,268.2,387)" />
<use xlink:href="#f2_2e" transform="matrix(12,0,0,12,274.2,387)" />
<use xlink:href="#f2_1x" transform="matrix(12,0,0,12,281.6,387)" />
<use xlink:href="#f2_2a" transform="matrix(12,0,0,12,290.7,387)" />
<use xlink:href="#f2_2f" transform="matrix(12,0,0,12,301.4,387)" />
<use xlink:href="#f2_2c" transform="matrix(12,0,0,12,309.1,387)" />
<use xlink:href="#f2_2b" transform="matrix(12,0,0,12,320.1,387)" />
<use xlink:href="#f2_2e" transform="matrix(12,0,0,12,330.1,387)" />
<use xlink:href="#f2_2g" transform="matrix(12,0,0,12,337.4,387)" />
<use xlink:href="#f2_1x" transform="matrix(12,0,0,12,343.5,387)" />
<use xlink:href="#f2_2g" transform="matrix(12,0,0,12,352.5,387)" />
<use xlink:href="#f2_25" transform="matrix(12,0,0,12,358.5,387)" />
<use xlink:href="#f2_2b" transform="matrix(12,0,0,12,363.8,387)" />
<use xlink:href="#f2_2a" transform="matrix(12,0,0,12,373.9,387)" />
<use xlink:href="#f2_2f" transform="matrix(12,0,0,12,388.7,387)" />
<use xlink:href="#f2_1z" transform="matrix(12,0,0,12,396.4,387)" />
<use xlink:href="#f2_24" transform="matrix(12,0,0,12,404.5,387)" />
<use xlink:href="#f2_21" transform="matrix(12,0,0,12,415.2,387)" />
<use xlink:href="#f2_20" transform="matrix(12,0,0,12,424,387)" />
<use xlink:href="#f2_2h" transform="matrix(12,0,0,12,435.2,387)" />
<use xlink:href="#f2_28" transform="matrix(12,0,0,12,446.1,387)" />
<use xlink:href="#f2_21" transform="matrix(12,0,0,12,451.5,387)" />
<use xlink:href="#f2_25" transform="matrix(12,0,0,12,464.3,387)" />
<use xlink:href="#f2_2a" transform="matrix(12,0,0,12,469.8,387)" />
<use xlink:href="#f2_2b" transform="matrix(12,0,0,12,484.4,387)" />
<use xlink:href="#f2_2e" transform="matrix(12,0,0,12,494.5,387)" />
<use xlink:href="#f2_20" transform="matrix(12,0,0,12,501.8,387)" />
<use xlink:href="#f2_21" transform="matrix(12,0,0,12,513,387)" />
<use xlink:href="#f2_2e" transform="matrix(12,0,0,12,521.8,387)" />
<use xlink:href="#f2_2g" transform="matrix(12,0,0,12,533.1,387)" />
<use xlink:href="#f2_2b" transform="matrix(12,0,0,12,539,387)" />
<use xlink:href="#f2_22" transform="matrix(12,0,0,12,553.1,387)" />
<use xlink:href="#f2_25" transform="matrix(12,0,0,12,559.2,387)" />
<use xlink:href="#f2_2a" transform="matrix(12,0,0,12,564.5,387)" />
<use xlink:href="#f2_20" transform="matrix(12,0,0,12,575.1,387)" />
<use xlink:href="#f2_2g" transform="matrix(12,0,0,12,590.3,387)" />
<use xlink:href="#f2_24" transform="matrix(12,0,0,12,596.3,387)" />
<use xlink:href="#f2_21" transform="matrix(12,0,0,12,607,387)" />
<use xlink:href="#f2_1z" transform="matrix(12,0,0,12,619.8,387)" />
<use xlink:href="#f2_24" transform="matrix(12,0,0,12,627.9,387)" />
<use xlink:href="#f2_21" transform="matrix(12,0,0,12,638.6,387)" />
<use xlink:href="#f2_1x" transform="matrix(12,0,0,12,647.3,387)" />
<use xlink:href="#f2_2c" transform="matrix(12,0,0,12,656.5,387)" />
<use xlink:href="#f2_21" transform="matrix(12,0,0,12,667.5,387)" />
<use xlink:href="#f2_2f" transform="matrix(12,0,0,12,676.4,387)" />
<use xlink:href="#f2_2g" transform="matrix(12,0,0,12,684.1,387)" />
<use xlink:href="#f2_2j" transform="matrix(12,0,0,12,694.2,387)" />
<use xlink:href="#f2_1x" transform="matrix(12,0,0,12,709.4,387)" />
<use xlink:href="#f2_2l" transform="matrix(12,0,0,12,718.8,387)" />
<use xlink:href="#f2_2b" transform="matrix(12,0,0,12,733,387)" />
<use xlink:href="#f2_22" transform="matrix(12,0,0,12,743.1,387)" />
<use xlink:href="#f2_2g" transform="matrix(12,0,0,12,753.2,387)" />
<use xlink:href="#f2_2e" transform="matrix(12,0,0,12,759.2,387)" />
<use xlink:href="#f2_1x" transform="matrix(12,0,0,12,766.5,387)" />
<use xlink:href="#f2_2a" transform="matrix(12,0,0,12,775.7,387)" />
<use xlink:href="#f2_2f" transform="matrix(12,0,0,12,786.4,387)" />
<use xlink:href="#f2_2c" transform="matrix(12,0,0,12,794,387)" />
<use xlink:href="#f2_2b" transform="matrix(12,0,0,12,805.1,387)" />
<use xlink:href="#f2_2e" transform="matrix(12,0,0,12,815.1,387)" />
<use xlink:href="#f2_2g" transform="matrix(12,0,0,12,822.3,387)" />
<use xlink:href="#f2_25" transform="matrix(12,0,0,12,828.3,387)" />
<use xlink:href="#f2_2a" transform="matrix(12,0,0,12,833.6,387)" />
<use xlink:href="#f2_23" transform="matrix(12,0,0,12,844.2,387)" />
<use xlink:href="#f2_1x" transform="matrix(12,0,0,12,165,409.8)" />
<use xlink:href="#f2_2c" transform="matrix(12,0,0,12,178.8,409.8)" />
<use xlink:href="#f2_2e" transform="matrix(12,0,0,12,189.8,409.8)" />
<use xlink:href="#f2_2b" transform="matrix(12,0,0,12,197.1,409.8)" />
<use xlink:href="#f2_20" transform="matrix(12,0,0,12,207.2,409.8)" />
<use xlink:href="#f2_2h" transform="matrix(12,0,0,12,218.4,409.8)" />
<use xlink:href="#f2_1z" transform="matrix(12,0,0,12,229.3,409.8)" />
<use xlink:href="#f2_2g" transform="matrix(12,0,0,12,237.4,409.8)" />
<use xlink:href="#f2_22" transform="matrix(12,0,0,12,248,409.8)" />
<use xlink:href="#f2_2e" transform="matrix(12,0,0,12,254.1,409.8)" />
<use xlink:href="#f2_2b" transform="matrix(12,0,0,12,261.4,409.8)" />
<use xlink:href="#f2_29" transform="matrix(12,0,0,12,271.5,409.8)" />
<use xlink:href="#f2_2c" transform="matrix(12,0,0,12,292.3,409.8)" />
<use xlink:href="#f2_28" transform="matrix(12,0,0,12,303.3,409.8)" />
<use xlink:href="#f2_1x" transform="matrix(12,0,0,12,308.6,409.8)" />
<use xlink:href="#f2_2a" transform="matrix(12,0,0,12,317.8,409.8)" />
<use xlink:href="#f2_2g" transform="matrix(12,0,0,12,328.4,409.8)" />
<use xlink:href="#f2_2f" transform="matrix(12,0,0,12,334.4,409.8)" />
<use xlink:href="#f2_j" transform="matrix(12,0,0,12,342.1,409.8)" />
<use xlink:href="#f2_22" transform="matrix(12,0,0,12,353.3,409.8)" />
<use xlink:href="#f2_1x" transform="matrix(12,0,0,12,359.4,409.8)" />
<use xlink:href="#f2_1z" transform="matrix(12,0,0,12,368.5,409.8)" />
<use xlink:href="#f2_2g" transform="matrix(12,0,0,12,376.6,409.8)" />
<use xlink:href="#f2_2b" transform="matrix(12,0,0,12,382.6,409.8)" />
<use xlink:href="#f2_2e" transform="matrix(12,0,0,12,392.7,409.8)" />
<use xlink:href="#f2_25" transform="matrix(12,0,0,12,400,409.8)" />
<use xlink:href="#f2_21" transform="matrix(12,0,0,12,405.3,409.8)" />
<use xlink:href="#f2_2f" transform="matrix(12,0,0,12,414.1,409.8)" />
<use xlink:href="#f2_2f" transform="matrix(12,0,0,12,426.4,409.8)" />
<use xlink:href="#f2_25" transform="matrix(12,0,0,12,434.1,409.8)" />
<use xlink:href="#f2_2g" transform="matrix(12,0,0,12,439.4,409.8)" />
<use xlink:href="#f2_2h" transform="matrix(12,0,0,12,445.4,409.8)" />
<use xlink:href="#f2_1x" transform="matrix(12,0,0,12,456.5,409.8)" />
<use xlink:href="#f2_2g" transform="matrix(12,0,0,12,465.6,409.8)" />
<use xlink:href="#f2_21" transform="matrix(12,0,0,12,471.6,409.8)" />
<use xlink:href="#f2_20" transform="matrix(12,0,0,12,480.4,409.8)" />
<use xlink:href="#f2_1x" transform="matrix(12,0,0,12,496.2,409.8)" />
<use xlink:href="#f2_2g" transform="matrix(12,0,0,12,505.4,409.8)" />
<use xlink:href="#f2_20" transform="matrix(12,0,0,12,516,409.8)" />
<use xlink:href="#f2_25" transform="matrix(12,0,0,12,527,409.8)" />
<use xlink:href="#f2_22" transform="matrix(12,0,0,12,532.3,409.8)" />
<use xlink:href="#f2_22" transform="matrix(12,0,0,12,538.4,409.8)" />
<use xlink:href="#f2_21" transform="matrix(12,0,0,12,544.5,409.8)" />
<use xlink:href="#f2_2e" transform="matrix(12,0,0,12,553.2,409.8)" />
<use xlink:href="#f2_21" transform="matrix(12,0,0,12,560.5,409.8)" />
<use xlink:href="#f2_2a" transform="matrix(12,0,0,12,569.3,409.8)" />
<use xlink:href="#f2_2g" transform="matrix(12,0,0,12,580,409.8)" />
<use xlink:href="#f2_28" transform="matrix(12,0,0,12,590.6,409.8)" />
<use xlink:href="#f2_2b" transform="matrix(12,0,0,12,595.9,409.8)" />
<use xlink:href="#f2_1z" transform="matrix(12,0,0,12,605.9,409.8)" />
<use xlink:href="#f2_1x" transform="matrix(12,0,0,12,614.1,409.8)" />
<use xlink:href="#f2_2g" transform="matrix(12,0,0,12,623.2,409.8)" />
<use xlink:href="#f2_25" transform="matrix(12,0,0,12,629.2,409.8)" />
<use xlink:href="#f2_2b" transform="matrix(12,0,0,12,634.5,409.8)" />
<use xlink:href="#f2_2a" transform="matrix(12,0,0,12,644.6,409.8)" />
<use xlink:href="#f2_2f" transform="matrix(12,0,0,12,655.3,409.8)" />
<use xlink:href="#f2_2g" transform="matrix(12,0,0,12,667.5,409.8)" />
<use xlink:href="#f2_2b" transform="matrix(12,0,0,12,673.6,409.8)" />
<use xlink:href="#f2_20" transform="matrix(12,0,0,12,688.2,409.8)" />
<use xlink:href="#f2_25" transform="matrix(12,0,0,12,699.4,409.8)" />
<use xlink:href="#f2_22" transform="matrix(12,0,0,12,704.8,409.8)" />
<use xlink:href="#f2_22" transform="matrix(12,0,0,12,710.8,409.8)" />
<use xlink:href="#f2_21" transform="matrix(12,0,0,12,716.9,409.8)" />
<use xlink:href="#f2_2e" transform="matrix(12,0,0,12,725.7,409.8)" />
<use xlink:href="#f2_21" transform="matrix(12,0,0,12,732.9,409.8)" />
<use xlink:href="#f2_2a" transform="matrix(12,0,0,12,741.7,409.8)" />
<use xlink:href="#f2_2g" transform="matrix(12,0,0,12,752.4,409.8)" />
<use xlink:href="#f2_29" transform="matrix(12,0,0,12,763,409.8)" />
<use xlink:href="#f2_1x" transform="matrix(12,0,0,12,779.1,409.8)" />
<use xlink:href="#f2_2e" transform="matrix(12,0,0,12,788.3,409.8)" />
<use xlink:href="#f2_27" transform="matrix(12,0,0,12,795.6,409.8)" />
<use xlink:href="#f2_21" transform="matrix(12,0,0,12,805.9,409.8)" />
<use xlink:href="#f2_2g" transform="matrix(12,0,0,12,814.5,409.8)" />
<use xlink:href="#f2_2f" transform="matrix(12,0,0,12,820.5,409.8)" />
<use xlink:href="#f2_i" transform="matrix(12,0,0,12,828.2,409.8)" />
</g>
<path fill-rule="evenodd" d="M36.7,37.4h.7v-.7h-.7v.7Z" class="g0_43" />
<path fill-rule="evenodd" d="M36.7,37.4h.7v-.7h-.7v.7Z" class="g0_43" />
<path fill-rule="evenodd" d="M37.4,37.4H872.3v-.7H37.4v.7Z" class="g0_43" />
<path fill-rule="evenodd" d="M872.3,37.4h.7v-.7h-.7v.7Z" class="g0_43" />
<path fill-rule="evenodd" d="M872.3,37.4h.7v-.7h-.7v.7Z" class="g0_43" />
<path fill-rule="evenodd" d="M36.7,1249h.7V37.4h-.7V1249Z" class="g0_43" />
<path fill-rule="evenodd" d="M872.3,1249h.7V37.4h-.7V1249Z" class="g0_43" />
<path fill-rule="evenodd" d="M36.7,1249.7h.7v-.7h-.7v.7Z" class="g0_43" />
<path fill-rule="evenodd" d="M36.7,1249.7h.7v-.7h-.7v.7Z" class="g0_43" />
<path fill-rule="evenodd" d="M37.4,1249.7H872.3v-.7H37.4v.7Z" class="g0_43" />
<path fill-rule="evenodd" d="M872.3,1249.7h.7v-.7h-.7v.7Z" class="g0_43" />
<path fill-rule="evenodd" d="M872.3,1249.7h.7v-.7h-.7v.7Z" class="g0_43" />
<defs>
<path d="M102,-4V34c0,0,41,20,77,46c0,0,10,202,10,421c0,0,0,172,-4,325c0,0,-2,109,-10,125c0,0,-4,10,-16,15c0,0,-11,5,-108,13v62c0,0,144,-4,267,-4c0,0,119,0,226,4V979c0,0,-103,-7,-119,-18c0,0,-9,-7,-13,-27c0,0,-4,-21,-7,-242L401,329c0,0,0,-103,5,-237c0,0,97,-5,144,-5c0,0,140,0,236,23c0,0,20,67,39,160h66C891,270,874,161,860,0c0,0,-70,-4,-130,-4L461,-1L340,0c0,0,-3,0,-10,0C302,0,225,0,102,-4Z" 
id="f0_1c"
transform="scale(0.001,-0.001)" />

<path d="M47,-4V57c0,0,84,3,97,10c0,0,13,8,17,42c0,0,6,47,6,207c0,0,0,70,-2,129l-2,87c0,0,0,43,-10,54c0,0,-9,10,-50,11l-56,2v58c0,0,180,14,296,64l19,-15c0,0,-11,-143,-11,-416c0,0,0,-157,5,-190c0,0,4,-23,14,-30c0,0,10,-7,97,-13V-4c0,0,-134,4,-208,4C259,0,220,0,47,-4ZM254,845c0,0,-47,0,-81,34c0,0,-34,34,-34,81c0,0,0,49,34,83c0,0,34,34,82,34c0,0,48,0,82,-34c0,0,34,-34,34,-83c0,0,0,-47,-34,-81c0,0,-34,-34,-83,-34Z" 
id="f0_25"
transform="scale(0.001,-0.001)" />

<path d="M43,-4V57c0,0,81,4,91,13c0,0,10,8,13,38c0,0,5,76,5,266c0,0,0,94,-3,162c0,0,-2,42,-6,49c0,0,-4,6,-12,9c0,0,-8,3,-88,5v58c0,0,40,0,126,17c0,0,85,17,144,40l20,7c0,0,10,0,10,-18l-1,-6c0,0,-2,-21,-2,-107l115,96c0,0,22,19,45,26c0,0,33,9,80,9c0,0,78,0,129,-28c0,0,50,-27,73,-75c0,0,24,-48,24,-150c0,0,0,-45,-2,-104c0,0,-4,-121,-4,-209c0,0,0,-50,8,-69c0,0,6,-14,17,-18c0,0,11,-5,81,-11V-4l-91,3L756,0L602,-4l-8,9c0,0,19,142,19,291c0,0,0,190,-23,234c0,0,-30,57,-109,57c0,0,-50,0,-87,-26c0,0,-37,-26,-49,-55c0,0,-5,-12,-5,-76c0,0,0,-270,2,-309c0,0,3,-40,13,-49c0,0,13,-11,100,-15V-4c0,0,-130,4,-219,4C236,0,183,0,43,-4Z" 
id="f0_2a"
transform="scale(0.001,-0.001)" />

<path d="M385,423c0,0,59,0,124,6v35c0,0,0,92,-33,134c0,0,-34,42,-91,42c0,0,-40,0,-69,-19c0,0,-29,-20,-43,-56c0,0,-14,-36,-22,-136c0,0,67,-6,134,-6ZM408,-20c0,0,-162,0,-256,94c0,0,-93,94,-93,265c0,0,0,108,27,179c0,0,23,58,74,96c0,0,51,38,117,72c0,0,67,35,147,35c0,0,122,0,202,-69c0,0,79,-68,79,-219c0,0,0,-19,-3,-57L581,354c0,0,-57,-4,-164,-4H256c0,0,11,-129,77,-194c0,0,65,-65,166,-65c0,0,43,0,85,12c0,0,41,13,82,37l22,-22L654,46C654,46,601,13,539,-3c0,0,-61,-17,-131,-17Z" 
id="f0_21"
transform="scale(0.001,-0.001)" />

<path d="M328,113c0,0,58,0,120,67V362c0,0,-131,-29,-170,-62c0,0,-39,-33,-39,-89c0,0,0,-45,25,-71c0,0,25,-27,64,-27ZM219,-20c0,0,-79,0,-122,46C97,26,54,73,54,163c0,0,0,111,59,157c0,0,75,59,335,106c0,0,-2,89,-31,128c0,0,-40,55,-126,55c0,0,-20,0,-41,-5c0,0,-21,-5,-43,-15L174,509l-52,13l2,34l-1,33l-1,29c0,0,114,71,164,89c0,0,37,14,102,14c0,0,88,0,143,-27c0,0,55,-26,80,-72c0,0,26,-46,26,-133c0,0,0,-36,-3,-131c0,0,-3,-97,-3,-156c0,0,0,-93,5,-113c0,0,3,-12,14,-19c0,0,12,-7,79,-13V-4l-57,3c0,0,-46,1,-91,1c0,0,-71,0,-133,-4l-8,7l8,102L292,-10c0,0,-41,-10,-73,-10Z" 
id="f0_1x"
transform="scale(0.001,-0.001)" />

<path d="M16,-4V57c0,0,75,3,86,9c0,0,9,4,14,14c0,0,9,18,10,79c0,0,3,109,3,199c0,0,0,172,-4,204c0,0,-3,19,-14,27c0,0,-11,7,-95,10v58c0,0,150,14,215,35l76,29c0,0,11,0,11,-15l-1,-10c0,0,-2,-47,-2,-135c0,0,38,36,84,92c0,0,34,42,60,55c0,0,25,13,68,13c0,0,23,0,48,-9c0,0,-7,-74,-9,-203L533,497c0,0,-18,29,-38,41c0,0,-21,12,-53,12c0,0,-45,0,-77,-24c0,0,-32,-23,-41,-53c0,0,-6,-22,-6,-152c0,0,0,-189,5,-220c0,0,3,-21,14,-29c0,0,17,-11,113,-15V-4l-84,3c0,0,-80,1,-138,1c0,0,-55,0,-128,-1L16,-4Z" 
id="f0_2e"
transform="scale(0.001,-0.001)" />

<path d="M59,-4V58c0,0,88,6,100,14c0,0,9,4,14,16c0,0,7,18,10,154c0,0,4,136,4,263c0,0,0,238,-5,340c0,0,-5,102,-16,114c0,0,-11,12,-64,16l-43,4v62l84,-2c0,0,78,-3,124,-3c0,0,64,0,204,3c0,0,76,2,112,2c0,0,134,0,197,-25c0,0,64,-25,97,-76c0,0,33,-51,33,-128c0,0,0,-138,-98,-231c0,0,-98,-93,-249,-93c0,0,-20,0,-41,3c0,0,-22,3,-46,8c0,0,-13,27,-27,52l17,18c0,0,16,-3,30,-6c0,0,14,-2,25,-2c0,0,75,0,123,52c0,0,47,52,47,145c0,0,0,104,-49,155c0,0,-49,51,-144,51c0,0,-39,0,-91,-11c0,0,-8,-229,-8,-389c0,0,0,-54,6,-342c0,0,2,-114,7,-131c0,0,4,-13,15,-18c0,0,16,-9,126,-15V-4c0,0,-131,4,-222,4C331,0,291,0,59,-4Z" 
id="f0_1g"
transform="scale(0.001,-0.001)" />

<path d="M437,53c0,0,69,0,107,55c0,0,38,55,38,201c0,0,0,200,-46,277c0,0,-38,61,-119,61c0,0,-69,0,-109,-56c0,0,-40,-56,-40,-190c0,0,0,-199,51,-283c0,0,39,-65,118,-65ZM415,-20c0,0,-173,0,-263,94c0,0,-90,95,-90,276c0,0,0,177,82,265c0,0,99,106,286,106c0,0,187,0,272,-85c0,0,86,-84,86,-266c0,0,0,-188,-99,-289C689,81,591,-20,415,-20Z" 
id="f0_2b"
transform="scale(0.001,-0.001)" />

<path d="M406,-330c0,0,79,0,134,24c0,0,56,25,84,68c0,0,27,44,27,97c0,0,0,48,-22,82c0,0,-17,23,-46,30c0,0,-28,7,-166,7H286c0,0,-63,-47,-82,-77c0,0,-19,-31,-19,-71c0,0,0,-71,56,-116c0,0,56,-44,165,-44Zm-9,634c0,0,57,0,88,40c0,0,31,40,31,125c0,0,0,93,-32,136c0,0,-33,42,-91,42c0,0,-57,0,-91,-37c0,0,-33,-37,-33,-103c0,0,0,-112,33,-157c0,0,33,-46,95,-46ZM383,-404c0,0,-172,0,-257,60c0,0,-84,60,-84,154c0,0,0,53,26,89c0,0,12,16,82,57l53,30c0,0,-60,12,-80,31c0,0,-20,20,-20,56c0,0,0,40,29,97l24,16c0,0,43,28,81,60c0,0,-85,30,-123,82c0,0,-38,53,-38,132c0,0,0,114,88,187c0,0,88,74,247,74c0,0,78,0,138,-16c0,0,44,-12,88,-43c0,0,7,0,19,0c44,0,156,0,196,5l12,-16c0,0,-20,-28,-49,-81H691c0,0,10,-36,10,-68c0,0,0,-137,-98,-204c0,0,-99,-67,-230,-67c0,0,-21,0,-62,3c0,0,-34,-20,-44,-32c0,0,-9,-12,-9,-27c0,0,0,-36,50,-43c0,0,28,-5,304,-5c0,0,93,0,128,-16c0,0,36,-16,59,-57c0,0,23,-41,23,-105c0,0,0,-150,-118,-251c0,0,-119,-102,-321,-102Z" 
id="f0_23"
transform="scale(0.001,-0.001)" />

<path d="M46,-4V57c0,0,77,3,88,10c0,0,11,7,14,26c0,0,6,36,6,173c0,0,0,287,-8,311c0,0,-6,20,-52,21l-48,1v58c0,0,92,10,156,24c0,0,65,15,117,36c0,0,11,4,16,4c0,0,10,0,10,-19c0,0,0,-14,-2,-38c0,0,-1,-11,-1,-37V600l122,92c0,0,39,29,118,29c0,0,80,0,126,-31c0,0,47,-31,72,-99L907,692c0,0,36,29,102,29c0,0,117,0,173,-58c0,0,55,-57,55,-187l-2,-62c0,0,-3,-103,-3,-183c0,0,0,-107,7,-138c0,0,4,-18,15,-25c0,0,11,-7,85,-11V-4c0,0,-93,4,-162,4c0,0,-67,0,-139,-4l-9,13c0,0,19,161,19,314c0,0,0,181,-28,226c0,0,-28,46,-99,46c0,0,-47,0,-82,-24c0,0,-35,-23,-46,-53c0,0,-8,-21,-8,-130c0,0,0,-198,5,-273c0,0,3,-34,14,-43c0,0,12,-9,96,-15V-4c0,0,-98,4,-192,4C708,0,591,0,498,-4V57c0,0,73,0,86,21c0,0,12,21,12,187c0,0,0,189,-7,235c0,0,-7,47,-36,71c0,0,-29,24,-80,24c0,0,-37,0,-67,-18c0,0,-31,-17,-52,-48c0,0,-12,-17,-12,-53l1,-29c0,0,2,-21,2,-117l-1,-88c0,0,0,-127,5,-150c0,0,2,-15,12,-22c0,0,10,-7,82,-13V-4c0,0,-89,4,-196,4C247,0,210,0,46,-4Z" 
id="f0_29"
transform="scale(0.001,-0.001)" />

<path d="M459,38c0,0,119,0,203,83c0,0,84,84,84,201c0,0,0,118,-84,201c0,0,-84,83,-203,83c0,0,-120,0,-204,-83c0,0,-84,-83,-84,-201c0,0,0,-116,84,-200c0,0,84,-84,204,-84Zm0,-61c0,0,-146,0,-248,100c0,0,-102,102,-102,245c0,0,0,143,102,245c0,0,102,102,248,102c0,0,145,0,247,-102c0,0,103,-101,103,-245c0,0,0,-143,-103,-245C706,77,604,-23,459,-23Z" 
id="f1_2b"
transform="scale(0.001,-0.001)" />

<path d="M504,58c0,0,209,0,325,107c0,0,139,131,139,380c0,0,0,218,-116,332c0,0,-116,114,-340,114c0,0,-78,0,-185,-15c0,0,-9,-72,-9,-163V325c0,0,0,-135,9,-252c0,0,100,-15,177,-15ZM97,-7V28l69,41c0,0,12,116,12,405V690c0,0,0,133,-9,229c0,0,-5,56,-14,65c0,0,-8,9,-61,16l-60,9v47c0,0,123,-4,166,-4l200,2l163,3c0,0,2,0,5,0c20,0,107,-1,197,-19c0,0,104,-21,188,-84c0,0,84,-63,128,-159c0,0,44,-95,44,-220c0,0,0,-252,-169,-417C956,158,786,-6,513,-6l-92,3c0,0,-135,4,-171,4C250,1,190,1,97,-7Z" 
id="f2_14"
transform="scale(0.001,-0.001)" />

<path d="M442,407c0,0,56,0,108,5v42c0,0,0,65,-26,124c0,0,-17,37,-58,61c0,0,-41,24,-95,24c0,0,-84,0,-134,-61c0,0,-50,-61,-51,-190c0,0,116,-5,256,-5ZM380,-19c0,0,-152,0,-245,95c0,0,-93,96,-93,260c0,0,0,125,52,217c0,0,35,60,127,111c0,0,93,52,180,52c0,0,132,0,210,-78c0,0,77,-77,77,-217l-2,-44c0,0,-49,-11,-94,-15c0,0,-80,-6,-222,-6H184c0,0,4,-147,75,-222c0,0,72,-76,188,-76c0,0,53,0,104,17c0,0,52,17,103,51l12,-12L642,52C642,52,580,16,515,-1c0,0,-66,-18,-135,-18Z" 
id="f2_21"
transform="scale(0.001,-0.001)" />

<path d="M315,-19c0,0,-55,0,-94,19c0,0,-38,20,-55,52c0,0,-17,31,-17,96l3,144V575c0,0,-58,0,-119,-5v32c0,0,64,24,119,51c0,0,-1,107,-6,232c0,0,87,36,125,59l19,-15c0,0,-6,-59,-12,-276c0,0,91,0,148,2l60,3l-8,-76l-31,1L304,582H278V289c0,0,0,-115,7,-147c0,0,8,-32,30,-50c0,0,23,-18,58,-18c0,0,22,0,43,9c0,0,20,8,40,26L478,83L405,-1c0,0,-24,-8,-46,-13c0,0,-23,-5,-44,-5Z" 
id="f2_2g"
transform="scale(0.001,-0.001)" />

<path d="M24,-4V38l72,6c0,0,38,3,48,14c0,0,10,12,13,73c0,0,5,107,5,255c0,0,0,180,-14,212c0,0,-10,20,-61,20H24v43c0,0,73,8,129,21c0,0,57,13,101,33c0,0,11,6,17,6c0,0,9,0,12,-5c0,0,3,-4,3,-20L283,548c0,0,29,28,65,74c0,0,41,54,77,75c0,0,36,20,76,20c0,0,41,0,62,-10c0,0,11,-4,11,-14l-1,-8c0,0,-12,-60,-13,-169H526c0,0,-17,38,-40,54c0,0,-24,16,-56,16c0,0,-44,0,-82,-30c0,0,-37,-30,-50,-84c0,0,-12,-53,-12,-211c0,0,0,-103,8,-174c0,0,3,-26,15,-33c0,0,28,-16,83,-16h45V-4c0,0,-114,4,-216,4C221,0,121,0,24,-4Z" 
id="f2_2e"
transform="scale(0.001,-0.001)" />

<path d="M34,-4V38H91c0,0,48,0,58,26c0,0,9,26,9,281c0,0,0,187,-2,220c0,0,-2,34,-12,43c0,0,-11,9,-64,9H34v41c0,0,110,15,189,41l54,21c0,0,13,0,13,-18l-1,-27c0,0,-2,-42,-2,-93l100,90c0,0,24,21,51,30c0,0,39,14,77,14c0,0,84,0,135,-31c0,0,52,-30,94,-108l96,88c0,0,25,22,61,34c0,0,47,17,91,17c0,0,67,0,122,-32c0,0,54,-31,81,-81c0,0,26,-50,26,-136l-3,-292c0,0,0,-97,12,-115c0,0,11,-17,58,-20l55,-2V-4l-37,2c0,0,-87,2,-118,2c0,0,-47,0,-110,-4c0,0,10,137,10,321c0,0,0,156,-13,205c0,0,-13,49,-51,77c0,0,-38,28,-96,28c0,0,-64,0,-110,-35c0,0,-47,-35,-58,-84c0,0,-7,-31,-7,-266c0,0,0,-138,2,-157c0,0,2,-19,12,-27c0,0,11,-8,65,-14l50,-6V-4c0,0,-132,4,-194,4c0,0,-49,0,-191,-4V38h50c0,0,45,0,58,13c0,0,14,13,16,60c0,0,6,122,6,255c0,0,0,118,-16,163c0,0,-16,46,-55,72c0,0,-38,26,-92,26c0,0,-57,0,-104,-32c0,0,-47,-32,-64,-78c0,0,-11,-31,-11,-177c0,0,0,-161,3,-236c0,0,1,-35,11,-45c0,0,9,-10,64,-15l52,-6V-4c0,0,-94,4,-176,4C239,0,145,0,34,-4Z" 
id="f2_29"
transform="scale(0.001,-0.001)" />

<path d="M38,-4V38l64,7c0,0,37,3,46,14c0,0,8,11,11,72c0,0,3,95,3,262c0,0,0,116,-3,178c0,0,-2,24,-13,33c0,0,-12,10,-52,10H38v43c0,0,91,13,134,24c0,0,43,11,110,38l18,-12c0,0,-5,-55,-6,-123c0,0,-6,-217,-6,-321c0,0,0,-97,7,-165c0,0,3,-27,14,-37c0,0,11,-11,54,-16l51,-7V-4c0,0,-109,4,-199,4C215,0,128,0,38,-4ZM222,880c0,0,-35,0,-59,25c0,0,-25,24,-25,59c0,0,0,35,25,60c0,0,24,25,59,25c0,0,35,0,59,-25c0,0,25,-25,25,-60c0,0,0,-35,-25,-59c0,0,-24,-25,-59,-25Z" 
id="f2_25"
transform="scale(0.001,-0.001)" />

<path d="M20,-4V38H73c0,0,55,0,64,26c0,0,10,26,10,310c0,0,0,127,-3,199c0,0,-2,24,-12,33c0,0,-11,9,-59,9H20v43c0,0,63,7,114,20c0,0,50,13,114,39c0,0,6,3,12,3c0,0,12,0,12,-18l-1,-28L270,573L383,673c0,0,20,18,42,26c0,0,49,17,99,17c0,0,80,0,138,-33c0,0,58,-32,84,-84c0,0,25,-52,25,-162L768,202c0,0,0,-121,10,-140c0,0,14,-24,55,-24h53V-4c0,0,-79,4,-137,4c0,0,-56,0,-121,-4c0,0,14,144,14,392c0,0,0,100,-18,141c0,0,-17,42,-59,68c0,0,-41,25,-99,25c0,0,-73,0,-123,-37c0,0,-51,-36,-63,-80c0,0,-7,-29,-7,-152c0,0,0,-137,2,-254c0,0,1,-35,10,-44c0,0,19,-17,62,-17h53V-4c0,0,-126,4,-201,4C199,0,120,0,20,-4Z" 
id="f2_2a"
transform="scale(0.001,-0.001)" />

<path d="M23,-4V38l47,6c0,0,44,5,56,12c0,0,11,7,14,33c0,0,6,40,6,180V772c0,0,0,199,-11,223c0,0,-6,16,-60,16H23v46c0,0,116,12,185,34l62,21c0,0,12,0,12,-16l-3,-31L275,931c0,0,-4,-101,-4,-157V574l98,86c0,0,34,32,67,44c0,0,33,12,80,12c0,0,83,0,144,-33c0,0,61,-34,84,-85c0,0,24,-52,24,-177L763,201c0,0,0,-75,6,-118c0,0,2,-18,12,-27c0,0,10,-9,44,-12l56,-6V-4c0,0,-72,4,-141,4c0,0,-59,0,-117,-4c0,0,14,186,14,367c0,0,0,122,-15,165c0,0,-16,43,-55,69c0,0,-40,25,-100,25c0,0,-62,0,-113,-30c0,0,-50,-29,-70,-68c0,0,-13,-27,-13,-131V263c0,0,0,-177,8,-196c0,0,8,-18,60,-23l65,-6V-4c0,0,-117,4,-187,4C217,0,143,0,23,-4Z" 
id="f2_24"
transform="scale(0.001,-0.001)" />

<path d="M355,-19c0,0,-67,0,-116,28c0,0,-48,28,-70,73c0,0,-22,45,-22,143c0,0,0,51,2,118l3,120c0,0,0,126,-8,140c0,0,-7,14,-47,14H30v41c0,0,102,9,188,37l63,24c0,0,12,0,12,-19l-5,-76c0,0,-10,-158,-10,-294c0,0,0,-135,11,-173c0,0,11,-38,47,-63c0,0,35,-25,87,-25c0,0,69,0,127,45c0,0,57,45,75,90c0,0,10,26,10,157c0,0,0,221,-8,240c0,0,-8,16,-67,16H501v41c0,0,76,9,130,21c0,0,53,12,113,36c0,0,7,4,13,4c0,0,13,0,13,-15l-3,-69c0,0,-11,-255,-11,-449c0,0,0,-109,11,-125c0,0,17,-23,71,-23h43V-4c0,0,-93,4,-157,4c0,0,-49,0,-97,-4l8,134L591,82C591,82,540,26,486,3c0,0,-53,-22,-131,-22Z" 
id="f2_2h"
transform="scale(0.001,-0.001)" />

<path d="M450,58c0,0,109,0,168,87c0,0,60,87,60,211c0,0,0,130,-58,198c0,0,-57,68,-155,68c0,0,-65,0,-119,-37c0,0,-53,-38,-74,-87c0,0,-7,-20,-7,-90V239c0,0,0,-81,6,-93c0,0,12,-24,64,-56c0,0,53,-32,115,-32ZM403,-19c0,0,-56,0,-100,15c0,0,-45,14,-93,51L150,-8L124,1c0,0,15,115,15,242V717c0,0,0,110,-7,225c0,0,-3,53,-12,62c0,0,-10,10,-44,10H12v42c0,0,64,7,134,22c0,0,47,9,101,30c0,0,8,4,14,4c0,0,16,0,16,-29l-4,-37c0,0,-5,-43,-6,-64c0,0,-2,-96,-2,-263V561l91,91c0,0,29,29,76,46c0,0,48,18,101,18c0,0,120,0,198,-83c0,0,77,-83,77,-220c0,0,0,-75,-27,-146c0,0,-27,-71,-66,-115c0,0,-18,-21,-100,-80C615,72,534,12,510,1c0,0,-45,-20,-107,-20Z" 
id="f2_1y"
transform="scale(0.001,-0.001)" />

<path d="M439,33c0,0,90,0,146,69c0,0,55,69,55,208c0,0,0,113,-32,195c0,0,-33,83,-87,120c0,0,-54,38,-120,38c0,0,-59,0,-107,-30c0,0,-47,-30,-70,-80c0,0,-30,-68,-30,-147c0,0,0,-154,63,-263c0,0,63,-110,182,-110ZM390,-19c0,0,-149,0,-243,100c0,0,-93,100,-93,272c0,0,0,103,48,186c0,0,47,83,133,130c0,0,87,47,196,47c0,0,159,0,255,-94c0,0,95,-94,95,-250c0,0,0,-185,-124,-294c0,0,-112,-97,-267,-97Z" 
id="f2_2b"
transform="scale(0.001,-0.001)" />

<path d="M17,-4V38H67c0,0,58,0,68,23c0,0,15,32,15,235V587L42,580v31c0,0,53,26,108,55v95c0,0,0,72,19,118c0,0,20,45,80,107c0,0,80,83,124,109c0,0,29,17,73,17c0,0,29,0,65,-10c0,0,-2,-38,-2,-61c0,0,0,-23,2,-63l-18,-9c0,0,-44,39,-101,39c0,0,-63,0,-90,-43c0,0,-26,-42,-26,-207V658c0,0,121,1,198,8l5,-8L467,587l-92,2c0,0,-33,0,-99,-2V296c0,0,0,-209,12,-233c0,0,12,-25,75,-25h65V-4c0,0,-122,4,-175,4L17,-4Z" 
id="f2_22"
transform="scale(0.001,-0.001)" />

<path d="M280,-19c0,0,-92,0,-206,28C74,9,54,14,54,25l2,10c0,0,3,11,5,40c0,0,7,73,7,113l-1,36h46V175c0,0,0,-58,11,-73c0,0,19,-24,75,-46c0,0,57,-23,116,-23c0,0,77,0,125,42c0,0,49,41,49,99c0,0,0,45,-28,73c0,0,-29,27,-108,44c0,0,-148,29,-196,52c0,0,-48,22,-72,60c0,0,-23,37,-23,90c0,0,0,99,72,161c0,0,72,62,204,62c0,0,105,0,209,-42c0,0,-7,-51,-11,-170H491c0,0,-2,65,-14,86c0,0,-17,28,-63,50c0,0,-45,23,-96,23c0,0,-68,0,-108,-35c0,0,-41,-34,-41,-87c0,0,0,-50,32,-75c0,0,32,-26,177,-55c0,0,107,-22,142,-40c0,0,34,-19,55,-57c0,0,20,-38,20,-87c0,0,0,-101,-86,-174c0,0,-86,-72,-229,-72Z" 
id="f2_2f"
transform="scale(0.001,-0.001)" />

<path d="M431,74c0,0,59,0,109,33c0,0,50,34,73,87c0,0,23,53,23,166V542c0,0,-51,55,-107,83c0,0,-55,27,-115,27c0,0,-98,0,-157,-71c0,0,-59,-71,-59,-208c0,0,0,-140,68,-219c0,0,68,-80,165,-80ZM363,-19c0,0,-126,0,-211,94c0,0,-85,95,-85,253c0,0,0,99,33,169c0,0,33,70,78,102c0,0,46,32,142,80c0,0,73,37,136,37c0,0,42,0,87,-11c0,0,45,-12,93,-35V941c0,0,0,47,-10,59c0,0,-11,12,-48,12H514v45c0,0,133,9,248,55l14,-9c0,0,-6,-76,-9,-184L764,721l-2,-65V211c0,0,0,-125,8,-139c0,0,11,-20,61,-27l53,-7V-4c0,0,-92,6,-162,6c0,0,-12,0,-94,-6c0,0,5,50,8,142C636,138,573,89,475,1c0,0,-64,-20,-112,-20Z" 
id="f2_20"
transform="scale(0.001,-0.001)" />

<path d="M487,58c0,0,118,0,180,88c0,0,63,89,63,211c0,0,0,82,-29,140c0,0,-29,59,-84,92c0,0,-55,33,-118,33c0,0,-45,0,-87,-18c0,0,-43,-18,-75,-49c0,0,-32,-32,-41,-59c0,0,-7,-20,-7,-106V156c0,0,48,-54,96,-76c0,0,47,-22,102,-22ZM30,-410v42H85c0,0,57,0,68,25c0,0,10,25,10,262V376c0,0,0,119,-6,184c0,0,-3,31,-14,41c0,0,-12,10,-54,10H30v46c0,0,104,11,205,43l45,18c0,0,12,0,12,-21l-2,-79l-1,-53l105,93c0,0,39,35,67,44c0,0,44,14,102,14c0,0,133,0,215,-82c0,0,82,-82,82,-212c0,0,0,-65,-19,-128c0,0,-19,-63,-45,-102c0,0,-27,-40,-61,-67c0,0,-11,-9,-90,-59L615,45C615,45,558,5,524,-6c0,0,-35,-13,-80,-13c0,0,-35,0,-73,11c0,0,-39,9,-82,28V-84c0,0,0,-162,5,-228c0,0,2,-29,19,-43c0,0,16,-13,69,-13h40v-42c0,0,-141,5,-207,5c0,0,-72,0,-185,-5Z" 
id="f2_2c"
transform="scale(0.001,-0.001)" />

<path d="M380,-19c0,0,-110,0,-187,41c0,0,-76,42,-118,121c0,0,-42,79,-42,188c0,0,0,96,32,167c0,0,32,71,90,111c0,0,58,40,145,79c0,0,61,28,137,28c0,0,57,0,99,-10c0,0,41,-9,89,-33c0,0,-19,-99,-21,-198H557v38c0,0,0,47,-13,67c0,0,-14,20,-63,39c0,0,-50,20,-108,20c0,0,-101,0,-155,-62c0,0,-55,-61,-55,-183c0,0,0,-157,81,-251c0,0,72,-85,187,-85c0,0,44,0,88,11c0,0,43,11,86,32L625,83L594,35C594,35,543,8,490,-5c0,0,-54,-14,-110,-14Z" 
id="f2_1z"
transform="scale(0.001,-0.001)" />

<path d="M313,-11c0,0,-63,215,-142,469L123,607c0,0,-9,25,-28,38c0,0,-19,13,-44,13H14v43c0,0,118,-5,182,-5c0,0,62,0,183,5V658H338c0,0,-46,0,-63,-10c0,0,-13,-8,-13,-24c0,0,0,-37,127,-462L550,514c0,0,37,82,84,200h37c0,0,32,-91,66,-175L891,149l114,306c0,0,33,90,43,135c0,0,3,19,3,30c0,0,0,17,-15,28c0,0,-15,10,-47,10H939v43c0,0,98,-5,174,-5c0,0,66,0,127,5V658h-34c0,0,-26,0,-49,-26c0,0,-23,-27,-129,-274c0,0,-88,-207,-137,-369H818c0,0,-33,92,-109,282L614,511C614,511,510,290,446,138c0,0,-29,-68,-57,-149Z" 
id="f2_2j"
transform="scale(0.001,-0.001)" />

<path d="M37,-4V38l64,5c0,0,43,4,49,22c0,0,9,29,9,265V854l-3,97c0,0,0,37,-8,45c0,0,-12,12,-50,12H37v45c0,0,156,14,248,59l13,-9c0,0,-12,-219,-12,-396V324c0,0,0,-228,9,-259c0,0,5,-16,49,-20l64,-7V-4c0,0,-82,4,-156,4C252,0,170,0,37,-4Z" 
id="f2_28"
transform="scale(0.001,-0.001)" />

<path d="M296,69c0,0,56,0,107,32c0,0,51,31,97,93l-2,165l2,36c0,0,-207,-45,-263,-84c0,0,-56,-39,-56,-120c0,0,0,-55,32,-88c0,0,32,-34,83,-34ZM249,-19c0,0,-97,0,-147,47c0,0,-51,47,-51,127c0,0,0,75,36,131c0,0,36,56,103,83c0,0,67,27,310,70c0,0,-2,95,-42,142c0,0,-51,58,-145,58c0,0,-35,0,-67,-8c0,0,-31,-9,-58,-27c0,0,-21,-53,-39,-101l-42,11V615l81,46c0,0,55,32,97,44c0,0,41,12,88,12c0,0,103,0,166,-47c0,0,63,-46,76,-117c0,0,9,-54,11,-267c0,0,2,-200,9,-221c0,0,7,-21,37,-21h59V-4c0,0,-85,4,-119,4c0,0,-42,0,-112,-4l1,66c0,0,0,32,-1,65L345,9c0,0,-20,-15,-41,-21c0,0,-20,-7,-55,-7Z" 
id="f2_1x"
transform="scale(0.001,-0.001)" />

<path d="M128,-430c0,0,-21,0,-44,7c0,0,-23,6,-46,19l34,117H90c0,0,20,-25,40,-37c0,0,20,-12,41,-12c0,0,47,0,85,45c0,0,38,44,117,249c0,0,-33,86,-131,329L173,458L117,589c0,0,-26,69,-78,69H9v43c0,0,77,-5,137,-5c0,0,46,0,215,5V658H306c0,0,-28,0,-41,-10c0,0,-13,-9,-13,-24c0,0,0,-11,14,-51c0,0,75,-207,177,-444c0,0,99,217,172,418c0,0,22,59,22,71c0,0,0,24,-51,32l-55,8v43c0,0,88,-5,157,-5c0,0,65,0,130,5V658H792c0,0,-17,0,-35,-10c0,0,-18,-10,-29,-28c0,0,-24,-38,-138,-290c0,0,-32,-69,-160,-374c0,0,-114,-259,-128,-284c0,0,-30,-49,-75,-76c0,0,-46,-26,-99,-26Z" 
id="f2_2l"
transform="scale(0.001,-0.001)" />

<path d="M399,69c0,0,49,0,96,24c0,0,46,24,95,82V317c0,0,-2,215,-5,259c0,0,-46,42,-90,59c0,0,-43,17,-96,17c0,0,-101,0,-163,-73c0,0,-62,-74,-62,-210c0,0,0,-141,66,-220c0,0,66,-80,159,-80Zm58,-479v43h40c0,0,68,0,80,27c0,0,13,26,13,263V97C590,97,501,45,415,-10c0,0,-20,-4,-38,-6c0,0,-18,-3,-33,-3c0,0,-130,0,-215,92c0,0,-85,92,-85,246c0,0,0,102,31,171c0,0,32,70,90,112c0,0,15,10,137,78c0,0,65,36,148,36c0,0,50,0,98,-13c0,0,49,-13,98,-40l78,51l28,-17c0,0,-23,-68,-28,-117c0,0,-8,-74,-8,-250V-82c0,0,0,-228,14,-256c0,0,14,-29,85,-29h34v-43l-118,4l-93,1c0,0,-35,0,-181,-5Z" 
id="f2_2d"
transform="scale(0.001,-0.001)" />

<path d="M600,-22c0,0,-38,26,-64,59c0,0,-17,21,-165,244c0,0,-70,-86,-108,-139c0,0,-38,-53,-96,-146c0,0,-31,4,-57,4C110,0,83,0,37,-4V41c0,0,38,0,52,7c0,0,13,6,73,73c0,0,86,96,174,207c0,0,-138,206,-179,242c0,0,-41,35,-87,35c0,0,-13,0,-33,-2v40l143,70c0,0,47,-19,77,-54c0,0,50,-55,159,-234c0,0,98,129,198,276c0,0,29,-5,49,-5c0,0,15,0,65,5V658c0,0,-40,-2,-65,-24c0,0,-40,-35,-214,-252c0,0,101,-149,169,-237c0,0,46,-61,74,-76c0,0,18,-10,57,-10V16C749,16,680,0,600,-22Z" 
id="f2_2k"
transform="scale(0.001,-0.001)" />

<path d="M33,-221l-22,23c0,0,65,100,95,182c0,0,30,80,41,175c0,0,86,21,152,47l21,-22C320,184,277,80,228,-2c0,0,-50,-84,-132,-187L33,-221Z" 
id="f2_g"
transform="scale(0.001,-0.001)" />

<path d="M192,-19c0,0,-37,0,-63,25c0,0,-25,26,-25,62c0,0,0,37,25,62c0,0,26,25,63,25c0,0,36,0,61,-25c0,0,26,-25,26,-62c0,0,0,-36,-26,-62c0,0,-25,-25,-61,-25Z" 
id="f2_i"
transform="scale(0.001,-0.001)" />

<path d="M697,-17c0,0,-44,35,-208,200c0,0,-119,120,-194,186h-9V274c0,0,0,-188,12,-212c0,0,12,-24,75,-24h45V-4l-40,2c0,0,-108,2,-142,2L37,-4V38H81c0,0,58,0,68,22c0,0,10,22,10,213V719c0,0,0,247,-11,277c0,0,-7,18,-58,18H26v43c0,0,63,0,180,31l75,24c0,0,12,0,12,-15l-3,-75c0,0,-2,-28,-4,-312V410l9,-5c0,0,68,51,115,91c0,0,25,21,112,104L629,701H779V658H753c0,0,-26,0,-67,-25c0,0,-82,-48,-268,-203c0,0,140,-146,172,-175c0,0,148,-137,179,-162c0,0,19,-15,32,-21c0,0,13,-5,38,-8V30C839,30,774,1,697,-17Z" 
id="f2_27"
transform="scale(0.001,-0.001)" />

<path d="M30,-4V37L289,305c0,0,147,152,197,247c0,0,49,95,49,176c0,0,0,101,-58,161c0,0,-58,60,-153,60c0,0,-63,0,-113,-22c0,0,-37,-16,-53,-41c0,0,-15,-25,-46,-139H67c0,0,23,146,25,211c0,0,56,59,121,86c0,0,65,27,147,27c0,0,144,0,230,-82c0,0,85,-82,85,-214c0,0,0,-115,-77,-225c0,0,-77,-111,-259,-278L194,123H466c0,0,174,0,260,11l8,-7c0,0,-7,-42,-7,-60c0,0,0,-14,7,-67l-8,-4c0,0,-148,4,-328,4C398,0,209,0,30,-4Z" 
id="f2_m"
transform="scale(0.001,-0.001)" />

<path d="M165,-326l-55,3c0,0,-18,0,-56,-3c0,0,29,59,50,110L613,1011c0,0,23,56,35,101c0,0,49,-6,75,-6l43,1c0,0,-29,-56,-47,-99L198,-235c0,0,-20,-47,-33,-91Z" 
id="f2_j"
transform="scale(0.001,-0.001)" />

<path d="M264,-19c0,0,-46,0,-92,10c0,0,-45,9,-91,28c0,0,-15,91,-60,224l41,17c0,0,47,-108,75,-142c0,0,29,-33,76,-53c0,0,46,-20,111,-20c0,0,112,0,175,69c0,0,63,69,63,193c0,0,0,105,-54,162c0,0,-53,58,-140,58c0,0,-67,0,-142,-38l-10,7l14,86c0,0,39,-5,59,-5c0,0,91,0,149,57c0,0,58,56,58,148c0,0,0,83,-50,134c0,0,-51,50,-133,50c0,0,-54,0,-103,-23c0,0,-50,-24,-74,-54c0,0,-10,-13,-25,-60L93,776H47L87,959c0,0,48,56,113,84c0,0,65,28,148,28c0,0,126,0,199,-65c0,0,73,-65,73,-160c0,0,0,-65,-31,-120c0,0,-32,-56,-128,-135c0,0,48,0,98,-19c0,0,70,-26,106,-79c0,0,36,-52,36,-126c0,0,0,-150,-129,-268C572,99,443,-19,264,-19Z" 
id="f2_n"
transform="scale(0.001,-0.001)" />

<path d="M245,-4V42h63c0,0,49,0,64,13c0,0,15,13,19,51c0,0,7,87,7,225V757c0,0,0,126,-5,232H317c0,0,-183,0,-202,-9c0,0,-19,-9,-24,-67L80,814H33l2,88c0,0,0,54,-10,154c0,0,403,-5,473,-5l412,5c0,0,-14,-126,-16,-242H847l-8,97c0,0,-4,51,-12,60c0,0,-9,9,-37,12c0,0,-82,6,-186,6H546c0,0,-8,-112,-8,-236V328c0,0,0,-237,12,-262c0,0,12,-24,84,-24h56V-4c0,0,-131,4,-223,4c0,0,-92,0,-222,-4Z" 
id="f2_1k"
transform="scale(0.001,-0.001)" />

<path d="M409,-377c0,0,82,0,145,30c0,0,62,31,97,84c0,0,34,54,34,111c0,0,0,48,-24,85c0,0,-24,37,-57,47c0,0,-18,5,-79,5H351c0,0,-53,0,-72,-12c0,0,-62,-40,-76,-65c0,0,-22,-39,-22,-98c0,0,0,-81,60,-134c0,0,60,-53,168,-53ZM395,280c0,0,71,0,116,47c0,0,44,48,44,133c0,0,0,93,-47,150c0,0,-48,57,-121,57c0,0,-72,0,-115,-46c0,0,-44,-47,-44,-129c0,0,0,-99,47,-156c0,0,48,-56,120,-56ZM382,-430c0,0,-154,0,-237,67c0,0,-82,66,-82,164c0,0,0,60,43,122c0,0,78,37,131,74c0,0,-62,19,-80,36c0,0,-17,17,-17,43c0,0,0,31,17,62c0,0,10,18,49,45l73,52c0,0,-89,22,-129,63c0,0,-52,55,-52,141c0,0,0,75,39,137c0,0,38,62,114,98c0,0,96,46,186,46c0,0,56,0,99,-15c0,0,43,-15,88,-51h63c0,0,97,0,151,7l8,-16c0,0,-22,-32,-39,-68H668c0,0,17,-48,17,-78c0,0,0,-67,-40,-128c0,0,-40,-62,-115,-100c0,0,-75,-37,-161,-37l-36,1c0,0,-49,-37,-62,-55c0,0,-13,-18,-13,-35c0,0,0,-28,29,-45c0,0,29,-16,119,-16c0,0,34,0,98,3c0,0,92,4,133,4c0,0,59,0,91,-19c0,0,31,-19,53,-67c0,0,23,-46,23,-106c0,0,0,-83,-51,-160c0,0,-51,-77,-148,-123c0,0,-97,-46,-223,-46Z" 
id="f2_23"
transform="scale(0.001,-0.001)" />


</defs>
</svg>