<?xml version="1.0" encoding="UTF-8" standalone="no"?>
<!DOCTYPE svg PUBLIC "-//W3C//DTD SVG 1.1//EN"
"http://www.w3.org/Graphics/SVG/1.1/DTD/svg11.dtd">
<svg viewBox="0 0 909 1286" version="1.1" xmlns="http://www.w3.org/2000/svg" xmlns:xlink="http://www.w3.org/1999/xlink">
<defs>
<style type="text/css"><![CDATA[
.g0_46{
}
]]></style>
</defs>
<g fill="#000000" >
<use xlink:href="#f0_1g" transform="matrix(18,0,0,18,390.9,117.7)" />
<use xlink:href="#f0_2e" transform="matrix(18,0,0,18,407.7,117.7)" />
<use xlink:href="#f0_2b" transform="matrix(18,0,0,18,418.6,117.7)" />
<use xlink:href="#f0_1y" transform="matrix(18,0,0,18,433.9,117.7)" />
<use xlink:href="#f0_1x" transform="matrix(18,0,0,18,450.7,117.7)" />
<use xlink:href="#f0_1y" transform="matrix(18,0,0,18,464.5,117.7)" />
<use xlink:href="#f0_25" transform="matrix(18,0,0,18,481.3,117.7)" />
<use xlink:href="#f0_28" transform="matrix(18,0,0,18,490.4,117.7)" />
<use xlink:href="#f0_25" transform="matrix(18,0,0,18,499.6,117.7)" />
<use xlink:href="#f0_2g" transform="matrix(18,0,0,18,508.8,117.7)" />
<use xlink:href="#f0_2l" transform="matrix(18,0,0,18,517.9,117.7)" />
</g>
<path fill-rule="evenodd" d="M390.9,123H533.2v-1.6H390.9V123Z" class="g0_46" />
<g fill="#000000" >
<use xlink:href="#f0_1g" transform="matrix(14,0,0,14,55,159.9)" />
<use xlink:href="#f0_2e" transform="matrix(14,0,0,14,68,159.9)" />
<use xlink:href="#f0_2b" transform="matrix(14,0,0,14,76.4,159.9)" />
<use xlink:href="#f0_2c" transform="matrix(14,0,0,14,88.4,159.9)" />
<use xlink:href="#f0_21" transform="matrix(14,0,0,14,101.4,159.9)" />
<use xlink:href="#f0_2e" transform="matrix(14,0,0,14,112.1,159.9)" />
<use xlink:href="#f0_2g" transform="matrix(14,0,0,14,120.4,159.9)" />
<use xlink:href="#f0_2l" transform="matrix(14,0,0,14,127.5,159.9)" />
<use xlink:href="#f0_m" transform="matrix(14,0,0,14,144.8,159.9)" />
<use xlink:href="#f1_19" transform="matrix(12,0,0,12,59.6,195.5)" />
<use xlink:href="#f1_22" transform="matrix(12,0,0,12,65.8,195.5)" />
<use xlink:href="#f1_11" transform="matrix(12,0,0,12,76.5,195.5)" />
<use xlink:href="#f1_1x" transform="matrix(12,0,0,12,95.3,195.5)" />
<use xlink:href="#f1_2a" transform="matrix(12,0,0,12,104.5,195.5)" />
<use xlink:href="#f1_20" transform="matrix(12,0,0,12,115.1,195.5)" />
<use xlink:href="#f1_12" transform="matrix(12,0,0,12,130.9,195.5)" />
<use xlink:href="#f1_1x" transform="matrix(12,0,0,12,146.7,195.5)" />
<use xlink:href="#f1_2e" transform="matrix(12,0,0,12,155.9,195.5)" />
<use xlink:href="#f1_21" transform="matrix(12,0,0,12,163.1,195.5)" />
<use xlink:href="#f1_1x" transform="matrix(12,0,0,12,176.5,195.5)" />
<use xlink:href="#f1_2a" transform="matrix(12,0,0,12,185.7,195.5)" />
<use xlink:href="#f1_2l" transform="matrix(12,0,0,12,196.4,195.5)" />
<use xlink:href="#f1_2g" transform="matrix(12,0,0,12,211.1,195.5)" />
<use xlink:href="#f1_2j" transform="matrix(12,0,0,12,217.2,195.5)" />
<use xlink:href="#f1_2b" transform="matrix(12,0,0,12,232.4,195.5)" />
<use xlink:href="#f1_21" transform="matrix(12,0,0,12,246.9,195.5)" />
<use xlink:href="#f1_2i" transform="matrix(12,0,0,12,255.7,195.5)" />
<use xlink:href="#f1_21" transform="matrix(12,0,0,12,266.1,195.5)" />
<use xlink:href="#f1_2a" transform="matrix(12,0,0,12,274.9,195.5)" />
<use xlink:href="#f1_2g" transform="matrix(12,0,0,12,285.6,195.5)" />
<use xlink:href="#f1_2f" transform="matrix(12,0,0,12,291.6,195.5)" />
<use xlink:href="#f1_2b" transform="matrix(12,0,0,12,303.9,195.5)" />
<use xlink:href="#f1_22" transform="matrix(12,0,0,12,314,195.5)" />
<use xlink:href="#f1_1x" transform="matrix(12,0,0,12,324.6,195.5)" />
<use xlink:href="#f1_2f" transform="matrix(12,0,0,12,338.4,195.5)" />
<use xlink:href="#f1_1x" transform="matrix(12,0,0,12,346,195.5)" />
<use xlink:href="#f1_29" transform="matrix(12,0,0,12,355.2,195.5)" />
<use xlink:href="#f1_2c" transform="matrix(12,0,0,12,371.3,195.5)" />
<use xlink:href="#f1_28" transform="matrix(12,0,0,12,382.4,195.5)" />
<use xlink:href="#f1_21" transform="matrix(12,0,0,12,387.7,195.5)" />
<use xlink:href="#f1_2f" transform="matrix(12,0,0,12,401.1,195.5)" />
<use xlink:href="#f1_2c" transform="matrix(12,0,0,12,408.7,195.5)" />
<use xlink:href="#f1_1x" transform="matrix(12,0,0,12,419.8,195.5)" />
<use xlink:href="#f1_1z" transform="matrix(12,0,0,12,429.1,195.5)" />
<use xlink:href="#f1_21" transform="matrix(12,0,0,12,437.1,195.5)" />
<use xlink:href="#f1_1j" transform="matrix(12,0,0,12,450.5,195.5)" />
<use xlink:href="#f1_1x" transform="matrix(12,0,0,12,464.6,195.5)" />
<use xlink:href="#f1_2a" transform="matrix(12,0,0,12,473.8,195.5)" />
<use xlink:href="#f1_20" transform="matrix(12,0,0,12,484.5,195.5)" />
<use xlink:href="#f1_16" transform="matrix(12,0,0,12,500.2,195.5)" />
<use xlink:href="#f1_25" transform="matrix(12,0,0,12,515,195.5)" />
<use xlink:href="#f1_2f" transform="matrix(12,0,0,12,520.4,195.5)" />
<use xlink:href="#f1_1x" transform="matrix(12,0,0,12,532.6,195.5)" />
<use xlink:href="#f1_2a" transform="matrix(12,0,0,12,541.8,195.5)" />
<use xlink:href="#f1_21" transform="matrix(12,0,0,12,557.1,195.5)" />
<use xlink:href="#f1_2i" transform="matrix(12,0,0,12,565.8,195.5)" />
<use xlink:href="#f1_21" transform="matrix(12,0,0,12,576.3,195.5)" />
<use xlink:href="#f1_2a" transform="matrix(12,0,0,12,585,195.5)" />
<use xlink:href="#f1_2g" transform="matrix(12,0,0,12,595.7,195.5)" />
<use xlink:href="#f1_2b" transform="matrix(12,0,0,12,606.6,195.5)" />
<use xlink:href="#f1_22" transform="matrix(12,0,0,12,616.6,195.5)" />
<use xlink:href="#f1_1j" transform="matrix(12,0,0,12,627.3,195.5)" />
<use xlink:href="#f1_2f" transform="matrix(12,0,0,12,641.4,195.5)" />
<use xlink:href="#f1_2h" transform="matrix(12,0,0,12,649.1,195.5)" />
<use xlink:href="#f1_1z" transform="matrix(12,0,0,12,660.3,195.5)" />
<use xlink:href="#f1_24" transform="matrix(12,0,0,12,668.3,195.5)" />
<use xlink:href="#f1_2g" transform="matrix(12,0,0,12,683.6,195.5)" />
<use xlink:href="#f1_24" transform="matrix(12,0,0,12,689.6,195.5)" />
<use xlink:href="#f1_1x" transform="matrix(12,0,0,12,700.2,195.5)" />
<use xlink:href="#f1_2g" transform="matrix(12,0,0,12,709.4,195.5)" />
<use xlink:href="#f1_1g" transform="matrix(12,0,0,12,720.1,195.5)" />
<use xlink:href="#f1_c" transform="matrix(12,0,0,12,735.7,195.5)" />
<use xlink:href="#f2_16" transform="matrix(12,0,0,12,741.7,195.5)" />
<use xlink:href="#f2_d" transform="matrix(12,0,0,12,752,195.5)" />
<use xlink:href="#f2_40" transform="matrix(12,0,0,12,762.7,195.5)" />
<use xlink:href="#f2_k" transform="matrix(12,0,0,12,777.3,195.5)" />
<use xlink:href="#f2_g" transform="matrix(12,0,0,12,786.5,195.5)" />
<use xlink:href="#f2_2g" transform="matrix(12,0,0,12,795.7,195.5)" />
<use xlink:href="#f2_24" transform="matrix(12,0,0,12,801.8,195.5)" />
<use xlink:href="#f2_21" transform="matrix(12,0,0,12,812.5,195.5)" />
<use xlink:href="#f2_2a" transform="matrix(12,0,0,12,821.3,195.5)" />
<use xlink:href="#f1_19" transform="matrix(12,0,0,12,55,272.5)" />
<use xlink:href="#f1_2a" transform="matrix(12,0,0,12,61.2,272.5)" />
<use xlink:href="#f1_2c" transform="matrix(12,0,0,12,76.4,272.5)" />
<use xlink:href="#f1_1x" transform="matrix(12,0,0,12,87.5,272.5)" />
<use xlink:href="#f1_2e" transform="matrix(12,0,0,12,96.6,272.5)" />
<use xlink:href="#f1_2g" transform="matrix(12,0,0,12,103.9,272.5)" />
<use xlink:href="#f1_25" transform="matrix(12,0,0,12,110,272.5)" />
<use xlink:href="#f1_1z" transform="matrix(12,0,0,12,115.3,272.5)" />
<use xlink:href="#f1_2h" transform="matrix(12,0,0,12,123.3,272.5)" />
<use xlink:href="#f1_28" transform="matrix(12,0,0,12,134.4,272.5)" />
<use xlink:href="#f1_1x" transform="matrix(12,0,0,12,139.7,272.5)" />
<use xlink:href="#f1_2e" transform="matrix(12,0,0,12,148.8,272.5)" />
<use xlink:href="#f1_g" transform="matrix(12,0,0,12,156.1,272.5)" />
<use xlink:href="#f1_25" transform="matrix(12,0,0,12,165.3,272.5)" />
<use xlink:href="#f1_22" transform="matrix(12,0,0,12,170.6,272.5)" />
<use xlink:href="#f1_11" transform="matrix(12,0,0,12,181.3,272.5)" />
<use xlink:href="#f1_1x" transform="matrix(12,0,0,12,200.1,272.5)" />
<use xlink:href="#f1_2a" transform="matrix(12,0,0,12,209.3,272.5)" />
<use xlink:href="#f1_20" transform="matrix(12,0,0,12,219.9,272.5)" />
<use xlink:href="#f1_12" transform="matrix(12,0,0,12,235.7,272.5)" />
<use xlink:href="#f1_1x" transform="matrix(12,0,0,12,251.5,272.5)" />
<use xlink:href="#f1_2e" transform="matrix(12,0,0,12,260.7,272.5)" />
<use xlink:href="#f1_21" transform="matrix(12,0,0,12,267.9,272.5)" />
<use xlink:href="#f1_20" transform="matrix(12,0,0,12,281.3,272.5)" />
<use xlink:href="#f1_25" transform="matrix(12,0,0,12,292.5,272.5)" />
<use xlink:href="#f1_2f" transform="matrix(12,0,0,12,297.9,272.5)" />
<use xlink:href="#f1_26" transform="matrix(12,0,0,12,305.5,272.5)" />
<use xlink:href="#f1_2b" transform="matrix(12,0,0,12,309.8,272.5)" />
<use xlink:href="#f1_25" transform="matrix(12,0,0,12,319.8,272.5)" />
<use xlink:href="#f1_2a" transform="matrix(12,0,0,12,325.2,272.5)" />
<use xlink:href="#f1_2g" transform="matrix(12,0,0,12,335.8,272.5)" />
<use xlink:href="#f1_21" transform="matrix(12,0,0,12,346.4,272.5)" />
<use xlink:href="#f1_2i" transform="matrix(12,0,0,12,355.2,272.5)" />
<use xlink:href="#f1_21" transform="matrix(12,0,0,12,365.6,272.5)" />
<use xlink:href="#f1_2a" transform="matrix(12,0,0,12,374.4,272.5)" />
<use xlink:href="#f1_2g" transform="matrix(12,0,0,12,385.1,272.5)" />
<use xlink:href="#f1_2f" transform="matrix(12,0,0,12,391.1,272.5)" />
<use xlink:href="#f1_g" transform="matrix(12,0,0,12,398.8,272.5)" />
<use xlink:href="#f0_1g" transform="matrix(14,0,0,14,55,827.1)" />
<use xlink:href="#f0_2e" transform="matrix(14,0,0,14,68,827.1)" />
<use xlink:href="#f0_2b" transform="matrix(14,0,0,14,76.4,827.1)" />
<use xlink:href="#f0_2c" transform="matrix(14,0,0,14,88.4,827.1)" />
<use xlink:href="#f0_21" transform="matrix(14,0,0,14,101.4,827.1)" />
<use xlink:href="#f0_2e" transform="matrix(14,0,0,14,112.1,827.1)" />
<use xlink:href="#f0_2g" transform="matrix(14,0,0,14,120.4,827.1)" />
<use xlink:href="#f0_2l" transform="matrix(14,0,0,14,127.5,827.1)" />
<use xlink:href="#f0_n" transform="matrix(14,0,0,14,144.8,827.1)" />
</g>
<g fill="#C00000" >
<use xlink:href="#f0_1d" transform="matrix(14,0,0,14,55,1030.1)" />
<use xlink:href="#f0_2h" transform="matrix(14,0,0,14,76.5,1030.1)" />
<use xlink:href="#f0_28" transform="matrix(14,0,0,14,89.5,1030.1)" />
<use xlink:href="#f0_2g" transform="matrix(14,0,0,14,96.6,1030.1)" />
<use xlink:href="#f0_25" transform="matrix(14,0,0,14,103.8,1030.1)" />
<use xlink:href="#f0_2c" transform="matrix(14,0,0,14,110.9,1030.1)" />
<use xlink:href="#f0_28" transform="matrix(14,0,0,14,123.9,1030.1)" />
<use xlink:href="#f0_25" transform="matrix(14,0,0,14,131.1,1030.1)" />
<use xlink:href="#f0_1z" transform="matrix(14,0,0,14,138.2,1030.1)" />
<use xlink:href="#f0_1x" transform="matrix(14,0,0,14,147.7,1030.1)" />
<use xlink:href="#f0_2g" transform="matrix(14,0,0,14,158.4,1030.1)" />
<use xlink:href="#f0_25" transform="matrix(14,0,0,14,165.6,1030.1)" />
<use xlink:href="#f0_2b" transform="matrix(14,0,0,14,172.7,1030.1)" />
<use xlink:href="#f0_2a" transform="matrix(14,0,0,14,184.6,1030.1)" />
<use xlink:href="#f0_1k" transform="matrix(14,0,0,14,203,1030.1)" />
<use xlink:href="#f0_24" transform="matrix(14,0,0,14,217.3,1030.1)" />
<use xlink:href="#f0_21" transform="matrix(14,0,0,14,230.3,1030.1)" />
<use xlink:href="#f0_2b" transform="matrix(14,0,0,14,240.9,1030.1)" />
<use xlink:href="#f0_2e" transform="matrix(14,0,0,14,252.8,1030.1)" />
<use xlink:href="#f0_21" transform="matrix(14,0,0,14,261.2,1030.1)" />
<use xlink:href="#f0_29" transform="matrix(14,0,0,14,271.9,1030.1)" />
<use xlink:href="#f0_2b" transform="matrix(14,0,0,14,296.3,1030.1)" />
<use xlink:href="#f0_2a" transform="matrix(14,0,0,14,308.2,1030.1)" />
<use xlink:href="#f0_1g" transform="matrix(14,0,0,14,326.6,1030.1)" />
<use xlink:href="#f0_2e" transform="matrix(14,0,0,14,339.5,1030.1)" />
<use xlink:href="#f0_2b" transform="matrix(14,0,0,14,347.9,1030.1)" />
<use xlink:href="#f0_1y" transform="matrix(14,0,0,14,359.9,1030.1)" />
<use xlink:href="#f0_1x" transform="matrix(14,0,0,14,372.9,1030.1)" />
<use xlink:href="#f0_1y" transform="matrix(14,0,0,14,383.7,1030.1)" />
<use xlink:href="#f0_25" transform="matrix(14,0,0,14,396.7,1030.1)" />
<use xlink:href="#f0_28" transform="matrix(14,0,0,14,403.8,1030.1)" />
<use xlink:href="#f0_25" transform="matrix(14,0,0,14,411,1030.1)" />
<use xlink:href="#f0_2g" transform="matrix(14,0,0,14,418.1,1030.1)" />
<use xlink:href="#f0_2l" transform="matrix(14,0,0,14,425.1,1030.1)" />
</g>
<g fill="#000000" >
<use xlink:href="#f3_3d" transform="matrix(12,0,0,12,55,1066.4)" />
<use xlink:href="#f1_1c" transform="matrix(12,0,0,12,82.5,1066.4)" />
<use xlink:href="#f1_21" transform="matrix(12,0,0,12,93.7,1066.4)" />
<use xlink:href="#f1_2g" transform="matrix(12,0,0,12,102.5,1066.4)" />
<use xlink:href="#f1_15" transform="matrix(12,0,0,12,113.1,1066.4)" />
<use xlink:href="#f1_1x" transform="matrix(12,0,0,12,128.9,1066.4)" />
<use xlink:href="#f1_2a" transform="matrix(12,0,0,12,138.1,1066.4)" />
<use xlink:href="#f1_20" transform="matrix(12,0,0,12,148.7,1066.4)" />
<use xlink:href="#f1_16" transform="matrix(12,0,0,12,164.5,1066.4)" />
<use xlink:href="#f1_1y" transform="matrix(12,0,0,12,179.3,1066.4)" />
<use xlink:href="#f1_21" transform="matrix(12,0,0,12,189.5,1066.4)" />
<use xlink:href="#f1_2g" transform="matrix(12,0,0,12,202.8,1066.4)" />
<use xlink:href="#f1_2j" transform="matrix(12,0,0,12,208.8,1066.4)" />
<use xlink:href="#f1_2b" transform="matrix(12,0,0,12,224.1,1066.4)" />
<use xlink:href="#f1_21" transform="matrix(12,0,0,12,238.7,1066.4)" />
<use xlink:href="#f1_2i" transform="matrix(12,0,0,12,247.5,1066.4)" />
<use xlink:href="#f1_21" transform="matrix(12,0,0,12,257.9,1066.4)" />
<use xlink:href="#f1_2a" transform="matrix(12,0,0,12,266.6,1066.4)" />
<use xlink:href="#f1_2g" transform="matrix(12,0,0,12,277.2,1066.4)" />
<use xlink:href="#f1_2f" transform="matrix(12,0,0,12,283.2,1066.4)" />
<use xlink:href="#f1_1x" transform="matrix(12,0,0,12,295.6,1066.4)" />
<use xlink:href="#f1_2f" transform="matrix(12,0,0,12,304.7,1066.4)" />
<use xlink:href="#f1_2f" transform="matrix(12,0,0,12,312.4,1066.4)" />
<use xlink:href="#f1_2b" transform="matrix(12,0,0,12,320.1,1066.4)" />
<use xlink:href="#f1_1z" transform="matrix(12,0,0,12,330.2,1066.4)" />
<use xlink:href="#f1_25" transform="matrix(12,0,0,12,338.2,1066.4)" />
<use xlink:href="#f1_1x" transform="matrix(12,0,0,12,343.6,1066.4)" />
<use xlink:href="#f1_2g" transform="matrix(12,0,0,12,352.7,1066.4)" />
<use xlink:href="#f1_21" transform="matrix(12,0,0,12,358.7,1066.4)" />
<use xlink:href="#f1_20" transform="matrix(12,0,0,12,367.5,1066.4)" />
<use xlink:href="#f1_2j" transform="matrix(12,0,0,12,383.3,1066.4)" />
<use xlink:href="#f1_25" transform="matrix(12,0,0,12,398.5,1066.4)" />
<use xlink:href="#f1_2g" transform="matrix(12,0,0,12,403.9,1066.4)" />
<use xlink:href="#f1_24" transform="matrix(12,0,0,12,409.9,1066.4)" />
<use xlink:href="#f1_1x" transform="matrix(12,0,0,12,425.1,1066.4)" />
<use xlink:href="#f1_2f" transform="matrix(12,0,0,12,438.9,1066.4)" />
<use xlink:href="#f1_1x" transform="matrix(12,0,0,12,446.7,1066.4)" />
<use xlink:href="#f1_29" transform="matrix(12,0,0,12,455.9,1066.4)" />
<use xlink:href="#f1_2c" transform="matrix(12,0,0,12,472,1066.4)" />
<use xlink:href="#f1_28" transform="matrix(12,0,0,12,483,1066.4)" />
<use xlink:href="#f1_21" transform="matrix(12,0,0,12,488.4,1066.4)" />
<use xlink:href="#f1_2f" transform="matrix(12,0,0,12,501.7,1066.4)" />
<use xlink:href="#f1_2c" transform="matrix(12,0,0,12,509.4,1066.4)" />
<use xlink:href="#f1_1x" transform="matrix(12,0,0,12,520.4,1066.4)" />
<use xlink:href="#f1_1z" transform="matrix(12,0,0,12,529.6,1066.4)" />
<use xlink:href="#f1_21" transform="matrix(12,0,0,12,537.6,1066.4)" />
<use xlink:href="#f1_1j" transform="matrix(12,0,0,12,551.2,1066.4)" />
<use xlink:href="#f1_i" transform="matrix(12,0,0,12,560.7,1066.4)" />
<use xlink:href="#f3_3d" transform="matrix(12,0,0,12,55,1090.1)" />
<use xlink:href="#f1_13" transform="matrix(12,0,0,12,82.5,1090.1)" />
<use xlink:href="#f1_2b" transform="matrix(12,0,0,12,95.5,1090.1)" />
<use xlink:href="#f1_2a" transform="matrix(12,0,0,12,105.6,1090.1)" />
<use xlink:href="#f1_20" transform="matrix(12,0,0,12,116.3,1090.1)" />
<use xlink:href="#f1_25" transform="matrix(12,0,0,12,127.4,1090.1)" />
<use xlink:href="#f1_2g" transform="matrix(12,0,0,12,132.7,1090.1)" />
<use xlink:href="#f1_25" transform="matrix(12,0,0,12,138.7,1090.1)" />
<use xlink:href="#f1_2b" transform="matrix(12,0,0,12,144.1,1090.1)" />
<use xlink:href="#f1_2a" transform="matrix(12,0,0,12,154.1,1090.1)" />
<use xlink:href="#f1_1x" transform="matrix(12,0,0,12,164.8,1090.1)" />
<use xlink:href="#f1_28" transform="matrix(12,0,0,12,174,1090.1)" />
<use xlink:href="#f1_2c" transform="matrix(12,0,0,12,210.6,1090.1)" />
<use xlink:href="#f1_2e" transform="matrix(12,0,0,12,221.6,1090.1)" />
<use xlink:href="#f1_2b" transform="matrix(12,0,0,12,228.9,1090.1)" />
<use xlink:href="#f1_1y" transform="matrix(12,0,0,12,239,1090.1)" />
<use xlink:href="#f1_1x" transform="matrix(12,0,0,12,249.1,1090.1)" />
<use xlink:href="#f1_1y" transform="matrix(12,0,0,12,258.2,1090.1)" />
<use xlink:href="#f1_25" transform="matrix(12,0,0,12,268.1,1090.1)" />
<use xlink:href="#f1_28" transform="matrix(12,0,0,12,273.4,1090.1)" />
<use xlink:href="#f1_25" transform="matrix(12,0,0,12,278.8,1090.1)" />
<use xlink:href="#f1_2g" transform="matrix(12,0,0,12,284.1,1090.1)" />
<use xlink:href="#f1_2l" transform="matrix(12,0,0,12,290.1,1090.1)" />
<use xlink:href="#f1_2b" transform="matrix(12,0,0,12,331.7,1090.1)" />
<use xlink:href="#f1_22" transform="matrix(12,0,0,12,341.7,1090.1)" />
<use xlink:href="#f1_21" transform="matrix(12,0,0,12,379.1,1090.1)" />
<use xlink:href="#f1_2i" transform="matrix(12,0,0,12,387.9,1090.1)" />
<use xlink:href="#f1_21" transform="matrix(12,0,0,12,398.3,1090.1)" />
<use xlink:href="#f1_2a" transform="matrix(12,0,0,12,407.1,1090.1)" />
<use xlink:href="#f1_2g" transform="matrix(12,0,0,12,417.8,1090.1)" />
<use xlink:href="#f1_15" transform="matrix(12,0,0,12,455,1090.1)" />
<use xlink:href="#f1_23" transform="matrix(12,0,0,12,497.5,1090.1)" />
<use xlink:href="#f1_25" transform="matrix(12,0,0,12,507.7,1090.1)" />
<use xlink:href="#f1_2i" transform="matrix(12,0,0,12,513.1,1090.1)" />
<use xlink:href="#f1_21" transform="matrix(12,0,0,12,523.5,1090.1)" />
<use xlink:href="#f1_2a" transform="matrix(12,0,0,12,532.3,1090.1)" />
<use xlink:href="#f1_2g" transform="matrix(12,0,0,12,574.2,1090.1)" />
<use xlink:href="#f1_24" transform="matrix(12,0,0,12,580.3,1090.1)" />
<use xlink:href="#f1_1x" transform="matrix(12,0,0,12,590.9,1090.1)" />
<use xlink:href="#f1_2g" transform="matrix(12,0,0,12,600.1,1090.1)" />
<use xlink:href="#f1_16" transform="matrix(12,0,0,12,637.3,1090.1)" />
<use xlink:href="#f1_24" transform="matrix(12,0,0,12,678.8,1090.1)" />
<use xlink:href="#f1_1x" transform="matrix(12,0,0,12,689.5,1090.1)" />
<use xlink:href="#f1_2f" transform="matrix(12,0,0,12,698.7,1090.1)" />
<use xlink:href="#f1_2b" transform="matrix(12,0,0,12,737.7,1090.1)" />
<use xlink:href="#f1_1z" transform="matrix(12,0,0,12,747.7,1090.1)" />
<use xlink:href="#f1_1z" transform="matrix(12,0,0,12,755.8,1090.1)" />
<use xlink:href="#f1_2h" transform="matrix(12,0,0,12,763.9,1090.1)" />
<use xlink:href="#f1_2e" transform="matrix(12,0,0,12,774.9,1090.1)" />
<use xlink:href="#f1_2e" transform="matrix(12,0,0,12,782.2,1090.1)" />
<use xlink:href="#f1_21" transform="matrix(12,0,0,12,789.5,1090.1)" />
<use xlink:href="#f1_20" transform="matrix(12,0,0,12,798.3,1090.1)" />
<use xlink:href="#f1_25" transform="matrix(12,0,0,12,840.8,1090.1)" />
<use xlink:href="#f1_2f" transform="matrix(12,0,0,12,846.2,1090.1)" />
<use xlink:href="#f1_20" transform="matrix(12,0,0,12,82.5,1112.8)" />
<use xlink:href="#f1_21" transform="matrix(12,0,0,12,93.7,1112.8)" />
<use xlink:href="#f1_2a" transform="matrix(12,0,0,12,102.5,1112.8)" />
<use xlink:href="#f1_2b" transform="matrix(12,0,0,12,113.2,1112.8)" />
<use xlink:href="#f1_2g" transform="matrix(12,0,0,12,123.2,1112.8)" />
<use xlink:href="#f1_21" transform="matrix(12,0,0,12,129.2,1112.8)" />
<use xlink:href="#f1_20" transform="matrix(12,0,0,12,138,1112.8)" />
<use xlink:href="#f1_1y" transform="matrix(12,0,0,12,153.8,1112.8)" />
<use xlink:href="#f1_2l" transform="matrix(12,0,0,12,163.9,1112.8)" />
<use xlink:href="#f1_1g" transform="matrix(12,0,0,12,178.7,1112.8)" />
<use xlink:href="#f1_c" transform="matrix(12,0,0,12,189.8,1112.8)" />
<use xlink:href="#f1_15" transform="matrix(12,0,0,12,195.8,1112.8)" />
<use xlink:href="#f1_2o" transform="matrix(12,0,0,12,207,1112.8)" />
<use xlink:href="#f1_16" transform="matrix(12,0,0,12,218.1,1112.8)" />
<use xlink:href="#f1_d" transform="matrix(12,0,0,12,228.4,1112.8)" />
<use xlink:href="#f1_1x" transform="matrix(12,0,0,12,239.1,1112.8)" />
<use xlink:href="#f1_2a" transform="matrix(12,0,0,12,248.2,1112.8)" />
<use xlink:href="#f1_20" transform="matrix(12,0,0,12,258.8,1112.8)" />
<use xlink:href="#f1_25" transform="matrix(12,0,0,12,274.6,1112.8)" />
<use xlink:href="#f1_2f" transform="matrix(12,0,0,12,279.9,1112.8)" />
<use xlink:href="#f1_23" transform="matrix(12,0,0,12,292.2,1112.8)" />
<use xlink:href="#f1_25" transform="matrix(12,0,0,12,302.4,1112.8)" />
<use xlink:href="#f1_2i" transform="matrix(12,0,0,12,307.8,1112.8)" />
<use xlink:href="#f1_21" transform="matrix(12,0,0,12,318.2,1112.8)" />
<use xlink:href="#f1_2a" transform="matrix(12,0,0,12,327,1112.8)" />
<use xlink:href="#f1_1y" transform="matrix(12,0,0,12,342.2,1112.8)" />
<use xlink:href="#f1_2l" transform="matrix(12,0,0,12,352.3,1112.8)" />
</g>
<g fill="#231F20" >
<use xlink:href="#f3_3d" transform="matrix(11,0,0,11,55,1186.1)" />
</g>
<g fill="#000000" >
<use xlink:href="#f1_16" transform="matrix(12,0,0,12,82.5,1186.1)" />
<use xlink:href="#f1_2e" transform="matrix(12,0,0,12,92.7,1186.1)" />
<use xlink:href="#f1_2b" transform="matrix(12,0,0,12,100.1,1186.1)" />
<use xlink:href="#f1_29" transform="matrix(12,0,0,12,110.1,1186.1)" />
<use xlink:href="#f1_2g" transform="matrix(12,0,0,12,130.8,1186.1)" />
<use xlink:href="#f1_24" transform="matrix(12,0,0,12,136.9,1186.1)" />
<use xlink:href="#f1_25" transform="matrix(12,0,0,12,147.5,1186.1)" />
<use xlink:href="#f1_2f" transform="matrix(12,0,0,12,152.8,1186.1)" />
<use xlink:href="#f1_2e" transform="matrix(12,0,0,12,165.1,1186.1)" />
<use xlink:href="#f1_21" transform="matrix(12,0,0,12,172.4,1186.1)" />
<use xlink:href="#f1_2f" transform="matrix(12,0,0,12,181.2,1186.1)" />
<use xlink:href="#f1_2h" transform="matrix(12,0,0,12,188.9,1186.1)" />
<use xlink:href="#f1_28" transform="matrix(12,0,0,12,200,1186.1)" />
<use xlink:href="#f1_2g" transform="matrix(12,0,0,12,205.2,1186.1)" />
<use xlink:href="#f1_g" transform="matrix(12,0,0,12,211.3,1186.1)" />
<use xlink:href="#f1_2j" transform="matrix(12,0,0,12,220.4,1186.1)" />
<use xlink:href="#f1_21" transform="matrix(12,0,0,12,235.7,1186.1)" />
<use xlink:href="#f1_1z" transform="matrix(12,0,0,12,249,1186.1)" />
<use xlink:href="#f1_1x" transform="matrix(12,0,0,12,257.1,1186.1)" />
<use xlink:href="#f1_2a" transform="matrix(12,0,0,12,266.3,1186.1)" />
<use xlink:href="#f1_2j" transform="matrix(12,0,0,12,281.5,1186.1)" />
<use xlink:href="#f1_2e" transform="matrix(12,0,0,12,296.7,1186.1)" />
<use xlink:href="#f1_25" transform="matrix(12,0,0,12,304,1186.1)" />
<use xlink:href="#f1_2g" transform="matrix(12,0,0,12,309.4,1186.1)" />
<use xlink:href="#f1_21" transform="matrix(12,0,0,12,315.4,1186.1)" />
</g>
<image preserveAspectRatio="none" x="60" y="213" width="401" height="29" xlink:href="img/1.png" />
<image preserveAspectRatio="none" x="55" y="290" width="615" height="165" xlink:href="img/2.png" />
<image preserveAspectRatio="none" x="55" y="467" width="429" height="170" xlink:href="img/3.png" />
<image preserveAspectRatio="none" x="55" y="649" width="348" height="65" xlink:href="img/4.png" />
<image preserveAspectRatio="none" x="55" y="728" width="445" height="30" xlink:href="img/5.png" />
<image preserveAspectRatio="none" x="55" y="845" width="163" height="30" xlink:href="img/6.png" />
<image preserveAspectRatio="none" x="55" y="888" width="628" height="109" xlink:href="img/7.png" />
<image preserveAspectRatio="none" x="110" y="1118" width="215" height="50" xlink:href="img/8.png" />
<path fill-rule="evenodd" d="M36.7,37.4h.7v-.7h-.7v.7Z" class="g0_46" />
<path fill-rule="evenodd" d="M36.7,37.4h.7v-.7h-.7v.7Z" class="g0_46" />
<path fill-rule="evenodd" d="M37.4,37.4H872.3v-.7H37.4v.7Z" class="g0_46" />
<path fill-rule="evenodd" d="M872.3,37.4h.7v-.7h-.7v.7Z" class="g0_46" />
<path fill-rule="evenodd" d="M872.3,37.4h.7v-.7h-.7v.7Z" class="g0_46" />
<path fill-rule="evenodd" d="M36.7,1249h.7V37.4h-.7V1249Z" class="g0_46" />
<path fill-rule="evenodd" d="M872.3,1249h.7V37.4h-.7V1249Z" class="g0_46" />
<path fill-rule="evenodd" d="M36.7,1249.7h.7v-.7h-.7v.7Z" class="g0_46" />
<path fill-rule="evenodd" d="M36.7,1249.7h.7v-.7h-.7v.7Z" class="g0_46" />
<path fill-rule="evenodd" d="M37.4,1249.7H872.3v-.7H37.4v.7Z" class="g0_46" />
<path fill-rule="evenodd" d="M872.3,1249.7h.7v-.7h-.7v.7Z" class="g0_46" />
<path fill-rule="evenodd" d="M872.3,1249.7h.7v-.7h-.7v.7Z" class="g0_46" />
<defs>
<path d="M59,-4V58c0,0,88,6,100,14c0,0,9,4,14,16c0,0,7,18,10,154c0,0,4,136,4,263c0,0,0,238,-5,340c0,0,-5,102,-16,114c0,0,-11,12,-64,16l-43,4v62l84,-2c0,0,78,-3,124,-3c0,0,64,0,204,3c0,0,76,2,112,2c0,0,134,0,197,-25c0,0,64,-25,97,-76c0,0,33,-51,33,-128c0,0,0,-138,-98,-231c0,0,-98,-93,-249,-93c0,0,-20,0,-41,3c0,0,-22,3,-46,8c0,0,-13,27,-27,52l17,18c0,0,16,-3,30,-6c0,0,14,-2,25,-2c0,0,75,0,123,52c0,0,47,52,47,145c0,0,0,104,-49,155c0,0,-49,51,-144,51c0,0,-39,0,-91,-11c0,0,-8,-229,-8,-389c0,0,0,-54,6,-342c0,0,2,-114,7,-131c0,0,4,-13,15,-18c0,0,16,-9,126,-15V-4c0,0,-131,4,-222,4C331,0,291,0,59,-4Z" 
id="f0_1g"
transform="scale(0.001,-0.001)" />

<path d="M16,-4V57c0,0,75,3,86,9c0,0,9,4,14,14c0,0,9,18,10,79c0,0,3,109,3,199c0,0,0,172,-4,204c0,0,-3,19,-14,27c0,0,-11,7,-95,10v58c0,0,150,14,215,35l76,29c0,0,11,0,11,-15l-1,-10c0,0,-2,-47,-2,-135c0,0,38,36,84,92c0,0,34,42,60,55c0,0,25,13,68,13c0,0,23,0,48,-9c0,0,-7,-74,-9,-203L533,497c0,0,-18,29,-38,41c0,0,-21,12,-53,12c0,0,-45,0,-77,-24c0,0,-32,-23,-41,-53c0,0,-6,-22,-6,-152c0,0,0,-189,5,-220c0,0,3,-21,14,-29c0,0,17,-11,113,-15V-4l-84,3c0,0,-80,1,-138,1c0,0,-55,0,-128,-1L16,-4Z" 
id="f0_2e"
transform="scale(0.001,-0.001)" />

<path d="M437,53c0,0,69,0,107,55c0,0,38,55,38,201c0,0,0,200,-46,277c0,0,-38,61,-119,61c0,0,-69,0,-109,-56c0,0,-40,-56,-40,-190c0,0,0,-199,51,-283c0,0,39,-65,118,-65ZM415,-20c0,0,-173,0,-263,94c0,0,-90,95,-90,276c0,0,0,177,82,265c0,0,99,106,286,106c0,0,187,0,272,-85c0,0,86,-84,86,-266c0,0,0,-188,-99,-289C689,81,591,-20,415,-20Z" 
id="f0_2b"
transform="scale(0.001,-0.001)" />

<path d="M495,82c0,0,80,0,129,64c0,0,49,64,49,194c0,0,0,122,-50,184c0,0,-51,63,-132,63c0,0,-43,0,-80,-20c0,0,-38,-20,-70,-59V165c0,0,28,-41,66,-62c0,0,39,-21,88,-21ZM179,-20L144,-5c0,0,13,179,13,498c0,0,0,144,-2,222l-4,192c0,0,0,44,-8,58c0,0,-5,10,-18,14c0,0,-10,3,-88,6v53c0,0,41,0,131,18c0,0,89,18,134,36l33,13c0,0,14,0,14,-18l-2,-78c0,0,-2,-41,-6,-423l90,75c0,0,43,36,77,48c0,0,34,12,81,12c0,0,125,0,201,-80c0,0,75,-80,75,-209c0,0,0,-64,-21,-131c0,0,-20,-68,-51,-111c0,0,-31,-43,-80,-75c0,0,-62,-40,-105,-73C608,42,556,3,521,-8c0,0,-35,-12,-85,-12c0,0,-50,0,-94,13c0,0,-43,12,-97,45c0,0,-18,-13,-66,-58Z" 
id="f0_1y"
transform="scale(0.001,-0.001)" />

<path d="M328,113c0,0,58,0,120,67V362c0,0,-131,-29,-170,-62c0,0,-39,-33,-39,-89c0,0,0,-45,25,-71c0,0,25,-27,64,-27ZM219,-20c0,0,-79,0,-122,46C97,26,54,73,54,163c0,0,0,111,59,157c0,0,75,59,335,106c0,0,-2,89,-31,128c0,0,-40,55,-126,55c0,0,-20,0,-41,-5c0,0,-21,-5,-43,-15L174,509l-52,13l2,34l-1,33l-1,29c0,0,114,71,164,89c0,0,37,14,102,14c0,0,88,0,143,-27c0,0,55,-26,80,-72c0,0,26,-46,26,-133c0,0,0,-36,-3,-131c0,0,-3,-97,-3,-156c0,0,0,-93,5,-113c0,0,3,-12,14,-19c0,0,12,-7,79,-13V-4l-57,3c0,0,-46,1,-91,1c0,0,-71,0,-133,-4l-8,7l8,102L292,-10c0,0,-41,-10,-73,-10Z" 
id="f0_1x"
transform="scale(0.001,-0.001)" />

<path d="M47,-4V57c0,0,84,3,97,10c0,0,13,8,17,42c0,0,6,47,6,207c0,0,0,70,-2,129l-2,87c0,0,0,43,-10,54c0,0,-9,10,-50,11l-56,2v58c0,0,180,14,296,64l19,-15c0,0,-11,-143,-11,-416c0,0,0,-157,5,-190c0,0,4,-23,14,-30c0,0,10,-7,97,-13V-4c0,0,-134,4,-208,4C259,0,220,0,47,-4ZM254,845c0,0,-47,0,-81,34c0,0,-34,34,-34,81c0,0,0,49,34,83c0,0,34,34,82,34c0,0,48,0,82,-34c0,0,34,-34,34,-83c0,0,0,-47,-34,-81c0,0,-34,-34,-83,-34Z" 
id="f0_25"
transform="scale(0.001,-0.001)" />

<path d="M42,-4V57l55,3c0,0,38,1,48,14c0,0,11,12,14,93c0,0,3,113,3,321V806c0,0,-1,146,-9,165c0,0,-3,9,-11,13c0,0,-13,8,-100,11v43c0,0,106,15,167,29c0,0,61,15,131,43l20,-17c0,0,-11,-266,-11,-744c0,0,0,-96,3,-195c0,0,1,-62,7,-72c0,0,6,-10,18,-16c0,0,12,-6,88,-9V-4l-78,3c0,0,-73,1,-122,1L42,-4Z" 
id="f0_28"
transform="scale(0.001,-0.001)" />

<path d="M294,-20c0,0,-63,0,-105,21c0,0,-42,22,-61,56c0,0,-19,34,-19,102c0,0,0,36,3,188c0,0,4,134,4,211l-38,2c0,0,-23,0,-60,-5v39l98,65c0,0,-1,132,-7,231c0,0,102,31,192,76l23,-17c0,0,-17,-108,-23,-290c0,0,34,-6,68,-6c0,0,76,0,137,10l6,-5l-6,-26c0,0,-12,-42,-17,-77c0,0,-87,6,-128,6c0,0,-31,0,-60,-3c0,0,-1,-75,-1,-132c0,0,0,-251,15,-285c0,0,14,-34,70,-34c0,0,17,0,36,3c0,0,19,4,41,11L474,92c0,0,-45,-50,-87,-103c0,0,-28,-4,-51,-6c0,0,-23,-3,-42,-3Z" 
id="f0_2g"
transform="scale(0.001,-0.001)" />

<path d="M141,-398c0,0,-51,0,-108,25c0,0,18,74,27,144l20,7c0,0,44,-49,102,-49c0,0,49,0,81,32c0,0,32,32,100,186L196,367L104,593c0,0,-12,28,-25,36c0,0,-14,9,-76,13v62c0,0,172,-5,219,-5c0,0,67,0,188,5V642c0,0,-70,-3,-83,-10c0,0,-13,-7,-13,-23c0,0,0,-22,73,-206L469,197l69,162c0,0,93,219,93,252c0,0,0,16,-13,22c0,0,-13,6,-80,9v62l47,-2c0,0,75,-3,100,-3c0,0,27,0,140,5V642c0,0,-36,0,-59,-11c0,0,-10,-5,-18,-16c0,0,-12,-17,-94,-206L516,92L386,-201c0,0,-44,-90,-78,-126c0,0,-35,-36,-76,-53c0,0,-41,-18,-91,-18Z" 
id="f0_2l"
transform="scale(0.001,-0.001)" />

<path d="M500,72c0,0,77,0,126,66c0,0,49,66,49,212c0,0,0,118,-50,179c0,0,-50,61,-128,61c0,0,-39,0,-78,-19c0,0,-39,-19,-78,-56V158c0,0,34,-42,73,-64c0,0,40,-22,86,-22ZM39,-384v61c0,0,79,3,91,9c0,0,7,5,11,14c0,0,7,18,10,153c0,0,4,188,4,281l-1,296c0,0,-1,130,-8,149c0,0,-4,9,-11,14c0,0,-14,6,-96,6v58c0,0,131,11,217,35l80,25c0,0,10,0,10,-18c0,0,0,-14,-3,-40l-2,-69l121,96c0,0,38,31,127,31c0,0,126,0,202,-78c0,0,76,-78,76,-210c0,0,0,-67,-19,-131c0,0,-19,-64,-45,-102c0,0,-26,-38,-92,-89C711,107,599,17,577,4c0,0,-42,-24,-102,-24c0,0,-34,0,-67,9c0,0,-34,8,-67,23l3,-225c0,0,3,-82,17,-96c0,0,15,-14,111,-14v-61c0,0,-115,5,-201,5c0,0,-165,0,-232,-5Z" 
id="f0_2c"
transform="scale(0.001,-0.001)" />

<path d="M385,423c0,0,59,0,124,6v35c0,0,0,92,-33,134c0,0,-34,42,-91,42c0,0,-40,0,-69,-19c0,0,-29,-20,-43,-56c0,0,-14,-36,-22,-136c0,0,67,-6,134,-6ZM408,-20c0,0,-162,0,-256,94c0,0,-93,94,-93,265c0,0,0,108,27,179c0,0,23,58,74,96c0,0,51,38,117,72c0,0,67,35,147,35c0,0,122,0,202,-69c0,0,79,-68,79,-219c0,0,0,-19,-3,-57L581,354c0,0,-57,-4,-164,-4H256c0,0,11,-129,77,-194c0,0,65,-65,166,-65c0,0,43,0,85,12c0,0,41,13,82,37l22,-22L654,46C654,46,601,13,539,-3c0,0,-61,-17,-131,-17Z" 
id="f0_21"
transform="scale(0.001,-0.001)" />

<path d="M27,-7V76L181,226c0,0,190,185,245,282c0,0,55,98,55,189c0,0,0,91,-45,139c0,0,-45,49,-122,49c0,0,-58,0,-102,-25c0,0,-43,-26,-54,-51c0,0,-4,-11,-32,-127H64c0,0,24,151,30,264c0,0,58,58,124,84c0,0,66,26,150,26c0,0,148,0,234,-80c0,0,85,-81,85,-207c0,0,0,-103,-67,-206c0,0,-67,-103,-372,-378l5,-10H428c0,0,194,0,300,10l8,-10c0,0,-8,-64,-8,-96c0,0,0,-33,8,-79l-8,-7c0,0,-145,7,-333,7C395,0,256,0,27,-7Z" 
id="f0_m"
transform="scale(0.001,-0.001)" />

<path d="M46,-4V42H93c0,0,69,0,83,34c0,0,14,33,14,321V650c0,0,0,298,-12,329c0,0,-12,30,-72,30H46v47c0,0,124,-5,245,-5c0,0,100,0,182,5v-47H416c0,0,-54,0,-67,-13c0,0,-13,-12,-16,-64c0,0,-3,-79,-3,-284V391c0,0,0,-290,12,-319c0,0,13,-30,82,-30h49V-4c0,0,-91,4,-200,4C273,0,147,0,46,-4Z" 
id="f1_19"
transform="scale(0.001,-0.001)" />

<path d="M17,-4V38H67c0,0,58,0,68,23c0,0,15,32,15,235V587L42,580v31c0,0,53,26,108,55v95c0,0,0,72,19,118c0,0,20,45,80,107c0,0,80,83,124,109c0,0,29,17,73,17c0,0,29,0,65,-10c0,0,-2,-38,-2,-61c0,0,0,-23,2,-63l-18,-9c0,0,-44,39,-101,39c0,0,-63,0,-90,-43c0,0,-26,-42,-26,-207V658c0,0,121,1,198,8l5,-8L467,587l-92,2c0,0,-33,0,-99,-2V296c0,0,0,-209,12,-233c0,0,12,-25,75,-25h65V-4c0,0,-122,4,-175,4L17,-4Z" 
id="f1_22"
transform="scale(0.001,-0.001)" />

<path d="M754,415L566,863L378,415ZM28,-4V42l23,1c0,0,52,1,67,11c0,0,16,9,33,46c0,0,53,107,108,232L464,796c0,0,82,185,112,269h51L1004,187c0,0,38,-90,51,-108c0,0,12,-18,29,-26c0,0,16,-8,74,-11V-4c0,0,-97,4,-185,4c0,0,-82,0,-219,-4V42l74,5c0,0,40,3,47,8c0,0,11,8,11,21c0,0,0,13,-22,70L782,353H351L300,233c0,0,-50,-119,-50,-146c0,0,0,-17,9,-25c0,0,10,-7,48,-12l71,-8V-4c0,0,-71,4,-161,4C217,0,110,0,28,-4Z" 
id="f1_11"
transform="scale(0.001,-0.001)" />

<path d="M296,69c0,0,56,0,107,32c0,0,51,31,97,93l-2,165l2,36c0,0,-207,-45,-263,-84c0,0,-56,-39,-56,-120c0,0,0,-55,32,-88c0,0,32,-34,83,-34ZM249,-19c0,0,-97,0,-147,47c0,0,-51,47,-51,127c0,0,0,75,36,131c0,0,36,56,103,83c0,0,67,27,310,70c0,0,-2,95,-42,142c0,0,-51,58,-145,58c0,0,-35,0,-67,-8c0,0,-31,-9,-58,-27c0,0,-21,-53,-39,-101l-42,11V615l81,46c0,0,55,32,97,44c0,0,41,12,88,12c0,0,103,0,166,-47c0,0,63,-46,76,-117c0,0,9,-54,11,-267c0,0,2,-200,9,-221c0,0,7,-21,37,-21h59V-4c0,0,-85,4,-119,4c0,0,-42,0,-112,-4l1,66c0,0,0,32,-1,65L345,9c0,0,-20,-15,-41,-21c0,0,-20,-7,-55,-7Z" 
id="f1_1x"
transform="scale(0.001,-0.001)" />

<path d="M20,-4V38H73c0,0,55,0,64,26c0,0,10,26,10,310c0,0,0,127,-3,199c0,0,-2,24,-12,33c0,0,-11,9,-59,9H20v43c0,0,63,7,114,20c0,0,50,13,114,39c0,0,6,3,12,3c0,0,12,0,12,-18l-1,-28L270,573L383,673c0,0,20,18,42,26c0,0,49,17,99,17c0,0,80,0,138,-33c0,0,58,-32,84,-84c0,0,25,-52,25,-162L768,202c0,0,0,-121,10,-140c0,0,14,-24,55,-24h53V-4c0,0,-79,4,-137,4c0,0,-56,0,-121,-4c0,0,14,144,14,392c0,0,0,100,-18,141c0,0,-17,42,-59,68c0,0,-41,25,-99,25c0,0,-73,0,-123,-37c0,0,-51,-36,-63,-80c0,0,-7,-29,-7,-152c0,0,0,-137,2,-254c0,0,1,-35,10,-44c0,0,19,-17,62,-17h53V-4c0,0,-126,4,-201,4C199,0,120,0,20,-4Z" 
id="f1_2a"
transform="scale(0.001,-0.001)" />

<path d="M431,74c0,0,59,0,109,33c0,0,50,34,73,87c0,0,23,53,23,166V542c0,0,-51,55,-107,83c0,0,-55,27,-115,27c0,0,-98,0,-157,-71c0,0,-59,-71,-59,-208c0,0,0,-140,68,-219c0,0,68,-80,165,-80ZM363,-19c0,0,-126,0,-211,94c0,0,-85,95,-85,253c0,0,0,99,33,169c0,0,33,70,78,102c0,0,46,32,142,80c0,0,73,37,136,37c0,0,42,0,87,-11c0,0,45,-12,93,-35V941c0,0,0,47,-10,59c0,0,-11,12,-48,12H514v45c0,0,133,9,248,55l14,-9c0,0,-6,-76,-9,-184L764,721l-2,-65V211c0,0,0,-125,8,-139c0,0,11,-20,61,-27l53,-7V-4c0,0,-92,6,-162,6c0,0,-12,0,-94,-6c0,0,5,50,8,142C636,138,573,89,475,1c0,0,-64,-20,-112,-20Z" 
id="f1_20"
transform="scale(0.001,-0.001)" />

<path d="M441,59c0,0,132,0,205,70c0,0,73,71,73,192c0,0,0,81,-32,133c0,0,-32,53,-90,77c0,0,-58,24,-185,24c0,0,-38,0,-85,-2V194c0,0,3,-51,3,-78c0,0,0,-20,-3,-47c0,0,69,-10,114,-10ZM395,614c0,0,149,0,213,53c0,0,65,52,65,152c0,0,0,86,-54,131c0,0,-54,46,-172,46c0,0,-52,0,-114,-9c0,0,-6,-92,-6,-276V616c0,0,37,-2,68,-2ZM116,-4V28c0,0,47,23,55,35c0,0,9,12,11,39c0,0,5,89,5,202V769c0,0,0,186,-14,211c0,0,-16,29,-79,29H43v47h62l68,-2c0,0,54,-3,85,-3c0,0,47,0,185,4l109,3c0,0,128,0,192,-45c0,0,79,-57,79,-161c0,0,0,-85,-56,-149c0,0,-56,-64,-193,-108c0,0,161,-10,231,-74c0,0,71,-64,71,-177c0,0,0,-142,-119,-246C757,98,638,-4,455,-4l-59,2c0,0,-75,2,-126,2c0,0,-37,0,-92,-2L116,-4Z" 
id="f1_12"
transform="scale(0.001,-0.001)" />

<path d="M24,-4V38l72,6c0,0,38,3,48,14c0,0,10,12,13,73c0,0,5,107,5,255c0,0,0,180,-14,212c0,0,-10,20,-61,20H24v43c0,0,73,8,129,21c0,0,57,13,101,33c0,0,11,6,17,6c0,0,9,0,12,-5c0,0,3,-4,3,-20L283,548c0,0,29,28,65,74c0,0,41,54,77,75c0,0,36,20,76,20c0,0,41,0,62,-10c0,0,11,-4,11,-14l-1,-8c0,0,-12,-60,-13,-169H526c0,0,-17,38,-40,54c0,0,-24,16,-56,16c0,0,-44,0,-82,-30c0,0,-37,-30,-50,-84c0,0,-12,-53,-12,-211c0,0,0,-103,8,-174c0,0,3,-26,15,-33c0,0,28,-16,83,-16h45V-4c0,0,-114,4,-216,4C221,0,121,0,24,-4Z" 
id="f1_2e"
transform="scale(0.001,-0.001)" />

<path d="M442,407c0,0,56,0,108,5v42c0,0,0,65,-26,124c0,0,-17,37,-58,61c0,0,-41,24,-95,24c0,0,-84,0,-134,-61c0,0,-50,-61,-51,-190c0,0,116,-5,256,-5ZM380,-19c0,0,-152,0,-245,95c0,0,-93,96,-93,260c0,0,0,125,52,217c0,0,35,60,127,111c0,0,93,52,180,52c0,0,132,0,210,-78c0,0,77,-77,77,-217l-2,-44c0,0,-49,-11,-94,-15c0,0,-80,-6,-222,-6H184c0,0,4,-147,75,-222c0,0,72,-76,188,-76c0,0,53,0,104,17c0,0,52,17,103,51l12,-12L642,52C642,52,580,16,515,-1c0,0,-66,-18,-135,-18Z" 
id="f1_21"
transform="scale(0.001,-0.001)" />

<path d="M128,-430c0,0,-21,0,-44,7c0,0,-23,6,-46,19l34,117H90c0,0,20,-25,40,-37c0,0,20,-12,41,-12c0,0,47,0,85,45c0,0,38,44,117,249c0,0,-33,86,-131,329L173,458L117,589c0,0,-26,69,-78,69H9v43c0,0,77,-5,137,-5c0,0,46,0,215,5V658H306c0,0,-28,0,-41,-10c0,0,-13,-9,-13,-24c0,0,0,-11,14,-51c0,0,75,-207,177,-444c0,0,99,217,172,418c0,0,22,59,22,71c0,0,0,24,-51,32l-55,8v43c0,0,88,-5,157,-5c0,0,65,0,130,5V658H792c0,0,-17,0,-35,-10c0,0,-18,-10,-29,-28c0,0,-24,-38,-138,-290c0,0,-32,-69,-160,-374c0,0,-114,-259,-128,-284c0,0,-30,-49,-75,-76c0,0,-46,-26,-99,-26Z" 
id="f1_2l"
transform="scale(0.001,-0.001)" />

<path d="M315,-19c0,0,-55,0,-94,19c0,0,-38,20,-55,52c0,0,-17,31,-17,96l3,144V575c0,0,-58,0,-119,-5v32c0,0,64,24,119,51c0,0,-1,107,-6,232c0,0,87,36,125,59l19,-15c0,0,-6,-59,-12,-276c0,0,91,0,148,2l60,3l-8,-76l-31,1L304,582H278V289c0,0,0,-115,7,-147c0,0,8,-32,30,-50c0,0,23,-18,58,-18c0,0,22,0,43,9c0,0,20,8,40,26L478,83L405,-1c0,0,-24,-8,-46,-13c0,0,-23,-5,-44,-5Z" 
id="f1_2g"
transform="scale(0.001,-0.001)" />

<path d="M313,-11c0,0,-63,215,-142,469L123,607c0,0,-9,25,-28,38c0,0,-19,13,-44,13H14v43c0,0,118,-5,182,-5c0,0,62,0,183,5V658H338c0,0,-46,0,-63,-10c0,0,-13,-8,-13,-24c0,0,0,-37,127,-462L550,514c0,0,37,82,84,200h37c0,0,32,-91,66,-175L891,149l114,306c0,0,33,90,43,135c0,0,3,19,3,30c0,0,0,17,-15,28c0,0,-15,10,-47,10H939v43c0,0,98,-5,174,-5c0,0,66,0,127,5V658h-34c0,0,-26,0,-49,-26c0,0,-23,-27,-129,-274c0,0,-88,-207,-137,-369H818c0,0,-33,92,-109,282L614,511C614,511,510,290,446,138c0,0,-29,-68,-57,-149Z" 
id="f1_2j"
transform="scale(0.001,-0.001)" />

<path d="M439,33c0,0,90,0,146,69c0,0,55,69,55,208c0,0,0,113,-32,195c0,0,-33,83,-87,120c0,0,-54,38,-120,38c0,0,-59,0,-107,-30c0,0,-47,-30,-70,-80c0,0,-30,-68,-30,-147c0,0,0,-154,63,-263c0,0,63,-110,182,-110ZM390,-19c0,0,-149,0,-243,100c0,0,-93,100,-93,272c0,0,0,103,48,186c0,0,47,83,133,130c0,0,87,47,196,47c0,0,159,0,255,-94c0,0,95,-94,95,-250c0,0,0,-185,-124,-294c0,0,-112,-97,-267,-97Z" 
id="f1_2b"
transform="scale(0.001,-0.001)" />

<path d="M377,-11c0,0,-98,245,-200,477c0,0,-39,85,-47,109c0,0,-16,48,-37,66c0,0,-20,17,-52,17H16v43c0,0,110,-5,183,-5c0,0,78,0,171,5V658H337c0,0,-45,0,-64,-10c0,0,-13,-7,-13,-22c0,0,0,-13,14,-52c0,0,13,-38,180,-451L588,445c0,0,45,112,56,156c0,0,3,11,3,20c0,0,0,14,-10,21c0,0,-10,6,-50,11l-48,5v43c0,0,77,-5,137,-5c0,0,70,0,150,5V658H803c0,0,-17,0,-33,-7c0,0,-12,-5,-20,-13c0,0,-7,-8,-54,-104c0,0,-84,-174,-128,-274c0,0,-45,-101,-114,-271Z" 
id="f1_2i"
transform="scale(0.001,-0.001)" />

<path d="M280,-19c0,0,-92,0,-206,28C74,9,54,14,54,25l2,10c0,0,3,11,5,40c0,0,7,73,7,113l-1,36h46V175c0,0,0,-58,11,-73c0,0,19,-24,75,-46c0,0,57,-23,116,-23c0,0,77,0,125,42c0,0,49,41,49,99c0,0,0,45,-28,73c0,0,-29,27,-108,44c0,0,-148,29,-196,52c0,0,-48,22,-72,60c0,0,-23,37,-23,90c0,0,0,99,72,161c0,0,72,62,204,62c0,0,105,0,209,-42c0,0,-7,-51,-11,-170H491c0,0,-2,65,-14,86c0,0,-17,28,-63,50c0,0,-45,23,-96,23c0,0,-68,0,-108,-35c0,0,-41,-34,-41,-87c0,0,0,-50,32,-75c0,0,32,-26,177,-55c0,0,107,-22,142,-40c0,0,34,-19,55,-57c0,0,20,-38,20,-87c0,0,0,-101,-86,-174c0,0,-86,-72,-229,-72Z" 
id="f1_2f"
transform="scale(0.001,-0.001)" />

<path d="M34,-4V38H91c0,0,48,0,58,26c0,0,9,26,9,281c0,0,0,187,-2,220c0,0,-2,34,-12,43c0,0,-11,9,-64,9H34v41c0,0,110,15,189,41l54,21c0,0,13,0,13,-18l-1,-27c0,0,-2,-42,-2,-93l100,90c0,0,24,21,51,30c0,0,39,14,77,14c0,0,84,0,135,-31c0,0,52,-30,94,-108l96,88c0,0,25,22,61,34c0,0,47,17,91,17c0,0,67,0,122,-32c0,0,54,-31,81,-81c0,0,26,-50,26,-136l-3,-292c0,0,0,-97,12,-115c0,0,11,-17,58,-20l55,-2V-4l-37,2c0,0,-87,2,-118,2c0,0,-47,0,-110,-4c0,0,10,137,10,321c0,0,0,156,-13,205c0,0,-13,49,-51,77c0,0,-38,28,-96,28c0,0,-64,0,-110,-35c0,0,-47,-35,-58,-84c0,0,-7,-31,-7,-266c0,0,0,-138,2,-157c0,0,2,-19,12,-27c0,0,11,-8,65,-14l50,-6V-4c0,0,-132,4,-194,4c0,0,-49,0,-191,-4V38h50c0,0,45,0,58,13c0,0,14,13,16,60c0,0,6,122,6,255c0,0,0,118,-16,163c0,0,-16,46,-55,72c0,0,-38,26,-92,26c0,0,-57,0,-104,-32c0,0,-47,-32,-64,-78c0,0,-11,-31,-11,-177c0,0,0,-161,3,-236c0,0,1,-35,11,-45c0,0,9,-10,64,-15l52,-6V-4c0,0,-94,4,-176,4C239,0,145,0,34,-4Z" 
id="f1_29"
transform="scale(0.001,-0.001)" />

<path d="M487,58c0,0,118,0,180,88c0,0,63,89,63,211c0,0,0,82,-29,140c0,0,-29,59,-84,92c0,0,-55,33,-118,33c0,0,-45,0,-87,-18c0,0,-43,-18,-75,-49c0,0,-32,-32,-41,-59c0,0,-7,-20,-7,-106V156c0,0,48,-54,96,-76c0,0,47,-22,102,-22ZM30,-410v42H85c0,0,57,0,68,25c0,0,10,25,10,262V376c0,0,0,119,-6,184c0,0,-3,31,-14,41c0,0,-12,10,-54,10H30v46c0,0,104,11,205,43l45,18c0,0,12,0,12,-21l-2,-79l-1,-53l105,93c0,0,39,35,67,44c0,0,44,14,102,14c0,0,133,0,215,-82c0,0,82,-82,82,-212c0,0,0,-65,-19,-128c0,0,-19,-63,-45,-102c0,0,-27,-40,-61,-67c0,0,-11,-9,-90,-59L615,45C615,45,558,5,524,-6c0,0,-35,-13,-80,-13c0,0,-35,0,-73,11c0,0,-39,9,-82,28V-84c0,0,0,-162,5,-228c0,0,2,-29,19,-43c0,0,16,-13,69,-13h40v-42c0,0,-141,5,-207,5c0,0,-72,0,-185,-5Z" 
id="f1_2c"
transform="scale(0.001,-0.001)" />

<path d="M37,-4V38l64,5c0,0,43,4,49,22c0,0,9,29,9,265V854l-3,97c0,0,0,37,-8,45c0,0,-12,12,-50,12H37v45c0,0,156,14,248,59l13,-9c0,0,-12,-219,-12,-396V324c0,0,0,-228,9,-259c0,0,5,-16,49,-20l64,-7V-4c0,0,-82,4,-156,4C252,0,170,0,37,-4Z" 
id="f1_28"
transform="scale(0.001,-0.001)" />

<path d="M380,-19c0,0,-110,0,-187,41c0,0,-76,42,-118,121c0,0,-42,79,-42,188c0,0,0,96,32,167c0,0,32,71,90,111c0,0,58,40,145,79c0,0,61,28,137,28c0,0,57,0,99,-10c0,0,41,-9,89,-33c0,0,-19,-99,-21,-198H557v38c0,0,0,47,-13,67c0,0,-14,20,-63,39c0,0,-50,20,-108,20c0,0,-101,0,-155,-62c0,0,-55,-61,-55,-183c0,0,0,-157,81,-251c0,0,72,-85,187,-85c0,0,44,0,88,11c0,0,43,11,86,32L625,83L594,35C594,35,543,8,490,-5c0,0,-54,-14,-110,-14Z" 
id="f1_1z"
transform="scale(0.001,-0.001)" />

<path d="M322,-19c0,0,-72,0,-144,15c0,0,-73,14,-147,42c0,0,14,90,13,230H95V231c0,0,0,-73,7,-90c0,0,8,-17,35,-36c0,0,41,-29,98,-45c0,0,56,-15,122,-15c0,0,141,0,218,66c0,0,76,67,76,169c0,0,0,59,-26,101c0,0,-26,41,-73,61c0,0,-47,20,-174,31c0,0,-168,13,-228,40c0,0,-61,27,-95,84c0,0,-34,58,-34,144c0,0,0,145,105,237c0,0,105,93,291,93c0,0,74,0,149,-16c0,0,75,-17,151,-50c0,0,-21,-77,-23,-205H642v59c0,0,0,59,-15,79c0,0,-16,21,-82,45c0,0,-66,23,-139,23c0,0,-119,0,-187,-60c0,0,-68,-60,-68,-155c0,0,0,-59,28,-102c0,0,27,-43,75,-62c0,0,47,-19,201,-33c0,0,153,-15,207,-40c0,0,54,-24,87,-79c0,0,32,-54,32,-129c0,0,0,-149,-125,-257C656,89,531,-19,322,-19Z" 
id="f1_1j"
transform="scale(0.001,-0.001)" />

<path d="M28,-4V42H88c0,0,64,0,78,25c0,0,15,24,15,179V809c0,0,0,151,-16,176c0,0,-16,24,-83,24H28v47c0,0,124,-5,223,-5l429,8c0,0,67,0,127,-7c0,0,-24,-79,-27,-225H732c0,0,-4,77,-18,139c0,0,-102,26,-206,26c0,0,-91,0,-178,-9c0,0,-9,-97,-9,-176V569c0,0,45,-2,88,-2c0,0,112,0,196,6c0,0,29,2,39,12c0,0,10,11,16,58l8,57h47c0,0,-6,-136,-6,-175l1,-176H661v57c0,0,0,69,-26,84c0,0,-26,15,-201,15c0,0,-47,0,-113,-2V246c0,0,0,-153,16,-178c0,0,16,-26,83,-26h53V-4c0,0,-141,4,-225,4C248,0,163,0,28,-4Z" 
id="f1_16"
transform="scale(0.001,-0.001)" />

<path d="M38,-4V38l64,7c0,0,37,3,46,14c0,0,8,11,11,72c0,0,3,95,3,262c0,0,0,116,-3,178c0,0,-2,24,-13,33c0,0,-12,10,-52,10H38v43c0,0,91,13,134,24c0,0,43,11,110,38l18,-12c0,0,-5,-55,-6,-123c0,0,-6,-217,-6,-321c0,0,0,-97,7,-165c0,0,3,-27,14,-37c0,0,11,-11,54,-16l51,-7V-4c0,0,-109,4,-199,4C215,0,128,0,38,-4ZM222,880c0,0,-35,0,-59,25c0,0,-25,24,-25,59c0,0,0,35,25,60c0,0,24,25,59,25c0,0,35,0,59,-25c0,0,25,-25,25,-60c0,0,0,-35,-25,-59c0,0,-24,-25,-59,-25Z" 
id="f1_25"
transform="scale(0.001,-0.001)" />

<path d="M355,-19c0,0,-67,0,-116,28c0,0,-48,28,-70,73c0,0,-22,45,-22,143c0,0,0,51,2,118l3,120c0,0,0,126,-8,140c0,0,-7,14,-47,14H30v41c0,0,102,9,188,37l63,24c0,0,12,0,12,-19l-5,-76c0,0,-10,-158,-10,-294c0,0,0,-135,11,-173c0,0,11,-38,47,-63c0,0,35,-25,87,-25c0,0,69,0,127,45c0,0,57,45,75,90c0,0,10,26,10,157c0,0,0,221,-8,240c0,0,-8,16,-67,16H501v41c0,0,76,9,130,21c0,0,53,12,113,36c0,0,7,4,13,4c0,0,13,0,13,-15l-3,-69c0,0,-11,-255,-11,-449c0,0,0,-109,11,-125c0,0,17,-23,71,-23h43V-4c0,0,-93,4,-157,4c0,0,-49,0,-97,-4l8,134L591,82C591,82,540,26,486,3c0,0,-53,-22,-131,-22Z" 
id="f1_2h"
transform="scale(0.001,-0.001)" />

<path d="M23,-4V38l47,6c0,0,44,5,56,12c0,0,11,7,14,33c0,0,6,40,6,180V772c0,0,0,199,-11,223c0,0,-6,16,-60,16H23v46c0,0,116,12,185,34l62,21c0,0,12,0,12,-16l-3,-31L275,931c0,0,-4,-101,-4,-157V574l98,86c0,0,34,32,67,44c0,0,33,12,80,12c0,0,83,0,144,-33c0,0,61,-34,84,-85c0,0,24,-52,24,-177L763,201c0,0,0,-75,6,-118c0,0,2,-18,12,-27c0,0,10,-9,44,-12l56,-6V-4c0,0,-72,4,-141,4c0,0,-59,0,-117,-4c0,0,14,186,14,367c0,0,0,122,-15,165c0,0,-16,43,-55,69c0,0,-40,25,-100,25c0,0,-62,0,-113,-30c0,0,-50,-29,-70,-68c0,0,-13,-27,-13,-131V263c0,0,0,-177,8,-196c0,0,8,-18,60,-23l65,-6V-4c0,0,-117,4,-187,4C217,0,143,0,23,-4Z" 
id="f1_24"
transform="scale(0.001,-0.001)" />

<path d="M34,-4V42h67c0,0,47,0,60,12c0,0,14,11,18,47c0,0,3,35,8,216V715l-2,155c0,0,-2,96,-21,117c0,0,-19,22,-93,22H34v47c0,0,93,-4,237,-4c0,0,84,0,187,5c0,0,68,3,103,3c0,0,180,0,262,-66c0,0,81,-65,81,-177c0,0,0,-81,-47,-156c0,0,-47,-75,-133,-121c0,0,-86,-45,-184,-45c0,0,-44,0,-111,14l-15,56c0,0,65,-16,109,-16c0,0,103,0,164,62c0,0,60,62,60,170c0,0,0,104,-65,163c0,0,-64,58,-192,58c0,0,-72,0,-158,-27c0,0,-5,-108,-5,-229V320c0,0,0,-224,13,-251c0,0,13,-27,88,-27h51V-4c0,0,-132,4,-207,4C272,0,205,0,34,-4Z" 
id="f1_1g"
transform="scale(0.001,-0.001)" />

<path d="M443,-410c0,0,-126,125,-192,236c0,0,-66,111,-102,245c0,0,-37,134,-37,284c0,0,0,172,48,318c0,0,47,146,118,247c0,0,72,101,170,192l32,-41c0,0,-87,-103,-136,-204c0,0,-50,-100,-76,-219c0,0,-25,-120,-25,-275c0,0,0,-165,23,-291c0,0,24,-125,69,-222c0,0,44,-97,145,-233l-37,-37Z" 
id="f1_c"
transform="scale(0.001,-0.001)" />

<path d="M28,-4V42H88c0,0,64,0,78,25c0,0,15,24,15,179V809c0,0,0,151,-16,176c0,0,-16,24,-83,24H28v47c0,0,124,-5,223,-5l429,8c0,0,67,0,127,-7c0,0,-24,-79,-27,-225H732c0,0,-4,77,-18,139c0,0,-102,26,-206,26c0,0,-91,0,-178,-9c0,0,-9,-97,-9,-176V569c0,0,45,-2,88,-2c0,0,112,0,196,6c0,0,29,2,39,12c0,0,10,11,16,58l8,57h47c0,0,-6,-136,-6,-175l1,-176H661v57c0,0,0,69,-26,84c0,0,-26,15,-201,15c0,0,-47,0,-113,-2V246c0,0,0,-153,16,-178c0,0,16,-26,83,-26h53V-4c0,0,-141,4,-225,4C248,0,163,0,28,-4Z" 
id="f2_16"
transform="scale(0.001,-0.001)" />

<path d="M61,-410l-32,41c0,0,87,103,136,203c0,0,50,101,76,219c0,0,26,120,26,275c0,0,0,165,-24,291c0,0,-25,127,-69,224c0,0,-45,97,-145,231l38,38c0,0,124,-124,191,-236c0,0,66,-111,103,-246c0,0,36,-134,36,-284c0,0,0,-172,-47,-317c0,0,-47,-145,-119,-246c0,0,-72,-101,-170,-193Z" 
id="f2_d"
transform="scale(0.001,-0.001)" />

<path d="M111,-34L286,346H44V450H334l69,151H44V705H451l175,381H728L553,705H795V601H505L435,450H795V346H388L213,-34H111Z" 
id="f2_40"
transform="scale(0.001,-0.001)" />

<path d="M388,34c0,0,91,0,138,85c0,0,59,107,59,391c0,0,0,303,-63,413c0,0,-52,94,-149,94c0,0,-90,0,-142,-93c0,0,-52,-93,-52,-379c0,0,0,-305,63,-418c0,0,51,-93,146,-93ZM365,-19c0,0,-109,0,-183,64c0,0,-73,64,-107,182c0,0,-26,90,-26,297c0,0,0,287,96,417c0,0,96,130,256,130c0,0,98,0,168,-49c0,0,69,-49,108,-148c0,0,38,-100,38,-290c0,0,0,-331,-95,-467c0,0,-96,-136,-255,-136Z" 
id="f2_k"
transform="scale(0.001,-0.001)" />

<path d="M33,-221l-22,23c0,0,65,100,95,182c0,0,30,80,41,175c0,0,86,21,152,47l21,-22C320,184,277,80,228,-2c0,0,-50,-84,-132,-187L33,-221Z" 
id="f2_g"
transform="scale(0.001,-0.001)" />

<path d="M315,-19c0,0,-55,0,-94,19c0,0,-38,20,-55,52c0,0,-17,31,-17,96l3,144V575c0,0,-58,0,-119,-5v32c0,0,64,24,119,51c0,0,-1,107,-6,232c0,0,87,36,125,59l19,-15c0,0,-6,-59,-12,-276c0,0,91,0,148,2l60,3l-8,-76l-31,1L304,582H278V289c0,0,0,-115,7,-147c0,0,8,-32,30,-50c0,0,23,-18,58,-18c0,0,22,0,43,9c0,0,20,8,40,26L478,83L405,-1c0,0,-24,-8,-46,-13c0,0,-23,-5,-44,-5Z" 
id="f2_2g"
transform="scale(0.001,-0.001)" />

<path d="M23,-4V38l47,6c0,0,44,5,56,12c0,0,11,7,14,33c0,0,6,40,6,180V772c0,0,0,199,-11,223c0,0,-6,16,-60,16H23v46c0,0,116,12,185,34l62,21c0,0,12,0,12,-16l-3,-31L275,931c0,0,-4,-101,-4,-157V574l98,86c0,0,34,32,67,44c0,0,33,12,80,12c0,0,83,0,144,-33c0,0,61,-34,84,-85c0,0,24,-52,24,-177L763,201c0,0,0,-75,6,-118c0,0,2,-18,12,-27c0,0,10,-9,44,-12l56,-6V-4c0,0,-72,4,-141,4c0,0,-59,0,-117,-4c0,0,14,186,14,367c0,0,0,122,-15,165c0,0,-16,43,-55,69c0,0,-40,25,-100,25c0,0,-62,0,-113,-30c0,0,-50,-29,-70,-68c0,0,-13,-27,-13,-131V263c0,0,0,-177,8,-196c0,0,8,-18,60,-23l65,-6V-4c0,0,-117,4,-187,4C217,0,143,0,23,-4Z" 
id="f2_24"
transform="scale(0.001,-0.001)" />

<path d="M442,407c0,0,56,0,108,5v42c0,0,0,65,-26,124c0,0,-17,37,-58,61c0,0,-41,24,-95,24c0,0,-84,0,-134,-61c0,0,-50,-61,-51,-190c0,0,116,-5,256,-5ZM380,-19c0,0,-152,0,-245,95c0,0,-93,96,-93,260c0,0,0,125,52,217c0,0,35,60,127,111c0,0,93,52,180,52c0,0,132,0,210,-78c0,0,77,-77,77,-217l-2,-44c0,0,-49,-11,-94,-15c0,0,-80,-6,-222,-6H184c0,0,4,-147,75,-222c0,0,72,-76,188,-76c0,0,53,0,104,17c0,0,52,17,103,51l12,-12L642,52C642,52,580,16,515,-1c0,0,-66,-18,-135,-18Z" 
id="f2_21"
transform="scale(0.001,-0.001)" />

<path d="M20,-4V38H73c0,0,55,0,64,26c0,0,10,26,10,310c0,0,0,127,-3,199c0,0,-2,24,-12,33c0,0,-11,9,-59,9H20v43c0,0,63,7,114,20c0,0,50,13,114,39c0,0,6,3,12,3c0,0,12,0,12,-18l-1,-28L270,573L383,673c0,0,20,18,42,26c0,0,49,17,99,17c0,0,80,0,138,-33c0,0,58,-32,84,-84c0,0,25,-52,25,-162L768,202c0,0,0,-121,10,-140c0,0,14,-24,55,-24h53V-4c0,0,-79,4,-137,4c0,0,-56,0,-121,-4c0,0,14,144,14,392c0,0,0,100,-18,141c0,0,-17,42,-59,68c0,0,-41,25,-99,25c0,0,-73,0,-123,-37c0,0,-51,-36,-63,-80c0,0,-7,-29,-7,-152c0,0,0,-137,2,-254c0,0,1,-35,10,-44c0,0,19,-17,62,-17h53V-4c0,0,-126,4,-201,4C199,0,120,0,20,-4Z" 
id="f2_2a"
transform="scale(0.001,-0.001)" />

<path d="M33,-221l-22,23c0,0,65,100,95,182c0,0,30,80,41,175c0,0,86,21,152,47l21,-22C320,184,277,80,228,-2c0,0,-50,-84,-132,-187L33,-221Z" 
id="f1_g"
transform="scale(0.001,-0.001)" />

<path d="M-25,-429l-23,1l-16,52c0,0,25,-4,39,-4c0,0,34,0,57,16c0,0,36,26,55,79c0,0,20,53,26,239c0,0,5,184,5,396c0,0,0,224,-8,245c0,0,-8,20,-61,20H-3v43c0,0,102,11,185,39l65,23c0,0,12,0,12,-15l-1,-15c0,0,-2,-13,-6,-109c0,0,-10,-196,-10,-327L244,62c0,0,0,-196,-34,-292c0,0,-34,-95,-101,-147c0,0,-66,-52,-134,-52ZM176,881c0,0,-35,0,-60,25c0,0,-25,24,-25,59c0,0,0,35,25,60c0,0,25,25,60,25c0,0,35,0,59,-25c0,0,25,-25,25,-60c0,0,0,-35,-25,-59c0,0,-24,-25,-59,-25Z" 
id="f1_26"
transform="scale(0.001,-0.001)" />

<path d="M262,-19c0,0,-49,0,-96,12c0,0,-47,10,-93,31C73,24,59,136,36,260l54,14c0,0,42,-112,102,-159c0,0,60,-48,140,-48c0,0,84,0,138,58c0,0,53,57,53,149c0,0,0,93,-54,148c0,0,-55,55,-151,55c0,0,-36,0,-87,-12l-10,11c0,0,15,44,31,117c0,0,30,-3,45,-3c0,0,83,0,134,46c0,0,50,47,50,118c0,0,0,63,-41,102c0,0,-41,40,-111,40c0,0,-47,0,-88,-17c0,0,-41,-18,-54,-35c0,0,-14,-17,-43,-104l-59,3c0,0,36,128,48,238c0,0,59,40,118,57c0,0,58,18,129,18c0,0,132,0,204,-62c0,0,72,-62,72,-161c0,0,0,-73,-37,-128c0,0,-38,-54,-135,-104c0,0,90,-10,134,-38c0,0,44,-27,71,-80c0,0,27,-52,27,-119c0,0,0,-171,-157,-287c0,0,-132,-96,-297,-96Z" 
id="f0_n"
transform="scale(0.001,-0.001)" />

<path d="M677,-19c0,0,-56,128,-150,324L269,836V735c0,0,0,-421,4,-580c0,0,2,-64,17,-79c0,0,15,-15,111,-19V-5c0,0,-76,5,-152,5C249,0,136,0,48,-5V57l44,3c0,0,54,3,68,18c0,0,14,16,16,107c0,0,5,184,5,399c0,0,0,114,-1,259c0,0,-1,88,-10,107c0,0,-4,10,-16,16c0,0,-12,6,-106,13v62c0,0,90,-2,176,-2c0,0,100,0,193,2c0,0,40,-94,84,-188c0,0,30,-66,271,-563c0,0,254,510,356,751c0,0,89,-4,170,-4c0,0,94,0,182,4V979c0,0,-98,-6,-110,-17c0,0,-13,-12,-17,-69c0,0,-5,-94,-5,-357c0,0,0,-133,3,-281c0,0,2,-147,10,-167c0,0,5,-11,15,-17c0,0,9,-6,104,-14V-5c0,0,-121,5,-216,5c0,0,-95,0,-260,-5V57l44,1c0,0,53,2,66,15c0,0,13,12,17,65c0,0,3,53,3,248V836c0,0,-115,-231,-294,-605C840,231,767,78,726,-19Z" 
id="f0_1d"
transform="scale(0.001,-0.001)" />

<path d="M357,-20c0,0,-68,0,-119,27c0,0,-51,28,-75,72c0,0,-24,44,-24,125l1,81c0,0,3,76,3,123c0,0,0,132,-6,159c0,0,-3,17,-15,24c0,0,-12,7,-93,8v58c0,0,120,11,223,42l74,27c0,0,13,0,13,-18l-3,-44c0,0,-12,-171,-12,-331c0,0,0,-103,10,-137c0,0,10,-34,38,-52c0,0,27,-19,72,-19c0,0,53,0,93,29c0,0,40,29,49,64c0,0,9,35,9,200c0,0,0,132,-4,155c0,0,-3,11,-10,16c0,0,-12,6,-102,10v58c0,0,153,17,224,40l79,29c0,0,13,0,13,-16l-2,-20c0,0,-12,-130,-12,-471c0,0,0,-105,6,-132c0,0,4,-12,12,-18c0,0,12,-6,94,-12V-4c0,0,-86,4,-170,4c0,0,-68,0,-127,-4L590,9c0,0,3,37,5,117C595,126,526,70,461,3c0,0,-52,-23,-104,-23Z" 
id="f0_2h"
transform="scale(0.001,-0.001)" />

<path d="M383,-20c0,0,-162,0,-253,89c0,0,-91,90,-91,256c0,0,0,61,12,111c0,0,12,49,32,84c0,0,21,35,46,57c0,0,15,12,128,82c0,0,66,42,97,52c0,0,30,10,81,10c0,0,44,0,87,-7c0,0,42,-7,83,-20l12,-14c0,0,-26,-124,-30,-228H526c0,0,-6,89,-13,102c0,0,-10,21,-44,38c0,0,-34,17,-85,17c0,0,-80,0,-116,-45c0,0,-36,-45,-36,-162c0,0,0,-149,68,-230c0,0,68,-81,174,-81c0,0,39,0,72,7c0,0,32,6,59,19l12,-16c0,0,-16,-36,-30,-72C587,29,538,4,487,-7c0,0,-51,-13,-104,-13Z" 
id="f0_1z"
transform="scale(0.001,-0.001)" />

<path d="M43,-4V57c0,0,81,4,91,13c0,0,10,8,13,38c0,0,5,76,5,266c0,0,0,94,-3,162c0,0,-2,42,-6,49c0,0,-4,6,-12,9c0,0,-8,3,-88,5v58c0,0,40,0,126,17c0,0,85,17,144,40l20,7c0,0,10,0,10,-18l-1,-6c0,0,-2,-21,-2,-107l115,96c0,0,22,19,45,26c0,0,33,9,80,9c0,0,78,0,129,-28c0,0,50,-27,73,-75c0,0,24,-48,24,-150c0,0,0,-45,-2,-104c0,0,-4,-121,-4,-209c0,0,0,-50,8,-69c0,0,6,-14,17,-18c0,0,11,-5,81,-11V-4l-91,3L756,0L602,-4l-8,9c0,0,19,142,19,291c0,0,0,190,-23,234c0,0,-30,57,-109,57c0,0,-50,0,-87,-26c0,0,-37,-26,-49,-55c0,0,-5,-12,-5,-76c0,0,0,-270,2,-309c0,0,3,-40,13,-49c0,0,13,-11,100,-15V-4c0,0,-130,4,-219,4C236,0,183,0,43,-4Z" 
id="f0_2a"
transform="scale(0.001,-0.001)" />

<path d="M256,-4V58c0,0,43,0,89,7c0,0,21,4,30,12c0,0,9,9,14,32c0,0,5,32,9,236c0,0,2,145,2,295c0,0,0,296,-2,302c0,0,-2,5,-53,5c0,0,-103,0,-178,-5c0,0,-43,-4,-49,-8c0,0,-6,-4,-9,-13c0,0,-3,-9,-12,-131H32c0,0,2,142,-8,245l9,6c0,0,235,-10,457,-10c0,0,222,0,496,10l8,-12c0,0,-14,-102,-20,-239H912c0,0,-6,126,-13,136c0,0,-5,9,-24,12c0,0,-60,9,-238,9c0,0,-14,0,-17,-4c0,0,-3,-5,-3,-40L612,401c0,0,0,-218,4,-267c0,0,4,-50,18,-61c0,0,10,-6,118,-15V-4c0,0,-110,4,-233,4C519,0,357,0,256,-4Z" 
id="f0_1k"
transform="scale(0.001,-0.001)" />

<path d="M35,-4V57c0,0,81,4,93,11c0,0,7,4,11,13c0,0,7,19,8,137l2,275c0,0,0,218,-5,398c0,0,-2,68,-14,80c0,0,-12,11,-95,14v53c0,0,46,0,132,18c0,0,86,17,141,39c0,0,22,10,26,10c0,0,11,0,11,-14v-5c0,0,-2,-18,-2,-56L337,791c0,0,-1,-87,0,-201l98,83c0,0,31,26,47,32c0,0,39,16,92,16c0,0,117,0,173,-59c0,0,55,-58,55,-184L799,182c0,0,0,-79,6,-98c0,0,3,-11,17,-18c0,0,14,-6,83,-9V-4c0,0,-91,4,-163,4c0,0,-67,0,-138,-4L595,8c0,0,14,145,14,284c0,0,0,192,-22,237c0,0,-30,58,-107,58c0,0,-47,0,-82,-22c0,0,-36,-22,-50,-51c0,0,-14,-30,-14,-111l3,-230c0,0,1,-77,8,-92c0,0,4,-8,12,-12c0,0,16,-8,97,-12V-4c0,0,-86,4,-180,4C274,0,138,0,35,-4Z" 
id="f0_24"
transform="scale(0.001,-0.001)" />

<path d="M46,-4V57c0,0,77,3,88,10c0,0,11,7,14,26c0,0,6,36,6,173c0,0,0,287,-8,311c0,0,-6,20,-52,21l-48,1v58c0,0,92,10,156,24c0,0,65,15,117,36c0,0,11,4,16,4c0,0,10,0,10,-19c0,0,0,-14,-2,-38c0,0,-1,-11,-1,-37V600l122,92c0,0,39,29,118,29c0,0,80,0,126,-31c0,0,47,-31,72,-99L907,692c0,0,36,29,102,29c0,0,117,0,173,-58c0,0,55,-57,55,-187l-2,-62c0,0,-3,-103,-3,-183c0,0,0,-107,7,-138c0,0,4,-18,15,-25c0,0,11,-7,85,-11V-4c0,0,-93,4,-162,4c0,0,-67,0,-139,-4l-9,13c0,0,19,161,19,314c0,0,0,181,-28,226c0,0,-28,46,-99,46c0,0,-47,0,-82,-24c0,0,-35,-23,-46,-53c0,0,-8,-21,-8,-130c0,0,0,-198,5,-273c0,0,3,-34,14,-43c0,0,12,-9,96,-15V-4c0,0,-98,4,-192,4C708,0,591,0,498,-4V57c0,0,73,0,86,21c0,0,12,21,12,187c0,0,0,189,-7,235c0,0,-7,47,-36,71c0,0,-29,24,-80,24c0,0,-37,0,-67,-18c0,0,-31,-17,-52,-48c0,0,-12,-17,-12,-53l1,-29c0,0,2,-21,2,-117l-1,-88c0,0,0,-127,5,-150c0,0,2,-15,12,-22c0,0,10,-7,82,-13V-4c0,0,-89,4,-196,4C247,0,210,0,46,-4Z" 
id="f0_29"
transform="scale(0.001,-0.001)" />

<path d="M273,157c0,0,-114,0,-193,80C80,237,0,317,0,431c0,0,0,112,80,192c0,0,79,80,193,80c0,0,113,0,192,-80c0,0,80,-80,80,-192c0,0,0,-114,-80,-194c0,0,-79,-80,-192,-80Z" 
id="f3_3d"
transform="scale(0.001,-0.001)" />

<path d="M110,-7V31c0,0,59,26,70,56c0,0,11,30,11,237V734c0,0,0,224,-11,249c0,0,-11,26,-61,26H38v47c0,0,177,-5,235,-5c0,0,78,0,210,5v-47H391c0,0,-40,0,-50,-23c0,0,-11,-22,-11,-189V322l3,-210L330,68c0,0,74,-3,143,-3c0,0,140,0,219,7c0,0,55,6,114,22l45,175h49C900,269,881,128,870,5C870,5,803,-5,687,-5L332,0c0,0,-71,0,-222,-7Z" 
id="f1_1c"
transform="scale(0.001,-0.001)" />

<path d="M694,-6L577,-4c0,0,-194,4,-285,4C292,0,204,0,60,-4V42H83c0,0,65,0,82,13c0,0,16,12,22,59c0,0,6,47,6,208V731c0,0,0,101,-5,165c0,0,-5,64,-11,76c0,0,-5,12,-16,19c0,0,-10,7,-64,12l-57,6v47h81l79,-2c0,0,66,-3,100,-3l287,4l135,1c0,0,3,0,9,0c20,0,75,0,131,-5c0,0,-28,-89,-31,-231H780c0,0,0,82,-8,137c0,0,-88,33,-216,33c0,0,-102,0,-214,-9c0,0,1,-70,-1,-140L339,726V575c0,0,74,-5,130,-5c0,0,177,0,201,12c0,0,23,13,23,77v48h51c0,0,-5,-112,-5,-179c0,0,0,-71,5,-167H693v43c0,0,0,71,-28,87c0,0,-27,16,-196,16c0,0,-63,0,-130,-4V319l1,-105c0,0,0,-99,2,-144c0,0,109,-8,234,-8c0,0,84,0,140,7c0,0,37,5,78,19c0,0,19,66,38,164h49C881,252,861,88,861,34L862,0c0,0,-85,-6,-168,-6Z" 
id="f1_15"
transform="scale(0.001,-0.001)" />

<path d="M450,58c0,0,109,0,168,87c0,0,60,87,60,211c0,0,0,130,-58,198c0,0,-57,68,-155,68c0,0,-65,0,-119,-37c0,0,-53,-38,-74,-87c0,0,-7,-20,-7,-90V239c0,0,0,-81,6,-93c0,0,12,-24,64,-56c0,0,53,-32,115,-32ZM403,-19c0,0,-56,0,-100,15c0,0,-45,14,-93,51L150,-8L124,1c0,0,15,115,15,242V717c0,0,0,110,-7,225c0,0,-3,53,-12,62c0,0,-10,10,-44,10H12v42c0,0,64,7,134,22c0,0,47,9,101,30c0,0,8,4,14,4c0,0,16,0,16,-29l-4,-37c0,0,-5,-43,-6,-64c0,0,-2,-96,-2,-263V561l91,91c0,0,29,29,76,46c0,0,48,18,101,18c0,0,120,0,198,-83c0,0,77,-83,77,-220c0,0,0,-75,-27,-146c0,0,-27,-71,-66,-115c0,0,-18,-21,-100,-80C615,72,534,12,510,1c0,0,-45,-20,-107,-20Z" 
id="f1_1y"
transform="scale(0.001,-0.001)" />

<path d="M192,-19c0,0,-37,0,-63,25c0,0,-25,26,-25,62c0,0,0,37,25,62c0,0,26,25,63,25c0,0,36,0,61,-25c0,0,26,-25,26,-62c0,0,0,-36,-26,-62c0,0,-25,-25,-61,-25Z" 
id="f1_i"
transform="scale(0.001,-0.001)" />

<path d="M672,-19c0,0,-183,0,-322,70c0,0,-139,71,-214,196c0,0,-74,125,-74,282c0,0,0,157,75,281c0,0,75,124,213,192c0,0,137,69,338,69c0,0,105,0,246,-35c0,0,70,-16,114,-25c0,0,-34,-79,-39,-225H959l-6,133c0,0,-66,44,-139,66c0,0,-72,21,-151,21c0,0,-202,0,-323,-122C340,884,219,762,219,557c0,0,0,-143,62,-256c0,0,61,-112,174,-178c0,0,114,-65,240,-65c0,0,100,0,197,23c0,0,74,17,147,72l16,-15c0,0,-16,-34,-29,-70C1026,68,939,25,850,3c0,0,-88,-22,-178,-22Z" 
id="f1_13"
transform="scale(0.001,-0.001)" />

<path d="M409,-377c0,0,82,0,145,30c0,0,62,31,97,84c0,0,34,54,34,111c0,0,0,48,-24,85c0,0,-24,37,-57,47c0,0,-18,5,-79,5H351c0,0,-53,0,-72,-12c0,0,-62,-40,-76,-65c0,0,-22,-39,-22,-98c0,0,0,-81,60,-134c0,0,60,-53,168,-53ZM395,280c0,0,71,0,116,47c0,0,44,48,44,133c0,0,0,93,-47,150c0,0,-48,57,-121,57c0,0,-72,0,-115,-46c0,0,-44,-47,-44,-129c0,0,0,-99,47,-156c0,0,48,-56,120,-56ZM382,-430c0,0,-154,0,-237,67c0,0,-82,66,-82,164c0,0,0,60,43,122c0,0,78,37,131,74c0,0,-62,19,-80,36c0,0,-17,17,-17,43c0,0,0,31,17,62c0,0,10,18,49,45l73,52c0,0,-89,22,-129,63c0,0,-52,55,-52,141c0,0,0,75,39,137c0,0,38,62,114,98c0,0,96,46,186,46c0,0,56,0,99,-15c0,0,43,-15,88,-51h63c0,0,97,0,151,7l8,-16c0,0,-22,-32,-39,-68H668c0,0,17,-48,17,-78c0,0,0,-67,-40,-128c0,0,-40,-62,-115,-100c0,0,-75,-37,-161,-37l-36,1c0,0,-49,-37,-62,-55c0,0,-13,-18,-13,-35c0,0,0,-28,29,-45c0,0,29,-16,119,-16c0,0,34,0,98,3c0,0,92,4,133,4c0,0,59,0,91,-19c0,0,31,-19,53,-67c0,0,23,-46,23,-106c0,0,0,-83,-51,-160c0,0,-51,-77,-148,-123c0,0,-97,-46,-223,-46Z" 
id="f1_23"
transform="scale(0.001,-0.001)" />

<path d="M424,-349V1112h98V-349Z" 
id="f1_2o"
transform="scale(0.001,-0.001)" />

<path d="M61,-410l-32,41c0,0,87,103,136,203c0,0,50,101,76,219c0,0,26,120,26,275c0,0,0,165,-24,291c0,0,-25,127,-69,224c0,0,-45,97,-145,231l38,38c0,0,124,-124,191,-236c0,0,66,-111,103,-246c0,0,36,-134,36,-284c0,0,0,-172,-47,-317c0,0,-47,-145,-119,-246c0,0,-72,-101,-170,-193Z" 
id="f1_d"
transform="scale(0.001,-0.001)" />


</defs>
</svg>