<?xml version="1.0" encoding="UTF-8" standalone="no"?>
<!DOCTYPE svg PUBLIC "-//W3C//DTD SVG 1.1//EN"
"http://www.w3.org/Graphics/SVG/1.1/DTD/svg11.dtd">
<svg viewBox="0 0 909 1286" version="1.1" xmlns="http://www.w3.org/2000/svg" xmlns:xlink="http://www.w3.org/1999/xlink">
<defs>
<clipPath id="c0_5"><path d="M512.6,181.1V165.2H656.5v15.9Z" /></clipPath>
<clipPath id="c1_5"><path d="M139,416.2V397.5h91.1v18.7Z" /></clipPath>
<style type="text/css"><![CDATA[
.g0_5{
fill: #FFFFFF;
}
.g1_5{
}
.g2_5{
fill: none;
stroke: #000000;
stroke-width: 0.73333335;
stroke-linecap: round;
stroke-linejoin: round;
}
.g3_5{
fill: #009900;
fill-opacity: 0.4;
}
]]></style>
</defs>
<path fill-rule="evenodd" d="M53.9,69.5H856.2V97.9H53.9V69.5l1.5,26.8H854.5V71H55.4V96.3L53.9,69.5Z" class="g0_5" />
<g fill="#000000" >
<use xlink:href="#f0_14" transform="matrix(10,0,0,10,590.3,87.6)" />
<use xlink:href="#f0_15" transform="matrix(10,0,0,10,602.1,87.6)" />
<use xlink:href="#f0_16" transform="matrix(10,0,0,10,612.9,87.6)" />
<use xlink:href="#f0_19" transform="matrix(10,0,0,10,623,87.6)" />
<use xlink:href="#f0_1e" transform="matrix(10,0,0,10,629,87.6)" />
<use xlink:href="#f0_19" transform="matrix(10,0,0,10,640,87.6)" />
<use xlink:href="#f0_1k" transform="matrix(10,0,0,10,646.1,87.6)" />
<use xlink:href="#f0_15" transform="matrix(10,0,0,10,656.7,87.6)" />
<use xlink:href="#f0_19" transform="matrix(10,0,0,10,671.2,87.6)" />
<use xlink:href="#f0_1e" transform="matrix(10,0,0,10,677.2,87.6)" />
<use xlink:href="#f0_1k" transform="matrix(10,0,0,10,688.2,87.6)" />
<use xlink:href="#f0_15" transform="matrix(10,0,0,10,698.9,87.6)" />
<use xlink:href="#f0_17" transform="matrix(10,0,0,10,709.7,87.6)" />
<use xlink:href="#f0_1i" transform="matrix(10,0,0,10,721.4,87.6)" />
<use xlink:href="#f0_11" transform="matrix(10,0,0,10,733.5,87.6)" />
<use xlink:href="#f0_1k" transform="matrix(10,0,0,10,744.3,87.6)" />
<use xlink:href="#f0_19" transform="matrix(10,0,0,10,755,87.6)" />
<use xlink:href="#f0_1f" transform="matrix(10,0,0,10,760.7,87.6)" />
<use xlink:href="#f0_1e" transform="matrix(10,0,0,10,772.9,87.6)" />
<use xlink:href="#f0_a" transform="matrix(10,0,0,10,787.6,87.6)" />
<use xlink:href="#f0_11" transform="matrix(10,0,0,10,803.6,87.6)" />
<use xlink:href="#f0_1i" transform="matrix(10,0,0,10,814.2,87.6)" />
<use xlink:href="#f0_15" transform="matrix(10,0,0,10,826.1,87.6)" />
<use xlink:href="#f0_11" transform="matrix(10,0,0,10,836.9,87.6)" />
</g>
<path fill-rule="evenodd" d="M55.2,94.6H854.7v3.1H55.2V94.6Z" class="g1_5" />
<path fill-rule="evenodd" d="M55.2,69.7H854.7v3.1H55.2V69.7Z" class="g1_5" />
<path fill-rule="evenodd" d="M55.3,1177.4H854.8v2.3H55.3v-2.3Z" class="g1_5" />
<path fill-rule="evenodd" d="M453.8,1177.5V109.8h1.6V1177.5h-1.6Z" class="g1_5" />
<g fill="#000000" >
<use xlink:href="#f1_m" transform="matrix(10,0,0,10,465.3,120.8)" />
<use xlink:href="#f1_i" transform="matrix(10,0,0,10,473.2,120.8)" />
<use xlink:href="#f2_1k" transform="matrix(10,0,0,10,509.9,120.8)" />
<use xlink:href="#f2_24" transform="matrix(10,0,0,10,519.6,120.8)" />
<use xlink:href="#f2_21" transform="matrix(10,0,0,10,526.9,120.8)" />
<use xlink:href="#f2_1x" transform="matrix(10,0,0,10,537.4,120.8)" />
<use xlink:href="#f2_2e" transform="matrix(10,0,0,10,544.1,120.8)" />
<use xlink:href="#f2_21" transform="matrix(10,0,0,10,549.1,120.8)" />
<use xlink:href="#f2_1x" transform="matrix(10,0,0,10,556.1,120.8)" />
<use xlink:href="#f2_1y" transform="matrix(10,0,0,10,566.5,120.8)" />
<use xlink:href="#f2_2b" transform="matrix(10,0,0,10,574.2,120.8)" />
<use xlink:href="#f2_2h" transform="matrix(10,0,0,10,581.7,120.8)" />
<use xlink:href="#f2_2a" transform="matrix(10,0,0,10,589.4,120.8)" />
<use xlink:href="#f2_20" transform="matrix(10,0,0,10,596.9,120.8)" />
<use xlink:href="#f2_21" transform="matrix(10,0,0,10,604.6,120.8)" />
<use xlink:href="#f2_20" transform="matrix(10,0,0,10,611.4,120.8)" />
<use xlink:href="#f2_1y" transform="matrix(10,0,0,10,622.4,120.8)" />
<use xlink:href="#f2_2l" transform="matrix(10,0,0,10,630.3,120.8)" />
<use xlink:href="#f2_2g" transform="matrix(10,0,0,10,641.1,120.8)" />
<use xlink:href="#f2_24" transform="matrix(10,0,0,10,645.3,120.8)" />
<use xlink:href="#f2_21" transform="matrix(10,0,0,10,652.9,120.8)" />
<use xlink:href="#f2_1z" transform="matrix(10,0,0,10,663.3,120.8)" />
<use xlink:href="#f2_2h" transform="matrix(10,0,0,10,670.1,120.8)" />
<use xlink:href="#f2_2e" transform="matrix(10,0,0,10,677.6,120.8)" />
<use xlink:href="#f2_2i" transform="matrix(10,0,0,10,682.8,120.8)" />
<use xlink:href="#f2_21" transform="matrix(10,0,0,10,690.1,120.8)" />
<use xlink:href="#f2_2k" transform="matrix(10,0,0,10,700.7,120.8)" />
<use xlink:href="#f2_x" transform="matrix(10,0,0,10,711.5,120.8)" />
<use xlink:href="#f3_23" transform="matrix(10,0,0,10,724,120.8)" />
<use xlink:href="#f2_c" transform="matrix(10,0,0,10,735.2,120.8)" />
<use xlink:href="#f2_2l" transform="matrix(10,0,0,10,740.3,120.8)" />
<use xlink:href="#f2_d" transform="matrix(10,0,0,10,747.6,120.8)" />
<use xlink:href="#f2_g" transform="matrix(10,0,0,10,752.8,120.8)" />
<use xlink:href="#f2_2l" transform="matrix(10,0,0,10,760.3,120.8)" />
<use xlink:href="#f2_4y" transform="matrix(10,0,0,10,770.9,120.8)" />
<use xlink:href="#f2_1x" transform="matrix(10,0,0,10,782.3,120.8)" />
<use xlink:href="#f2_2k" transform="matrix(10,0,0,10,789.1,120.8)" />
<use xlink:href="#f2_25" transform="matrix(10,0,0,10,796.4,120.8)" />
<use xlink:href="#f2_2f" transform="matrix(10,0,0,10,800.6,120.8)" />
<use xlink:href="#f2_1x" transform="matrix(10,0,0,10,810.3,120.8)" />
<use xlink:href="#f2_2a" transform="matrix(10,0,0,10,817.1,120.8)" />
<use xlink:href="#f2_20" transform="matrix(10,0,0,10,824.5,120.8)" />
<use xlink:href="#f2_2g" transform="matrix(10,0,0,10,835.8,120.8)" />
<use xlink:href="#f2_24" transform="matrix(10,0,0,10,840,120.8)" />
<use xlink:href="#f2_21" transform="matrix(10,0,0,10,847.4,120.8)" />
<use xlink:href="#f2_1x" transform="matrix(10,0,0,10,509.9,137.7)" />
<use xlink:href="#f2_1y" transform="matrix(10,0,0,10,516.8,137.7)" />
<use xlink:href="#f2_2f" transform="matrix(10,0,0,10,524.3,137.7)" />
<use xlink:href="#f2_1z" transform="matrix(10,0,0,10,530.4,137.7)" />
<use xlink:href="#f2_25" transform="matrix(10,0,0,10,537,137.7)" />
<use xlink:href="#f2_2f" transform="matrix(10,0,0,10,541.4,137.7)" />
<use xlink:href="#f2_2f" transform="matrix(10,0,0,10,547.1,137.7)" />
<use xlink:href="#f2_1x" transform="matrix(10,0,0,10,552.9,137.7)" />
<use xlink:href="#f2_21" transform="matrix(10,0,0,10,559.9,137.7)" />
<use xlink:href="#f2_2l" transform="matrix(10,0,0,10,570.5,137.7)" />
<use xlink:href="#f2_x" transform="matrix(10,0,0,10,582.1,137.7)" />
<use xlink:href="#f2_1z" transform="matrix(10,0,0,10,594.7,137.7)" />
<use xlink:href="#f2_1x" transform="matrix(10,0,0,10,605.7,137.7)" />
<use xlink:href="#f2_2a" transform="matrix(10,0,0,10,612.5,137.7)" />
<use xlink:href="#f2_20" transform="matrix(10,0,0,10,619.9,137.7)" />
<use xlink:href="#f2_2l" transform="matrix(10,0,0,10,631.6,137.7)" />
<use xlink:href="#f2_x" transform="matrix(10,0,0,10,643.1,137.7)" />
<use xlink:href="#f2_20" transform="matrix(10,0,0,10,655.8,137.7)" />
<use xlink:href="#f2_c" transform="matrix(10,0,0,10,667.5,137.7)" />
<use xlink:href="#f2_2j" transform="matrix(10,0,0,10,672.7,137.7)" />
<use xlink:href="#f2_24" transform="matrix(10,0,0,10,683.5,137.7)" />
<use xlink:href="#f2_21" transform="matrix(10,0,0,10,690.8,137.7)" />
<use xlink:href="#f2_2e" transform="matrix(10,0,0,10,697.8,137.7)" />
<use xlink:href="#f2_21" transform="matrix(10,0,0,10,702.9,137.7)" />
<use xlink:href="#f2_20" transform="matrix(10,0,0,10,713.9,137.7)" />
<use xlink:href="#f2_y" transform="matrix(10,0,0,10,725.6,137.7)" />
<use xlink:href="#f2_1z" transform="matrix(10,0,0,10,738.1,137.7)" />
<use xlink:href="#f2_d" transform="matrix(10,0,0,10,745.1,137.7)" />
<use xlink:href="#f2_25" transform="matrix(10,0,0,10,754.1,137.7)" />
<use xlink:href="#f2_2f" transform="matrix(10,0,0,10,758.3,137.7)" />
<use xlink:href="#f2_23" transform="matrix(10,0,0,10,768.4,137.7)" />
<use xlink:href="#f2_25" transform="matrix(10,0,0,10,776.1,137.7)" />
<use xlink:href="#f2_2i" transform="matrix(10,0,0,10,780.3,137.7)" />
<use xlink:href="#f2_21" transform="matrix(10,0,0,10,787.6,137.7)" />
<use xlink:href="#f2_2a" transform="matrix(10,0,0,10,794.6,137.7)" />
<use xlink:href="#f2_1y" transform="matrix(10,0,0,10,806.1,137.7)" />
<use xlink:href="#f2_2l" transform="matrix(10,0,0,10,813.7,137.7)" />
<use xlink:href="#f2_20" transform="matrix(5.5,0,0,5.5,538.5,161.5)" />
<use xlink:href="#f2_20" transform="matrix(5.5,0,0,5.5,596.6,161.5)" />
<use xlink:href="#f2_1z" transform="matrix(5.5,0,0,5.5,538.8,193)" />
<use xlink:href="#f2_1z" transform="matrix(5.5,0,0,5.5,596.8,193)" />
</g>
<g clip-path="url(#c0_5)">
<g fill="#000000" >
<use xlink:href="#f2_11" transform="matrix(9.2,0,0,9.2,512.4,177.6)" />
<use xlink:href="#f2_2o" transform="matrix(9.2,0,0,9.2,545,177.6)" />
<use xlink:href="#f2_2k" transform="matrix(9.2,0,0,9.2,551.1,177.6)" />
<use xlink:href="#f2_2o" transform="matrix(9.2,0,0,9.2,561.2,177.6)" />
<use xlink:href="#f2_20" transform="matrix(9.2,0,0,9.2,566.7,177.6)" />
<use xlink:href="#f2_2l" transform="matrix(9.2,0,0,9.2,573.8,177.6)" />
<use xlink:href="#f2_c" transform="matrix(9.2,0,0,9.2,617.3,177.6)" />
<use xlink:href="#f2_2l" transform="matrix(9.2,0,0,9.2,622.8,177.6)" />
<use xlink:href="#f2_d" transform="matrix(9.2,0,0,9.2,629.9,177.6)" />
<use xlink:href="#f2_2o" transform="matrix(9.2,0,0,9.2,637.3,177.6)" />
<use xlink:href="#f2_20" transform="matrix(9.2,0,0,9.2,642.8,177.6)" />
<use xlink:href="#f2_2l" transform="matrix(9.2,0,0,9.2,649.9,177.6)" />
</g>
</g>
<g fill="#000000" >
<use xlink:href="#f4_x" transform="matrix(9.2,0,0,9.2,526.4,177.6)" />
<use xlink:href="#f4_x" transform="matrix(9.2,0,0,9.2,584.3,177.6)" />
<use xlink:href="#f4_50" transform="matrix(13.8,0,0,13.8,538.1,182.8)" />
<use xlink:href="#f4_50" transform="matrix(13.8,0,0,13.8,595.8,182.8)" />
<use xlink:href="#f3_2o" transform="matrix(9.2,0,0,9.2,602.4,177.6)" />
<use xlink:href="#f3_23" transform="matrix(9.2,0,0,9.2,609,177.6)" />
</g>
<image preserveAspectRatio="none" x="575" y="215" width="169" height="153" xlink:href="img/1.png" />
<g fill="#000000" >
<use xlink:href="#f1_n" transform="matrix(10,0,0,10,465.3,394.7)" />
<use xlink:href="#f1_i" transform="matrix(10,0,0,10,473.4,394.7)" />
<use xlink:href="#f2_19" transform="matrix(10,0,0,10,509.9,394.7)" />
<use xlink:href="#f2_22" transform="matrix(10,0,0,10,515.2,394.7)" />
<use xlink:href="#f2_2j" transform="matrix(10,0,0,10,525.3,394.7)" />
<use xlink:href="#f2_21" transform="matrix(10,0,0,10,535.9,394.7)" />
<use xlink:href="#f2_24" transform="matrix(10,0,0,10,547.6,394.7)" />
<use xlink:href="#f2_1x" transform="matrix(10,0,0,10,555.1,394.7)" />
<use xlink:href="#f2_2i" transform="matrix(10,0,0,10,561.9,394.7)" />
<use xlink:href="#f2_21" transform="matrix(10,0,0,10,569.4,394.7)" />
<use xlink:href="#f2_2g" transform="matrix(10,0,0,10,581.2,394.7)" />
<use xlink:href="#f2_2j" transform="matrix(10,0,0,10,585.4,394.7)" />
<use xlink:href="#f2_2b" transform="matrix(10,0,0,10,596,394.7)" />
<use xlink:href="#f2_1z" transform="matrix(10,0,0,10,608.9,394.7)" />
<use xlink:href="#f2_2h" transform="matrix(10,0,0,10,615.8,394.7)" />
<use xlink:href="#f2_2e" transform="matrix(10,0,0,10,623.2,394.7)" />
<use xlink:href="#f2_2i" transform="matrix(10,0,0,10,628.3,394.7)" />
<use xlink:href="#f2_21" transform="matrix(10,0,0,10,636,394.7)" />
<use xlink:href="#f2_2l" transform="matrix(10,0,0,10,647.7,394.7)" />
<use xlink:href="#f2_x" transform="matrix(10,0,0,10,660,394.7)" />
<use xlink:href="#f3_22" transform="matrix(10,0,0,10,673.8,394.7)" />
<use xlink:href="#f2_c" transform="matrix(10,0,0,10,683.3,394.7)" />
<use xlink:href="#f2_2k" transform="matrix(10,0,0,10,688.2,394.7)" />
<use xlink:href="#f2_d" transform="matrix(10,0,0,10,695.9,394.7)" />
<use xlink:href="#f2_1x" transform="matrix(10,0,0,10,706,394.7)" />
<use xlink:href="#f2_2a" transform="matrix(10,0,0,10,712.8,394.7)" />
<use xlink:href="#f2_20" transform="matrix(10,0,0,10,720.1,394.7)" />
<use xlink:href="#f2_2l" transform="matrix(10,0,0,10,733,394.7)" />
<use xlink:href="#f2_x" transform="matrix(10,0,0,10,745.3,394.7)" />
<use xlink:href="#f3_23" transform="matrix(10,0,0,10,759,394.7)" />
<use xlink:href="#f2_c" transform="matrix(10,0,0,10,772,394.7)" />
<use xlink:href="#f2_2k" transform="matrix(10,0,0,10,777,394.7)" />
<use xlink:href="#f2_d" transform="matrix(10,0,0,10,784.7,394.7)" />
<use xlink:href="#f2_g" transform="matrix(10,0,0,10,789.8,394.7)" />
<use xlink:href="#f2_2f" transform="matrix(10,0,0,10,798.6,394.7)" />
<use xlink:href="#f2_2h" transform="matrix(10,0,0,10,804.6,394.7)" />
<use xlink:href="#f2_1z" transform="matrix(10,0,0,10,812,394.7)" />
<use xlink:href="#f2_24" transform="matrix(10,0,0,10,818.9,394.7)" />
<use xlink:href="#f2_2g" transform="matrix(10,0,0,10,831.6,394.7)" />
<use xlink:href="#f2_24" transform="matrix(10,0,0,10,835.6,394.7)" />
<use xlink:href="#f2_1x" transform="matrix(10,0,0,10,843.3,394.7)" />
<use xlink:href="#f2_2g" transform="matrix(10,0,0,10,849.9,394.7)" />
<use xlink:href="#f2_2l" transform="matrix(10,0,0,10,509.9,411.6)" />
<use xlink:href="#f2_x" transform="matrix(10,0,0,10,523.1,411.6)" />
<use xlink:href="#f3_22" transform="matrix(10,0,0,10,537.5,411.6)" />
<use xlink:href="#f2_c" transform="matrix(10,0,0,10,547.6,411.6)" />
<use xlink:href="#f2_2k" transform="matrix(10,0,0,10,552.9,411.6)" />
<use xlink:href="#f2_d" transform="matrix(10,0,0,10,560.6,411.6)" />
<use xlink:href="#f2_28" transform="matrix(10,0,0,10,571.6,411.6)" />
<use xlink:href="#f2_25" transform="matrix(10,0,0,10,576,411.6)" />
<use xlink:href="#f2_21" transform="matrix(10,0,0,10,580.3,411.6)" />
<use xlink:href="#f2_2f" transform="matrix(10,0,0,10,587.2,411.6)" />
<use xlink:href="#f2_1x" transform="matrix(10,0,0,10,599,411.6)" />
<use xlink:href="#f2_1y" transform="matrix(10,0,0,10,605.9,411.6)" />
<use xlink:href="#f2_2b" transform="matrix(10,0,0,10,613.4,411.6)" />
<use xlink:href="#f2_2i" transform="matrix(10,0,0,10,621.5,411.6)" />
<use xlink:href="#f2_21" transform="matrix(10,0,0,10,628.8,411.6)" />
<use xlink:href="#f2_2g" transform="matrix(10,0,0,10,641.9,411.6)" />
<use xlink:href="#f2_24" transform="matrix(10,0,0,10,645.9,411.6)" />
<use xlink:href="#f2_21" transform="matrix(10,0,0,10,653.6,411.6)" />
<use xlink:href="#f2_1z" transform="matrix(10,0,0,10,666.2,411.6)" />
<use xlink:href="#f2_2h" transform="matrix(10,0,0,10,673.2,411.6)" />
<use xlink:href="#f2_2e" transform="matrix(10,0,0,10,680.7,411.6)" />
<use xlink:href="#f2_2i" transform="matrix(10,0,0,10,685.9,411.6)" />
<use xlink:href="#f2_21" transform="matrix(10,0,0,10,693.4,411.6)" />
<use xlink:href="#f2_2l" transform="matrix(10,0,0,10,706.4,411.6)" />
<use xlink:href="#f2_x" transform="matrix(10,0,0,10,719.6,411.6)" />
<use xlink:href="#f3_23" transform="matrix(10,0,0,10,734.1,411.6)" />
<use xlink:href="#f2_c" transform="matrix(10,0,0,10,747.5,411.6)" />
<use xlink:href="#f2_2k" transform="matrix(10,0,0,10,752.8,411.6)" />
<use xlink:href="#f2_d" transform="matrix(10,0,0,10,760.5,411.6)" />
<use xlink:href="#f2_2g" transform="matrix(10,0,0,10,771.5,411.6)" />
<use xlink:href="#f2_24" transform="matrix(10,0,0,10,775.9,411.6)" />
<use xlink:href="#f2_21" transform="matrix(10,0,0,10,783.4,411.6)" />
<use xlink:href="#f2_2a" transform="matrix(10,0,0,10,790.4,411.6)" />
<use xlink:href="#f2_2g" transform="matrix(10,0,0,10,803.7,411.6)" />
<use xlink:href="#f2_24" transform="matrix(10,0,0,10,808,411.6)" />
<use xlink:href="#f2_21" transform="matrix(10,0,0,10,815.8,411.6)" />
<use xlink:href="#f2_1x" transform="matrix(10,0,0,10,828.7,411.6)" />
<use xlink:href="#f2_2e" transform="matrix(10,0,0,10,835.5,411.6)" />
<use xlink:href="#f2_21" transform="matrix(10,0,0,10,840.8,411.6)" />
<use xlink:href="#f2_1x" transform="matrix(10,0,0,10,847.4,411.6)" />
<use xlink:href="#f2_1y" transform="matrix(10,0,0,10,509.9,428.4)" />
<use xlink:href="#f2_2b" transform="matrix(10,0,0,10,517.7,428.4)" />
<use xlink:href="#f2_2h" transform="matrix(10,0,0,10,525.3,428.4)" />
<use xlink:href="#f2_2a" transform="matrix(10,0,0,10,533,428.4)" />
<use xlink:href="#f2_20" transform="matrix(10,0,0,10,540.5,428.4)" />
<use xlink:href="#f2_21" transform="matrix(10,0,0,10,548.2,428.4)" />
<use xlink:href="#f2_20" transform="matrix(10,0,0,10,555,428.4)" />
<use xlink:href="#f2_1y" transform="matrix(10,0,0,10,566.5,428.4)" />
<use xlink:href="#f2_21" transform="matrix(10,0,0,10,574,428.4)" />
<use xlink:href="#f2_2g" transform="matrix(10,0,0,10,581,428.4)" />
<use xlink:href="#f2_2j" transform="matrix(10,0,0,10,585.2,428.4)" />
<use xlink:href="#f2_21" transform="matrix(10,0,0,10,595.8,428.4)" />
<use xlink:href="#f2_21" transform="matrix(10,0,0,10,602.6,428.4)" />
<use xlink:href="#f2_2a" transform="matrix(10,0,0,10,609.2,428.4)" />
<use xlink:href="#f2_2g" transform="matrix(10,0,0,10,620.8,428.4)" />
<use xlink:href="#f2_24" transform="matrix(10,0,0,10,624.8,428.4)" />
<use xlink:href="#f2_21" transform="matrix(10,0,0,10,632.5,428.4)" />
<use xlink:href="#f2_29" transform="matrix(10,0,0,10,639.1,428.4)" />
<use xlink:href="#f2_1x" transform="matrix(10,0,0,10,654.5,428.4)" />
<use xlink:href="#f2_2a" transform="matrix(10,0,0,10,661.5,428.4)" />
<use xlink:href="#f2_20" transform="matrix(10,0,0,10,668.8,428.4)" />
<use xlink:href="#f2_2g" transform="matrix(10,0,0,10,680.4,428.4)" />
<use xlink:href="#f2_24" transform="matrix(10,0,0,10,684.6,428.4)" />
<use xlink:href="#f2_21" transform="matrix(10,0,0,10,692.1,428.4)" />
<use xlink:href="#f2_2b" transform="matrix(10,0,0,10,702.7,428.4)" />
<use xlink:href="#f2_2e" transform="matrix(10,0,0,10,710.6,428.4)" />
<use xlink:href="#f2_20" transform="matrix(10,0,0,10,715.8,428.4)" />
<use xlink:href="#f2_25" transform="matrix(10,0,0,10,723.3,428.4)" />
<use xlink:href="#f2_2a" transform="matrix(10,0,0,10,727.5,428.4)" />
<use xlink:href="#f2_1x" transform="matrix(10,0,0,10,735.2,428.4)" />
<use xlink:href="#f2_2g" transform="matrix(10,0,0,10,742,428.4)" />
<use xlink:href="#f2_21" transform="matrix(10,0,0,10,746.2,428.4)" />
<use xlink:href="#f2_2f" transform="matrix(10,0,0,10,753,428.4)" />
<use xlink:href="#f2_2k" transform="matrix(10,0,0,10,762.5,428.4)" />
<use xlink:href="#f2_x" transform="matrix(10,0,0,10,773.7,428.4)" />
<use xlink:href="#f2_1x" transform="matrix(10,0,0,10,786.2,428.4)" />
<use xlink:href="#f2_1x" transform="matrix(10,0,0,10,796.8,428.4)" />
<use xlink:href="#f2_2a" transform="matrix(10,0,0,10,803.8,428.4)" />
<use xlink:href="#f2_20" transform="matrix(10,0,0,10,811.1,428.4)" />
<use xlink:href="#f2_2k" transform="matrix(10,0,0,10,822.8,428.4)" />
<use xlink:href="#f2_x" transform="matrix(10,0,0,10,834.2,428.4)" />
<use xlink:href="#f2_1y" transform="matrix(10,0,0,10,846.5,428.4)" />
<use xlink:href="#f2_c" transform="matrix(10,0,0,10,509.9,445.1)" />
<use xlink:href="#f2_1y" transform="matrix(10,0,0,10,515.2,445.1)" />
<use xlink:href="#f2_y" transform="matrix(10,0,0,10,526.9,445.1)" />
<use xlink:href="#f2_1x" transform="matrix(10,0,0,10,539.7,445.1)" />
<use xlink:href="#f2_d" transform="matrix(10,0,0,10,546.5,445.1)" />
<use xlink:href="#f2_g" transform="matrix(10,0,0,10,551.7,445.1)" />
<use xlink:href="#f2_25" transform="matrix(10,0,0,10,559.5,445.1)" />
<use xlink:href="#f2_2f" transform="matrix(10,0,0,10,563.6,445.1)" />
<use xlink:href="#f2_23" transform="matrix(10,0,0,10,573.8,445.1)" />
<use xlink:href="#f2_25" transform="matrix(10,0,0,10,581.4,445.1)" />
<use xlink:href="#f2_2i" transform="matrix(10,0,0,10,585.6,445.1)" />
<use xlink:href="#f2_21" transform="matrix(10,0,0,10,592.9,445.1)" />
<use xlink:href="#f2_2a" transform="matrix(10,0,0,10,599.9,445.1)" />
<use xlink:href="#f2_1y" transform="matrix(10,0,0,10,611.4,445.1)" />
<use xlink:href="#f2_2l" transform="matrix(10,0,0,10,618.9,445.1)" />
<use xlink:href="#f4_50" transform="matrix(18.1,0,0,18.1,540.3,497.2)" />
<use xlink:href="#f4_50" transform="matrix(18.1,0,0,18.1,613.8,497.2)" />
<use xlink:href="#f4_h" transform="matrix(10.1,0,0,10.1,602.4,489.7)" />
<use xlink:href="#f4_x" transform="matrix(10.1,0,0,10.1,527.8,489.7)" />
<use xlink:href="#f2_1y" transform="matrix(6,0,0,6,541.8,469.7)" />
<use xlink:href="#f2_1x" transform="matrix(6,0,0,6,541.8,509.1)" />
<use xlink:href="#f2_1y" transform="matrix(6,0,0,6,615.3,469.7)" />
<use xlink:href="#f2_1x" transform="matrix(6,0,0,6,615.3,509.1)" />
<use xlink:href="#f2_20" transform="matrix(10.1,0,0,10.1,659.5,489.7)" />
<use xlink:href="#f2_2k" transform="matrix(10.1,0,0,10.1,667.3,489.7)" />
<use xlink:href="#f2_d" transform="matrix(10.1,0,0,10.1,650.8,489.7)" />
<use xlink:href="#f2_2k" transform="matrix(10.1,0,0,10.1,642.4,489.7)" />
<use xlink:href="#f2_c" transform="matrix(10.1,0,0,10.1,636.5,489.7)" />
<use xlink:href="#f2_20" transform="matrix(10.1,0,0,10.1,583.9,489.7)" />
<use xlink:href="#f2_2k" transform="matrix(10.1,0,0,10.1,591.6,489.7)" />
<use xlink:href="#f2_d" transform="matrix(10.1,0,0,10.1,575.1,489.7)" />
<use xlink:href="#f2_2k" transform="matrix(10.1,0,0,10.1,566.9,489.7)" />
<use xlink:href="#f2_c" transform="matrix(10.1,0,0,10.1,561.2,489.7)" />
<use xlink:href="#f2_11" transform="matrix(10.1,0,0,10.1,512.6,489.7)" />
<use xlink:href="#f3_23" transform="matrix(10.1,0,0,10.1,624.4,489.7)" />
<use xlink:href="#f3_22" transform="matrix(10.1,0,0,10.1,553.3,489.7)" />
<use xlink:href="#f2_25" transform="matrix(10,0,0,10,509.9,532.2)" />
<use xlink:href="#f2_i" transform="matrix(10,0,0,10,514.3,532.2)" />
<use xlink:href="#f2_21" transform="matrix(10,0,0,10,517.9,532.2)" />
<use xlink:href="#f2_i" transform="matrix(10,0,0,10,524.9,532.2)" />
<use xlink:href="#f2_2h" transform="matrix(10,0,0,10,533,532.2)" />
<use xlink:href="#f2_2c" transform="matrix(10,0,0,10,540.5,532.2)" />
<use xlink:href="#f2_2c" transform="matrix(10,0,0,10,548.2,532.2)" />
<use xlink:href="#f2_21" transform="matrix(10,0,0,10,556.1,532.2)" />
<use xlink:href="#f2_2e" transform="matrix(10,0,0,10,562.8,532.2)" />
<use xlink:href="#f2_1z" transform="matrix(10,0,0,10,572,532.2)" />
<use xlink:href="#f2_2h" transform="matrix(10,0,0,10,579,532.2)" />
<use xlink:href="#f2_2e" transform="matrix(10,0,0,10,586.3,532.2)" />
<use xlink:href="#f2_2i" transform="matrix(10,0,0,10,591.6,532.2)" />
<use xlink:href="#f2_21" transform="matrix(10,0,0,10,599,532.2)" />
<use xlink:href="#f2_1x" transform="matrix(10,0,0,10,610.3,532.2)" />
<use xlink:href="#f2_2e" transform="matrix(10,0,0,10,616.9,532.2)" />
<use xlink:href="#f2_21" transform="matrix(10,0,0,10,622.2,532.2)" />
<use xlink:href="#f2_1x" transform="matrix(10,0,0,10,629,532.2)" />
<use xlink:href="#f2_4y" transform="matrix(10,0,0,10,639.9,532.2)" />
<use xlink:href="#f2_28" transform="matrix(10,0,0,10,652.1,532.2)" />
<use xlink:href="#f2_2b" transform="matrix(10,0,0,10,656.2,532.2)" />
<use xlink:href="#f2_2j" transform="matrix(10,0,0,10,663.9,532.2)" />
<use xlink:href="#f2_21" transform="matrix(10,0,0,10,674.7,532.2)" />
<use xlink:href="#f2_2e" transform="matrix(10,0,0,10,681.5,532.2)" />
<use xlink:href="#f2_1z" transform="matrix(10,0,0,10,690.8,532.2)" />
<use xlink:href="#f2_2h" transform="matrix(10,0,0,10,697.6,532.2)" />
<use xlink:href="#f2_2e" transform="matrix(10,0,0,10,704.9,532.2)" />
<use xlink:href="#f2_2i" transform="matrix(10,0,0,10,710.3,532.2)" />
<use xlink:href="#f2_21" transform="matrix(10,0,0,10,717.6,532.2)" />
<use xlink:href="#f2_1x" transform="matrix(10,0,0,10,729,532.2)" />
<use xlink:href="#f2_2e" transform="matrix(10,0,0,10,735.6,532.2)" />
<use xlink:href="#f2_21" transform="matrix(10,0,0,10,740.9,532.2)" />
<use xlink:href="#f2_1x" transform="matrix(10,0,0,10,747.7,532.2)" />
<use xlink:href="#f2_i" transform="matrix(10,0,0,10,754.4,532.2)" />
</g>
<image preserveAspectRatio="none" x="557" y="554" width="205" height="178" xlink:href="img/2.png" />
<g fill="#000000" >
<use xlink:href="#f1_o" transform="matrix(10,0,0,10,465.3,759.2)" />
<use xlink:href="#f1_i" transform="matrix(10,0,0,10,473.4,759.2)" />
<use xlink:href="#f2_1k" transform="matrix(10,0,0,10,509.9,759.2)" />
<use xlink:href="#f2_24" transform="matrix(10,0,0,10,519.6,759.2)" />
<use xlink:href="#f2_21" transform="matrix(10,0,0,10,526.9,759.2)" />
<use xlink:href="#f2_1x" transform="matrix(10,0,0,10,538.6,759.2)" />
<use xlink:href="#f2_2e" transform="matrix(10,0,0,10,545.4,759.2)" />
<use xlink:href="#f2_21" transform="matrix(10,0,0,10,550.6,759.2)" />
<use xlink:href="#f2_1x" transform="matrix(10,0,0,10,557.3,759.2)" />
<use xlink:href="#f2_1y" transform="matrix(10,0,0,10,568.9,759.2)" />
<use xlink:href="#f2_2b" transform="matrix(10,0,0,10,576.8,759.2)" />
<use xlink:href="#f2_2h" transform="matrix(10,0,0,10,584.3,759.2)" />
<use xlink:href="#f2_2a" transform="matrix(10,0,0,10,592,759.2)" />
<use xlink:href="#f2_20" transform="matrix(10,0,0,10,599.3,759.2)" />
<use xlink:href="#f2_21" transform="matrix(10,0,0,10,607.2,759.2)" />
<use xlink:href="#f2_20" transform="matrix(10,0,0,10,613.8,759.2)" />
<use xlink:href="#f2_1y" transform="matrix(10,0,0,10,626.5,759.2)" />
<use xlink:href="#f2_2l" transform="matrix(10,0,0,10,634.2,759.2)" />
<use xlink:href="#f2_2g" transform="matrix(10,0,0,10,646.1,759.2)" />
<use xlink:href="#f2_24" transform="matrix(10,0,0,10,650.3,759.2)" />
<use xlink:href="#f2_21" transform="matrix(10,0,0,10,657.8,759.2)" />
<use xlink:href="#f2_1z" transform="matrix(10,0,0,10,669.7,759.2)" />
<use xlink:href="#f2_2h" transform="matrix(10,0,0,10,676.5,759.2)" />
<use xlink:href="#f2_2e" transform="matrix(10,0,0,10,683.9,759.2)" />
<use xlink:href="#f2_2i" transform="matrix(10,0,0,10,689.2,759.2)" />
<use xlink:href="#f2_21" transform="matrix(10,0,0,10,696.5,759.2)" />
<use xlink:href="#f2_2f" transform="matrix(10,0,0,10,703.5,759.2)" />
<use xlink:href="#f2_2l" transform="matrix(10,0,0,10,714.1,759.2)" />
<use xlink:href="#f2_x" transform="matrix(10,0,0,10,726.2,759.2)" />
<use xlink:href="#f3_22" transform="matrix(10,0,0,10,739.6,759.2)" />
<use xlink:href="#f2_c" transform="matrix(10,0,0,10,748.6,759.2)" />
<use xlink:href="#f2_2k" transform="matrix(10,0,0,10,753.7,759.2)" />
<use xlink:href="#f2_d" transform="matrix(10,0,0,10,761.2,759.2)" />
<use xlink:href="#f2_1x" transform="matrix(10,0,0,10,771.5,759.2)" />
<use xlink:href="#f2_2a" transform="matrix(10,0,0,10,778.3,759.2)" />
<use xlink:href="#f2_20" transform="matrix(10,0,0,10,785.6,759.2)" />
<use xlink:href="#f2_2l" transform="matrix(10,0,0,10,798.1,759.2)" />
<use xlink:href="#f2_x" transform="matrix(10,0,0,10,810.5,759.2)" />
<use xlink:href="#f3_23" transform="matrix(10,0,0,10,823.7,759.2)" />
<use xlink:href="#f2_c" transform="matrix(10,0,0,10,836.6,759.2)" />
<use xlink:href="#f2_2k" transform="matrix(10,0,0,10,841.7,759.2)" />
<use xlink:href="#f2_d" transform="matrix(10,0,0,10,849,759.2)" />
<use xlink:href="#f2_1y" transform="matrix(10,0,0,10,509.9,776)" />
<use xlink:href="#f2_21" transform="matrix(10,0,0,10,517.7,776)" />
<use xlink:href="#f2_2g" transform="matrix(10,0,0,10,524.5,776)" />
<use xlink:href="#f2_2j" transform="matrix(10,0,0,10,528.7,776)" />
<use xlink:href="#f2_21" transform="matrix(10,0,0,10,539.4,776)" />
<use xlink:href="#f2_21" transform="matrix(10,0,0,10,546.2,776)" />
<use xlink:href="#f2_2a" transform="matrix(10,0,0,10,552.9,776)" />
<use xlink:href="#f2_2g" transform="matrix(10,0,0,10,564.5,776)" />
<use xlink:href="#f2_24" transform="matrix(10,0,0,10,568.7,776)" />
<use xlink:href="#f2_21" transform="matrix(10,0,0,10,576.2,776)" />
<use xlink:href="#f2_2b" transform="matrix(10,0,0,10,587.6,776)" />
<use xlink:href="#f2_2e" transform="matrix(10,0,0,10,595.3,776)" />
<use xlink:href="#f2_20" transform="matrix(10,0,0,10,600.4,776)" />
<use xlink:href="#f2_25" transform="matrix(10,0,0,10,608.1,776)" />
<use xlink:href="#f2_2a" transform="matrix(10,0,0,10,612.2,776)" />
<use xlink:href="#f2_1x" transform="matrix(10,0,0,10,619.9,776)" />
<use xlink:href="#f2_2g" transform="matrix(10,0,0,10,626.7,776)" />
<use xlink:href="#f2_21" transform="matrix(10,0,0,10,630.9,776)" />
<use xlink:href="#f2_2f" transform="matrix(10,0,0,10,637.7,776)" />
<use xlink:href="#f2_2k" transform="matrix(10,0,0,10,647.6,776)" />
<use xlink:href="#f2_x" transform="matrix(10,0,0,10,659.3,776)" />
<use xlink:href="#f2_1x" transform="matrix(10,0,0,10,672.5,776)" />
<use xlink:href="#f2_1x" transform="matrix(10,0,0,10,683.3,776)" />
<use xlink:href="#f2_2a" transform="matrix(10,0,0,10,690.3,776)" />
<use xlink:href="#f2_20" transform="matrix(10,0,0,10,697.6,776)" />
<use xlink:href="#f2_2k" transform="matrix(10,0,0,10,709.7,776)" />
<use xlink:href="#f2_x" transform="matrix(10,0,0,10,721.6,776)" />
<use xlink:href="#f2_1y" transform="matrix(10,0,0,10,734.5,776)" />
<use xlink:href="#f2_25" transform="matrix(10,0,0,10,746.2,776)" />
<use xlink:href="#f2_2f" transform="matrix(10,0,0,10,750.6,776)" />
<use xlink:href="#f2_23" transform="matrix(10,0,0,10,760.9,776)" />
<use xlink:href="#f2_25" transform="matrix(10,0,0,10,768.4,776)" />
<use xlink:href="#f2_2i" transform="matrix(10,0,0,10,772.6,776)" />
<use xlink:href="#f2_21" transform="matrix(10,0,0,10,779.9,776)" />
<use xlink:href="#f2_2a" transform="matrix(10,0,0,10,786.9,776)" />
<use xlink:href="#f2_1y" transform="matrix(10,0,0,10,798.6,776)" />
<use xlink:href="#f2_2l" transform="matrix(10,0,0,10,806.3,776)" />
<use xlink:href="#f4_50" transform="matrix(18.1,0,0,18.1,540.3,827.9)" />
<use xlink:href="#f4_50" transform="matrix(18.1,0,0,18.1,614.2,827.9)" />
<use xlink:href="#f4_f" transform="matrix(10.1,0,0,10.1,602.4,820.8)" />
<use xlink:href="#f4_x" transform="matrix(10.1,0,0,10.1,527.8,820.8)" />
<use xlink:href="#f2_1z" transform="matrix(6,0,0,6,541.9,800.8)" />
<use xlink:href="#f2_1x" transform="matrix(6,0,0,6,541.8,839.8)" />
<use xlink:href="#f2_1y" transform="matrix(6,0,0,6,615.3,800.8)" />
<use xlink:href="#f2_1z" transform="matrix(6,0,0,6,615.6,839.8)" />
<use xlink:href="#f2_g" transform="matrix(10.1,0,0,10.1,675.4,820.8)" />
<use xlink:href="#f2_20" transform="matrix(10.1,0,0,10.1,659.8,820.8)" />
<use xlink:href="#f2_2k" transform="matrix(10.1,0,0,10.1,667.5,820.8)" />
<use xlink:href="#f2_d" transform="matrix(10.1,0,0,10.1,651.2,820.8)" />
<use xlink:href="#f2_2k" transform="matrix(10.1,0,0,10.1,642.8,820.8)" />
<use xlink:href="#f2_c" transform="matrix(10.1,0,0,10.1,637.1,820.8)" />
<use xlink:href="#f2_20" transform="matrix(10.1,0,0,10.1,583.9,820.8)" />
<use xlink:href="#f2_2k" transform="matrix(10.1,0,0,10.1,591.6,820.8)" />
<use xlink:href="#f2_d" transform="matrix(10.1,0,0,10.1,575.1,820.8)" />
<use xlink:href="#f2_2k" transform="matrix(10.1,0,0,10.1,566.9,820.8)" />
<use xlink:href="#f2_c" transform="matrix(10.1,0,0,10.1,561.2,820.8)" />
<use xlink:href="#f2_11" transform="matrix(10.1,0,0,10.1,512.6,820.8)" />
<use xlink:href="#f3_23" transform="matrix(10.1,0,0,10.1,624.8,820.8)" />
<use xlink:href="#f3_22" transform="matrix(10.1,0,0,10.1,553.3,820.8)" />
<use xlink:href="#f2_2j" transform="matrix(10,0,0,10,509.9,863.1)" />
<use xlink:href="#f2_24" transform="matrix(10,0,0,10,520.7,863.1)" />
<use xlink:href="#f2_21" transform="matrix(10,0,0,10,528,863.1)" />
<use xlink:href="#f2_2e" transform="matrix(10,0,0,10,535,863.1)" />
<use xlink:href="#f2_21" transform="matrix(10,0,0,10,540.1,863.1)" />
<use xlink:href="#f2_2k" transform="matrix(10,0,0,10,550.6,863.1)" />
<use xlink:href="#f2_x" transform="matrix(10,0,0,10,561.6,863.1)" />
<use xlink:href="#f2_1z" transform="matrix(10,0,0,10,573.8,863.1)" />
<use xlink:href="#f2_25" transform="matrix(10,0,0,10,584.5,863.1)" />
<use xlink:href="#f2_2f" transform="matrix(10,0,0,10,588.5,863.1)" />
<use xlink:href="#f2_2g" transform="matrix(10,0,0,10,598,863.1)" />
<use xlink:href="#f2_24" transform="matrix(10,0,0,10,602.3,863.1)" />
<use xlink:href="#f2_21" transform="matrix(10,0,0,10,610,863.1)" />
<use xlink:href="#f2_2c" transform="matrix(10,0,0,10,620.2,863.1)" />
<use xlink:href="#f2_2b" transform="matrix(10,0,0,10,627.7,863.1)" />
<use xlink:href="#f2_25" transform="matrix(10,0,0,10,635.6,863.1)" />
<use xlink:href="#f2_2a" transform="matrix(10,0,0,10,639.8,863.1)" />
<use xlink:href="#f2_2g" transform="matrix(10,0,0,10,647.2,863.1)" />
<use xlink:href="#f2_2b" transform="matrix(10,0,0,10,655.1,863.1)" />
<use xlink:href="#f2_22" transform="matrix(10,0,0,10,662.9,863.1)" />
<use xlink:href="#f2_25" transform="matrix(10,0,0,10,671.4,863.1)" />
<use xlink:href="#f2_2a" transform="matrix(10,0,0,10,675.6,863.1)" />
<use xlink:href="#f2_2g" transform="matrix(10,0,0,10,683.3,863.1)" />
<use xlink:href="#f2_21" transform="matrix(10,0,0,10,687.3,863.1)" />
<use xlink:href="#f2_2e" transform="matrix(10,0,0,10,694.3,863.1)" />
<use xlink:href="#f2_2f" transform="matrix(10,0,0,10,699.4,863.1)" />
<use xlink:href="#f2_21" transform="matrix(10,0,0,10,705.1,863.1)" />
<use xlink:href="#f2_1z" transform="matrix(10,0,0,10,712.1,863.1)" />
<use xlink:href="#f2_2g" transform="matrix(10,0,0,10,718.7,863.1)" />
<use xlink:href="#f2_25" transform="matrix(10,0,0,10,723.1,863.1)" />
<use xlink:href="#f2_2b" transform="matrix(10,0,0,10,727.3,863.1)" />
<use xlink:href="#f2_2a" transform="matrix(10,0,0,10,735,863.1)" />
<use xlink:href="#f2_2b" transform="matrix(10,0,0,10,746.2,863.1)" />
<use xlink:href="#f2_22" transform="matrix(10,0,0,10,753.9,863.1)" />
<use xlink:href="#f2_2g" transform="matrix(10,0,0,10,762.3,863.1)" />
<use xlink:href="#f2_24" transform="matrix(10,0,0,10,766.5,863.1)" />
<use xlink:href="#f2_21" transform="matrix(10,0,0,10,774.2,863.1)" />
<use xlink:href="#f2_2g" transform="matrix(10,0,0,10,784.7,863.1)" />
<use xlink:href="#f2_2j" transform="matrix(10,0,0,10,788.9,863.1)" />
<use xlink:href="#f2_2b" transform="matrix(10,0,0,10,799.6,863.1)" />
<use xlink:href="#f2_1z" transform="matrix(10,0,0,10,810.7,863.1)" />
<use xlink:href="#f2_2h" transform="matrix(10,0,0,10,817.7,863.1)" />
<use xlink:href="#f2_2e" transform="matrix(10,0,0,10,825,863.1)" />
<use xlink:href="#f2_2i" transform="matrix(10,0,0,10,830.1,863.1)" />
<use xlink:href="#f2_21" transform="matrix(10,0,0,10,837.7,863.1)" />
<use xlink:href="#f2_2f" transform="matrix(10,0,0,10,844.6,863.1)" />
<use xlink:href="#f2_i" transform="matrix(10,0,0,10,850.5,863.1)" />
</g>
<image preserveAspectRatio="none" x="545" y="887" width="230" height="207" xlink:href="img/3.png" />
<path fill-rule="evenodd" d="M125.4,111.1H371.1v35.2H125.4V111.1l2.2,32.8H368.9V113.3H127.6v30.6l-2.2,-32.8Z" class="g1_5" />
<path fill-rule="evenodd" d="M56.1,150.7H284.5v33H56.1v-33Z" class="g1_5" />
<path fill-rule="evenodd" d="M54.8,149.8H285.6V185H54.8V149.8l1.7,33.5H284.2v-32H56.5v32L54.8,149.8Z" class="g1_5" />
<g fill="#000000" >
<use xlink:href="#f5_5" transform="matrix(14,0,0,14,131.8,134.9)" />
<use xlink:href="#f5_2j" transform="matrix(14,0,0,14,144.7,134.9)" />
<use xlink:href="#f5_t" transform="matrix(14,0,0,14,156.8,134.9)" />
<use xlink:href="#f5_5" transform="matrix(14,0,0,14,167.2,134.9)" />
<use xlink:href="#f5_2x" transform="matrix(14,0,0,14,186.1,134.9)" />
<use xlink:href="#f5_1y" transform="matrix(14,0,0,14,200,134.9)" />
<use xlink:href="#f5_p" transform="matrix(14,0,0,14,214,134.9)" />
<use xlink:href="#f5_t" transform="matrix(14,0,0,14,227.5,134.9)" />
<use xlink:href="#f5_2j" transform="matrix(14,0,0,14,238,134.9)" />
<use xlink:href="#f5_2t" transform="matrix(14,0,0,14,255.6,134.9)" />
<use xlink:href="#f5_19" transform="matrix(14,0,0,14,266.2,134.9)" />
<use xlink:href="#f5_t" transform="matrix(14,0,0,14,280,134.9)" />
<use xlink:href="#f5_j" transform="matrix(14,0,0,14,296.1,134.9)" />
<use xlink:href="#f5_2x" transform="matrix(14,0,0,14,307.5,134.9)" />
<use xlink:href="#f5_2j" transform="matrix(14,0,0,14,321.4,134.9)" />
<use xlink:href="#f5_38" transform="matrix(14,0,0,14,333.5,134.9)" />
<use xlink:href="#f5_t" transform="matrix(14,0,0,14,346.1,134.9)" />
<use xlink:href="#f5_2n" transform="matrix(14,0,0,14,356.4,134.9)" />
</g>
<g fill="#FFFFFF" >
<use xlink:href="#f5_s3" transform="matrix(12,0,0,12,63.4,173.8)" />
<use xlink:href="#f5_nt" transform="matrix(12,0,0,12,72.6,173.8)" />
<use xlink:href="#f5_5" transform="matrix(12,0,0,12,82.5,173.8)" />
<use xlink:href="#f5_2j" transform="matrix(12,0,0,12,93.5,173.8)" />
<use xlink:href="#f5_t" transform="matrix(12,0,0,12,104,173.8)" />
<use xlink:href="#f5_5" transform="matrix(12,0,0,12,112.9,173.8)" />
<use xlink:href="#f5_24" transform="matrix(12,0,0,12,128.7,173.8)" />
<use xlink:href="#f5_13" transform="matrix(12,0,0,12,141.2,173.8)" />
<use xlink:href="#f5_2g" transform="matrix(12,0,0,12,154.7,173.8)" />
<use xlink:href="#f5_1r" transform="matrix(12,0,0,12,164.4,173.8)" />
<use xlink:href="#f5_5" transform="matrix(12,0,0,12,172,173.8)" />
<use xlink:href="#f5_1y" transform="matrix(12,0,0,12,183.1,173.8)" />
<use xlink:href="#f5_t" transform="matrix(12,0,0,12,195.4,173.8)" />
<use xlink:href="#f5_2j" transform="matrix(12,0,0,12,209,173.8)" />
<use xlink:href="#f5_t" transform="matrix(12,0,0,12,219.5,173.8)" />
<use xlink:href="#f5_14" transform="matrix(12,0,0,12,228.3,173.8)" />
<use xlink:href="#f5_1c" transform="matrix(12,0,0,12,240,173.8)" />
<use xlink:href="#f5_24" transform="matrix(12,0,0,12,244.9,173.8)" />
<use xlink:href="#f5_1y" transform="matrix(12,0,0,12,257.6,173.8)" />
<use xlink:href="#f5_2n" transform="matrix(12,0,0,12,269.7,173.8)" />
</g>
<g fill="#000000" >
<use xlink:href="#f1_l" transform="matrix(10,0,0,10,54.8,219.4)" />
<use xlink:href="#f1_i" transform="matrix(10,0,0,10,62.5,219.4)" />
<use xlink:href="#f2_1k" transform="matrix(10,0,0,10,99.4,219.4)" />
<use xlink:href="#f2_24" transform="matrix(10,0,0,10,109.1,219.4)" />
<use xlink:href="#f2_21" transform="matrix(10,0,0,10,116.4,219.4)" />
<use xlink:href="#f2_1x" transform="matrix(10,0,0,10,128,219.4)" />
<use xlink:href="#f2_2e" transform="matrix(10,0,0,10,134.8,219.4)" />
<use xlink:href="#f2_21" transform="matrix(10,0,0,10,139.9,219.4)" />
<use xlink:href="#f2_1x" transform="matrix(10,0,0,10,146.7,219.4)" />
<use xlink:href="#f2_1y" transform="matrix(10,0,0,10,158.1,219.4)" />
<use xlink:href="#f2_2b" transform="matrix(10,0,0,10,165.9,219.4)" />
<use xlink:href="#f2_2h" transform="matrix(10,0,0,10,173.6,219.4)" />
<use xlink:href="#f2_2a" transform="matrix(10,0,0,10,181.1,219.4)" />
<use xlink:href="#f2_20" transform="matrix(10,0,0,10,188.5,219.4)" />
<use xlink:href="#f2_21" transform="matrix(10,0,0,10,196.4,219.4)" />
<use xlink:href="#f2_20" transform="matrix(10,0,0,10,203.1,219.4)" />
<use xlink:href="#f2_1y" transform="matrix(10,0,0,10,215.3,219.4)" />
<use xlink:href="#f2_2l" transform="matrix(10,0,0,10,223.1,219.4)" />
<use xlink:href="#f2_2g" transform="matrix(10,0,0,10,234.9,219.4)" />
<use xlink:href="#f2_24" transform="matrix(10,0,0,10,239.1,219.4)" />
<use xlink:href="#f2_21" transform="matrix(10,0,0,10,246.8,219.4)" />
<use xlink:href="#f2_1z" transform="matrix(10,0,0,10,258.2,219.4)" />
<use xlink:href="#f2_2h" transform="matrix(10,0,0,10,265.1,219.4)" />
<use xlink:href="#f2_2e" transform="matrix(10,0,0,10,272.6,219.4)" />
<use xlink:href="#f2_2i" transform="matrix(10,0,0,10,277.8,219.4)" />
<use xlink:href="#f2_21" transform="matrix(10,0,0,10,285.1,219.4)" />
<use xlink:href="#f2_2l" transform="matrix(10,0,0,10,296.7,219.4)" />
<use xlink:href="#f2_x" transform="matrix(10,0,0,10,308.6,219.4)" />
<use xlink:href="#f3_22" transform="matrix(10,0,0,10,321.8,219.4)" />
<use xlink:href="#f2_c" transform="matrix(10,0,0,10,330.6,219.4)" />
<use xlink:href="#f2_2k" transform="matrix(10,0,0,10,335.9,219.4)" />
<use xlink:href="#f2_d" transform="matrix(10,0,0,10,343.2,219.4)" />
<use xlink:href="#f2_g" transform="matrix(10,0,0,10,348.5,219.4)" />
<use xlink:href="#f2_2k" transform="matrix(10,0,0,10,357.1,219.4)" />
<use xlink:href="#f2_h" transform="matrix(10,0,0,10,364.5,219.4)" />
<use xlink:href="#f2_1x" transform="matrix(10,0,0,10,369.6,219.4)" />
<use xlink:href="#f2_2k" transform="matrix(10,0,0,10,376.4,219.4)" />
<use xlink:href="#f2_25" transform="matrix(10,0,0,10,383.9,219.4)" />
<use xlink:href="#f2_2f" transform="matrix(10,0,0,10,388.1,219.4)" />
<use xlink:href="#f2_1x" transform="matrix(10,0,0,10,398.4,219.4)" />
<use xlink:href="#f2_2a" transform="matrix(10,0,0,10,405.4,219.4)" />
<use xlink:href="#f2_20" transform="matrix(10,0,0,10,412.7,219.4)" />
<use xlink:href="#f2_2g" transform="matrix(10,0,0,10,425.2,219.4)" />
<use xlink:href="#f2_24" transform="matrix(10,0,0,10,429.4,219.4)" />
<use xlink:href="#f2_21" transform="matrix(10,0,0,10,437.1,219.4)" />
<use xlink:href="#f2_2b" transform="matrix(10,0,0,10,99.4,241.6)" />
<use xlink:href="#f2_2e" transform="matrix(10,0,0,10,107.2,241.6)" />
<use xlink:href="#f2_20" transform="matrix(10,0,0,10,112.2,241.6)" />
<use xlink:href="#f2_25" transform="matrix(10,0,0,10,120.1,241.6)" />
<use xlink:href="#f2_2a" transform="matrix(10,0,0,10,124.1,241.6)" />
<use xlink:href="#f2_1x" transform="matrix(10,0,0,10,131.8,241.6)" />
<use xlink:href="#f2_2g" transform="matrix(10,0,0,10,138.6,241.6)" />
<use xlink:href="#f2_21" transform="matrix(10,0,0,10,142.8,241.6)" />
<use xlink:href="#f2_2f" transform="matrix(10,0,0,10,149.4,241.6)" />
<use xlink:href="#f2_2k" transform="matrix(10,0,0,10,159.5,241.6)" />
<use xlink:href="#f2_x" transform="matrix(10,0,0,10,171.6,241.6)" />
<use xlink:href="#f2_1x" transform="matrix(10,0,0,10,184.4,241.6)" />
<use xlink:href="#f2_i" transform="matrix(10,0,0,10,191.2,241.6)" />
<use xlink:href="#f2_1x" transform="matrix(10,0,0,10,199.3,241.6)" />
<use xlink:href="#f2_2a" transform="matrix(10,0,0,10,205.9,241.6)" />
<use xlink:href="#f2_20" transform="matrix(10,0,0,10,213.4,241.6)" />
<use xlink:href="#f2_2k" transform="matrix(10,0,0,10,225.5,241.6)" />
<use xlink:href="#f2_x" transform="matrix(10,0,0,10,237.2,241.6)" />
<use xlink:href="#f2_1y" transform="matrix(10,0,0,10,250.1,241.6)" />
<use xlink:href="#f2_c" transform="matrix(10,0,0,10,262.2,241.6)" />
<use xlink:href="#f2_2j" transform="matrix(10,0,0,10,267.1,241.6)" />
<use xlink:href="#f2_24" transform="matrix(10,0,0,10,277.8,241.6)" />
<use xlink:href="#f2_21" transform="matrix(10,0,0,10,285.3,241.6)" />
<use xlink:href="#f2_2e" transform="matrix(10,0,0,10,292.2,241.6)" />
<use xlink:href="#f2_21" transform="matrix(10,0,0,10,297.4,241.6)" />
<use xlink:href="#f2_1y" transform="matrix(10,0,0,10,308.6,241.6)" />
<use xlink:href="#f2_y" transform="matrix(10,0,0,10,320.3,241.6)" />
<use xlink:href="#f2_1x" transform="matrix(10,0,0,10,333.1,241.6)" />
<use xlink:href="#f2_d" transform="matrix(10,0,0,10,339.9,241.6)" />
<use xlink:href="#f2_25" transform="matrix(10,0,0,10,349.4,241.6)" />
<use xlink:href="#f2_2f" transform="matrix(10,0,0,10,353.5,241.6)" />
<use xlink:href="#f2_23" transform="matrix(10,0,0,10,363.9,241.6)" />
<use xlink:href="#f2_25" transform="matrix(10,0,0,10,371.3,241.6)" />
<use xlink:href="#f2_2i" transform="matrix(10,0,0,10,375.5,241.6)" />
<use xlink:href="#f2_21" transform="matrix(10,0,0,10,383,241.6)" />
<use xlink:href="#f2_2a" transform="matrix(10,0,0,10,389.8,241.6)" />
<use xlink:href="#f2_1y" transform="matrix(10,0,0,10,401.5,241.6)" />
<use xlink:href="#f2_2l" transform="matrix(10,0,0,10,409.4,241.6)" />
<use xlink:href="#f2_1y" transform="matrix(6.4,0,0,6.4,127.2,279)" />
<use xlink:href="#f2_1y" transform="matrix(6.4,0,0,6.4,183.2,279)" />
<use xlink:href="#f2_1x" transform="matrix(6.4,0,0,6.4,127.2,315.7)" />
<use xlink:href="#f2_1x" transform="matrix(6.4,0,0,6.4,183.2,315.7)" />
<use xlink:href="#f2_11" transform="matrix(10.7,0,0,10.7,102.1,297.9)" />
<use xlink:href="#f2_2o" transform="matrix(10.7,0,0,10.7,133.5,297.9)" />
<use xlink:href="#f2_2l" transform="matrix(10.7,0,0,10.7,139.3,297.9)" />
<use xlink:href="#f2_2o" transform="matrix(10.7,0,0,10.7,148.7,297.9)" />
<use xlink:href="#f2_20" transform="matrix(10.7,0,0,10.7,154.2,297.9)" />
<use xlink:href="#f2_2k" transform="matrix(10.7,0,0,10.7,160.8,297.9)" />
<use xlink:href="#f2_c" transform="matrix(10.7,0,0,10.7,204.2,297.9)" />
<use xlink:href="#f2_2k" transform="matrix(10.7,0,0,10.7,209.5,297.9)" />
<use xlink:href="#f2_d" transform="matrix(10.7,0,0,10.7,216.9,297.9)" />
<use xlink:href="#f2_2o" transform="matrix(10.7,0,0,10.7,223.8,297.9)" />
<use xlink:href="#f2_20" transform="matrix(10.7,0,0,10.7,229.3,297.9)" />
<use xlink:href="#f2_2k" transform="matrix(10.7,0,0,10.7,235.9,297.9)" />
<use xlink:href="#f4_x" transform="matrix(10.7,0,0,10.7,115.5,297.9)" />
<use xlink:href="#f4_x" transform="matrix(10.7,0,0,10.7,171.4,297.9)" />
<use xlink:href="#f4_50" transform="matrix(16.1,0,0,16.1,126.5,303.6)" />
<use xlink:href="#f4_50" transform="matrix(16.1,0,0,16.1,182.6,303.6)" />
<use xlink:href="#f3_2o" transform="matrix(10.7,0,0,10.7,188.8,297.9)" />
<use xlink:href="#f3_22" transform="matrix(10.7,0,0,10.7,197.5,297.9)" />
<use xlink:href="#f2_c" transform="matrix(10,0,0,10,54.8,355.5)" />
<use xlink:href="#f2_25" transform="matrix(10,0,0,10,59.9,355.5)" />
<use xlink:href="#f2_d" transform="matrix(10,0,0,10,64.4,355.5)" />
<use xlink:href="#f2_19" transform="matrix(10,0,0,10,99.6,355.5)" />
<use xlink:href="#f2_22" transform="matrix(10,0,0,10,104.7,355.5)" />
<use xlink:href="#f2_22" transform="matrix(10,0,0,10,113.7,355.5)" />
<use xlink:href="#f2_c" transform="matrix(10,0,0,10,122.7,355.5)" />
<use xlink:href="#f2_2k" transform="matrix(10,0,0,10,127.6,355.5)" />
<use xlink:href="#f2_d" transform="matrix(10,0,0,10,135.3,355.5)" />
<use xlink:href="#f2_y" transform="matrix(10,0,0,10,144.5,355.5)" />
<use xlink:href="#f2_k" transform="matrix(10,0,0,10,156.9,355.5)" />
<use xlink:href="#f4_6" transform="matrix(10.2,0,0,10.2,171.2,356.4)" />
<use xlink:href="#f2_2k" transform="matrix(10,0,0,10,185.9,355.5)" />
<use xlink:href="#f4_40" transform="matrix(10,0,0,10,197.5,355.5)" />
<use xlink:href="#f2_1r" transform="matrix(10,0,0,10,212.5,355.5)" />
<use xlink:href="#f2_1x" transform="matrix(10,0,0,10,217.6,355.5)" />
<use xlink:href="#f2_g" transform="matrix(10,0,0,10,224.4,355.5)" />
<use xlink:href="#f2_1y" transform="matrix(10,0,0,10,232.3,355.5)" />
<use xlink:href="#f2_1t" transform="matrix(10,0,0,10,239.8,355.5)" />
<use xlink:href="#f2_1k" transform="matrix(10,0,0,10,99.4,411.2)" />
<use xlink:href="#f2_24" transform="matrix(10,0,0,10,109.1,411.2)" />
<use xlink:href="#f2_21" transform="matrix(10,0,0,10,116.4,411.2)" />
<use xlink:href="#f2_2a" transform="matrix(10,0,0,10,123.4,411.2)" />
<use xlink:href="#f2_1y" transform="matrix(6.5,0,0,6.5,169.2,393.2)" />
<use xlink:href="#f2_1x" transform="matrix(6.5,0,0,6.5,169.2,430.3)" />
</g>
<g clip-path="url(#c1_5)">
<g fill="#000000" >
<use xlink:href="#f2_11" transform="matrix(10.8,0,0,10.8,138.8,412.1)" />
<use xlink:href="#f2_c" transform="matrix(10.8,0,0,10.8,189.6,412.1)" />
<use xlink:href="#f2_2k" transform="matrix(10.8,0,0,10.8,195.8,412.1)" />
<use xlink:href="#f2_d" transform="matrix(10.8,0,0,10.8,204.6,412.1)" />
<use xlink:href="#f2_20" transform="matrix(10.8,0,0,10.8,213.9,412.1)" />
<use xlink:href="#f2_2k" transform="matrix(10.8,0,0,10.8,222,412.1)" />
</g>
</g>
<g fill="#000000" >
<use xlink:href="#f4_x" transform="matrix(10.8,0,0,10.8,155.1,412.1)" />
<use xlink:href="#f4_50" transform="matrix(16.2,0,0,16.2,168.5,418.2)" />
<use xlink:href="#f3_22" transform="matrix(10.8,0,0,10.8,181.1,412.1)" />
</g>
<image preserveAspectRatio="none" x="173" y="491" width="153" height="156" xlink:href="img/4.png" />
<g fill="#000000" >
<use xlink:href="#f2_c" transform="matrix(10,0,0,10,54.8,706.9)" />
<use xlink:href="#f2_25" transform="matrix(10,0,0,10,60.1,706.9)" />
<use xlink:href="#f2_25" transform="matrix(10,0,0,10,64.4,706.9)" />
<use xlink:href="#f2_d" transform="matrix(10,0,0,10,68.8,706.9)" />
<use xlink:href="#f2_19" transform="matrix(10,0,0,10,99.4,706.9)" />
<use xlink:href="#f2_22" transform="matrix(10,0,0,10,104.7,706.9)" />
<use xlink:href="#f2_22" transform="matrix(10,0,0,10,113.7,706.9)" />
<use xlink:href="#f2_c" transform="matrix(10,0,0,10,122.7,706.9)" />
<use xlink:href="#f2_2k" transform="matrix(10,0,0,10,127.8,706.9)" />
<use xlink:href="#f2_d" transform="matrix(10,0,0,10,135.1,706.9)" />
<use xlink:href="#f2_y" transform="matrix(10,0,0,10,144.3,706.9)" />
<use xlink:href="#f2_k" transform="matrix(10,0,0,10,156.9,706.9)" />
<use xlink:href="#f4_6" transform="matrix(10.2,0,0,10.2,171.2,707.5)" />
<use xlink:href="#f2_2k" transform="matrix(10,0,0,10,185.9,706.9)" />
<use xlink:href="#f4_40" transform="matrix(10,0,0,10,197.5,706.9)" />
<use xlink:href="#f2_1r" transform="matrix(10,0,0,10,212.5,706.9)" />
<use xlink:href="#f2_1x" transform="matrix(10,0,0,10,217.6,706.9)" />
<use xlink:href="#f2_g" transform="matrix(10,0,0,10,224.4,706.9)" />
<use xlink:href="#f2_1z" transform="matrix(10,0,0,10,232.3,706.9)" />
<use xlink:href="#f2_d" transform="matrix(10,0,0,10,239.1,706.9)" />
<use xlink:href="#f2_a" transform="matrix(10,0,0,10,248.2,706.9)" />
<use xlink:href="#f2_w" transform="matrix(10,0,0,10,144.3,737.4)" />
<use xlink:href="#f2_k" transform="matrix(10,0,0,10,156.9,737.4)" />
<use xlink:href="#f4_6" transform="matrix(10.2,0,0,10.2,171.2,738.3)" />
<use xlink:href="#f2_2k" transform="matrix(10,0,0,10,185.9,737.4)" />
<use xlink:href="#f4_40" transform="matrix(10,0,0,10,197.6,737.4)" />
<use xlink:href="#f2_c" transform="matrix(10,0,0,10,212.7,737.4)" />
<use xlink:href="#f2_1z" transform="matrix(10,0,0,10,217.8,737.4)" />
<use xlink:href="#f2_g" transform="matrix(10,0,0,10,224.6,737.4)" />
<use xlink:href="#f2_1y" transform="matrix(10,0,0,10,232.5,737.4)" />
<use xlink:href="#f2_1t" transform="matrix(10,0,0,10,240,737.4)" />
<use xlink:href="#f2_1k" transform="matrix(10,0,0,10,249.3,737.4)" />
<use xlink:href="#f2_24" transform="matrix(10,0,0,10,258.7,737.4)" />
<use xlink:href="#f2_21" transform="matrix(10,0,0,10,266.4,737.4)" />
<use xlink:href="#f2_2a" transform="matrix(10,0,0,10,273.2,737.4)" />
</g>
<path d="M130.2,767.3v48.9m49.5,-48.9v48.9m18.1,-48.9v48.9m49.5,-48.9v48.9" class="g2_5" />
<g fill="#000000" >
<use xlink:href="#f4_50" transform="matrix(17.9,0,0,17.9,204.2,802.8)" />
<use xlink:href="#f4_50" transform="matrix(17.9,0,0,17.9,136.8,802.8)" />
<use xlink:href="#f4_f" transform="matrix(10,0,0,10,184.6,795.7)" />
<use xlink:href="#f4_x" transform="matrix(10,0,0,10,117.3,795.7)" />
<use xlink:href="#f2_1y" transform="matrix(6,0,0,6,205.7,775.7)" />
<use xlink:href="#f2_1z" transform="matrix(6,0,0,6,205.9,814.5)" />
<use xlink:href="#f2_1z" transform="matrix(6,0,0,6,138.4,775.7)" />
<use xlink:href="#f2_1x" transform="matrix(6,0,0,6,138.1,814.5)" />
<use xlink:href="#f2_20" transform="matrix(10,0,0,10,225.9,795.7)" />
<use xlink:href="#f2_2k" transform="matrix(10,0,0,10,233.8,795.7)" />
<use xlink:href="#f2_2l" transform="matrix(10,0,0,10,214.7,795.7)" />
<use xlink:href="#f2_20" transform="matrix(10,0,0,10,158.4,795.7)" />
<use xlink:href="#f2_2k" transform="matrix(10,0,0,10,166.1,795.7)" />
<use xlink:href="#f2_2l" transform="matrix(10,0,0,10,147,795.7)" />
<use xlink:href="#f2_11" transform="matrix(10,0,0,10,102.1,795.7)" />
<use xlink:href="#f2_x" transform="matrix(10,0,0,10,251.7,801.2)" />
<use xlink:href="#f2_1z" transform="matrix(6.1,0,0,6.1,271.7,784.5)" />
<use xlink:href="#f2_1y" transform="matrix(6.1,0,0,6.1,344.1,784.5)" />
<use xlink:href="#f2_1x" transform="matrix(6.1,0,0,6.1,269.3,804.8)" />
<use xlink:href="#f2_1z" transform="matrix(6.1,0,0,6.1,341.7,804.8)" />
<use xlink:href="#f2_22" transform="matrix(10.1,0,0,10.1,277.8,796.2)" />
<use xlink:href="#f2_c" transform="matrix(10.1,0,0,10.1,285.1,796.2)" />
<use xlink:href="#f2_2k" transform="matrix(10.1,0,0,10.1,290.9,796.2)" />
<use xlink:href="#f2_d" transform="matrix(10.1,0,0,10.1,299.4,796.2)" />
<use xlink:href="#f2_20" transform="matrix(10.1,0,0,10.1,306.3,796.2)" />
<use xlink:href="#f2_2k" transform="matrix(10.1,0,0,10.1,314,796.2)" />
<use xlink:href="#f2_22" transform="matrix(10.1,0,0,10.1,350.9,796.2)" />
<use xlink:href="#f2_c" transform="matrix(10.1,0,0,10.1,358.2,796.2)" />
<use xlink:href="#f2_2k" transform="matrix(10.1,0,0,10.1,363.9,796.2)" />
<use xlink:href="#f2_d" transform="matrix(10.1,0,0,10.1,372.5,796.2)" />
<use xlink:href="#f2_20" transform="matrix(10.1,0,0,10.1,379.5,796.2)" />
<use xlink:href="#f2_2k" transform="matrix(10.1,0,0,10.1,386.8,796.2)" />
<use xlink:href="#f4_h" transform="matrix(10.1,0,0,10.1,324.7,796.2)" />
<use xlink:href="#f4_50" transform="matrix(15.2,0,0,15.2,263.8,801.9)" />
<use xlink:href="#f4_50" transform="matrix(15.2,0,0,15.2,336.1,801.9)" />
<use xlink:href="#f2_2j" transform="matrix(10,0,0,10,99.4,852.5)" />
<use xlink:href="#f2_24" transform="matrix(10,0,0,10,110.2,852.5)" />
<use xlink:href="#f2_21" transform="matrix(10,0,0,10,117.5,852.5)" />
<use xlink:href="#f2_2e" transform="matrix(10,0,0,10,124.5,852.5)" />
<use xlink:href="#f2_21" transform="matrix(10,0,0,10,129.6,852.5)" />
<use xlink:href="#f2_1z" transform="matrix(10,0,0,10,140.8,852.5)" />
<use xlink:href="#f2_25" transform="matrix(10,0,0,10,151.8,852.5)" />
<use xlink:href="#f2_2f" transform="matrix(10,0,0,10,155.8,852.5)" />
<use xlink:href="#f2_1x" transform="matrix(10,0,0,10,166.3,852.5)" />
<use xlink:href="#f2_2c" transform="matrix(10,0,0,10,177.5,852.5)" />
<use xlink:href="#f2_2b" transform="matrix(10,0,0,10,185.2,852.5)" />
<use xlink:href="#f2_25" transform="matrix(10,0,0,10,192.7,852.5)" />
<use xlink:href="#f2_2a" transform="matrix(10,0,0,10,196.9,852.5)" />
<use xlink:href="#f2_2g" transform="matrix(10,0,0,10,204.4,852.5)" />
<use xlink:href="#f2_25" transform="matrix(10,0,0,10,212.9,852.5)" />
<use xlink:href="#f2_2a" transform="matrix(10,0,0,10,217.1,852.5)" />
<use xlink:href="#f2_1y" transform="matrix(10,0,0,10,229,852.5)" />
<use xlink:href="#f2_21" transform="matrix(10,0,0,10,236.9,852.5)" />
<use xlink:href="#f2_2g" transform="matrix(10,0,0,10,243.7,852.5)" />
<use xlink:href="#f2_2j" transform="matrix(10,0,0,10,247.7,852.5)" />
<use xlink:href="#f2_21" transform="matrix(10,0,0,10,258.3,852.5)" />
<use xlink:href="#f2_21" transform="matrix(10,0,0,10,265.3,852.5)" />
<use xlink:href="#f2_2a" transform="matrix(10,0,0,10,272.1,852.5)" />
<use xlink:href="#f2_1x" transform="matrix(10,0,0,10,283.8,852.5)" />
<use xlink:href="#f2_1x" transform="matrix(10,0,0,10,294.8,852.5)" />
<use xlink:href="#f2_2a" transform="matrix(10,0,0,10,301.6,852.5)" />
<use xlink:href="#f2_20" transform="matrix(10,0,0,10,309.1,852.5)" />
<use xlink:href="#f2_1y" transform="matrix(10,0,0,10,321.4,852.5)" />
<use xlink:href="#f2_i" transform="matrix(10,0,0,10,329.1,852.5)" />
</g>
<image preserveAspectRatio="none" x="122" y="876" width="254" height="173" xlink:href="img/5.png" />
<path d="M55.2,96.1H854.1V73.8H55.2V96.1Z" class="g3_5" />
<defs>
<path d="M514,166c0,0,122,0,191,38c0,0,69,38,111,121c0,0,43,83,43,199c0,0,0,113,-40,197c0,0,-40,84,-99,119c0,0,-59,34,-168,34H437V226c0,0,0,-33,4,-40c0,0,6,-12,17,-16c0,0,12,-4,56,-4ZM55,0V144H91c0,0,46,0,60,7c0,0,15,8,24,26c0,0,6,14,6,61V807c0,0,0,48,-6,62c0,0,-7,13,-21,21c0,0,-15,7,-62,7H56v143H601c0,0,186,0,296,-59c0,0,110,-58,175,-174c0,0,65,-116,65,-278c0,0,0,-112,-33,-201c0,0,-33,-89,-99,-160c0,0,-66,-71,-141,-107C864,61,807,34,703,17C703,17,599,0,536,0Z" 
id="f0_14"
transform="scale(0.001,-0.001)" />

<path d="M59,0V144H85c0,0,52,0,70,7c0,0,18,8,25,26c0,0,4,11,4,64V808c0,0,0,46,-7,60c0,0,-6,14,-19,22c0,0,-14,7,-53,7H59v143H928L1046,712L911,663c0,0,-34,81,-80,130c0,0,-46,49,-102,65c0,0,-55,16,-129,16H441V615h52c0,0,59,0,80,9c0,0,20,8,29,26c0,0,9,19,9,73v40H744V322H611v45c0,0,0,45,-11,66c0,0,-11,21,-29,29c0,0,-19,7,-83,7H441V230c0,0,0,-38,4,-47c0,0,3,-8,14,-12c0,0,11,-5,47,-5h87c0,0,98,0,165,28c0,0,67,28,120,91c0,0,53,63,81,149l136,-47L959,0Z" 
id="f0_15"
transform="scale(0.001,-0.001)" />

<path d="M59,0V144H92c0,0,57,0,74,14c0,0,18,15,18,59V815c0,0,0,41,-7,55c0,0,-7,13,-22,20c0,0,-16,7,-63,7H59v143H919L1037,709L902,662c0,0,-33,72,-63,109c0,0,-29,37,-70,61c0,0,-41,25,-89,33c0,0,-32,5,-114,5H438V594h66c0,0,37,0,58,12c0,0,22,11,31,29c0,0,9,18,9,60v55H736V284H602v67c0,0,0,29,-5,43c0,0,-7,18,-19,29c0,0,-12,11,-27,15c0,0,-15,5,-55,5H438V224c0,0,0,-39,7,-53c0,0,6,-14,21,-21c0,0,15,-6,58,-6h42V0Z" 
id="f0_16"
transform="scale(0.001,-0.001)" />

<path d="M52,0V144H93c0,0,44,0,58,6c0,0,13,6,20,20c0,0,6,14,6,55V803c0,0,0,49,-6,64c0,0,-7,15,-22,24c0,0,-10,6,-51,6H52v143H559V897H513c0,0,-40,0,-53,-7c0,0,-13,-8,-20,-23c0,0,-6,-15,-6,-58V233c0,0,0,-47,5,-61c0,0,6,-13,18,-19c0,0,16,-9,47,-9h55V0Z" 
id="f0_19"
transform="scale(0.001,-0.001)" />

<path d="M59,0V144h44c0,0,37,0,51,6c0,0,14,6,22,22c0,0,8,16,8,47V816c0,0,0,34,-8,50c0,0,-7,16,-20,24c0,0,-12,7,-42,7H59v143H480L786,433V805c0,0,0,48,-5,60c0,0,-8,17,-20,25c0,0,-13,7,-49,7H661v143h428V897h-47c0,0,-36,0,-51,-9c0,0,-15,-8,-21,-22c0,0,-6,-14,-6,-61V0H750L364,767V230c0,0,0,-46,5,-59c0,0,6,-12,20,-20c0,0,15,-7,50,-7h50V0Z" 
id="f0_1e"
transform="scale(0.001,-0.001)" />

<path d="M280,0V144h30c0,0,51,0,66,6c0,0,14,6,21,22c0,0,8,17,8,67V851c0,0,0,26,-6,33c0,0,-6,7,-26,7c0,0,-38,0,-86,-29c0,0,-48,-29,-85,-82c0,0,-15,-21,-63,-118L2,711l128,365h99l10,-36H826l13,36h99L1067,711L928,662c0,0,-46,91,-66,119c0,0,-40,55,-92,86c0,0,-38,24,-77,24c0,0,-18,0,-24,-9c0,0,-7,-8,-7,-39V244c0,0,0,-53,4,-66c0,0,3,-13,12,-21c0,0,9,-8,25,-11c0,0,16,-2,84,-2V0Z" 
id="f0_1k"
transform="scale(0.001,-0.001)" />

<path d="M568,-17c0,0,-143,0,-260,69c0,0,-117,69,-185,193c0,0,-68,125,-68,279c0,0,0,153,67,274c0,0,68,121,189,190c0,0,121,70,263,70c0,0,68,0,136,-17c0,0,69,-18,117,-47l28,46H959l94,-344L916,651c0,0,-71,113,-111,154c0,0,-41,41,-94,65c0,0,-52,23,-102,23c0,0,-71,0,-133,-41c0,0,-61,-41,-97,-120c0,0,-36,-79,-36,-191c0,0,0,-123,39,-213c0,0,40,-90,103,-134c0,0,64,-43,140,-43c0,0,53,0,102,21c0,0,48,22,66,49c0,0,18,26,18,72v38c0,0,0,39,-6,49c0,0,-8,15,-22,22c0,0,-13,7,-53,7H671V554h507V409h-38c0,0,-37,0,-51,-7c0,0,-14,-7,-20,-21c0,0,-7,-15,-7,-56V0H909L870,75C870,75,799,28,724,5c0,0,-75,-22,-156,-22Z" 
id="f0_17"
transform="scale(0.001,-0.001)" />

<path d="M593,600c0,0,92,0,137,17c0,0,45,17,68,48c0,0,22,31,22,76c0,0,0,41,-21,71c0,0,-21,29,-60,43c0,0,-40,14,-128,14H439V600ZM55,0V144h46c0,0,37,0,52,8c0,0,16,7,23,23c0,0,4,9,4,56V816c0,0,0,35,-6,49c0,0,-5,15,-18,19c0,0,-18,8,-41,8H55v148H697c0,0,62,0,135,-11c0,0,74,-11,133,-49c0,0,60,-38,92,-96c0,0,33,-59,33,-132c0,0,0,-118,-84,-192c0,0,-85,-73,-201,-96L1019,215l9,-11c0,0,21,-25,38,-38c0,0,17,-12,34,-17c0,0,18,-5,48,-5h45V0H859L526,448H439V241c0,0,0,-54,6,-69c0,0,6,-14,19,-21c0,0,13,-7,52,-7h48V0Z" 
id="f0_1i"
transform="scale(0.001,-0.001)" />

<path d="M610,480L509,765L404,480ZM2,0V144c0,0,39,0,56,6c0,0,18,7,30,21c0,0,11,13,25,49l322,820H669L981,237c0,0,25,-64,45,-79c0,0,19,-14,68,-14c2,0,3,0,5,0V0H606V144h30c0,0,41,0,58,11c0,0,16,11,16,27c0,0,0,13,-14,55l-32,94H349L310,226c0,0,-12,-33,-12,-44c0,0,0,-11,8,-21c0,0,9,-10,28,-14c0,0,13,-3,71,-3V0Z" 
id="f0_11"
transform="scale(0.001,-0.001)" />

<path d="M611,148c0,0,117,0,187,88c0,0,83,105,83,281c0,0,0,124,-35,208c0,0,-36,84,-96,126c0,0,-61,42,-132,42c0,0,-118,0,-189,-89c0,0,-88,-112,-88,-289c0,0,0,-176,82,-279c0,0,71,-88,188,-88ZM608,-17c0,0,-231,0,-378,126C230,109,53,262,53,518c0,0,0,237,155,389c0,0,156,151,407,151c0,0,248,0,401,-151c0,0,153,-150,153,-386c0,0,0,-159,-70,-282c0,0,-70,-123,-193,-190c0,0,-124,-66,-298,-66Z" 
id="f0_1f"
transform="scale(0.001,-0.001)" />

<path d="M495,160c0,0,61,0,122,27c0,0,-17,28,-29,62L548,388c0,0,-22,73,-35,102c0,0,-13,29,-26,45c0,0,-13,16,-34,32c0,0,-73,-37,-110,-92c0,0,-37,-56,-37,-119c0,0,0,-82,56,-139c0,0,55,-57,133,-57ZM453,713c0,0,19,0,38,12c0,0,20,12,28,33c0,0,12,26,12,59c0,0,0,52,-22,78c0,0,-23,25,-54,25c0,0,-34,0,-56,-27c0,0,-22,-27,-22,-80c0,0,0,-46,23,-73c0,0,22,-27,53,-27ZM434,-17c0,0,-169,0,-274,96C160,79,55,176,55,316c0,0,0,117,67,204c0,0,52,68,177,138c0,0,-52,33,-79,77c0,0,-26,45,-26,99c0,0,0,93,72,159c0,0,73,65,190,65c0,0,120,0,187,-60c0,0,67,-60,67,-151c0,0,0,-76,-38,-130c0,0,-30,-42,-90,-72c0,0,41,-19,65,-40c0,0,33,-29,67,-79c0,0,21,-33,84,-160c0,0,43,98,43,141c0,0,0,12,-7,21c0,0,-8,9,-20,11c0,0,-9,3,-59,3V684h366V542h-45c0,0,-38,0,-53,-8c0,0,-15,-7,-25,-25c0,0,-6,-10,-24,-83c0,0,-13,-47,-40,-105c0,0,-27,-58,-60,-105c0,0,33,-50,55,-65c0,0,22,-16,45,-16c0,0,26,0,44,17c0,0,17,18,17,46c0,0,0,26,-22,64c0,0,-22,35,-22,60c0,0,0,38,30,67c0,0,30,29,72,29c0,0,54,0,91,-44c0,0,37,-44,37,-123c0,0,0,-117,-82,-193c0,0,-83,-75,-218,-75c0,0,-68,0,-113,17c0,0,-45,17,-97,65c0,0,-119,-82,-277,-82Z" 
id="f0_a"
transform="scale(0.001,-0.001)" />

<path d="M37,0V16c0,0,275,327,333,439c0,0,59,113,59,220c0,0,0,79,-49,131c0,0,-49,52,-119,52c0,0,-115,0,-178,-115l-28,9c0,0,40,143,123,212c0,0,82,69,189,69c0,0,77,0,141,-36c0,0,63,-36,99,-98c0,0,36,-63,36,-117c0,0,0,-99,-56,-202c0,0,-75,-138,-329,-384H477c0,0,81,0,105,6c0,0,24,7,40,23c0,0,15,16,41,67h27L633,0Z" 
id="f1_m"
transform="scale(0.001,-0.001)" />

<path d="M191,-18c0,0,-51,0,-87,36c0,0,-37,36,-37,87c0,0,0,52,37,88c0,0,36,37,87,37c0,0,52,0,89,-37c0,0,36,-36,36,-88c0,0,0,-51,-37,-87c0,0,-36,-36,-88,-36Z" 
id="f1_i"
transform="scale(0.001,-0.001)" />

<path d="M253,0V27h36c0,0,64,0,91,39c0,0,16,24,16,109V948H274c0,0,-71,0,-100,-10c0,0,-39,-14,-67,-54c0,0,-27,-41,-33,-109H46l12,237H883L894,775H865c0,0,-8,62,-22,89c0,0,-23,43,-61,64c0,0,-39,20,-101,20H539V175c0,0,0,-93,20,-116c0,0,28,-32,87,-32h36V0Z" 
id="f2_1k"
transform="scale(0.001,-0.001)" />

<path d="M20,0V26c0,0,45,0,71,15c0,0,15,7,24,28c0,0,9,21,9,85V773c0,0,0,117,-5,144c0,0,-6,27,-17,37c0,0,-12,9,-31,9c0,0,-16,0,-51,-12L10,978l204,83h34V561c0,0,83,91,131,116c0,0,49,26,97,26c0,0,58,0,100,-32c0,0,42,-32,62,-101c0,0,14,-47,14,-174V154c0,0,0,-65,11,-89c0,0,7,-18,25,-28c0,0,18,-11,66,-11V0H418V26h15c0,0,48,0,67,15c0,0,18,15,26,43c0,0,2,12,2,70V396c0,0,0,112,-12,147c0,0,-11,35,-36,53c0,0,-26,17,-61,17c0,0,-37,0,-76,-19c0,0,-40,-20,-95,-79V154c0,0,0,-70,8,-87c0,0,8,-17,29,-29c0,0,22,-12,74,-12V0Z" 
id="f2_24"
transform="scale(0.001,-0.001)" />

<path d="M479,469c0,0,-4,66,-16,93c0,0,-18,42,-55,65c0,0,-37,24,-78,24c0,0,-62,0,-111,-48c0,0,-48,-48,-57,-134ZM355,-20c0,0,-123,0,-211,95c0,0,-87,96,-87,258c0,0,0,175,90,273c0,0,89,98,225,98c0,0,115,0,189,-76c0,0,74,-75,74,-202H162c0,0,0,-152,74,-239c0,0,75,-86,175,-86c0,0,67,0,117,36c0,0,50,37,83,127l24,-15c0,0,-16,-102,-91,-186c0,0,-76,-83,-189,-83Z" 
id="f2_21"
transform="scale(0.001,-0.001)" />

<path d="M286,72c0,0,57,0,149,75V407c0,0,-113,-45,-145,-64c0,0,-59,-32,-85,-68c0,0,-25,-36,-25,-78c0,0,0,-54,32,-89c0,0,32,-36,74,-36ZM217,-13c0,0,-71,0,-116,48c0,0,-46,48,-46,127c0,0,0,50,22,87c0,0,31,50,106,95c0,0,76,45,252,109v26c0,0,0,102,-32,140c0,0,-32,38,-94,38c0,0,-47,0,-74,-25c0,0,-28,-25,-28,-58l1,-43c0,0,0,-34,-17,-53c0,0,-18,-18,-47,-18c0,0,-28,0,-45,19c0,0,-18,19,-18,53c0,0,0,64,66,117c0,0,65,54,184,54c0,0,91,0,149,-31c0,0,44,-23,65,-72c0,0,13,-32,13,-131V238c0,0,0,-98,4,-120c0,0,4,-22,12,-29c0,0,9,-8,20,-8c0,0,12,0,21,5c0,0,16,10,61,55V99C676,99,592,-12,516,-12c0,0,-37,0,-58,24c0,0,-22,26,-23,86C435,98,330,17,303,5c0,0,-40,-18,-86,-18Z" 
id="f2_1x"
transform="scale(0.001,-0.001)" />

<path d="M17,0V26c0,0,52,0,77,17c0,0,19,12,26,38c0,0,4,13,4,73V419c0,0,0,119,-5,142c0,0,-4,23,-17,33c0,0,-13,11,-33,11c0,0,-23,0,-52,-11l-7,26l207,83h31V549c0,0,86,154,176,154c0,0,41,0,68,-25c0,0,27,-25,27,-58c0,0,0,-29,-20,-49c0,0,-19,-20,-46,-20c0,0,-26,0,-58,25c0,0,-33,26,-48,26c0,0,-14,0,-29,-15c0,0,-34,-30,-70,-101V159c0,0,0,-56,15,-85c0,0,9,-20,34,-34c0,0,24,-14,71,-14V0Z" 
id="f2_2e"
transform="scale(0.001,-0.001)" />

<path d="M397,34c0,0,67,0,126,75c0,0,58,74,58,216c0,0,0,131,-58,201c0,0,-59,70,-133,70c0,0,-39,0,-79,-20c0,0,-29,-14,-75,-59V109c0,0,37,-37,78,-56c0,0,40,-19,83,-19ZM358,-20c0,0,-59,0,-121,21c0,0,-61,22,-126,65V773c0,0,0,117,-5,144c0,0,-6,27,-18,37c0,0,-12,9,-29,9c0,0,-21,0,-53,-12l-9,27l205,83h34V564c0,0,98,139,213,139c0,0,105,0,183,-90c0,0,78,-90,78,-245c0,0,0,-182,-121,-293c0,0,-103,-95,-231,-95Z" 
id="f2_1y"
transform="scale(0.001,-0.001)" />

<path d="M406,32c0,0,72,0,119,60c0,0,47,59,47,205c0,0,0,181,-78,286c0,0,-53,71,-135,71c0,0,-40,0,-79,-23c0,0,-40,-24,-65,-83c0,0,-24,-58,-24,-151c0,0,0,-149,59,-257c0,0,59,-108,156,-108ZM374,-20c0,0,-154,0,-245,122c0,0,-77,104,-77,233c0,0,0,94,46,187c0,0,47,92,123,137c0,0,76,44,161,44c0,0,155,0,249,-118c0,0,80,-100,80,-231c0,0,0,-91,-44,-185C667,169,623,75,546,27c0,0,-77,-47,-172,-47Z" 
id="f2_2b"
transform="scale(0.001,-0.001)" />

<path d="M292,-20c0,0,-57,0,-100,33c0,0,-42,33,-58,85c0,0,-17,52,-17,148V551c0,0,0,49,-10,68c0,0,-11,18,-31,29c0,0,-19,9,-68,9c-2,0,-4,0,-6,0v26H242V226c0,0,0,-95,33,-125c0,0,33,-30,80,-30c0,0,32,0,73,21c0,0,40,20,96,76V555c0,0,0,59,-21,80c0,0,-22,21,-89,22v26H647V269c0,0,0,-119,6,-145c0,0,6,-27,18,-37c0,0,12,-11,29,-11c0,0,23,0,52,13L763,63L558,-20H524V124C524,124,436,29,390,4c0,0,-47,-24,-98,-24Z" 
id="f2_2h"
transform="scale(0.001,-0.001)" />

<path d="M21,0V26H35c0,0,53,0,71,27c0,0,18,27,18,101V408c0,0,0,123,-5,150c0,0,-6,27,-17,37c0,0,-12,10,-31,10c0,0,-21,0,-50,-11L10,620l206,83h32V558c0,0,120,145,229,145c0,0,56,0,96,-28c0,0,40,-28,64,-92c0,0,16,-45,16,-137V154c0,0,0,-65,11,-88c0,0,8,-19,26,-29c0,0,18,-11,68,-11V0H419V26h14c0,0,47,0,66,15c0,0,20,15,27,43c0,0,3,11,3,70V434c0,0,0,93,-24,135c0,0,-24,42,-81,42c0,0,-88,0,-176,-97V154c0,0,0,-69,9,-86c0,0,10,-21,28,-31c0,0,19,-11,75,-11V0Z" 
id="f2_2a"
transform="scale(0.001,-0.001)" />

<path d="M399,62c0,0,68,0,131,68V481c0,0,-5,51,-27,93c0,0,-22,42,-59,63c0,0,-37,21,-72,21c0,0,-65,0,-117,-59c0,0,-67,-77,-67,-226c0,0,0,-151,65,-231c0,0,66,-80,146,-80ZM330,-20c0,0,-112,0,-196,93c0,0,-83,94,-83,240c0,0,0,147,92,269c0,0,93,122,238,122c0,0,90,0,149,-58V773c0,0,0,117,-6,144c0,0,-5,27,-17,37c0,0,-12,9,-30,9c0,0,-20,0,-52,-12l-9,27l204,83h33V270c0,0,0,-120,6,-146c0,0,5,-27,18,-37c0,0,12,-11,28,-11c0,0,21,0,54,13l9,-26L564,-20H530V78C530,78,480,25,432,2c0,0,-47,-22,-102,-22Z" 
id="f2_20"
transform="scale(0.001,-0.001)" />

<path d="M145,-328c0,0,-44,0,-73,25c0,0,-28,25,-28,58c0,0,0,31,21,50c0,0,20,19,56,19c0,0,25,0,67,-16c0,0,30,-11,38,-11c0,0,22,0,49,23c0,0,26,23,53,89L376,28L131,542c0,0,-11,24,-36,58c0,0,-19,27,-30,36c0,0,-18,12,-56,21v26H328V657H312c0,0,-33,0,-50,-15c0,0,-17,-14,-17,-36c0,0,0,-30,25,-81L437,179L589,557c0,0,12,31,12,62c0,0,0,13,-5,20c0,0,-6,8,-19,13c0,0,-12,5,-44,5v26H754V657c0,0,-27,-3,-42,-12c0,0,-15,-9,-33,-34c0,0,-7,-10,-25,-58L376,-128c0,0,-40,-99,-105,-150c0,0,-66,-50,-126,-50Z" 
id="f2_2l"
transform="scale(0.001,-0.001)" />

<path d="M255,-10c0,0,-35,0,-68,18c0,0,-32,19,-48,55c0,0,-16,35,-16,109V632H15v24c0,0,41,16,84,56c0,0,43,39,77,92c0,0,17,29,48,104h23V683H407V632H247V188c0,0,0,-66,19,-90c0,0,19,-23,49,-23c0,0,24,0,47,16c0,0,23,15,36,45h29c0,0,-26,-73,-74,-110c0,0,-47,-36,-98,-36Z" 
id="f2_2g"
transform="scale(0.001,-0.001)" />

<path d="M342,-20c0,0,-116,0,-203,97c0,0,-86,98,-86,264c0,0,0,161,96,261c0,0,95,101,230,101c0,0,100,0,165,-53c0,0,65,-54,65,-111c0,0,0,-29,-18,-46c0,0,-18,-18,-51,-18c0,0,-44,0,-66,29c0,0,-13,15,-17,59c0,0,-4,45,-30,68c0,0,-26,22,-73,22c0,0,-74,0,-120,-55c0,0,-60,-73,-60,-193c0,0,0,-122,60,-216c0,0,60,-93,162,-93c0,0,73,0,131,49c0,0,41,35,80,126l22,-10C629,261,601,125,521,52c0,0,-81,-72,-179,-72Z" 
id="f2_1z"
transform="scale(0.001,-0.001)" />

<path d="M376,-20L133,556c0,0,-17,41,-31,58c0,0,-15,18,-39,30c0,0,-12,7,-50,13v26H335V657H314c0,0,-29,0,-44,-14c0,0,-16,-14,-15,-38c0,0,-1,-26,15,-62L429,165L588,557c0,0,17,42,17,64c0,0,0,10,-6,17c0,0,-8,11,-21,15c0,0,-13,4,-52,4v26H750V657c0,0,-39,-3,-54,-16c0,0,-26,-23,-47,-76L409,-20Z" 
id="f2_2i"
transform="scale(0.001,-0.001)" />

<path d="M25,0V26c0,0,27,4,47,19c0,0,29,22,96,111L311,346L182,535c0,0,-55,81,-86,102c0,0,-30,20,-75,20v26H341V657c0,0,-30,0,-42,-10c0,0,-13,-11,-13,-28c0,0,0,-19,27,-56c0,0,8,-12,25,-37l48,-78l56,77c0,0,55,74,55,94c0,0,0,16,0,27c0,0,0,11,0,11v26H674V657c0,0,-37,-2,-64,-20c0,0,-37,-26,-100,-111L416,402L587,156c0,0,63,-91,89,-109c0,0,27,-18,70,-21V0H423V26c0,0,34,0,53,15c0,0,14,11,14,28c0,0,0,17,-48,87L341,302L232,157c0,0,-50,-69,-50,-82c0,0,0,-18,17,-32c0,0,17,-15,50,-17V0Z" 
id="f2_2k"
transform="scale(0.001,-0.001)" />

<path d="M27,354v62H831V354Zm0,243v62H831V597Z" 
id="f2_x"
transform="scale(0.001,-0.001)" />

<path d="M290,-283c0,0,107,0,183,37c0,0,76,36,76,93c0,0,0,29,-28,55c0,0,-28,27,-109,43c0,0,-44,9,-232,55c0,0,-60,-27,-91,-70c0,0,-31,-43,-31,-85c0,0,0,-49,44,-81c0,0,65,-47,188,-47Zm53,531c0,0,39,0,76,22c0,0,37,22,63,60c0,0,25,38,40,96c0,0,15,59,15,85c0,0,0,60,-33,94c0,0,-33,34,-87,34c0,0,-85,0,-139,-84c0,0,-55,-85,-55,-176c0,0,0,-58,35,-94c0,0,35,-37,85,-37ZM269,-328c0,0,-92,0,-168,21c0,0,-76,22,-108,60c0,0,-33,37,-33,76c0,0,0,32,21,67c0,0,21,35,53,57c0,0,20,14,114,66c0,0,-35,27,-35,59c0,0,0,30,31,63c0,0,30,34,127,74c0,0,-82,16,-130,69c0,0,-48,53,-48,118c0,0,0,106,93,189c0,0,93,84,247,84c0,0,56,0,92,-11c0,0,36,-12,70,-35H796L774,551H650c0,0,14,-40,14,-75c0,0,0,-99,-84,-176c0,0,-84,-77,-231,-85c0,0,-79,-24,-118,-57c0,0,-15,-12,-15,-25c0,0,0,-14,13,-27c0,0,14,-12,68,-25L442,48c0,0,120,-28,159,-66c0,0,38,-39,38,-91c0,0,0,-61,-46,-111c0,0,-45,-51,-132,-80c0,0,-87,-28,-192,-28Z" 
id="f3_23"
transform="scale(0.001,-0.001)" />

<path d="M474,-326c0,0,-112,57,-188,133c0,0,-107,108,-165,254c0,0,-58,147,-58,305c0,0,0,231,114,421c0,0,114,191,297,273v-31c0,0,-92,-51,-151,-139c0,0,-59,-88,-88,-223c0,0,-30,-135,-30,-281c0,0,0,-160,25,-290c0,0,20,-102,47,-164c0,0,28,-62,75,-120c0,0,47,-57,122,-109v-29Z" 
id="f2_c"
transform="scale(0.001,-0.001)" />

<path d="M35,-326v29c0,0,92,51,151,139c0,0,60,87,89,221c0,0,28,136,28,282c0,0,0,159,-24,290c0,0,-19,103,-47,165c0,0,-28,62,-75,119c0,0,-46,57,-122,110v31c0,0,113,-56,188,-132c0,0,107,-109,165,-255c0,0,58,-147,58,-306c0,0,0,-231,-114,-420c0,0,-113,-191,-297,-273Z" 
id="f2_d"
transform="scale(0.001,-0.001)" />

<path d="M82,-253v33c0,0,77,25,119,78c0,0,42,54,42,114c0,0,0,14,-7,23c0,0,-5,6,-11,6c0,0,-8,0,-35,-14c0,0,-14,-7,-28,-7c0,0,-37,0,-58,21C104,1,82,23,82,61c0,0,0,36,28,62c0,0,28,27,68,27c0,0,49,0,88,-43c0,0,38,-43,38,-113c0,0,0,-77,-53,-143c0,0,-53,-66,-169,-104Z" 
id="f2_g"
transform="scale(0.001,-0.001)" />

<path d="M-12,338v55H777V338Z" 
id="f2_4y"
transform="scale(0.001,-0.001)" />

<path d="M55,0V26c0,0,50,0,67,10c0,0,17,10,27,32c0,0,10,23,10,86V418c0,0,0,111,-6,144c0,0,-6,24,-17,33c0,0,-11,10,-30,10c0,0,-21,0,-51,-11L45,620l206,83h33V154c0,0,0,-64,9,-85c0,0,9,-22,27,-32c0,0,19,-11,67,-11V0ZM222,909c0,0,-32,0,-54,23c0,0,-22,22,-22,53c0,0,0,32,22,54c0,0,22,22,54,22c0,0,31,0,53,-22c0,0,22,-22,22,-54c0,0,0,-31,-22,-53c0,0,-22,-23,-53,-23Z" 
id="f2_25"
transform="scale(0.001,-0.001)" />

<path d="M312,-20c0,0,-62,0,-143,22c0,0,-25,8,-40,8c0,0,-18,0,-27,-19H77V234h25c0,0,21,-105,80,-158c0,0,59,-53,132,-53c0,0,51,0,84,31c0,0,32,30,32,72c0,0,0,52,-36,87c0,0,-36,35,-144,88c0,0,-109,54,-142,97c0,0,-34,43,-34,107c0,0,0,85,58,141c0,0,58,57,150,57c0,0,40,0,97,-17c0,0,38,-11,51,-11c0,0,12,0,19,5c0,0,7,5,15,23h25V470H464c0,0,-28,110,-72,149c0,0,-45,40,-113,40c0,0,-53,0,-85,-28c0,0,-32,-27,-32,-61c0,0,0,-41,24,-71c0,0,23,-31,94,-65L389,381c0,0,152,-74,152,-194c0,0,0,-94,-71,-151c0,0,-70,-56,-158,-56Z" 
id="f2_2f"
transform="scale(0.001,-0.001)" />

<path d="M336,-20L117,554c0,0,-21,55,-42,74c0,0,-21,19,-66,29v26H296V657c0,0,-40,-3,-52,-14c0,0,-13,-12,-13,-33c0,0,0,-23,13,-56L390,162L537,481L498,581c0,0,-18,46,-47,63c0,0,-17,11,-61,13v26H716V657c0,0,-54,-2,-77,-20c0,0,-15,-12,-15,-39c0,0,0,-15,6,-30L785,177L929,554c0,0,15,40,15,65c0,0,0,14,-15,25c0,0,-14,12,-57,13v26h216V657c0,0,-65,-10,-95,-89L764,-20H733L563,415L363,-20Z" 
id="f2_2j"
transform="scale(0.001,-0.001)" />

<path d="M28,140v64L719,504L28,806v68L830,524V488L28,140Z" 
id="f2_y"
transform="scale(0.001,-0.001)" />

<path d="M411,-239c0,0,134,0,198,48c0,0,64,47,64,100c0,0,0,39,-38,55c0,0,-39,16,-154,19c0,0,-167,5,-258,17c0,0,-35,-37,-53,-70c0,0,-17,-32,-17,-60c0,0,0,-36,43,-62c0,0,74,-47,215,-47ZM380,257c0,0,56,0,93,43c0,0,36,42,36,133c0,0,0,118,-51,185c0,0,-38,49,-98,49c0,0,-55,0,-92,-44c0,0,-37,-44,-37,-135c0,0,0,-117,50,-182c0,0,39,-49,99,-49ZM345,-328c0,0,-144,0,-243,64c0,0,-56,38,-56,78c0,0,0,18,8,36c0,0,13,27,52,76c0,0,5,7,76,80c0,0,-39,23,-55,41c0,0,-16,19,-16,42c0,0,0,26,22,61c0,0,21,35,98,100c0,0,-63,30,-97,85c0,0,-33,55,-33,121c0,0,0,101,76,174c0,0,77,73,196,73c0,0,98,0,170,-48H688c0,0,32,0,37,-2c0,0,6,-2,8,-6c0,0,4,-7,4,-24c0,0,0,-20,-4,-27c0,0,-2,-4,-7,-6c0,0,-6,-2,-38,-2H599c0,0,41,-54,41,-137c0,0,0,-96,-73,-163c0,0,-73,-68,-196,-68c0,0,-51,0,-104,15c0,0,-33,-28,-44,-49c0,0,-12,-22,-12,-37c0,0,0,-12,13,-24c0,0,12,-12,48,-17c0,0,21,-4,104,-6c0,0,154,-4,199,-11c0,0,70,-10,111,-51c0,0,42,-41,42,-102c0,0,0,-84,-79,-158c0,0,-117,-108,-304,-108Z" 
id="f2_23"
transform="scale(0.001,-0.001)" />

<path d="M678,393L506,802L330,393ZM11,0V27c0,0,63,12,82,30c0,0,38,35,84,145l356,832h27L912,193c0,0,43,-101,77,-132c0,0,35,-30,97,-34V0H687V27c0,0,60,3,82,21c0,0,21,17,21,41c0,0,0,33,-30,104L700,338H307L239,179c0,0,-26,-59,-26,-88c0,0,0,-23,22,-41c0,0,22,-17,95,-23V0Z" 
id="f2_11"
transform="scale(0.001,-0.001)" />

<path d="M120,-328V1061h62V-328Z" 
id="f2_2o"
transform="scale(0.001,-0.001)" />

<path d="M0,214v74H784V214ZM0,494v72H784V494Z" 
id="f4_x"
transform="scale(0.001,-0.001)" />

<path d="M238,-163c0,0,-39,0,-63,25c0,0,-25,26,-25,65c0,0,0,34,19,54c0,0,19,19,48,19c0,0,30,0,51,-23c0,0,22,-24,37,-24c0,0,12,0,21,11c0,0,8,10,8,35c0,0,0,30,-7,88c0,0,-27,235,-27,620c0,0,13,411,17,446c0,0,17,139,60,188c0,0,43,48,98,48c0,0,37,0,65,-25c0,0,28,-25,28,-54c0,0,0,-35,-19,-57c0,0,-20,-21,-49,-21c0,0,-26,0,-57,27c0,0,-17,15,-30,15c0,0,-12,0,-21,-11c0,0,-8,-11,-8,-37c0,0,0,-31,6,-108c0,0,28,-306,28,-496c0,0,0,-50,-12,-439c0,0,-6,-219,-67,-296c0,0,-41,-50,-101,-50Z" 
id="f4_50"
transform="scale(0.001,-0.001)" />

<path d="M120,-328V1061h62V-328Z" 
id="f3_2o"
transform="scale(0.001,-0.001)" />

<path d="M254,-20c0,0,-128,0,-187,41C67,21,24,51,24,98c0,0,0,34,25,59c0,0,25,24,57,24c0,0,25,0,46,-11c0,0,12,-6,85,-65c0,0,73,-59,136,-59c0,0,56,0,95,44c0,0,40,43,40,110c0,0,0,102,-72,189c0,0,-72,86,-210,118v27c0,0,85,24,118,46c0,0,33,21,57,64c0,0,24,44,24,89c0,0,0,61,-46,106c0,0,-45,44,-112,44c0,0,-105,0,-178,-110l-27,9c0,0,53,125,137,188c0,0,84,63,187,63c0,0,105,0,174,-65c0,0,68,-64,68,-150c0,0,0,-56,-32,-107c0,0,-32,-52,-100,-92c0,0,88,-42,134,-105c0,0,46,-62,46,-156c0,0,0,-158,-115,-269C561,89,447,-20,254,-20Z" 
id="f1_n"
transform="scale(0.001,-0.001)" />

<path d="M38,0V27H74c0,0,63,0,91,37c0,0,18,24,18,115V833c0,0,0,77,-10,102c0,0,-7,18,-30,32c0,0,-33,18,-69,18H38v27H470V985H434c0,0,-62,0,-90,-37c0,0,-18,-24,-18,-115V179c0,0,0,-77,9,-102c0,0,8,-18,31,-32c0,0,32,-18,68,-18h36V0Z" 
id="f2_19"
transform="scale(0.001,-0.001)" />

<path d="M63,0V26H93c0,0,30,0,54,15c0,0,25,15,34,41c0,0,10,25,10,99V630H58v53H191v45c0,0,0,102,33,173c0,0,32,71,100,114c0,0,68,44,152,44c0,0,79,0,145,-51c0,0,43,-33,43,-75c0,0,0,-22,-19,-42c0,0,-20,-20,-42,-20c0,0,-17,0,-36,12c0,0,-19,13,-47,53c0,0,-28,41,-51,55c0,0,-23,14,-51,14c0,0,-35,0,-58,-18c0,0,-24,-18,-35,-57c0,0,-10,-38,-10,-197V683H491V630H315V181c0,0,0,-96,21,-122c0,0,27,-33,73,-33h62V0Z" 
id="f2_22"
transform="scale(0.001,-0.001)" />

<path d="M-162,-328c0,0,-45,0,-77,26c0,0,-23,19,-23,49c0,0,0,23,19,41c0,0,19,17,47,17c0,0,20,0,34,-12c0,0,13,-13,13,-29c0,0,0,-17,-15,-31c0,0,-12,-10,-12,-16c0,0,0,-6,5,-10c0,0,7,-5,21,-5c0,0,32,0,67,20c0,0,36,20,63,60c0,0,27,40,52,115c0,0,10,32,58,205L233,608H89l10,49c0,0,69,0,96,9c0,0,28,8,50,32c0,0,23,25,55,91c0,0,42,90,81,139c0,0,53,66,112,100c0,0,58,33,110,33c0,0,54,0,88,-29c0,0,33,-28,33,-62c0,0,0,-26,-18,-44c0,0,-17,-18,-44,-18c0,0,-23,0,-37,14c0,0,-15,13,-15,32c0,0,0,12,10,29c0,0,10,18,10,24c0,0,0,10,-6,15c0,0,-9,8,-27,8c0,0,-43,0,-77,-31c0,0,-46,-41,-83,-127c0,0,-18,-45,-74,-215H473L460,608H350L260,279C260,279,201,65,145,-51c0,0,-79,-166,-169,-229c0,0,-69,-48,-138,-48Z" 
id="f3_22"
transform="scale(0.001,-0.001)" />

<path d="M58,0V26c0,0,47,0,64,10c0,0,18,10,28,32c0,0,9,23,9,86V775c0,0,0,116,-5,142c0,0,-5,27,-17,37c0,0,-11,9,-29,9c0,0,-20,0,-49,-12L46,978l204,83h34V154c0,0,0,-64,9,-85c0,0,9,-21,29,-32c0,0,19,-11,72,-11V0Z" 
id="f2_28"
transform="scale(0.001,-0.001)" />

<path d="M23,0V26c0,0,47,0,66,10c0,0,19,11,28,33c0,0,10,22,10,85V416c0,0,0,112,-7,145c0,0,-5,25,-16,34c0,0,-11,10,-31,10c0,0,-21,0,-50,-11L12,620l207,83h32V557c0,0,75,75,88,86c0,0,34,29,72,44c0,0,39,16,77,16c0,0,64,0,110,-37c0,0,47,-38,62,-109c0,0,77,90,130,118c0,0,53,28,109,28c0,0,54,0,96,-28c0,0,42,-28,67,-91c0,0,16,-43,16,-136V154c0,0,0,-64,10,-88c0,0,8,-16,28,-28c0,0,20,-12,65,-12V0H844V26h14c0,0,44,0,69,18c0,0,17,12,24,38c0,0,3,13,3,72V448c0,0,0,83,-20,117c0,0,-29,48,-93,48c0,0,-39,0,-79,-20c0,0,-40,-19,-97,-73l-1,-8l2,-32V154c0,0,0,-70,8,-87c0,0,7,-17,29,-29c0,0,21,-12,73,-12V0H431V26c0,0,57,0,78,14c0,0,21,13,29,40c0,0,4,13,4,74V448c0,0,0,83,-25,120c0,0,-33,48,-91,48c0,0,-40,0,-80,-22c0,0,-61,-33,-95,-74V154c0,0,0,-67,10,-87c0,0,9,-20,27,-30c0,0,18,-11,74,-11V0Z" 
id="f2_29"
transform="scale(0.001,-0.001)" />

<path d="M0,356v74H784V356Z" 
id="f4_h"
transform="scale(0.001,-0.001)" />

<path d="M191,-20c0,0,-34,0,-58,24c0,0,-24,24,-24,58c0,0,0,35,24,59c0,0,24,24,58,24c0,0,35,0,59,-24c0,0,24,-25,24,-59c0,0,0,-34,-24,-58c0,0,-25,-24,-59,-24Z" 
id="f2_i"
transform="scale(0.001,-0.001)" />

<path d="M398,24c0,0,74,0,120,58c0,0,61,76,61,214c0,0,0,156,-69,240c0,0,-47,59,-113,59c0,0,-36,0,-71,-18c0,0,-27,-14,-88,-81V242c0,0,0,-83,6,-109c0,0,11,-43,51,-76c0,0,41,-33,103,-33ZM-4,-326v27H15c5,0,42,0,69,16c0,0,14,8,22,26c0,0,7,19,7,94V481c0,0,0,67,-6,85c0,0,-5,18,-18,27c0,0,-13,9,-36,9c0,0,-18,0,-45,-10L0,615l209,85h29V540c0,0,53,91,106,127c0,0,53,36,112,36c0,0,103,0,172,-80c0,0,84,-99,84,-257c0,0,0,-176,-102,-292c0,0,-83,-94,-210,-94c0,0,-55,0,-95,16c0,0,-30,10,-67,44V-167c0,0,0,-71,8,-90c0,0,9,-20,30,-31c0,0,21,-11,77,-11v-27Z" 
id="f2_2c"
transform="scale(0.001,-0.001)" />

<path d="M404,381V781L110,381ZM404,0V227H38V381l480,652h91V381h93V227H609V0Z" 
id="f1_o"
transform="scale(0.001,-0.001)" />

<path d="M355,0V355H0v72H355V784h72V427H782V355H427V0Z" 
id="f4_f"
transform="scale(0.001,-0.001)" />

<path d="M589,371L453,782h-1L317,371ZM106,-4c0,0,-35,0,-54,2C52,-2,32,0,25,8c0,0,-7,9,-5,24c0,0,2,16,11,42L329,931c0,0,4,13,10,21c0,0,6,7,19,12c0,0,13,4,36,5c0,0,23,1,61,1c0,0,44,0,71,-1c0,0,26,-1,40,-5c0,0,15,-5,21,-13c0,0,6,-8,11,-22L896,73c0,0,9,-27,11,-43c0,0,3,-15,-6,-23c0,0,-8,-7,-29,-9c0,0,-21,-2,-57,-2c0,0,-38,0,-59,1c0,0,-22,1,-33,4c0,0,-11,3,-16,9c0,0,-4,6,-7,16L635,220H272L211,31c0,0,-2,-11,-7,-18c0,0,-5,-7,-16,-11c0,0,-11,-3,-31,-4c0,0,-19,-2,-51,-2Z" 
id="f5_5"
transform="scale(0.001,-0.001)" />

<path d="M402,542c0,0,41,0,72,10c0,0,32,10,52,28c0,0,21,18,32,44c0,0,10,25,10,56c0,0,0,48,-21,81c0,0,-22,33,-71,46c0,0,-15,4,-34,6c0,0,-19,2,-52,2H302V542ZM203,-4c0,0,-28,0,-47,2c0,0,-19,2,-30,5c0,0,-11,4,-16,10c0,0,-4,6,-4,13V903c0,0,0,33,16,48c0,0,17,14,42,14H414c0,0,38,0,62,-1c0,0,25,-2,45,-4c0,0,58,-8,105,-28c0,0,46,-21,79,-53c0,0,32,-32,49,-77c0,0,17,-44,17,-101c0,0,0,-49,-12,-89c0,0,-12,-40,-36,-71c0,0,-24,-31,-59,-54c0,0,-35,-23,-80,-38c0,0,22,-10,41,-25c0,0,19,-15,36,-36c0,0,17,-22,31,-49c0,0,15,-27,30,-61L803,87c0,0,11,-28,15,-41c0,0,3,-14,3,-21c0,0,0,-8,-3,-14c0,0,-3,-5,-14,-9c0,0,-11,-3,-33,-4c0,0,-21,-2,-59,-2c0,0,-31,0,-50,2c0,0,-18,1,-29,4c0,0,-11,4,-15,11c0,0,-5,6,-8,15L524,244c0,0,-16,37,-31,65c0,0,-14,28,-33,48c0,0,-18,19,-42,28c0,0,-24,10,-55,10H302V27c0,0,0,-8,-5,-14c0,0,-5,-6,-16,-10c0,0,-11,-3,-30,-5c0,0,-18,-2,-48,-2Z" 
id="f5_2j"
transform="scale(0.001,-0.001)" />

<path d="M164,0c0,0,-25,0,-42,15c0,0,-16,14,-16,47V903c0,0,0,33,16,48c0,0,17,14,42,14H645c0,0,7,0,12,-4c0,0,5,-3,9,-13c0,0,4,-9,6,-24c0,0,2,-14,2,-36c0,0,0,-21,-2,-36c0,0,-2,-14,-6,-23c0,0,-4,-9,-9,-13c0,0,-5,-4,-12,-4H301V576H593c0,0,6,0,12,-4c0,0,6,-4,9,-13c0,0,4,-8,6,-23c0,0,2,-14,2,-35c0,0,0,-22,-2,-36c0,0,-2,-14,-6,-23c0,0,-3,-8,-9,-12c0,0,-6,-4,-12,-4H301V154H649c0,0,6,0,12,-5c0,0,5,-4,9,-13c0,0,4,-9,6,-23c0,0,2,-15,2,-36c0,0,0,-22,-2,-36c0,0,-2,-15,-6,-24c0,0,-4,-9,-9,-13c0,0,-6,-4,-12,-4Z" 
id="f5_t"
transform="scale(0.001,-0.001)" />

<path d="M493,-17c0,0,-91,0,-163,22c0,0,-73,23,-122,69c0,0,-50,46,-77,116c0,0,-26,69,-26,161V939c0,0,0,7,4,13c0,0,5,6,16,10c0,0,12,3,30,6c0,0,19,2,48,2c0,0,29,0,47,-2c0,0,19,-3,30,-6c0,0,11,-4,16,-10c0,0,5,-6,5,-13V368c0,0,0,-57,14,-99c0,0,14,-42,41,-70c0,0,26,-28,63,-41c0,0,37,-14,83,-14c0,0,46,0,82,14c0,0,37,14,62,41c0,0,26,28,39,68c0,0,14,39,14,90V939c0,0,0,7,5,13c0,0,4,6,15,10c0,0,11,3,30,6c0,0,19,2,48,2c0,0,28,0,46,-2c0,0,18,-3,30,-6c0,0,11,-4,15,-10c0,0,5,-6,5,-13V359c0,0,0,-88,-26,-159c0,0,-26,-70,-77,-118C790,82,739,33,665,8c0,0,-75,-25,-172,-25Z" 
id="f5_2x"
transform="scale(0.001,-0.001)" />

<path d="M193,-4c0,0,-26,0,-43,2c0,0,-18,2,-27,6c0,0,-10,4,-14,10c0,0,-3,6,-3,13V895c0,0,0,35,20,53c0,0,21,17,50,17H282c0,0,28,0,47,-5c0,0,20,-5,35,-16c0,0,15,-11,29,-31c0,0,13,-20,27,-49L608,511c0,0,17,-32,33,-63c0,0,16,-31,31,-62c0,0,14,-31,29,-60c0,0,14,-30,27,-60h1c0,0,-2,52,-3,109c0,0,-1,57,-1,108V936c0,0,0,7,4,13c0,0,5,6,15,11c0,0,10,4,28,6c0,0,17,2,44,2c0,0,25,0,42,-2c0,0,17,-2,27,-6c0,0,9,-5,13,-11c0,0,4,-6,4,-13V68c0,0,0,-17,-6,-30c0,0,-6,-14,-17,-23C879,15,869,6,856,2c0,0,-14,-3,-28,-3H744c0,0,-26,0,-45,4c0,0,-19,5,-35,19c0,0,-16,14,-31,38c0,0,-15,23,-34,60L359,572c0,0,-21,40,-43,86c0,0,-21,47,-38,91h-2c0,0,3,-54,5,-107c0,0,2,-53,2,-110V27c0,0,0,-7,-5,-13c0,0,-4,-6,-14,-10c0,0,-10,-4,-27,-6c0,0,-17,-2,-44,-2Z" 
id="f5_1y"
transform="scale(0.001,-0.001)" />

<path d="M403,155c0,0,81,0,136,21c0,0,55,21,92,63c0,0,37,42,55,105c0,0,18,63,18,146c0,0,0,69,-16,128c0,0,-16,59,-51,102c0,0,-36,43,-91,67c0,0,-56,25,-146,25H301V155ZM164,0c0,0,-25,0,-42,15c0,0,-16,14,-16,47V903c0,0,0,33,16,48c0,0,17,14,42,14H411c0,0,129,0,219,-30c0,0,90,-30,152,-90c0,0,61,-59,93,-146c0,0,32,-87,32,-202c0,0,0,-133,-34,-227c0,0,-35,-95,-100,-154c0,0,-65,-60,-158,-88C615,28,523,0,394,0Z" 
id="f5_p"
transform="scale(0.001,-0.001)" />

<path d="M378,-4c0,0,-28,0,-47,2c0,0,-19,2,-31,5c0,0,-11,4,-16,10c0,0,-4,6,-4,13V805H38c0,0,-8,0,-13,4c0,0,-5,5,-9,14c0,0,-3,9,-5,25c0,0,-2,15,-2,37c0,0,0,22,2,38c0,0,2,15,5,25c0,0,4,9,9,13c0,0,5,4,13,4H718c0,0,7,0,12,-4c0,0,6,-4,10,-13c0,0,3,-10,5,-25c0,0,2,-16,2,-38c0,0,0,-22,-2,-37c0,0,-2,-16,-5,-25c0,0,-4,-9,-10,-14c0,0,-5,-4,-12,-4H476V26c0,0,0,-7,-5,-13c0,0,-5,-6,-16,-10c0,0,-11,-3,-30,-5c0,0,-19,-2,-47,-2Z" 
id="f5_2t"
transform="scale(0.001,-0.001)" />

<path d="M204,-4c0,0,-28,0,-47,2c0,0,-19,2,-30,5c0,0,-12,4,-17,10c0,0,-4,6,-4,13V939c0,0,0,7,4,13c0,0,5,6,17,10c0,0,11,3,30,6c0,0,19,2,47,2c0,0,29,0,48,-2c0,0,19,-3,30,-6c0,0,11,-4,16,-10c0,0,4,-6,4,-13V584H663V939c0,0,0,7,5,13c0,0,5,6,15,10c0,0,11,3,30,6c0,0,19,2,49,2c0,0,28,0,47,-2c0,0,18,-3,30,-6c0,0,11,-4,16,-10c0,0,4,-6,4,-13V26c0,0,0,-7,-4,-13c0,0,-5,-6,-16,-10c0,0,-12,-3,-30,-5c0,0,-19,-2,-47,-2c0,0,-30,0,-49,2c0,0,-19,2,-30,5c0,0,-10,4,-15,10c0,0,-5,6,-5,13V417H302V26c0,0,0,-7,-4,-13c0,0,-5,-6,-16,-10c0,0,-11,-3,-30,-5c0,0,-19,-2,-48,-2Z" 
id="f5_19"
transform="scale(0.001,-0.001)" />

<path d="M489,-15c0,0,-99,0,-179,30c0,0,-80,30,-136,91c0,0,-56,61,-85,152c0,0,-30,91,-30,212c0,0,0,123,32,218c0,0,33,96,92,161c0,0,59,65,142,98c0,0,82,34,181,34c0,0,40,0,78,-7c0,0,37,-7,69,-18c0,0,31,-11,57,-25c0,0,25,-14,35,-24c0,0,10,-10,14,-17c0,0,4,-7,6,-17c0,0,2,-11,3,-25c0,0,2,-14,2,-35c0,0,0,-22,-2,-38c0,0,-1,-15,-5,-25c0,0,-4,-10,-9,-14c0,0,-5,-5,-12,-5c0,0,-11,0,-28,13c0,0,-18,13,-45,29c0,0,-27,16,-65,29c0,0,-37,13,-89,13c0,0,-58,0,-103,-23c0,0,-45,-23,-77,-67c0,0,-31,-44,-48,-106c0,0,-16,-61,-16,-139c0,0,0,-85,17,-147c0,0,18,-62,50,-103c0,0,33,-40,79,-60c0,0,45,-19,103,-19c0,0,52,0,90,12c0,0,38,12,65,27c0,0,27,15,45,27c0,0,17,12,27,12c0,0,8,0,12,-3c0,0,4,-3,7,-12c0,0,3,-9,5,-25c0,0,1,-16,1,-43c0,0,0,-18,-1,-31c0,0,-1,-14,-3,-23c0,0,-2,-9,-6,-16c0,0,-4,-7,-12,-15c0,0,-8,-9,-32,-22c0,0,-23,-14,-57,-26C661,13,627,1,583,-6c0,0,-43,-9,-94,-9Z" 
id="f5_j"
transform="scale(0.001,-0.001)" />

<path d="M460,-4c0,0,-30,0,-51,0c0,0,-22,1,-37,2c0,0,-15,2,-24,4c0,0,-9,3,-16,7c0,0,-6,5,-9,11c0,0,-4,6,-7,16L29,892c0,0,-9,27,-11,43c0,0,-2,16,7,23c0,0,10,8,32,10c0,0,22,2,63,2c0,0,34,0,53,-2c0,0,20,-1,30,-5c0,0,10,-4,15,-11c0,0,4,-7,7,-19L461,188h1L693,930c0,0,3,12,7,20c0,0,5,8,15,12c0,0,11,5,31,6c0,0,20,2,55,2c0,0,35,0,54,-2c0,0,19,-3,26,-11c0,0,7,-9,4,-24c0,0,-2,-16,-11,-42L586,34c0,0,-4,-13,-10,-21c0,0,-6,-7,-19,-12c0,0,-14,-3,-37,-4c0,0,-23,-1,-60,-1Z" 
id="f5_38"
transform="scale(0.001,-0.001)" />

<path d="M320,-17c0,0,-50,0,-93,9c0,0,-43,8,-76,19c0,0,-32,11,-54,24C97,35,75,48,65,58c0,0,-10,9,-14,28c0,0,-4,18,-4,52c0,0,0,23,1,39c0,0,2,15,5,25c0,0,4,10,9,14c0,0,6,4,13,4c0,0,11,0,30,-12c0,0,19,-13,49,-28c0,0,30,-15,71,-27c0,0,42,-12,96,-12c0,0,36,0,64,8c0,0,29,9,49,25c0,0,19,15,30,38c0,0,10,23,10,52c0,0,0,33,-18,56c0,0,-18,24,-46,42c0,0,-29,18,-66,34c0,0,-36,16,-75,34c0,0,-39,18,-76,41c0,0,-36,23,-65,54c0,0,-29,32,-47,75c0,0,-17,44,-17,104c0,0,0,70,25,122c0,0,26,53,70,88c0,0,43,34,103,51c0,0,59,18,125,18c0,0,35,0,69,-6c0,0,34,-5,64,-14c0,0,30,-9,53,-20c0,0,23,-11,31,-18c0,0,7,-8,10,-13c0,0,3,-5,4,-14c0,0,2,-8,3,-21c0,0,1,-13,1,-33c0,0,0,-21,-1,-36c0,0,-1,-15,-4,-25c0,0,-3,-9,-7,-14c0,0,-5,-4,-14,-4c0,0,-8,0,-26,10c0,0,-18,10,-44,23c0,0,-26,12,-60,22c0,0,-34,10,-75,10c0,0,-32,0,-56,-8c0,0,-24,-8,-40,-21c0,0,-16,-14,-24,-34c0,0,-8,-19,-8,-41c0,0,0,-32,18,-56c0,0,17,-23,46,-42c0,0,30,-18,67,-34c0,0,38,-16,76,-34c0,0,39,-18,76,-41c0,0,38,-22,67,-54c0,0,29,-32,47,-75c0,0,18,-43,18,-101c0,0,0,-76,-29,-133c0,0,-28,-58,-77,-96C572,60,524,21,459,2c0,0,-65,-19,-139,-19Z" 
id="f5_2n"
transform="scale(0.001,-0.001)" />

<path d="M398,134c0,0,34,0,60,12c0,0,25,13,43,36c0,0,17,23,26,54c0,0,9,31,9,68c0,0,0,38,-7,66c0,0,-7,29,-22,49c0,0,-15,20,-39,30c0,0,-25,10,-60,10c0,0,-21,0,-41,-4c0,0,-20,-4,-40,-10c0,0,-19,-7,-37,-16c0,0,-18,-10,-33,-20c0,0,0,-80,9,-133c0,0,9,-54,26,-85c0,0,18,-31,44,-44c0,0,27,-13,62,-13ZM387,-16c0,0,-67,0,-117,15c0,0,-50,14,-86,43c0,0,-37,29,-60,70c0,0,-23,41,-37,92c0,0,-14,52,-19,112c0,0,-5,61,-5,129c0,0,0,56,5,118c0,0,6,62,22,122c0,0,16,59,45,114c0,0,29,54,75,94c0,0,46,41,111,65c0,0,65,24,155,24c0,0,28,0,57,-4c0,0,29,-3,53,-8c0,0,25,-5,42,-12c0,0,17,-7,23,-12c0,0,5,-5,8,-11c0,0,3,-5,5,-13c0,0,2,-7,3,-17c0,0,1,-11,1,-25c0,0,0,-24,-1,-39c0,0,-2,-15,-5,-24c0,0,-3,-8,-8,-12c0,0,-5,-4,-12,-4c0,0,-9,0,-24,5c0,0,-14,5,-34,11c0,0,-20,6,-47,10c0,0,-27,5,-63,5c0,0,-61,0,-102,-23c0,0,-42,-22,-68,-60c0,0,-26,-39,-38,-90c0,0,-12,-50,-13,-107c0,0,16,10,38,21c0,0,21,10,46,18c0,0,25,7,54,12c0,0,29,5,62,5c0,0,73,0,125,-20c0,0,52,-20,86,-58c0,0,33,-37,48,-90c0,0,16,-53,16,-118c0,0,0,-73,-22,-135c0,0,-23,-62,-66,-108C640,79,597,34,533,9c0,0,-63,-25,-146,-25Z" 
id="f5_s3"
transform="scale(0.001,-0.001)" />

<path d="M204,-9c0,0,-63,0,-87,23c0,0,-24,23,-24,89c0,0,0,70,24,94c0,0,25,24,88,24c0,0,62,0,86,-24c0,0,24,-23,24,-90c0,0,0,-69,-24,-93c0,0,-25,-23,-87,-23Z" 
id="f5_nt"
transform="scale(0.001,-0.001)" />

<path d="M514,145c0,0,72,0,121,27c0,0,48,26,78,73c0,0,30,46,42,107c0,0,13,62,13,131c0,0,0,76,-12,139c0,0,-12,62,-41,106c0,0,-29,45,-76,69c0,0,-48,24,-120,24c0,0,-72,0,-120,-27c0,0,-49,-27,-79,-73c0,0,-29,-45,-42,-106c0,0,-12,-61,-12,-129c0,0,0,-79,12,-142c0,0,12,-63,40,-108c0,0,28,-44,76,-68c0,0,48,-23,120,-23ZM508,-17c0,0,-113,0,-196,29c0,0,-84,29,-140,90c0,0,-56,60,-84,154c0,0,-28,93,-28,221c0,0,0,117,29,210c0,0,30,94,89,160c0,0,59,65,146,101c0,0,87,35,202,35c0,0,110,0,194,-29c0,0,84,-30,140,-90c0,0,56,-60,85,-153c0,0,29,-92,29,-217c0,0,0,-120,-30,-215c0,0,-30,-95,-89,-161C855,118,796,52,709,17c0,0,-87,-34,-201,-34Z" 
id="f5_24"
transform="scale(0.001,-0.001)" />

<path d="M204,-4c0,0,-28,0,-47,2c0,0,-19,2,-31,6c0,0,-11,4,-16,10c0,0,-4,6,-4,14V903c0,0,0,33,16,48c0,0,17,14,42,14H618c0,0,7,0,12,-4c0,0,5,-4,9,-13c0,0,5,-10,6,-25c0,0,2,-16,2,-38c0,0,0,-23,-2,-38c0,0,-1,-15,-6,-24c0,0,-4,-9,-9,-14c0,0,-5,-4,-12,-4H302V545H599c0,0,6,0,12,-4c0,0,5,-4,9,-13c0,0,4,-9,6,-24c0,0,2,-15,2,-37c0,0,0,-22,-2,-37c0,0,-2,-15,-6,-25c0,0,-4,-10,-9,-14c0,0,-6,-4,-12,-4H302V28c0,0,0,-8,-4,-14c0,0,-5,-6,-16,-10c0,0,-12,-4,-30,-6c0,0,-19,-2,-48,-2Z" 
id="f5_13"
transform="scale(0.001,-0.001)" />

<path d="M390,486c0,0,47,0,79,13c0,0,31,12,51,35c0,0,20,23,31,55c0,0,10,31,10,69c0,0,0,50,-18,83c0,0,-17,33,-44,49c0,0,-26,15,-54,19c0,0,-29,5,-59,5H302V486ZM203,-4c0,0,-28,0,-47,2c0,0,-19,2,-30,5c0,0,-11,4,-16,10c0,0,-4,6,-4,13V895c0,0,0,35,18,53c0,0,18,17,48,17H400c0,0,34,0,65,-3c0,0,31,-2,74,-11c0,0,43,-8,88,-31c0,0,44,-24,75,-59c0,0,32,-36,48,-83c0,0,17,-47,17,-106c0,0,0,-82,-26,-144c0,0,-25,-63,-74,-106c0,0,-48,-43,-118,-65c0,0,-71,-23,-166,-23H302V26c0,0,0,-7,-5,-13c0,0,-5,-6,-16,-10c0,0,-11,-3,-30,-5c0,0,-18,-2,-48,-2Z" 
id="f5_2g"
transform="scale(0.001,-0.001)" />

<path d="M164,0c0,0,-25,0,-42,15c0,0,-16,14,-16,47V939c0,0,0,7,4,13c0,0,5,6,16,10c0,0,12,3,31,6c0,0,19,2,47,2c0,0,29,0,48,-2c0,0,18,-3,29,-6c0,0,11,-4,16,-10c0,0,5,-6,5,-13V162H606c0,0,7,0,13,-4c0,0,5,-4,9,-13c0,0,4,-10,6,-25c0,0,2,-15,2,-38c0,0,0,-22,-2,-37c0,0,-2,-16,-6,-26c0,0,-4,-10,-9,-15c0,0,-6,-4,-13,-4Z" 
id="f5_1r"
transform="scale(0.001,-0.001)" />

<path d="M547,-16c0,0,-115,0,-207,33c0,0,-91,33,-155,96c0,0,-63,63,-97,154c0,0,-33,91,-33,206c0,0,0,118,36,213c0,0,35,94,101,160c0,0,66,66,159,102c0,0,92,35,207,35c0,0,62,0,114,-9c0,0,51,-8,90,-21c0,0,38,-12,64,-26c0,0,25,-14,35,-25c0,0,10,-10,15,-29c0,0,4,-19,4,-57c0,0,0,-21,-2,-37c0,0,-2,-16,-5,-25c0,0,-3,-9,-8,-13c0,0,-5,-4,-12,-4c0,0,-10,0,-31,14c0,0,-22,13,-58,29c0,0,-35,15,-85,29c0,0,-50,13,-115,13c0,0,-71,0,-127,-24c0,0,-57,-24,-97,-69c0,0,-41,-44,-62,-107c0,0,-22,-62,-22,-138c0,0,0,-82,22,-146c0,0,22,-63,62,-105c0,0,39,-43,95,-65c0,0,56,-21,123,-21c0,0,33,0,65,7c0,0,32,8,60,23V401H500c0,0,-14,0,-21,17c0,0,-8,17,-8,57c0,0,0,21,2,35c0,0,2,14,6,23c0,0,3,8,9,12c0,0,5,5,12,5H826c0,0,12,0,21,-5c0,0,9,-4,16,-12c0,0,8,-8,11,-20c0,0,4,-11,4,-26V102c0,0,0,-22,-8,-39c0,0,-8,-17,-32,-27c0,0,-24,-9,-60,-20C778,16,742,6,704,-1c0,0,-39,-7,-78,-11c0,0,-39,-4,-79,-4Z" 
id="f5_14"
transform="scale(0.001,-0.001)" />

<path d="M204,-4c0,0,-28,0,-47,2c0,0,-19,2,-31,5c0,0,-11,4,-16,10c0,0,-4,6,-4,13V939c0,0,0,7,4,13c0,0,5,6,17,10c0,0,11,3,30,6c0,0,19,2,47,2c0,0,29,0,48,-2c0,0,18,-3,29,-6c0,0,11,-4,16,-10c0,0,5,-6,5,-13V26c0,0,0,-7,-5,-13c0,0,-5,-6,-16,-10c0,0,-11,-3,-29,-5c0,0,-19,-2,-48,-2Z" 
id="f5_1c"
transform="scale(0.001,-0.001)" />

<path d="M114,0V27h27c0,0,65,0,93,15c0,0,27,15,37,41c0,0,10,27,10,122V729c0,0,0,71,-7,89c0,0,-7,17,-25,30c0,0,-18,12,-42,12c0,0,-38,0,-93,-24l-13,26l372,171h25V205c0,0,0,-93,8,-119c0,0,8,-26,34,-42c0,0,27,-17,84,-17h23V0Z" 
id="f1_l"
transform="scale(0.001,-0.001)" />

<path d="M62,286V399H448V286Z" 
id="f2_h"
transform="scale(0.001,-0.001)" />

<path d="M379,29c0,0,41,0,84,37c0,0,43,36,65,121c0,0,34,128,34,362c0,0,0,173,-35,288c0,0,-27,86,-69,122c0,0,-31,25,-74,25c0,0,-51,0,-90,-46c0,0,-54,-62,-73,-195c0,0,-20,-132,-20,-261c0,0,0,-209,52,-341c0,0,42,-112,126,-112Zm-2,-46c0,0,-145,0,-241,170c0,0,-81,144,-81,347c0,0,0,173,52,298c0,0,52,125,139,186c0,0,67,49,139,49c0,0,116,0,208,-119c0,0,116,-147,116,-398c0,0,0,-176,-51,-299C658,217,608,94,529,38c0,0,-79,-55,-152,-55Z" 
id="f2_k"
transform="scale(0.001,-0.001)" />

<path d="M475,91L710,641H238L475,91ZM434,0L0,1012H78L206,716H742l126,296h76L512,0Z" 
id="f4_6"
transform="scale(0.001,-0.001)" />

<path d="M398,0C398,0,266,0,185,39c0,0,-82,39,-133,124C52,163,0,248,0,342c0,0,0,144,103,243c0,0,103,98,292,98H694V611H387c0,0,-99,0,-166,-32c0,0,-68,-32,-105,-88c0,0,-26,-40,-41,-113H694V304H75c0,0,30,-120,103,-176c0,0,73,-56,210,-56H694V0Z" 
id="f4_40"
transform="scale(0.001,-0.001)" />

<path d="M125,-302V1034H453V975H237V-243H453v-59Z" 
id="f2_1r"
transform="scale(0.001,-0.001)" />

<path d="M56,-302v60H272V975H56v59H383V-302Z" 
id="f2_1t"
transform="scale(0.001,-0.001)" />

<path d="M400,67c0,0,47,0,91,18c0,0,44,19,119,80c0,0,-98,134,-136,196c0,0,-38,62,-84,154c0,0,-89,-51,-135,-113c0,0,-45,-62,-45,-135c0,0,0,-80,52,-140c0,0,51,-60,138,-60Zm95,565c0,0,92,44,138,100c0,0,46,56,46,124c0,0,0,54,-34,89c0,0,-33,35,-82,35c0,0,-65,0,-99,-45c0,0,-33,-45,-33,-89c0,0,0,-36,13,-81c0,0,13,-45,51,-133ZM324,-22c0,0,-124,0,-196,64c0,0,-72,66,-72,157c0,0,0,90,65,180c0,0,65,90,244,186c0,0,-35,78,-48,127c0,0,-13,50,-13,96c0,0,0,127,94,194c0,0,73,52,167,52c0,0,89,0,145,-52c0,0,56,-53,56,-130c0,0,0,-79,-54,-138c0,0,-55,-60,-192,-131c0,0,95,-169,198,-309c0,0,131,157,131,264c0,0,0,34,-23,61c0,0,-16,20,-47,24v28h313V623c0,0,-65,-5,-96,-29c0,0,-30,-23,-96,-142c0,0,-65,-119,-147,-221c0,0,66,-78,118,-109c0,0,52,-31,105,-31c0,0,52,0,88,28c0,0,36,28,50,82l28,-20c0,0,-28,-105,-89,-155c0,0,-61,-48,-142,-48c0,0,-61,0,-124,32c0,0,-63,33,-138,112C649,122,556,40,482,8c0,0,-74,-30,-158,-30Z" 
id="f2_a"
transform="scale(0.001,-0.001)" />

<path d="M833,140L30,491v36L833,875V810L143,510L833,207V140Z" 
id="f2_w"
transform="scale(0.001,-0.001)" />


</defs>
</svg>